<?xml version="1.0" encoding="UTF-8"?> <svg xmlns="http://www.w3.org/2000/svg" xmlns:xlink="http://www.w3.org/1999/xlink" width="3000" zoomAndPan="magnify" viewBox="0 0 2250 749.999995" height="1000" preserveAspectRatio="xMidYMid meet" version="1.0"><defs><clipPath id="775d4766dd"><path d="M 0 260.15625 L 2250 260.15625 L 2250 489.65625 L 0 489.65625 Z M 0 260.15625 " clip-rule="nonzero"></path></clipPath></defs><path fill="#ae0403" d="M 176.371094 343.851562 L 145.058594 343.851562 L 145.058594 359.425781 L 129.402344 359.425781 L 129.402344 390.574219 L 145.058594 390.574219 L 145.058594 406.148438 L 176.371094 406.148438 L 176.371094 390.574219 L 192.03125 390.574219 L 192.03125 359.425781 L 176.371094 359.425781 Z M 176.371094 343.851562 " fill-opacity="1" fill-rule="nonzero"></path><path fill="#ae0403" d="M 497.804688 343.851562 L 466.492188 343.851562 L 466.492188 359.425781 L 450.835938 359.425781 L 450.835938 390.574219 L 466.492188 390.574219 L 466.492188 406.148438 L 497.804688 406.148438 L 497.804688 390.574219 L 513.460938 390.574219 L 513.460938 359.425781 L 497.804688 359.425781 Z M 497.804688 343.851562 " fill-opacity="1" fill-rule="nonzero"></path><path fill="#ae0403" d="M 819.238281 343.851562 L 787.921875 343.851562 L 787.921875 359.425781 L 772.265625 359.425781 L 772.265625 390.574219 L 787.921875 390.574219 L 787.921875 406.148438 L 819.238281 406.148438 L 819.238281 390.574219 L 834.894531 390.574219 L 834.894531 359.425781 L 819.238281 359.425781 Z M 819.238281 343.851562 " fill-opacity="1" fill-rule="nonzero"></path><path fill="#ae0403" d="M 1140.667969 343.851562 L 1109.355469 343.851562 L 1109.355469 359.425781 L 1093.699219 359.425781 L 1093.699219 390.574219 L 1109.355469 390.574219 L 1109.355469 406.148438 L 1140.667969 406.148438 L 1140.667969 390.574219 L 1156.324219 390.574219 L 1156.324219 359.425781 L 1140.667969 359.425781 Z M 1140.667969 343.851562 " fill-opacity="1" fill-rule="nonzero"></path><path fill="#ae0403" d="M 1462.101562 343.851562 L 1430.789062 343.851562 L 1430.789062 359.425781 L 1415.132812 359.425781 L 1415.132812 390.574219 L 1430.789062 390.574219 L 1430.789062 406.148438 L 1462.101562 406.148438 L 1462.101562 390.574219 L 1477.757812 390.574219 L 1477.757812 359.425781 L 1462.101562 359.425781 Z M 1462.101562 343.851562 " fill-opacity="1" fill-rule="nonzero"></path><path fill="#ae0403" d="M 1783.53125 343.851562 L 1752.21875 343.851562 L 1752.21875 359.425781 L 1736.5625 359.425781 L 1736.5625 390.574219 L 1752.21875 390.574219 L 1752.21875 406.148438 L 1783.53125 406.148438 L 1783.53125 390.574219 L 1799.1875 390.574219 L 1799.1875 359.425781 L 1783.53125 359.425781 Z M 1783.53125 343.851562 " fill-opacity="1" fill-rule="nonzero"></path><path fill="#ae0403" d="M 2104.964844 343.851562 L 2073.652344 343.851562 L 2073.652344 359.425781 L 2057.996094 359.425781 L 2057.996094 390.574219 L 2073.652344 390.574219 L 2073.652344 406.148438 L 2104.964844 406.148438 L 2104.964844 390.574219 L 2120.621094 390.574219 L 2120.621094 359.425781 L 2104.964844 359.425781 Z M 2104.964844 343.851562 " fill-opacity="1" fill-rule="nonzero"></path><g clip-path="url(#775d4766dd)"><path fill="#ae0403" d="M 2234.71875 275.519531 L 2234.71875 260.214844 L 2204.105469 260.214844 L 2204.105469 275.519531 L 2188.796875 275.519531 L 2188.796875 306.128906 L 2204.105469 306.128906 L 2204.105469 290.824219 L 2234.71875 290.824219 L 2234.71875 306.128906 L 2219.410156 306.128906 L 2219.410156 321.433594 L 2204.105469 321.433594 L 2204.105469 336.738281 L 2188.796875 336.738281 L 2188.796875 352.042969 L 2158.1875 352.042969 L 2158.1875 336.738281 L 2142.878906 336.738281 L 2142.878906 321.433594 L 2127.574219 321.433594 L 2127.574219 306.128906 L 2112.269531 306.128906 L 2112.269531 275.519531 L 2096.960938 275.519531 L 2096.960938 260.214844 L 2081.65625 260.214844 L 2081.65625 275.519531 L 2066.347656 275.519531 L 2066.347656 306.128906 L 2051.042969 306.128906 L 2051.042969 321.433594 L 2035.734375 321.433594 L 2035.734375 336.738281 L 2020.429688 336.738281 L 2020.429688 352.042969 L 1989.816406 352.042969 L 1989.816406 336.738281 L 1974.511719 336.738281 L 1974.511719 321.433594 L 1959.203125 321.433594 L 1959.203125 306.128906 L 1943.898438 306.128906 L 1943.898438 290.824219 L 1974.511719 290.824219 L 1974.511719 306.128906 L 1989.816406 306.128906 L 1989.816406 275.519531 L 1974.511719 275.519531 L 1974.511719 260.214844 L 1943.898438 260.214844 L 1943.898438 275.519531 L 1913.285156 275.519531 L 1913.285156 260.214844 L 1882.671875 260.214844 L 1882.671875 275.519531 L 1867.367188 275.519531 L 1867.367188 306.128906 L 1882.671875 306.128906 L 1882.671875 290.824219 L 1913.285156 290.824219 L 1913.285156 306.128906 L 1897.980469 306.128906 L 1897.980469 321.433594 L 1882.671875 321.433594 L 1882.671875 336.738281 L 1867.367188 336.738281 L 1867.367188 352.042969 L 1836.753906 352.042969 L 1836.753906 336.738281 L 1821.445312 336.738281 L 1821.445312 321.433594 L 1806.140625 321.433594 L 1806.140625 306.128906 L 1790.835938 306.128906 L 1790.835938 275.519531 L 1775.527344 275.519531 L 1775.527344 260.214844 L 1760.222656 260.214844 L 1760.222656 275.519531 L 1744.914062 275.519531 L 1744.914062 306.128906 L 1729.609375 306.128906 L 1729.609375 321.433594 L 1714.300781 321.433594 L 1714.300781 336.738281 L 1698.996094 336.738281 L 1698.996094 352.042969 L 1668.382812 352.042969 L 1668.382812 336.738281 L 1653.078125 336.738281 L 1653.078125 321.433594 L 1637.769531 321.433594 L 1637.769531 306.128906 L 1622.464844 306.128906 L 1622.464844 290.824219 L 1653.078125 290.824219 L 1653.078125 306.128906 L 1668.382812 306.128906 L 1668.382812 275.519531 L 1653.078125 275.519531 L 1653.078125 260.214844 L 1622.464844 260.214844 L 1622.464844 275.519531 L 1591.851562 275.519531 L 1591.851562 260.214844 L 1561.238281 260.214844 L 1561.238281 275.519531 L 1545.933594 275.519531 L 1545.933594 306.128906 L 1561.238281 306.128906 L 1561.238281 290.824219 L 1591.851562 290.824219 L 1591.851562 306.128906 L 1576.546875 306.128906 L 1576.546875 321.433594 L 1561.238281 321.433594 L 1561.238281 336.738281 L 1545.933594 336.738281 L 1545.933594 352.042969 L 1515.320312 352.042969 L 1515.320312 336.738281 L 1500.015625 336.738281 L 1500.015625 321.433594 L 1484.707031 321.433594 L 1484.707031 306.128906 L 1469.402344 306.128906 L 1469.402344 275.519531 L 1454.097656 275.519531 L 1454.097656 260.214844 L 1438.789062 260.214844 L 1438.789062 275.519531 L 1423.484375 275.519531 L 1423.484375 306.128906 L 1408.175781 306.128906 L 1408.175781 321.433594 L 1392.871094 321.433594 L 1392.871094 336.738281 L 1377.5625 336.738281 L 1377.5625 352.042969 L 1346.953125 352.042969 L 1346.953125 336.738281 L 1331.644531 336.738281 L 1331.644531 321.433594 L 1316.339844 321.433594 L 1316.339844 306.128906 L 1301.035156 306.128906 L 1301.035156 290.824219 L 1331.644531 290.824219 L 1331.644531 306.128906 L 1346.953125 306.128906 L 1346.953125 275.519531 L 1331.644531 275.519531 L 1331.644531 260.214844 L 1301.035156 260.214844 L 1301.035156 275.519531 L 1270.421875 275.519531 L 1270.421875 260.214844 L 1239.808594 260.214844 L 1239.808594 275.519531 L 1224.5 275.519531 L 1224.5 306.128906 L 1239.808594 306.128906 L 1239.808594 290.824219 L 1270.421875 290.824219 L 1270.421875 306.128906 L 1255.113281 306.128906 L 1255.113281 321.433594 L 1239.808594 321.433594 L 1239.808594 336.738281 L 1224.5 336.738281 L 1224.5 352.042969 L 1193.890625 352.042969 L 1193.890625 336.738281 L 1178.582031 336.738281 L 1178.582031 321.433594 L 1163.277344 321.433594 L 1163.277344 306.128906 L 1147.96875 306.128906 L 1147.96875 275.519531 L 1132.664062 275.519531 L 1132.664062 260.214844 L 1117.359375 260.214844 L 1117.359375 275.519531 L 1102.050781 275.519531 L 1102.050781 306.128906 L 1086.746094 306.128906 L 1086.746094 321.433594 L 1071.4375 321.433594 L 1071.4375 336.738281 L 1056.132812 336.738281 L 1056.132812 352.042969 L 1025.519531 352.042969 L 1025.519531 336.738281 L 1010.214844 336.738281 L 1010.214844 321.433594 L 994.90625 321.433594 L 994.90625 306.128906 L 979.601562 306.128906 L 979.601562 290.824219 L 1010.214844 290.824219 L 1010.214844 306.128906 L 1025.519531 306.128906 L 1025.519531 275.519531 L 1010.214844 275.519531 L 1010.214844 260.214844 L 979.601562 260.214844 L 979.601562 275.519531 L 948.988281 275.519531 L 948.988281 260.214844 L 918.375 260.214844 L 918.375 275.519531 L 903.070312 275.519531 L 903.070312 306.128906 L 918.375 306.128906 L 918.375 290.824219 L 948.988281 290.824219 L 948.988281 306.128906 L 933.683594 306.128906 L 933.683594 321.433594 L 918.375 321.433594 L 918.375 336.738281 L 903.070312 336.738281 L 903.070312 352.042969 L 872.457031 352.042969 L 872.457031 336.738281 L 857.152344 336.738281 L 857.152344 321.433594 L 841.84375 321.433594 L 841.84375 306.128906 L 826.539062 306.128906 L 826.539062 275.519531 L 811.234375 275.519531 L 811.234375 260.214844 L 795.925781 260.214844 L 795.925781 275.519531 L 780.621094 275.519531 L 780.621094 306.128906 L 765.3125 306.128906 L 765.3125 321.433594 L 750.007812 321.433594 L 750.007812 336.738281 L 734.703125 336.738281 L 734.703125 352.042969 L 704.089844 352.042969 L 704.089844 336.738281 L 688.78125 336.738281 L 688.78125 321.433594 L 673.476562 321.433594 L 673.476562 306.128906 L 658.167969 306.128906 L 658.167969 290.824219 L 688.78125 290.824219 L 688.78125 306.128906 L 704.089844 306.128906 L 704.089844 275.519531 L 688.78125 275.519531 L 688.78125 260.214844 L 658.167969 260.214844 L 658.167969 275.519531 L 627.558594 275.519531 L 627.558594 260.214844 L 596.945312 260.214844 L 596.945312 275.519531 L 581.636719 275.519531 L 581.636719 306.128906 L 596.945312 306.128906 L 596.945312 290.824219 L 627.558594 290.824219 L 627.558594 306.128906 L 612.25 306.128906 L 612.25 321.433594 L 596.945312 321.433594 L 596.945312 336.738281 L 581.636719 336.738281 L 581.636719 352.042969 L 551.027344 352.042969 L 551.027344 336.738281 L 535.71875 336.738281 L 535.71875 321.433594 L 520.414062 321.433594 L 520.414062 306.128906 L 505.105469 306.128906 L 505.105469 275.519531 L 489.800781 275.519531 L 489.800781 260.214844 L 474.496094 260.214844 L 474.496094 275.519531 L 459.1875 275.519531 L 459.1875 306.128906 L 443.882812 306.128906 L 443.882812 321.433594 L 428.574219 321.433594 L 428.574219 336.738281 L 413.269531 336.738281 L 413.269531 352.042969 L 382.65625 352.042969 L 382.65625 336.738281 L 367.351562 336.738281 L 367.351562 321.433594 L 352.042969 321.433594 L 352.042969 306.128906 L 336.738281 306.128906 L 336.738281 290.824219 L 367.351562 290.824219 L 367.351562 306.128906 L 382.65625 306.128906 L 382.65625 275.519531 L 367.351562 275.519531 L 367.351562 260.214844 L 336.738281 260.214844 L 336.738281 275.519531 L 306.125 275.519531 L 306.125 260.214844 L 275.511719 260.214844 L 275.511719 275.519531 L 260.207031 275.519531 L 260.207031 306.128906 L 275.511719 306.128906 L 275.511719 290.824219 L 306.125 290.824219 L 306.125 306.128906 L 290.820312 306.128906 L 290.820312 321.433594 L 275.511719 321.433594 L 275.511719 336.738281 L 260.207031 336.738281 L 260.207031 352.042969 L 229.59375 352.042969 L 229.59375 336.738281 L 214.289062 336.738281 L 214.289062 321.433594 L 198.980469 321.433594 L 198.980469 306.128906 L 183.675781 306.128906 L 183.675781 275.519531 L 168.367188 275.519531 L 168.367188 260.214844 L 153.0625 260.214844 L 153.0625 275.519531 L 137.757812 275.519531 L 137.757812 306.128906 L 122.449219 306.128906 L 122.449219 321.433594 L 107.144531 321.433594 L 107.144531 336.738281 L 91.835938 336.738281 L 91.835938 352.042969 L 61.222656 352.042969 L 61.222656 336.738281 L 45.917969 336.738281 L 45.917969 321.433594 L 30.613281 321.433594 L 30.613281 306.128906 L 15.304688 306.128906 L 15.304688 290.824219 L 45.917969 290.824219 L 45.917969 306.128906 L 61.226562 306.128906 L 61.226562 275.519531 L 45.917969 275.519531 L 45.917969 260.214844 L 15.304688 260.214844 L 15.304688 275.519531 L 0 275.519531 L 0 321.433594 L 15.304688 321.433594 L 15.304688 336.738281 L 30.613281 336.738281 L 30.613281 352.042969 L 45.917969 352.042969 L 45.917969 367.347656 L 61.226562 367.347656 L 61.226562 382.652344 L 45.917969 382.652344 L 45.917969 397.957031 L 30.613281 397.957031 L 30.613281 413.261719 L 15.304688 413.261719 L 15.304688 428.566406 L 0 428.566406 L 0 474.480469 L 15.304688 474.480469 L 15.304688 489.785156 L 45.917969 489.785156 L 45.917969 474.480469 L 61.226562 474.480469 L 61.226562 443.871094 L 45.917969 443.871094 L 45.917969 459.175781 L 15.304688 459.175781 L 15.304688 443.871094 L 30.613281 443.871094 L 30.613281 428.566406 L 45.917969 428.566406 L 45.917969 413.261719 L 61.226562 413.261719 L 61.226562 397.957031 L 91.835938 397.957031 L 91.835938 413.261719 L 107.144531 413.261719 L 107.144531 428.566406 L 122.449219 428.566406 L 122.449219 443.871094 L 137.757812 443.871094 L 137.757812 474.480469 L 153.0625 474.480469 L 153.0625 489.785156 L 168.371094 489.785156 L 168.371094 474.480469 L 183.675781 474.480469 L 183.675781 443.871094 L 198.980469 443.871094 L 198.980469 428.566406 L 214.289062 428.566406 L 214.289062 413.261719 L 229.59375 413.261719 L 229.59375 397.957031 L 260.207031 397.957031 L 260.207031 413.261719 L 275.511719 413.261719 L 275.511719 428.566406 L 290.820312 428.566406 L 290.820312 443.871094 L 306.125 443.871094 L 306.125 459.175781 L 275.511719 459.175781 L 275.511719 443.871094 L 260.207031 443.871094 L 260.207031 474.480469 L 275.511719 474.480469 L 275.511719 489.785156 L 306.125 489.785156 L 306.125 474.480469 L 336.738281 474.480469 L 336.738281 489.785156 L 367.351562 489.785156 L 367.351562 474.480469 L 382.65625 474.480469 L 382.65625 443.871094 L 367.351562 443.871094 L 367.351562 459.175781 L 336.738281 459.175781 L 336.738281 443.871094 L 352.042969 443.871094 L 352.042969 428.566406 L 367.351562 428.566406 L 367.351562 413.261719 L 382.65625 413.261719 L 382.65625 397.957031 L 413.269531 397.957031 L 413.269531 413.261719 L 428.574219 413.261719 L 428.574219 428.566406 L 443.882812 428.566406 L 443.882812 443.871094 L 459.1875 443.871094 L 459.1875 474.480469 L 474.496094 474.480469 L 474.496094 489.785156 L 489.800781 489.785156 L 489.800781 474.480469 L 505.109375 474.480469 L 505.109375 443.871094 L 520.414062 443.871094 L 520.414062 428.566406 L 535.71875 428.566406 L 535.71875 413.261719 L 551.027344 413.261719 L 551.027344 397.957031 L 581.640625 397.957031 L 581.640625 413.261719 L 596.945312 413.261719 L 596.945312 428.566406 L 612.25 428.566406 L 612.25 443.871094 L 627.558594 443.871094 L 627.558594 459.175781 L 596.945312 459.175781 L 596.945312 443.871094 L 581.640625 443.871094 L 581.640625 474.480469 L 596.945312 474.480469 L 596.945312 489.785156 L 627.558594 489.785156 L 627.558594 474.480469 L 658.171875 474.480469 L 658.171875 489.785156 L 688.78125 489.785156 L 688.78125 474.480469 L 704.089844 474.480469 L 704.089844 443.871094 L 688.78125 443.871094 L 688.78125 459.175781 L 658.171875 459.175781 L 658.171875 443.871094 L 673.476562 443.871094 L 673.476562 428.566406 L 688.78125 428.566406 L 688.78125 413.261719 L 704.089844 413.261719 L 704.089844 397.957031 L 734.703125 397.957031 L 734.703125 413.261719 L 750.007812 413.261719 L 750.007812 428.566406 L 765.3125 428.566406 L 765.3125 443.871094 L 780.621094 443.871094 L 780.621094 474.480469 L 795.925781 474.480469 L 795.925781 489.785156 L 811.234375 489.785156 L 811.234375 474.480469 L 826.539062 474.480469 L 826.539062 443.871094 L 841.847656 443.871094 L 841.847656 428.566406 L 857.152344 428.566406 L 857.152344 413.261719 L 872.457031 413.261719 L 872.457031 397.957031 L 903.070312 397.957031 L 903.070312 413.261719 L 918.378906 413.261719 L 918.378906 428.566406 L 933.683594 428.566406 L 933.683594 443.871094 L 948.988281 443.871094 L 948.988281 459.175781 L 918.378906 459.175781 L 918.378906 443.871094 L 903.070312 443.871094 L 903.070312 474.480469 L 918.378906 474.480469 L 918.378906 489.785156 L 948.988281 489.785156 L 948.988281 474.480469 L 979.601562 474.480469 L 979.601562 489.785156 L 1010.214844 489.785156 L 1010.214844 474.480469 L 1025.519531 474.480469 L 1025.519531 443.871094 L 1010.214844 443.871094 L 1010.214844 459.175781 L 979.601562 459.175781 L 979.601562 443.871094 L 994.910156 443.871094 L 994.910156 428.566406 L 1010.214844 428.566406 L 1010.214844 413.261719 L 1025.519531 413.261719 L 1025.519531 397.957031 L 1056.132812 397.957031 L 1056.132812 413.261719 L 1071.441406 413.261719 L 1071.441406 428.566406 L 1086.746094 428.566406 L 1086.746094 443.871094 L 1102.050781 443.871094 L 1102.050781 474.480469 L 1117.359375 474.480469 L 1117.359375 489.785156 L 1132.664062 489.785156 L 1132.664062 474.480469 L 1147.972656 474.480469 L 1147.972656 443.871094 L 1163.277344 443.871094 L 1163.277344 428.566406 L 1178.582031 428.566406 L 1178.582031 413.261719 L 1193.890625 413.261719 L 1193.890625 397.957031 L 1224.503906 397.957031 L 1224.503906 413.261719 L 1239.808594 413.261719 L 1239.808594 428.566406 L 1255.113281 428.566406 L 1255.113281 443.871094 L 1270.421875 443.871094 L 1270.421875 459.175781 L 1239.808594 459.175781 L 1239.808594 443.871094 L 1224.503906 443.871094 L 1224.503906 474.480469 L 1239.808594 474.480469 L 1239.808594 489.785156 L 1270.421875 489.785156 L 1270.421875 474.480469 L 1301.035156 474.480469 L 1301.035156 489.785156 L 1331.644531 489.785156 L 1331.644531 474.480469 L 1346.953125 474.480469 L 1346.953125 443.871094 L 1331.644531 443.871094 L 1331.644531 459.175781 L 1301.035156 459.175781 L 1301.035156 443.871094 L 1316.339844 443.871094 L 1316.339844 428.566406 L 1331.644531 428.566406 L 1331.644531 413.261719 L 1346.953125 413.261719 L 1346.953125 397.957031 L 1377.566406 397.957031 L 1377.566406 413.261719 L 1392.871094 413.261719 L 1392.871094 428.566406 L 1408.175781 428.566406 L 1408.175781 443.871094 L 1423.484375 443.871094 L 1423.484375 474.480469 L 1438.789062 474.480469 L 1438.789062 489.785156 L 1454.097656 489.785156 L 1454.097656 474.480469 L 1469.402344 474.480469 L 1469.402344 443.871094 L 1484.707031 443.871094 L 1484.707031 428.566406 L 1500.015625 428.566406 L 1500.015625 413.261719 L 1515.320312 413.261719 L 1515.320312 397.957031 L 1545.933594 397.957031 L 1545.933594 413.261719 L 1561.242188 413.261719 L 1561.242188 428.566406 L 1576.546875 428.566406 L 1576.546875 443.871094 L 1591.851562 443.871094 L 1591.851562 459.175781 L 1561.242188 459.175781 L 1561.242188 443.871094 L 1545.933594 443.871094 L 1545.933594 474.480469 L 1561.242188 474.480469 L 1561.242188 489.785156 L 1591.851562 489.785156 L 1591.851562 474.480469 L 1622.464844 474.480469 L 1622.464844 489.785156 L 1653.078125 489.785156 L 1653.078125 474.480469 L 1668.386719 474.480469 L 1668.386719 443.871094 L 1653.078125 443.871094 L 1653.078125 459.175781 L 1622.464844 459.175781 L 1622.464844 443.871094 L 1637.773438 443.871094 L 1637.773438 428.566406 L 1653.078125 428.566406 L 1653.078125 413.261719 L 1668.386719 413.261719 L 1668.386719 397.957031 L 1698.996094 397.957031 L 1698.996094 413.261719 L 1714.304688 413.261719 L 1714.304688 428.566406 L 1729.609375 428.566406 L 1729.609375 443.871094 L 1744.917969 443.871094 L 1744.917969 474.480469 L 1760.222656 474.480469 L 1760.222656 489.785156 L 1775.527344 489.785156 L 1775.527344 474.480469 L 1790.835938 474.480469 L 1790.835938 443.871094 L 1806.140625 443.871094 L 1806.140625 428.566406 L 1821.449219 428.566406 L 1821.449219 413.261719 L 1836.753906 413.261719 L 1836.753906 397.957031 L 1867.367188 397.957031 L 1867.367188 413.261719 L 1882.671875 413.261719 L 1882.671875 428.566406 L 1897.980469 428.566406 L 1897.980469 443.871094 L 1913.285156 443.871094 L 1913.285156 459.175781 L 1882.671875 459.175781 L 1882.671875 443.871094 L 1867.367188 443.871094 L 1867.367188 474.480469 L 1882.671875 474.480469 L 1882.671875 489.785156 L 1913.285156 489.785156 L 1913.285156 474.480469 L 1943.898438 474.480469 L 1943.898438 489.785156 L 1974.511719 489.785156 L 1974.511719 474.480469 L 1989.816406 474.480469 L 1989.816406 443.871094 L 1974.511719 443.871094 L 1974.511719 459.175781 L 1943.898438 459.175781 L 1943.898438 443.871094 L 1959.203125 443.871094 L 1959.203125 428.566406 L 1974.511719 428.566406 L 1974.511719 413.261719 L 1989.816406 413.261719 L 1989.816406 397.957031 L 2020.429688 397.957031 L 2020.429688 413.261719 L 2035.738281 413.261719 L 2035.738281 428.566406 L 2051.042969 428.566406 L 2051.042969 443.871094 L 2066.347656 443.871094 L 2066.347656 474.480469 L 2081.65625 474.480469 L 2081.65625 489.785156 L 2096.960938 489.785156 L 2096.960938 474.480469 L 2112.269531 474.480469 L 2112.269531 443.871094 L 2127.574219 443.871094 L 2127.574219 428.566406 L 2142.882812 428.566406 L 2142.882812 413.261719 L 2158.1875 413.261719 L 2158.1875 397.957031 L 2188.800781 397.957031 L 2188.800781 413.261719 L 2204.105469 413.261719 L 2204.105469 428.566406 L 2219.414062 428.566406 L 2219.414062 443.871094 L 2234.71875 443.871094 L 2234.71875 459.175781 L 2204.105469 459.175781 L 2204.105469 443.871094 L 2188.800781 443.871094 L 2188.800781 474.480469 L 2204.105469 474.480469 L 2204.105469 489.785156 L 2234.71875 489.785156 L 2234.71875 474.480469 L 2250.023438 474.480469 L 2250.023438 428.566406 L 2234.71875 428.566406 L 2234.71875 413.261719 L 2219.414062 413.261719 L 2219.414062 397.957031 L 2204.105469 397.957031 L 2204.105469 382.652344 L 2188.800781 382.652344 L 2188.800781 367.347656 L 2204.105469 367.347656 L 2204.105469 352.042969 L 2219.414062 352.042969 L 2219.414062 336.738281 L 2234.71875 336.738281 L 2234.71875 321.433594 L 2250.023438 321.433594 L 2250.023438 275.519531 Z M 229.59375 382.652344 L 214.289062 382.652344 L 214.289062 397.957031 L 198.980469 397.957031 L 198.980469 413.261719 L 183.675781 413.261719 L 183.675781 428.566406 L 168.371094 428.566406 L 168.371094 443.871094 L 153.0625 443.871094 L 153.0625 428.566406 L 137.757812 428.566406 L 137.757812 413.261719 L 122.449219 413.261719 L 122.449219 397.957031 L 107.144531 397.957031 L 107.144531 382.652344 L 91.835938 382.652344 L 91.835938 367.347656 L 107.144531 367.347656 L 107.144531 352.042969 L 122.449219 352.042969 L 122.449219 336.738281 L 137.757812 336.738281 L 137.757812 321.433594 L 153.0625 321.433594 L 153.0625 306.128906 L 168.371094 306.128906 L 168.371094 321.433594 L 183.675781 321.433594 L 183.675781 336.738281 L 198.980469 336.738281 L 198.980469 352.042969 L 214.289062 352.042969 L 214.289062 367.347656 L 229.59375 367.347656 Z M 382.65625 382.652344 L 367.351562 382.652344 L 367.351562 397.957031 L 352.042969 397.957031 L 352.042969 413.261719 L 336.738281 413.261719 L 336.738281 428.566406 L 306.125 428.566406 L 306.125 413.261719 L 290.820312 413.261719 L 290.820312 397.957031 L 275.511719 397.957031 L 275.511719 382.652344 L 260.207031 382.652344 L 260.207031 367.347656 L 275.511719 367.347656 L 275.511719 352.042969 L 290.820312 352.042969 L 290.820312 336.738281 L 306.125 336.738281 L 306.125 321.433594 L 336.738281 321.433594 L 336.738281 336.738281 L 352.042969 336.738281 L 352.042969 352.042969 L 367.351562 352.042969 L 367.351562 367.347656 L 382.65625 367.347656 Z M 551.027344 382.652344 L 535.71875 382.652344 L 535.71875 397.957031 L 520.414062 397.957031 L 520.414062 413.261719 L 505.109375 413.261719 L 505.109375 428.566406 L 489.800781 428.566406 L 489.800781 443.871094 L 474.496094 443.871094 L 474.496094 428.566406 L 459.1875 428.566406 L 459.1875 413.261719 L 443.882812 413.261719 L 443.882812 397.957031 L 428.574219 397.957031 L 428.574219 382.652344 L 413.269531 382.652344 L 413.269531 367.347656 L 428.574219 367.347656 L 428.574219 352.042969 L 443.882812 352.042969 L 443.882812 336.738281 L 459.1875 336.738281 L 459.1875 321.433594 L 474.496094 321.433594 L 474.496094 306.128906 L 489.800781 306.128906 L 489.800781 321.433594 L 505.109375 321.433594 L 505.109375 336.738281 L 520.414062 336.738281 L 520.414062 352.042969 L 535.71875 352.042969 L 535.71875 367.347656 L 551.027344 367.347656 Z M 704.089844 382.652344 L 688.78125 382.652344 L 688.78125 397.957031 L 673.476562 397.957031 L 673.476562 413.261719 L 658.171875 413.261719 L 658.171875 428.566406 L 627.558594 428.566406 L 627.558594 413.261719 L 612.25 413.261719 L 612.25 397.957031 L 596.945312 397.957031 L 596.945312 382.652344 L 581.640625 382.652344 L 581.640625 367.347656 L 596.945312 367.347656 L 596.945312 352.042969 L 612.25 352.042969 L 612.25 336.738281 L 627.558594 336.738281 L 627.558594 321.433594 L 658.171875 321.433594 L 658.171875 336.738281 L 673.476562 336.738281 L 673.476562 352.042969 L 688.78125 352.042969 L 688.78125 367.347656 L 704.089844 367.347656 Z M 872.457031 382.652344 L 857.152344 382.652344 L 857.152344 397.957031 L 841.847656 397.957031 L 841.847656 413.261719 L 826.539062 413.261719 L 826.539062 428.566406 L 811.234375 428.566406 L 811.234375 443.871094 L 795.925781 443.871094 L 795.925781 428.566406 L 780.621094 428.566406 L 780.621094 413.261719 L 765.3125 413.261719 L 765.3125 397.957031 L 750.007812 397.957031 L 750.007812 382.652344 L 734.703125 382.652344 L 734.703125 367.347656 L 750.007812 367.347656 L 750.007812 352.042969 L 765.3125 352.042969 L 765.3125 336.738281 L 780.621094 336.738281 L 780.621094 321.433594 L 795.925781 321.433594 L 795.925781 306.128906 L 811.234375 306.128906 L 811.234375 321.433594 L 826.539062 321.433594 L 826.539062 336.738281 L 841.847656 336.738281 L 841.847656 352.042969 L 857.152344 352.042969 L 857.152344 367.347656 L 872.457031 367.347656 Z M 1025.519531 382.652344 L 1010.214844 382.652344 L 1010.214844 397.957031 L 994.910156 397.957031 L 994.910156 413.261719 L 979.601562 413.261719 L 979.601562 428.566406 L 948.992188 428.566406 L 948.992188 413.261719 L 933.683594 413.261719 L 933.683594 397.957031 L 918.378906 397.957031 L 918.378906 382.652344 L 903.070312 382.652344 L 903.070312 367.347656 L 918.378906 367.347656 L 918.378906 352.042969 L 933.683594 352.042969 L 933.683594 336.738281 L 948.992188 336.738281 L 948.992188 321.433594 L 979.601562 321.433594 L 979.601562 336.738281 L 994.910156 336.738281 L 994.910156 352.042969 L 1010.214844 352.042969 L 1010.214844 367.347656 L 1025.519531 367.347656 Z M 1193.890625 382.652344 L 1178.585938 382.652344 L 1178.585938 397.957031 L 1163.277344 397.957031 L 1163.277344 413.261719 L 1147.972656 413.261719 L 1147.972656 428.566406 L 1132.664062 428.566406 L 1132.664062 443.871094 L 1117.359375 443.871094 L 1117.359375 428.566406 L 1102.054688 428.566406 L 1102.054688 413.261719 L 1086.746094 413.261719 L 1086.746094 397.957031 L 1071.441406 397.957031 L 1071.441406 382.652344 L 1056.132812 382.652344 L 1056.132812 367.347656 L 1071.441406 367.347656 L 1071.441406 352.042969 L 1086.746094 352.042969 L 1086.746094 336.738281 L 1102.054688 336.738281 L 1102.054688 321.433594 L 1117.359375 321.433594 L 1117.359375 306.128906 L 1132.664062 306.128906 L 1132.664062 321.433594 L 1147.972656 321.433594 L 1147.972656 336.738281 L 1163.277344 336.738281 L 1163.277344 352.042969 L 1178.585938 352.042969 L 1178.585938 367.347656 L 1193.890625 367.347656 Z M 1346.953125 382.652344 L 1331.648438 382.652344 L 1331.648438 397.957031 L 1316.339844 397.957031 L 1316.339844 413.261719 L 1301.035156 413.261719 L 1301.035156 428.566406 L 1270.421875 428.566406 L 1270.421875 413.261719 L 1255.117188 413.261719 L 1255.117188 397.957031 L 1239.808594 397.957031 L 1239.808594 382.652344 L 1224.503906 382.652344 L 1224.503906 367.347656 L 1239.808594 367.347656 L 1239.808594 352.042969 L 1255.117188 352.042969 L 1255.117188 336.738281 L 1270.421875 336.738281 L 1270.421875 321.433594 L 1301.035156 321.433594 L 1301.035156 336.738281 L 1316.339844 336.738281 L 1316.339844 352.042969 L 1331.648438 352.042969 L 1331.648438 367.347656 L 1346.953125 367.347656 Z M 1515.324219 382.652344 L 1500.015625 382.652344 L 1500.015625 397.957031 L 1484.710938 397.957031 L 1484.710938 413.261719 L 1469.402344 413.261719 L 1469.402344 428.566406 L 1454.097656 428.566406 L 1454.097656 443.871094 L 1438.792969 443.871094 L 1438.792969 428.566406 L 1423.484375 428.566406 L 1423.484375 413.261719 L 1408.179688 413.261719 L 1408.179688 397.957031 L 1392.871094 397.957031 L 1392.871094 382.652344 L 1377.566406 382.652344 L 1377.566406 367.347656 L 1392.871094 367.347656 L 1392.871094 352.042969 L 1408.179688 352.042969 L 1408.179688 336.738281 L 1423.484375 336.738281 L 1423.484375 321.433594 L 1438.792969 321.433594 L 1438.792969 306.128906 L 1454.097656 306.128906 L 1454.097656 321.433594 L 1469.402344 321.433594 L 1469.402344 336.738281 L 1484.710938 336.738281 L 1484.710938 352.042969 L 1500.015625 352.042969 L 1500.015625 367.347656 L 1515.324219 367.347656 Z M 1668.386719 382.652344 L 1653.078125 382.652344 L 1653.078125 397.957031 L 1637.773438 397.957031 L 1637.773438 413.261719 L 1622.464844 413.261719 L 1622.464844 428.566406 L 1591.855469 428.566406 L 1591.855469 413.261719 L 1576.546875 413.261719 L 1576.546875 397.957031 L 1561.242188 397.957031 L 1561.242188 382.652344 L 1545.933594 382.652344 L 1545.933594 367.347656 L 1561.242188 367.347656 L 1561.242188 352.042969 L 1576.546875 352.042969 L 1576.546875 336.738281 L 1591.855469 336.738281 L 1591.855469 321.433594 L 1622.464844 321.433594 L 1622.464844 336.738281 L 1637.773438 336.738281 L 1637.773438 352.042969 L 1653.078125 352.042969 L 1653.078125 367.347656 L 1668.386719 367.347656 Z M 1836.753906 382.652344 L 1821.449219 382.652344 L 1821.449219 397.957031 L 1806.140625 397.957031 L 1806.140625 413.261719 L 1790.835938 413.261719 L 1790.835938 428.566406 L 1775.53125 428.566406 L 1775.53125 443.871094 L 1760.222656 443.871094 L 1760.222656 428.566406 L 1744.917969 428.566406 L 1744.917969 413.261719 L 1729.609375 413.261719 L 1729.609375 397.957031 L 1714.304688 397.957031 L 1714.304688 382.652344 L 1698.996094 382.652344 L 1698.996094 367.347656 L 1714.304688 367.347656 L 1714.304688 352.042969 L 1729.609375 352.042969 L 1729.609375 336.738281 L 1744.917969 336.738281 L 1744.917969 321.433594 L 1760.222656 321.433594 L 1760.222656 306.128906 L 1775.53125 306.128906 L 1775.53125 321.433594 L 1790.835938 321.433594 L 1790.835938 336.738281 L 1806.140625 336.738281 L 1806.140625 352.042969 L 1821.449219 352.042969 L 1821.449219 367.347656 L 1836.753906 367.347656 Z M 1989.816406 382.652344 L 1974.511719 382.652344 L 1974.511719 397.957031 L 1959.203125 397.957031 L 1959.203125 413.261719 L 1943.898438 413.261719 L 1943.898438 428.566406 L 1913.285156 428.566406 L 1913.285156 413.261719 L 1897.980469 413.261719 L 1897.980469 397.957031 L 1882.671875 397.957031 L 1882.671875 382.652344 L 1867.367188 382.652344 L 1867.367188 367.347656 L 1882.671875 367.347656 L 1882.671875 352.042969 L 1897.980469 352.042969 L 1897.980469 336.738281 L 1913.285156 336.738281 L 1913.285156 321.433594 L 1943.898438 321.433594 L 1943.898438 336.738281 L 1959.203125 336.738281 L 1959.203125 352.042969 L 1974.511719 352.042969 L 1974.511719 367.347656 L 1989.816406 367.347656 Z M 2158.1875 382.652344 L 2142.878906 382.652344 L 2142.878906 397.957031 L 2127.574219 397.957031 L 2127.574219 413.261719 L 2112.269531 413.261719 L 2112.269531 428.566406 L 2096.960938 428.566406 L 2096.960938 443.871094 L 2081.65625 443.871094 L 2081.65625 428.566406 L 2066.347656 428.566406 L 2066.347656 413.261719 L 2051.042969 413.261719 L 2051.042969 397.957031 L 2035.734375 397.957031 L 2035.734375 382.652344 L 2020.429688 382.652344 L 2020.429688 367.347656 L 2035.734375 367.347656 L 2035.734375 352.042969 L 2051.042969 352.042969 L 2051.042969 336.738281 L 2066.347656 336.738281 L 2066.347656 321.433594 L 2081.65625 321.433594 L 2081.65625 306.128906 L 2096.960938 306.128906 L 2096.960938 321.433594 L 2112.269531 321.433594 L 2112.269531 336.738281 L 2127.574219 336.738281 L 2127.574219 352.042969 L 2142.878906 352.042969 L 2142.878906 367.347656 L 2158.1875 367.347656 Z M 2158.1875 382.652344 " fill-opacity="1" fill-rule="nonzero"></path></g></svg> 