<?xml version="1.0" encoding="UTF-8"?> <svg xmlns="http://www.w3.org/2000/svg" xmlns:xlink="http://www.w3.org/1999/xlink" width="3000" zoomAndPan="magnify" viewBox="0 0 2250 749.999995" height="1000" preserveAspectRatio="xMidYMid meet" version="1.0"><defs><g></g><clipPath id="6e8ca4dedf"><rect x="0" width="2114" y="0" height="306"></rect></clipPath></defs><g transform="matrix(1, 0, 0, 1, 74, 240)"><g clip-path="url(#6e8ca4dedf)"><g fill="#ae0403" fill-opacity="1"><g transform="translate(1.072056, 250.150632)"><g><path d="M 210.421875 -7.71875 L 210.421875 -199.625 L 210.125 -199.625 C 207.238281 -192.632812 203.894531 -185.539062 200.09375 -178.34375 C 196.289062 -171.144531 192.070312 -164.148438 187.4375 -157.359375 C 182.8125 -150.566406 177.769531 -144.1875 172.3125 -138.21875 C 166.863281 -132.257812 161.160156 -126.914062 155.203125 -122.1875 L 155.203125 -7.71875 L 170.9375 -7.71875 L 170.9375 0 L 95.65625 0 L 95.65625 -7.71875 L 112 -7.71875 L 112 -161.0625 C 103.976562 -153.25 96.828125 -145.640625 90.546875 -138.234375 C 84.273438 -130.828125 78.976562 -123.0625 74.65625 -114.9375 C 70.34375 -106.8125 67.003906 -98.117188 64.640625 -88.859375 C 62.273438 -79.609375 60.882812 -69.222656 60.46875 -57.703125 C 60.0625 -47.210938 60.421875 -37.441406 61.546875 -28.390625 C 62.679688 -19.335938 65.304688 -9.875 69.421875 0 L 0.609375 0 L 0.609375 -7.71875 L 11.71875 -7.71875 C 11.3125 -16.769531 12.492188 -26.332031 15.265625 -36.40625 C 18.046875 -46.488281 21.957031 -56.671875 27 -66.953125 C 32.039062 -77.234375 37.953125 -87.414062 44.734375 -97.5 C 51.523438 -107.582031 58.722656 -117.097656 66.328125 -126.046875 C 73.941406 -134.992188 81.65625 -143.164062 89.46875 -150.5625 C 97.289062 -157.96875 104.800781 -164.140625 112 -169.078125 L 112 -215.0625 L 95.65625 -215.0625 L 95.65625 -222.765625 L 170.9375 -222.765625 L 170.9375 -215.0625 L 155.203125 -215.0625 L 155.203125 -132.671875 C 167.335938 -144.398438 177.878906 -156.945312 186.828125 -170.3125 C 195.773438 -183.6875 202.507812 -198.601562 207.03125 -215.0625 L 193.453125 -215.0625 L 193.453125 -222.765625 L 269.046875 -222.765625 L 269.046875 -215.0625 L 253.625 -215.0625 L 253.625 -7.71875 L 269.046875 -7.71875 L 269.046875 0 L 193.453125 0 L 193.453125 -7.71875 Z M 210.421875 -7.71875 "></path></g></g></g><g fill="#ae0403" fill-opacity="1"><g transform="translate(276.278405, 250.150632)"><g><path d="M 81.140625 -222.765625 L 81.140625 -215.0625 L 64.796875 -215.0625 L 64.796875 -155.203125 C 70.765625 -152.523438 77.398438 -148.359375 84.703125 -142.703125 C 92.003906 -137.046875 99.40625 -130.410156 106.90625 -122.796875 C 114.414062 -115.191406 121.71875 -107.015625 128.8125 -98.265625 C 135.914062 -89.523438 142.242188 -80.734375 147.796875 -71.890625 C 153.347656 -63.046875 157.820312 -54.40625 161.21875 -45.96875 C 164.613281 -37.539062 166.3125 -30.035156 166.3125 -23.453125 C 166.3125 -16.867188 164.710938 -11.3125 161.515625 -6.78125 C 158.328125 -2.257812 153.132812 0 145.9375 0 L 5.859375 0 L 5.859375 -7.71875 L 21.59375 -7.71875 L 21.59375 -215.0625 L 5.859375 -215.0625 L 5.859375 -222.765625 Z M 92.875 -7.71875 C 101.925781 -7.71875 108.457031 -9.566406 112.46875 -13.265625 C 116.476562 -16.972656 118.484375 -23.453125 118.484375 -32.703125 C 118.484375 -42.171875 117.195312 -52.40625 114.625 -63.40625 C 112.050781 -74.40625 108.453125 -85.203125 103.828125 -95.796875 C 99.203125 -106.390625 93.597656 -116.160156 87.015625 -125.109375 C 80.429688 -134.054688 73.023438 -141.207031 64.796875 -146.5625 L 64.796875 -7.71875 Z M 182.046875 -222.765625 L 182.046875 -215.0625 L 166.3125 -215.0625 L 166.3125 -95.65625 C 160.34375 -104.289062 153.757812 -112.722656 146.5625 -120.953125 C 139.363281 -129.179688 131.546875 -136.585938 123.109375 -143.171875 L 123.109375 -215.0625 L 106.75 -215.0625 L 106.75 -222.765625 Z M 182.046875 -222.765625 "></path></g></g></g><g fill="#ae0403" fill-opacity="1"><g transform="translate(464.171506, 250.150632)"><g></g></g></g><g fill="#ae0403" fill-opacity="1"><g transform="translate(549.942104, 250.150632)"><g><path d="M 221.84375 0 C 223.082031 -3.695312 224.0625 -7.550781 224.78125 -11.5625 C 225.5 -15.582031 225.859375 -19.648438 225.859375 -23.765625 C 225.859375 -30.140625 225.5 -36.875 224.78125 -43.96875 C 224.0625 -51.0625 222.773438 -58.003906 220.921875 -64.796875 C 219.066406 -71.585938 216.546875 -78.066406 213.359375 -84.234375 C 210.171875 -90.398438 206.109375 -95.851562 201.171875 -100.59375 L 165.6875 -134.828125 L 165.078125 -134.828125 L 165.078125 -7.71875 L 180.8125 -7.71875 L 180.8125 0 L 105.515625 0 L 105.515625 -7.71875 L 121.875 -7.71875 L 121.875 -134.828125 L 121.265625 -134.828125 L 85.46875 -100.59375 C 80.53125 -95.851562 76.519531 -90.398438 73.4375 -84.234375 C 70.351562 -78.066406 67.882812 -71.585938 66.03125 -64.796875 C 64.175781 -58.003906 62.890625 -51.0625 62.171875 -43.96875 C 61.453125 -36.875 61.09375 -30.140625 61.09375 -23.765625 C 61.09375 -19.648438 61.398438 -15.582031 62.015625 -11.5625 C 62.628906 -7.550781 63.660156 -3.695312 65.109375 0 L 0 0 L 0 -7.71875 L 11.421875 -7.71875 L 11.421875 -12.65625 C 11.421875 -21.90625 13.164062 -31.003906 16.65625 -39.953125 C 20.15625 -48.898438 24.679688 -57.4375 30.234375 -65.5625 C 35.785156 -73.6875 42.054688 -81.242188 49.046875 -88.234375 C 56.046875 -95.234375 63.046875 -101.40625 70.046875 -106.75 L 121.875 -145.015625 L 97.5 -180.1875 C 96.46875 -181.625 95.078125 -183.421875 93.328125 -185.578125 C 91.585938 -187.742188 89.738281 -189.800781 87.78125 -191.75 C 85.820312 -193.707031 83.710938 -195.40625 81.453125 -196.84375 C 79.191406 -198.289062 77.132812 -199.015625 75.28125 -199.015625 C 71.789062 -199.015625 68.296875 -198.191406 64.796875 -196.546875 C 61.296875 -194.898438 58.15625 -192.6875 55.375 -189.90625 C 52.601562 -187.132812 50.34375 -184 48.59375 -180.5 C 46.84375 -177 45.96875 -173.503906 45.96875 -170.015625 L 39.1875 -170.015625 C 39.1875 -173.304688 39.238281 -176.851562 39.34375 -180.65625 C 39.445312 -184.457031 39.5 -188.3125 39.5 -192.21875 C 39.5 -196.132812 39.34375 -199.941406 39.03125 -203.640625 C 38.71875 -207.335938 38.050781 -210.734375 37.03125 -213.828125 C 37.644531 -215.472656 38.976562 -216.910156 41.03125 -218.140625 C 43.09375 -219.378906 45.40625 -220.359375 47.96875 -221.078125 C 50.539062 -221.796875 53.0625 -222.359375 55.53125 -222.765625 C 58 -223.179688 60.054688 -223.390625 61.703125 -223.390625 C 65.816406 -223.390625 69.773438 -222.359375 73.578125 -220.296875 C 77.390625 -218.242188 80.941406 -215.671875 84.234375 -212.578125 C 87.523438 -209.492188 90.554688 -206.148438 93.328125 -202.546875 C 96.109375 -198.953125 98.425781 -195.613281 100.28125 -192.53125 L 121.265625 -158.28125 L 121.875 -158.28125 L 121.875 -215.0625 L 105.515625 -215.0625 L 105.515625 -222.765625 L 180.8125 -222.765625 L 180.8125 -215.0625 L 165.078125 -215.0625 L 165.078125 -158.28125 L 165.6875 -158.28125 L 186.359375 -192.53125 C 188.210938 -195.613281 190.523438 -198.953125 193.296875 -202.546875 C 196.078125 -206.148438 199.164062 -209.492188 202.5625 -212.578125 C 205.957031 -215.671875 209.554688 -218.242188 213.359375 -220.296875 C 217.160156 -222.359375 221.117188 -223.390625 225.234375 -223.390625 C 226.878906 -223.390625 228.9375 -223.179688 231.40625 -222.765625 C 233.875 -222.359375 236.394531 -221.796875 238.96875 -221.078125 C 241.539062 -220.359375 243.851562 -219.378906 245.90625 -218.140625 C 247.96875 -216.910156 249.304688 -215.472656 249.921875 -213.828125 C 248.890625 -210.734375 248.164062 -207.335938 247.75 -203.640625 C 247.34375 -199.941406 247.140625 -196.132812 247.140625 -192.21875 C 247.140625 -188.3125 247.191406 -184.457031 247.296875 -180.65625 C 247.398438 -176.851562 247.453125 -173.304688 247.453125 -170.015625 L 240.671875 -170.015625 C 240.671875 -173.503906 239.796875 -177 238.046875 -180.5 C 236.296875 -184 234.03125 -187.132812 231.25 -189.90625 C 228.476562 -192.6875 225.34375 -194.898438 221.84375 -196.546875 C 218.34375 -198.191406 214.847656 -199.015625 211.359375 -199.015625 C 209.503906 -199.015625 207.445312 -198.289062 205.1875 -196.84375 C 202.925781 -195.40625 200.816406 -193.707031 198.859375 -191.75 C 196.898438 -189.800781 195.046875 -187.742188 193.296875 -185.578125 C 191.554688 -183.421875 190.273438 -181.625 189.453125 -180.1875 L 165.078125 -145.015625 L 216.59375 -106.75 C 223.59375 -101.40625 230.640625 -95.234375 237.734375 -88.234375 C 244.828125 -81.242188 251.148438 -73.6875 256.703125 -65.5625 C 262.265625 -57.4375 266.789062 -48.898438 270.28125 -39.953125 C 273.78125 -31.003906 275.53125 -21.90625 275.53125 -12.65625 C 275.53125 -11.832031 275.476562 -11.007812 275.375 -10.1875 C 275.269531 -9.363281 275.21875 -8.539062 275.21875 -7.71875 L 286.953125 -7.71875 L 286.953125 0 Z M 221.84375 0 "></path></g></g></g><g fill="#ae0403" fill-opacity="1"><g transform="translate(836.87248, 250.150632)"><g><path d="M 161.671875 -177.109375 C 161.671875 -176.691406 161.414062 -175.96875 160.90625 -174.9375 C 160.394531 -173.914062 159.46875 -172.890625 158.125 -171.859375 C 156.789062 -170.828125 154.941406 -169.898438 152.578125 -169.078125 C 150.210938 -168.253906 147.28125 -167.84375 143.78125 -167.84375 C 141.519531 -167.84375 138.640625 -168.097656 135.140625 -168.609375 C 131.640625 -169.128906 128.039062 -170.003906 124.34375 -171.234375 C 120.644531 -172.472656 117.046875 -174.019531 113.546875 -175.875 C 110.046875 -177.726562 107.164062 -179.988281 104.90625 -182.65625 C 102.03125 -185.945312 99.972656 -189.546875 98.734375 -193.453125 C 97.503906 -197.367188 96.523438 -201.332031 95.796875 -205.34375 C 95.078125 -209.351562 94.359375 -213.363281 93.640625 -217.375 C 92.921875 -221.382812 91.535156 -225.238281 89.484375 -228.9375 C 81.660156 -221.53125 75.332031 -214.535156 70.5 -207.953125 C 65.664062 -201.378906 61.859375 -194.539062 59.078125 -187.4375 C 56.304688 -180.34375 54.40625 -172.523438 53.375 -163.984375 C 52.34375 -155.453125 51.828125 -145.53125 51.828125 -134.21875 C 51.828125 -133.1875 51.878906 -132.15625 51.984375 -131.125 C 52.085938 -130.101562 52.242188 -129.078125 52.453125 -128.046875 C 59.648438 -131.335938 66.28125 -133.648438 72.34375 -134.984375 C 78.414062 -136.328125 85.363281 -137 93.1875 -137 C 102.851562 -137 111.234375 -135.863281 118.328125 -133.59375 C 125.421875 -131.332031 131.488281 -128.503906 136.53125 -125.109375 C 141.570312 -121.722656 145.785156 -118.019531 149.171875 -114 C 152.566406 -109.988281 155.5 -106.238281 157.96875 -102.75 C 153.863281 -103.570312 150.0625 -104.132812 146.5625 -104.4375 C 143.0625 -104.75 139.664062 -104.90625 136.375 -104.90625 C 133.082031 -104.90625 129.632812 -104.695312 126.03125 -104.28125 C 122.4375 -103.875 118.476562 -103.363281 114.15625 -102.75 C 112.507812 -111.59375 109.9375 -118.070312 106.4375 -122.1875 C 102.945312 -126.300781 97.296875 -128.359375 89.484375 -128.359375 C 84.128906 -128.359375 78.726562 -127.585938 73.28125 -126.046875 C 67.832031 -124.503906 61.710938 -122.289062 54.921875 -119.40625 C 57.179688 -113.851562 60.265625 -108.300781 64.171875 -102.75 C 68.085938 -97.195312 71.894531 -91.539062 75.59375 -85.78125 C 79.289062 -80.019531 82.53125 -74.207031 85.3125 -68.34375 C 88.09375 -62.476562 89.484375 -56.359375 89.484375 -49.984375 C 89.484375 -47.515625 89.582031 -44.582031 89.78125 -41.1875 C 89.988281 -37.789062 89.988281 -34.140625 89.78125 -30.234375 C 89.582031 -26.328125 89.019531 -22.109375 88.09375 -17.578125 C 87.164062 -13.054688 85.46875 -8.535156 83 -4.015625 C 86.5 -6.273438 90.253906 -9.304688 94.265625 -13.109375 C 98.273438 -16.921875 101.515625 -21.085938 103.984375 -25.609375 C 105.210938 -27.660156 106.90625 -29.921875 109.0625 -32.390625 C 111.226562 -34.859375 113.75 -37.070312 116.625 -39.03125 C 119.507812 -40.988281 122.492188 -42.632812 125.578125 -43.96875 C 128.660156 -45.300781 131.742188 -45.96875 134.828125 -45.96875 C 136.890625 -45.96875 139 -45.347656 141.15625 -44.109375 C 143.320312 -42.878906 145.273438 -41.285156 147.015625 -39.328125 C 148.765625 -37.378906 150.15625 -35.273438 151.1875 -33.015625 C 152.21875 -30.753906 152.734375 -28.59375 152.734375 -26.53125 C 152.734375 -25.300781 152.523438 -24.476562 152.109375 -24.0625 C 151.703125 -23.65625 150.367188 -23.453125 148.109375 -23.453125 C 146.046875 -23.453125 143.625 -23.863281 140.84375 -24.6875 C 138.070312 -25.507812 135.863281 -25.921875 134.21875 -25.921875 C 129.070312 -25.921875 124.132812 -24.835938 119.40625 -22.671875 C 114.675781 -20.515625 110.972656 -18.203125 108.296875 -15.734375 C 103.359375 -11.003906 98.210938 -6.53125 92.859375 -2.3125 C 87.515625 1.90625 81.554688 5.453125 74.984375 8.328125 C 74.984375 5.453125 74.773438 2.472656 74.359375 -0.609375 C 73.953125 -3.703125 73.382812 -6.6875 72.65625 -9.5625 C 71.9375 -12.445312 71.113281 -15.070312 70.1875 -17.4375 C 69.269531 -19.800781 68.191406 -21.703125 66.953125 -23.140625 C 63.046875 -28.078125 57.851562 -32.960938 51.375 -37.796875 C 44.894531 -42.628906 38.515625 -47.976562 32.234375 -53.84375 C 25.960938 -59.707031 20.5625 -66.390625 16.03125 -73.890625 C 11.507812 -81.398438 9.25 -90.300781 9.25 -100.59375 C 9.25 -117.25 11.972656 -132.363281 17.421875 -145.9375 C 22.878906 -159.519531 29.671875 -171.914062 37.796875 -183.125 C 45.921875 -194.332031 54.660156 -204.71875 64.015625 -214.28125 C 73.378906 -223.851562 81.867188 -232.957031 89.484375 -241.59375 C 94.617188 -236.863281 99.085938 -233.625 102.890625 -231.875 C 106.703125 -230.125 110.148438 -228.628906 113.234375 -227.390625 C 116.316406 -226.160156 119.195312 -224.773438 121.875 -223.234375 C 124.550781 -221.691406 127.429688 -218.96875 130.515625 -215.0625 C 132.984375 -211.769531 134.882812 -208.628906 136.21875 -205.640625 C 137.5625 -202.660156 138.691406 -199.882812 139.609375 -197.3125 C 140.535156 -194.738281 141.460938 -192.421875 142.390625 -190.359375 C 143.316406 -188.304688 144.601562 -186.664062 146.25 -185.4375 C 147.6875 -184.195312 149.332031 -183.269531 151.1875 -182.65625 C 153.039062 -182.039062 154.738281 -181.472656 156.28125 -180.953125 C 157.820312 -180.441406 159.101562 -179.929688 160.125 -179.421875 C 161.15625 -178.910156 161.671875 -178.140625 161.671875 -177.109375 Z M 161.671875 -177.109375 "></path></g></g></g><g fill="#ae0403" fill-opacity="1"><g transform="translate(1007.796588, 250.150632)"><g><path d="M 182.34375 -222.765625 L 182.34375 -215.0625 L 165.6875 -215.0625 L 165.6875 -7.71875 L 182.34375 -7.71875 L 182.34375 0 L 107.0625 0 L 107.0625 -7.71875 L 122.5 -7.71875 L 122.5 -156.734375 C 119 -158.796875 114.675781 -160.335938 109.53125 -161.359375 C 104.394531 -162.390625 99.097656 -162.851562 93.640625 -162.75 C 88.191406 -162.65625 82.84375 -162.09375 77.59375 -161.0625 C 72.351562 -160.03125 68.085938 -158.585938 64.796875 -156.734375 L 64.796875 -7.71875 L 81.140625 -7.71875 L 81.140625 0 L 5.859375 0 L 5.859375 -7.71875 L 21.59375 -7.71875 L 21.59375 -215.0625 L 5.859375 -215.0625 L 5.859375 -222.765625 L 81.140625 -222.765625 L 81.140625 -215.0625 L 64.796875 -215.0625 L 64.796875 -166 C 67.878906 -168.050781 72.039062 -169.539062 77.28125 -170.46875 C 82.53125 -171.394531 87.984375 -171.859375 93.640625 -171.859375 C 99.296875 -171.859375 104.742188 -171.34375 109.984375 -170.3125 C 115.234375 -169.289062 119.40625 -167.851562 122.5 -166 L 122.5 -215.0625 L 107.0625 -215.0625 L 107.0625 -222.765625 Z M 182.34375 -222.765625 "></path></g></g></g><g fill="#ae0403" fill-opacity="1"><g transform="translate(1195.072742, 250.150632)"><g><path d="M 182.34375 -222.765625 L 182.34375 -215.0625 L 166.3125 -215.0625 L 166.3125 -7.71875 L 182.34375 -7.71875 L 182.34375 0 L 107.0625 0 L 107.0625 -7.71875 L 123.109375 -7.71875 L 123.109375 -199.625 L 122.796875 -199.625 C 119.921875 -192.425781 116.425781 -185.28125 112.3125 -178.1875 C 108.195312 -171.09375 103.617188 -164.148438 98.578125 -157.359375 C 93.535156 -150.566406 88.132812 -144.1875 82.375 -138.21875 C 76.625 -132.257812 70.765625 -126.914062 64.796875 -122.1875 L 64.796875 -7.71875 L 81.140625 -7.71875 L 81.140625 0 L 5.859375 0 L 5.859375 -7.71875 L 21.59375 -7.71875 L 21.59375 -215.0625 L 5.859375 -215.0625 L 5.859375 -222.765625 L 81.140625 -222.765625 L 81.140625 -215.0625 L 64.796875 -215.0625 L 64.796875 -132.671875 C 76.929688 -144.191406 87.984375 -156.789062 97.953125 -170.46875 C 107.929688 -184.144531 115.289062 -199.007812 120.03125 -215.0625 L 107.0625 -215.0625 L 107.0625 -222.765625 Z M 182.34375 -222.765625 "></path></g></g></g><g fill="#ae0403" fill-opacity="1"><g transform="translate(1382.965704, 250.150632)"><g><path d="M 210.421875 -7.71875 L 210.421875 -199.625 L 210.125 -199.625 C 207.238281 -192.632812 203.894531 -185.539062 200.09375 -178.34375 C 196.289062 -171.144531 192.070312 -164.148438 187.4375 -157.359375 C 182.8125 -150.566406 177.769531 -144.1875 172.3125 -138.21875 C 166.863281 -132.257812 161.160156 -126.914062 155.203125 -122.1875 L 155.203125 -7.71875 L 170.9375 -7.71875 L 170.9375 0 L 95.65625 0 L 95.65625 -7.71875 L 112 -7.71875 L 112 -161.0625 C 103.976562 -153.25 96.828125 -145.640625 90.546875 -138.234375 C 84.273438 -130.828125 78.976562 -123.0625 74.65625 -114.9375 C 70.34375 -106.8125 67.003906 -98.117188 64.640625 -88.859375 C 62.273438 -79.609375 60.882812 -69.222656 60.46875 -57.703125 C 60.0625 -47.210938 60.421875 -37.441406 61.546875 -28.390625 C 62.679688 -19.335938 65.304688 -9.875 69.421875 0 L 0.609375 0 L 0.609375 -7.71875 L 11.71875 -7.71875 C 11.3125 -16.769531 12.492188 -26.332031 15.265625 -36.40625 C 18.046875 -46.488281 21.957031 -56.671875 27 -66.953125 C 32.039062 -77.234375 37.953125 -87.414062 44.734375 -97.5 C 51.523438 -107.582031 58.722656 -117.097656 66.328125 -126.046875 C 73.941406 -134.992188 81.65625 -143.164062 89.46875 -150.5625 C 97.289062 -157.96875 104.800781 -164.140625 112 -169.078125 L 112 -215.0625 L 95.65625 -215.0625 L 95.65625 -222.765625 L 170.9375 -222.765625 L 170.9375 -215.0625 L 155.203125 -215.0625 L 155.203125 -132.671875 C 167.335938 -144.398438 177.878906 -156.945312 186.828125 -170.3125 C 195.773438 -183.6875 202.507812 -198.601562 207.03125 -215.0625 L 193.453125 -215.0625 L 193.453125 -222.765625 L 269.046875 -222.765625 L 269.046875 -215.0625 L 253.625 -215.0625 L 253.625 -7.71875 L 269.046875 -7.71875 L 269.046875 0 L 193.453125 0 L 193.453125 -7.71875 Z M 210.421875 -7.71875 "></path></g></g></g><g fill="#ae0403" fill-opacity="1"><g transform="translate(1658.172122, 250.150632)"><g><path d="M 111.078125 -182.046875 L 111.078125 -188.515625 C 111.078125 -192.628906 110.664062 -195.972656 109.84375 -198.546875 C 109.019531 -201.117188 107.679688 -203.640625 105.828125 -206.109375 C 103.972656 -208.578125 101.65625 -211.554688 98.875 -215.046875 C 96.101562 -218.546875 92.765625 -223.28125 88.859375 -229.25 C 85.160156 -225.550781 80.992188 -221.234375 76.359375 -216.296875 C 71.734375 -211.359375 67.414062 -205.492188 63.40625 -198.703125 C 59.394531 -191.910156 56 -184.144531 53.21875 -175.40625 C 50.445312 -166.664062 49.0625 -156.640625 49.0625 -145.328125 C 49.0625 -137.710938 50.035156 -130.816406 51.984375 -124.640625 C 53.941406 -118.472656 56.410156 -112.71875 59.390625 -107.375 C 62.378906 -102.03125 65.566406 -97.039062 68.953125 -92.40625 C 72.347656 -87.78125 75.535156 -83.203125 78.515625 -78.671875 C 81.503906 -74.148438 83.972656 -69.570312 85.921875 -64.9375 C 87.878906 -60.3125 88.859375 -55.328125 88.859375 -49.984375 C 88.859375 -45.253906 88.910156 -40.984375 89.015625 -37.171875 C 89.117188 -33.367188 88.960938 -29.613281 88.546875 -25.90625 C 88.140625 -22.207031 87.367188 -18.457031 86.234375 -14.65625 C 85.109375 -10.851562 83.3125 -6.6875 80.84375 -2.15625 C 90.507812 -7.09375 98.066406 -11.925781 103.515625 -16.65625 C 108.960938 -21.394531 113.078125 -26.023438 115.859375 -30.546875 C 118.640625 -35.066406 120.390625 -39.332031 121.109375 -43.34375 C 121.828125 -47.363281 122.1875 -51.222656 122.1875 -54.921875 C 122.1875 -56.773438 122.082031 -59.347656 121.875 -62.640625 C 121.664062 -65.929688 121.253906 -69.320312 120.640625 -72.8125 L 103.984375 -72.8125 L 103.984375 -80.53125 L 179.578125 -80.53125 L 179.578125 -72.8125 L 162.609375 -72.8125 C 160.960938 -68.5 158.90625 -64.023438 156.4375 -59.390625 C 153.96875 -54.765625 150.570312 -49.46875 146.25 -43.5 C 141.925781 -37.539062 136.832031 -31.882812 130.96875 -26.53125 C 125.113281 -21.1875 118.992188 -16.300781 112.609375 -11.875 C 106.234375 -7.457031 99.753906 -3.5 93.171875 0 C 86.597656 3.5 80.328125 6.273438 74.359375 8.328125 C 74.359375 5.453125 74.148438 2.472656 73.734375 -0.609375 C 73.328125 -3.703125 72.765625 -6.6875 72.046875 -9.5625 C 71.328125 -12.445312 70.503906 -15.070312 69.578125 -17.4375 C 68.648438 -19.800781 67.570312 -21.703125 66.34375 -23.140625 C 62.425781 -28.078125 57.226562 -32.910156 50.75 -37.640625 C 44.269531 -42.367188 37.945312 -47.613281 31.78125 -53.375 C 25.613281 -59.132812 20.316406 -65.71875 15.890625 -73.125 C 11.460938 -80.53125 9.25 -89.375 9.25 -99.65625 C 9.25 -116.320312 11.972656 -131.492188 17.421875 -145.171875 C 22.878906 -158.847656 29.617188 -171.34375 37.640625 -182.65625 C 45.660156 -193.96875 54.296875 -204.457031 63.546875 -214.125 C 72.804688 -223.800781 81.242188 -232.957031 88.859375 -241.59375 C 94.210938 -236.039062 99.5625 -231.71875 104.90625 -228.625 C 110.25 -225.539062 115.335938 -222.765625 120.171875 -220.296875 C 125.015625 -217.828125 129.539062 -215.203125 133.75 -212.421875 C 137.96875 -209.648438 141.617188 -205.898438 144.703125 -201.171875 C 146.972656 -198.085938 148.773438 -194.847656 150.109375 -191.453125 C 151.441406 -188.054688 152.519531 -184.921875 153.34375 -182.046875 L 169.703125 -182.046875 L 169.703125 -174.328125 L 94.421875 -174.328125 L 94.421875 -182.046875 Z M 111.078125 -182.046875 "></path></g></g></g><g fill="#ae0403" fill-opacity="1"><g transform="translate(1837.735035, 250.150632)"><g><path d="M 120.328125 -7.71875 L 120.328125 -118.796875 C 101.410156 -106.035156 87.9375 -91.476562 79.90625 -75.125 C 71.882812 -58.78125 67.875 -39.191406 67.875 -16.359375 C 67.875 -11.210938 68.390625 -5.757812 69.421875 0 L 0.609375 0 L 0.609375 -7.71875 L 13.578125 -7.71875 C 14.398438 -15.320312 16.710938 -23.082031 20.515625 -31 C 24.316406 -38.925781 29.097656 -46.742188 34.859375 -54.453125 C 40.617188 -62.171875 47.046875 -69.628906 54.140625 -76.828125 C 61.242188 -84.023438 68.597656 -90.707031 76.203125 -96.875 C 83.816406 -103.050781 91.425781 -108.609375 99.03125 -113.546875 C 106.644531 -118.484375 113.742188 -122.492188 120.328125 -125.578125 L 120.328125 -126.5 C 116.015625 -128.96875 110.71875 -132.363281 104.4375 -136.6875 C 98.164062 -141.007812 91.484375 -145.894531 84.390625 -151.34375 C 77.296875 -156.789062 70.25 -162.648438 63.25 -168.921875 C 56.257812 -175.203125 49.984375 -181.53125 44.421875 -187.90625 C 38.867188 -194.28125 34.34375 -200.550781 30.84375 -206.71875 C 27.351562 -212.894531 25.609375 -218.65625 25.609375 -224 C 25.609375 -230.582031 26.992188 -235.671875 29.765625 -239.265625 C 32.546875 -242.867188 37.4375 -244.671875 44.4375 -244.671875 C 51.632812 -244.671875 58.78125 -243.847656 65.875 -242.203125 C 72.96875 -240.554688 79.804688 -238.5 86.390625 -236.03125 C 96.054688 -232.332031 105.515625 -227.550781 114.765625 -221.6875 C 124.023438 -215.820312 132.253906 -209.03125 139.453125 -201.3125 C 146.660156 -193.601562 152.472656 -184.914062 156.890625 -175.25 C 161.316406 -165.582031 163.53125 -155.195312 163.53125 -144.09375 L 163.53125 -7.71875 L 179.875 -7.71875 L 179.875 0 L 104.59375 0 L 104.59375 -7.71875 Z M 120.328125 -166.609375 C 120.328125 -174.835938 119.300781 -182.65625 117.25 -190.0625 C 116.425781 -193.144531 115.140625 -196.796875 113.390625 -201.015625 C 111.640625 -205.234375 109.425781 -209.296875 106.75 -213.203125 C 104.082031 -217.109375 101.101562 -220.453125 97.8125 -223.234375 C 94.519531 -226.015625 91.019531 -227.40625 87.3125 -227.40625 C 79.5 -227.40625 74.304688 -225.085938 71.734375 -220.453125 C 69.160156 -215.828125 67.875 -210.117188 67.875 -203.328125 C 67.875 -196.546875 69.671875 -189.863281 73.265625 -183.28125 C 76.867188 -176.695312 81.34375 -170.367188 86.6875 -164.296875 C 92.039062 -158.234375 97.75 -152.628906 103.8125 -147.484375 C 109.882812 -142.335938 115.390625 -137.8125 120.328125 -133.90625 Z M 120.328125 -166.609375 "></path></g></g></g><g fill="#ae0403" fill-opacity="1"><g transform="translate(2024.70257, 250.150632)"><g><path d="M 50.296875 -62.015625 L 32.703125 -62.015625 L 25 -220.296875 L 58 -220.296875 Z M 22.21875 -16.65625 C 22.21875 -24.269531 24.066406 -29.617188 27.765625 -32.703125 C 31.472656 -35.785156 36 -37.328125 41.34375 -37.328125 C 46.488281 -37.328125 50.960938 -35.785156 54.765625 -32.703125 C 58.566406 -29.617188 60.46875 -24.269531 60.46875 -16.65625 C 60.46875 -9.25 58.566406 -3.898438 54.765625 -0.609375 C 50.960938 2.671875 46.488281 4.3125 41.34375 4.3125 C 36 4.3125 31.472656 2.671875 27.765625 -0.609375 C 24.066406 -3.898438 22.21875 -9.25 22.21875 -16.65625 Z M 22.21875 -16.65625 "></path></g></g></g></g></g></svg> 