<?xml version="1.0" encoding="UTF-8"?> <svg xmlns="http://www.w3.org/2000/svg" xmlns:xlink="http://www.w3.org/1999/xlink" width="3000" zoomAndPan="magnify" viewBox="0 0 2250 749.999995" height="1000" preserveAspectRatio="xMidYMid meet" version="1.0"><defs><g></g><clipPath id="370a5bf796"><rect x="0" width="2223" y="0" height="394"></rect></clipPath></defs><g transform="matrix(1, 0, 0, 1, 17, 194)"><g clip-path="url(#370a5bf796)"><g fill="#fbf7eb" fill-opacity="1"><g transform="translate(2.168839, 321.752771)"><g><path d="M 235.5 -277.734375 L 213.984375 -277.734375 L 213.984375 -9.96875 L 235.5 -9.96875 L 235.5 0 L 138.265625 0 L 138.265625 -9.96875 L 158.1875 -9.96875 L 158.1875 -277.734375 L 83.671875 -277.734375 L 83.671875 -9.96875 L 104.796875 -9.96875 L 104.796875 0 L 7.578125 0 L 7.578125 -9.96875 L 27.890625 -9.96875 L 27.890625 -277.734375 L 7.578125 -277.734375 L 7.578125 -287.6875 L 235.5 -287.6875 Z M 235.5 -277.734375 "></path></g></g></g><g fill="#fbf7eb" fill-opacity="1"><g transform="translate(244.028575, 321.752771)"><g><path d="M 131.890625 -234.296875 C 131.890625 -238.285156 131.425781 -242.269531 130.5 -246.25 C 129.570312 -250.238281 128.175781 -253.957031 126.3125 -257.40625 C 124.457031 -260.863281 121.9375 -263.65625 118.75 -265.78125 C 115.5625 -267.90625 111.84375 -268.96875 107.59375 -268.96875 C 102.8125 -268.96875 98.289062 -267.503906 94.03125 -264.578125 C 89.78125 -261.660156 86.128906 -257.875 83.078125 -253.21875 C 80.023438 -248.570312 77.632812 -243.257812 75.90625 -237.28125 C 74.175781 -231.3125 73.3125 -225.40625 73.3125 -219.5625 L 73.3125 -56.1875 C 73.3125 -49.28125 75.171875 -42.96875 78.890625 -37.25 C 82.609375 -31.539062 87.65625 -28.6875 94.03125 -28.6875 C 99.082031 -28.6875 103.929688 -29.878906 108.578125 -32.265625 C 113.234375 -34.660156 117.285156 -37.847656 120.734375 -41.828125 C 124.191406 -45.816406 126.914062 -50.46875 128.90625 -55.78125 C 130.894531 -61.09375 131.890625 -66.539062 131.890625 -72.125 Z M 191.265625 -220.75 C 191.265625 -205.34375 189.734375 -189.003906 186.671875 -171.734375 C 183.617188 -154.472656 179.300781 -137.472656 173.71875 -120.734375 C 168.144531 -103.992188 161.503906 -87.988281 153.796875 -72.71875 C 146.097656 -57.445312 137.535156 -43.96875 128.109375 -32.28125 C 118.679688 -20.59375 108.648438 -11.289062 98.015625 -4.375 C 87.390625 2.527344 76.367188 5.984375 64.953125 5.984375 C 55.390625 5.984375 47.351562 3.128906 40.84375 -2.578125 C 34.332031 -8.296875 29.082031 -15.671875 25.09375 -24.703125 C 21.113281 -33.734375 18.257812 -43.757812 16.53125 -54.78125 C 14.8125 -65.8125 13.953125 -76.640625 13.953125 -87.265625 C 13.953125 -103.472656 15.546875 -119.941406 18.734375 -136.671875 C 21.921875 -153.410156 26.300781 -169.550781 31.875 -185.09375 C 37.457031 -200.632812 44.097656 -215.3125 51.796875 -229.125 C 59.503906 -242.9375 67.875 -254.953125 76.90625 -265.171875 C 85.9375 -275.398438 95.566406 -283.503906 105.796875 -289.484375 C 116.023438 -295.460938 126.316406 -298.453125 136.671875 -298.453125 C 145.171875 -298.453125 152.804688 -296.191406 159.578125 -291.671875 C 166.359375 -287.160156 172.070312 -281.1875 176.71875 -273.75 C 181.363281 -266.3125 184.945312 -258.007812 187.46875 -248.84375 C 190 -239.675781 191.265625 -230.3125 191.265625 -220.75 Z M 191.265625 -220.75 "></path></g></g></g><g fill="#fbf7eb" fill-opacity="1"><g transform="translate(449.230776, 321.752771)"><g><path d="M 286.5 0 C 288.09375 -4.78125 289.351562 -9.757812 290.28125 -14.9375 C 291.207031 -20.125 291.671875 -25.375 291.671875 -30.6875 C 291.671875 -38.914062 291.207031 -47.613281 290.28125 -56.78125 C 289.351562 -65.945312 287.691406 -74.910156 285.296875 -83.671875 C 282.910156 -92.441406 279.65625 -100.8125 275.53125 -108.78125 C 271.414062 -116.75 266.171875 -123.789062 259.796875 -129.90625 L 213.984375 -174.125 L 213.1875 -174.125 L 213.1875 -9.96875 L 233.5 -9.96875 L 233.5 0 L 136.28125 0 L 136.28125 -9.96875 L 157.390625 -9.96875 L 157.390625 -174.125 L 156.59375 -174.125 L 110.375 -129.90625 C 104 -123.789062 98.816406 -116.75 94.828125 -108.78125 C 90.847656 -100.8125 87.660156 -92.441406 85.265625 -83.671875 C 82.878906 -74.910156 81.21875 -65.945312 80.28125 -56.78125 C 79.351562 -47.613281 78.890625 -38.914062 78.890625 -30.6875 C 78.890625 -25.375 79.285156 -20.125 80.078125 -14.9375 C 80.878906 -9.757812 82.210938 -4.78125 84.078125 0 L 0 0 L 0 -9.96875 L 14.75 -9.96875 L 14.75 -16.34375 C 14.75 -28.289062 17.003906 -40.039062 21.515625 -51.59375 C 26.035156 -63.15625 31.878906 -74.179688 39.046875 -84.671875 C 46.222656 -95.171875 54.328125 -104.9375 63.359375 -113.96875 C 72.390625 -123 81.421875 -130.96875 90.453125 -137.875 L 157.390625 -187.28125 L 125.921875 -232.703125 C 124.585938 -234.566406 122.789062 -236.890625 120.53125 -239.671875 C 118.28125 -242.460938 115.890625 -245.117188 113.359375 -247.640625 C 110.835938 -250.171875 108.113281 -252.363281 105.1875 -254.21875 C 102.269531 -256.082031 99.613281 -257.015625 97.21875 -257.015625 C 92.707031 -257.015625 88.191406 -255.953125 83.671875 -253.828125 C 79.160156 -251.703125 75.109375 -248.84375 71.515625 -245.25 C 67.929688 -241.664062 65.007812 -237.613281 62.75 -233.09375 C 60.5 -228.582031 59.375 -224.070312 59.375 -219.5625 L 50.609375 -219.5625 C 50.609375 -223.8125 50.671875 -228.390625 50.796875 -233.296875 C 50.929688 -238.210938 51 -243.191406 51 -248.234375 C 51 -253.285156 50.800781 -258.203125 50.40625 -262.984375 C 50.007812 -267.765625 49.144531 -272.148438 47.8125 -276.140625 C 48.613281 -278.265625 50.34375 -280.125 53 -281.71875 C 55.65625 -283.3125 58.640625 -284.570312 61.953125 -285.5 C 65.273438 -286.425781 68.53125 -287.15625 71.71875 -287.6875 C 74.90625 -288.21875 77.5625 -288.484375 79.6875 -288.484375 C 85 -288.484375 90.113281 -287.15625 95.03125 -284.5 C 99.945312 -281.84375 104.53125 -278.519531 108.78125 -274.53125 C 113.03125 -270.550781 116.945312 -266.238281 120.53125 -261.59375 C 124.125 -256.945312 127.113281 -252.628906 129.5 -248.640625 L 156.59375 -204.421875 L 157.390625 -204.421875 L 157.390625 -277.734375 L 136.28125 -277.734375 L 136.28125 -287.6875 L 233.5 -287.6875 L 233.5 -277.734375 L 213.1875 -277.734375 L 213.1875 -204.421875 L 213.984375 -204.421875 L 240.671875 -248.640625 C 243.066406 -252.628906 246.054688 -256.945312 249.640625 -261.59375 C 253.222656 -266.238281 257.207031 -270.550781 261.59375 -274.53125 C 265.976562 -278.519531 270.625 -281.84375 275.53125 -284.5 C 280.445312 -287.15625 285.5625 -288.484375 290.875 -288.484375 C 293 -288.484375 295.65625 -288.21875 298.84375 -287.6875 C 302.039062 -287.15625 305.296875 -286.425781 308.609375 -285.5 C 311.929688 -284.570312 314.921875 -283.3125 317.578125 -281.71875 C 320.234375 -280.125 321.960938 -278.265625 322.765625 -276.140625 C 321.429688 -272.148438 320.5 -267.765625 319.96875 -262.984375 C 319.4375 -258.203125 319.171875 -253.285156 319.171875 -248.234375 C 319.171875 -243.191406 319.238281 -238.210938 319.375 -233.296875 C 319.507812 -228.390625 319.578125 -223.8125 319.578125 -219.5625 L 310.8125 -219.5625 C 310.8125 -224.070312 309.679688 -228.582031 307.421875 -233.09375 C 305.160156 -237.613281 302.234375 -241.664062 298.640625 -245.25 C 295.054688 -248.84375 291.003906 -251.703125 286.484375 -253.828125 C 281.972656 -255.953125 277.460938 -257.015625 272.953125 -257.015625 C 270.554688 -257.015625 267.894531 -256.082031 264.96875 -254.21875 C 262.050781 -252.363281 259.332031 -250.171875 256.8125 -247.640625 C 254.289062 -245.117188 251.898438 -242.460938 249.640625 -239.671875 C 247.378906 -236.890625 245.71875 -234.566406 244.65625 -232.703125 L 213.1875 -187.28125 L 279.71875 -137.875 C 288.75 -130.96875 297.847656 -123 307.015625 -113.96875 C 316.179688 -104.9375 324.347656 -95.171875 331.515625 -84.671875 C 338.691406 -74.179688 344.535156 -63.15625 349.046875 -51.59375 C 353.566406 -40.039062 355.828125 -28.289062 355.828125 -16.34375 C 355.828125 -15.28125 355.757812 -14.21875 355.625 -13.15625 C 355.5 -12.09375 355.4375 -11.03125 355.4375 -9.96875 L 370.578125 -9.96875 L 370.578125 0 Z M 286.5 0 "></path></g></g></g><g fill="#fbf7eb" fill-opacity="1"><g transform="translate(819.790129, 321.752771)"><g><path d="M 208.796875 -228.71875 C 208.796875 -228.1875 208.460938 -227.253906 207.796875 -225.921875 C 207.140625 -224.597656 205.945312 -223.269531 204.21875 -221.9375 C 202.488281 -220.613281 200.09375 -219.421875 197.03125 -218.359375 C 193.976562 -217.296875 190.195312 -216.765625 185.6875 -216.765625 C 182.757812 -216.765625 179.035156 -217.097656 174.515625 -217.765625 C 170.003906 -218.429688 165.359375 -219.5625 160.578125 -221.15625 C 155.796875 -222.75 151.144531 -224.738281 146.625 -227.125 C 142.113281 -229.519531 138.398438 -232.441406 135.484375 -235.890625 C 131.765625 -240.140625 129.109375 -244.785156 127.515625 -249.828125 C 125.921875 -254.878906 124.65625 -259.992188 123.71875 -265.171875 C 122.789062 -270.359375 121.863281 -275.539062 120.9375 -280.71875 C 120.007812 -285.894531 118.21875 -290.875 115.5625 -295.65625 C 105.46875 -286.09375 97.296875 -277.0625 91.046875 -268.5625 C 84.804688 -260.0625 79.890625 -251.226562 76.296875 -242.0625 C 72.710938 -232.90625 70.253906 -222.8125 68.921875 -211.78125 C 67.597656 -200.757812 66.9375 -187.941406 66.9375 -173.328125 C 66.9375 -172.003906 67.003906 -170.675781 67.140625 -169.34375 C 67.273438 -168.019531 67.472656 -166.691406 67.734375 -165.359375 C 77.035156 -169.609375 85.601562 -172.597656 93.4375 -174.328125 C 101.28125 -176.054688 110.25 -176.921875 120.34375 -176.921875 C 132.820312 -176.921875 143.644531 -175.457031 152.8125 -172.53125 C 161.976562 -169.613281 169.8125 -165.960938 176.3125 -161.578125 C 182.820312 -157.191406 188.269531 -152.410156 192.65625 -147.234375 C 197.039062 -142.054688 200.828125 -137.207031 204.015625 -132.6875 C 198.703125 -133.75 193.785156 -134.476562 189.265625 -134.875 C 184.753906 -135.28125 180.375 -135.484375 176.125 -135.484375 C 171.875 -135.484375 167.421875 -135.21875 162.765625 -134.6875 C 158.117188 -134.15625 153.007812 -133.488281 147.4375 -132.6875 C 145.3125 -144.113281 141.988281 -152.484375 137.46875 -157.796875 C 132.957031 -163.109375 125.65625 -165.765625 115.5625 -165.765625 C 108.65625 -165.765625 101.679688 -164.765625 94.640625 -162.765625 C 87.597656 -160.773438 79.691406 -157.921875 70.921875 -154.203125 C 73.847656 -147.035156 77.832031 -139.863281 82.875 -132.6875 C 87.925781 -125.519531 92.84375 -118.210938 97.625 -110.765625 C 102.40625 -103.328125 106.585938 -95.820312 110.171875 -88.25 C 113.765625 -80.6875 115.5625 -72.785156 115.5625 -64.546875 C 115.5625 -61.359375 115.691406 -57.570312 115.953125 -53.1875 C 116.222656 -48.8125 116.222656 -44.097656 115.953125 -39.046875 C 115.691406 -34.003906 114.960938 -28.5625 113.765625 -22.71875 C 112.566406 -16.875 110.375 -11.03125 107.1875 -5.1875 C 111.707031 -8.101562 116.554688 -12.019531 121.734375 -16.9375 C 126.910156 -21.851562 131.09375 -27.234375 134.28125 -33.078125 C 135.875 -35.734375 138.066406 -38.65625 140.859375 -41.84375 C 143.648438 -45.03125 146.90625 -47.882812 150.625 -50.40625 C 154.34375 -52.925781 158.191406 -55.050781 162.171875 -56.78125 C 166.160156 -58.507812 170.144531 -59.375 174.125 -59.375 C 176.78125 -59.375 179.503906 -58.578125 182.296875 -56.984375 C 185.085938 -55.390625 187.609375 -53.328125 189.859375 -50.796875 C 192.117188 -48.273438 193.910156 -45.550781 195.234375 -42.625 C 196.566406 -39.707031 197.234375 -36.921875 197.234375 -34.265625 C 197.234375 -32.671875 196.96875 -31.609375 196.4375 -31.078125 C 195.90625 -30.546875 194.179688 -30.28125 191.265625 -30.28125 C 188.609375 -30.28125 185.484375 -30.8125 181.890625 -31.875 C 178.304688 -32.9375 175.453125 -33.46875 173.328125 -33.46875 C 166.691406 -33.46875 160.316406 -32.070312 154.203125 -29.28125 C 148.097656 -26.5 143.316406 -23.515625 139.859375 -20.328125 C 133.484375 -14.210938 126.84375 -8.429688 119.9375 -2.984375 C 113.03125 2.460938 105.328125 7.046875 96.828125 10.765625 C 96.828125 7.046875 96.5625 3.191406 96.03125 -0.796875 C 95.5 -4.785156 94.765625 -8.640625 93.828125 -12.359375 C 92.898438 -16.078125 91.835938 -19.460938 90.640625 -22.515625 C 89.453125 -25.566406 88.0625 -28.023438 86.46875 -29.890625 C 81.414062 -36.265625 74.707031 -42.570312 66.34375 -48.8125 C 57.976562 -55.050781 49.742188 -61.957031 41.640625 -69.53125 C 33.535156 -77.101562 26.5625 -85.738281 20.71875 -95.4375 C 14.875 -105.132812 11.953125 -116.625 11.953125 -129.90625 C 11.953125 -151.414062 15.472656 -170.9375 22.515625 -188.46875 C 29.554688 -206.007812 38.320312 -222.015625 48.8125 -236.484375 C 59.300781 -250.960938 70.585938 -264.378906 82.671875 -276.734375 C 94.765625 -289.085938 105.726562 -300.84375 115.5625 -312 C 122.195312 -305.894531 127.972656 -301.710938 132.890625 -299.453125 C 137.804688 -297.191406 142.253906 -295.265625 146.234375 -293.671875 C 150.222656 -292.078125 153.941406 -290.28125 157.390625 -288.28125 C 160.847656 -286.289062 164.566406 -282.773438 168.546875 -277.734375 C 171.734375 -273.484375 174.191406 -269.429688 175.921875 -265.578125 C 177.648438 -261.722656 179.109375 -258.132812 180.296875 -254.8125 C 181.492188 -251.5 182.691406 -248.515625 183.890625 -245.859375 C 185.085938 -243.203125 186.75 -241.078125 188.875 -239.484375 C 190.726562 -237.890625 192.847656 -236.691406 195.234375 -235.890625 C 197.628906 -235.097656 199.820312 -234.367188 201.8125 -233.703125 C 203.8125 -233.035156 205.472656 -232.367188 206.796875 -231.703125 C 208.128906 -231.046875 208.796875 -230.050781 208.796875 -228.71875 Z M 208.796875 -228.71875 "></path></g></g></g><g fill="#fbf7eb" fill-opacity="1"><g transform="translate(1040.531926, 321.752771)"><g><path d="M 221.15625 -287.6875 L 221.15625 -277.734375 L 201.234375 -277.734375 L 201.234375 -9.96875 L 221.15625 -9.96875 L 221.15625 0 L 123.921875 0 L 123.921875 -9.96875 L 145.4375 -9.96875 L 145.4375 -208 C 135.082031 -197.90625 125.921875 -188.078125 117.953125 -178.515625 C 109.984375 -168.953125 103.207031 -158.921875 97.625 -148.421875 C 92.039062 -137.929688 87.65625 -126.707031 84.46875 -114.75 C 81.28125 -102.800781 79.421875 -89.390625 78.890625 -74.515625 C 78.359375 -60.703125 78.820312 -48.015625 80.28125 -36.453125 C 81.75 -24.898438 85.140625 -12.75 90.453125 0 L 0.40625 0 L 0.40625 -9.96875 L 16.34375 -9.96875 C 15.539062 -21.65625 16.929688 -34.003906 20.515625 -47.015625 C 24.109375 -60.035156 29.15625 -73.1875 35.65625 -86.46875 C 42.164062 -99.75 49.867188 -112.894531 58.765625 -125.90625 C 67.671875 -138.925781 76.972656 -151.210938 86.671875 -162.765625 C 96.367188 -174.328125 106.265625 -184.890625 116.359375 -194.453125 C 126.453125 -204.015625 136.144531 -211.984375 145.4375 -218.359375 L 145.4375 -277.734375 L 123.921875 -277.734375 L 123.921875 -287.6875 Z M 221.15625 -287.6875 "></path></g></g></g><g fill="#fbf7eb" fill-opacity="1"><g transform="translate(1269.242716, 321.752771)"><g><path d="M 211.1875 -287.6875 L 211.1875 -277.734375 L 190.46875 -277.734375 L 190.46875 -9.96875 L 211.1875 -9.96875 L 211.1875 0 L 113.96875 0 L 113.96875 -9.96875 L 134.6875 -9.96875 L 134.6875 -61.765625 C 128.84375 -54.328125 121.535156 -46.753906 112.765625 -39.046875 C 103.992188 -31.347656 94.492188 -24.3125 84.265625 -17.9375 C 74.046875 -11.5625 63.625 -6.378906 53 -2.390625 C 42.375 1.597656 32.144531 3.59375 22.3125 3.59375 C 18.863281 3.59375 16.207031 2.660156 14.34375 0.796875 C 12.488281 -1.066406 11.09375 -3.390625 10.15625 -6.171875 C 9.226562 -8.960938 8.628906 -11.953125 8.359375 -15.140625 C 8.097656 -18.328125 7.96875 -21.117188 7.96875 -23.515625 C 7.96875 -44.765625 10.425781 -64.15625 15.34375 -81.6875 C 20.257812 -99.21875 27.894531 -117.148438 38.25 -135.484375 C 51.269531 -158.585938 66.015625 -180.234375 82.484375 -200.421875 C 98.953125 -220.617188 116.351562 -240.28125 134.6875 -259.40625 L 134.6875 -277.734375 L 113.96875 -277.734375 L 113.96875 -287.6875 Z M 134.6875 -243.46875 C 125.382812 -232.570312 116.082031 -221.015625 106.78125 -208.796875 C 97.488281 -196.578125 89.054688 -183.828125 81.484375 -170.546875 C 73.910156 -157.265625 67.800781 -143.515625 63.15625 -129.296875 C 58.507812 -115.085938 56.1875 -100.546875 56.1875 -85.671875 C 56.1875 -75.578125 59.238281 -67.671875 65.34375 -61.953125 C 71.457031 -56.242188 79.5625 -53.390625 89.65625 -53.390625 C 99.21875 -53.390625 107.382812 -55.644531 114.15625 -60.15625 C 120.9375 -64.675781 127.78125 -69.859375 134.6875 -75.703125 Z M 134.6875 -243.46875 "></path></g></g></g><g fill="#fbf7eb" fill-opacity="1"><g transform="translate(1487.593863, 321.752771)"><g><path d="M 235.5 -287.6875 L 235.5 -277.734375 L 213.984375 -277.734375 L 213.984375 -9.96875 L 235.5 -9.96875 L 235.5 0 L 138.265625 0 L 138.265625 -9.96875 L 158.1875 -9.96875 L 158.1875 -202.421875 C 153.675781 -205.078125 148.097656 -207.066406 141.453125 -208.390625 C 134.816406 -209.722656 127.976562 -210.320312 120.9375 -210.1875 C 113.894531 -210.0625 106.984375 -209.332031 100.203125 -208 C 93.429688 -206.675781 87.921875 -204.816406 83.671875 -202.421875 L 83.671875 -9.96875 L 104.796875 -9.96875 L 104.796875 0 L 7.578125 0 L 7.578125 -9.96875 L 27.890625 -9.96875 L 27.890625 -277.734375 L 7.578125 -277.734375 L 7.578125 -287.6875 L 104.796875 -287.6875 L 104.796875 -277.734375 L 83.671875 -277.734375 L 83.671875 -214.375 C 87.660156 -217.03125 93.039062 -218.957031 99.8125 -220.15625 C 106.59375 -221.351562 113.632812 -221.953125 120.9375 -221.953125 C 128.238281 -221.953125 135.273438 -221.285156 142.046875 -219.953125 C 148.828125 -218.628906 154.207031 -216.769531 158.1875 -214.375 L 158.1875 -277.734375 L 138.265625 -277.734375 L 138.265625 -287.6875 Z M 235.5 -287.6875 "></path></g></g></g><g fill="#fbf7eb" fill-opacity="1"><g transform="translate(1729.453688, 321.752771)"><g><path d="M 235.5 -287.6875 L 235.5 -277.734375 L 214.78125 -277.734375 L 214.78125 -9.96875 L 235.5 -9.96875 L 235.5 0 L 138.265625 0 L 138.265625 -9.96875 L 158.984375 -9.96875 L 158.984375 -257.8125 L 158.59375 -257.8125 C 154.875 -248.507812 150.359375 -239.273438 145.046875 -230.109375 C 139.734375 -220.953125 133.820312 -211.988281 127.3125 -203.21875 C 120.800781 -194.445312 113.828125 -186.207031 106.390625 -178.5 C 98.953125 -170.800781 91.378906 -163.898438 83.671875 -157.796875 L 83.671875 -9.96875 L 104.796875 -9.96875 L 104.796875 0 L 7.578125 0 L 7.578125 -9.96875 L 27.890625 -9.96875 L 27.890625 -277.734375 L 7.578125 -277.734375 L 7.578125 -287.6875 L 104.796875 -287.6875 L 104.796875 -277.734375 L 83.671875 -277.734375 L 83.671875 -171.34375 C 99.347656 -186.21875 113.628906 -202.488281 126.515625 -220.15625 C 139.398438 -237.820312 148.894531 -257.015625 155 -277.734375 L 138.265625 -277.734375 L 138.265625 -287.6875 Z M 235.5 -287.6875 "></path></g></g></g><g fill="#fbf7eb" fill-opacity="1"><g transform="translate(1972.110096, 321.752771)"><g><path d="M 155.40625 -9.96875 L 155.40625 -153.40625 C 130.96875 -136.9375 113.566406 -118.140625 103.203125 -97.015625 C 92.835938 -75.898438 87.65625 -50.601562 87.65625 -21.125 C 87.65625 -14.476562 88.320312 -7.4375 89.65625 0 L 0.796875 0 L 0.796875 -9.96875 L 17.53125 -9.96875 C 18.59375 -19.789062 21.582031 -29.816406 26.5 -40.046875 C 31.414062 -50.273438 37.59375 -60.367188 45.03125 -70.328125 C 52.46875 -80.285156 60.765625 -89.914062 69.921875 -99.21875 C 79.085938 -108.519531 88.585938 -117.15625 98.421875 -125.125 C 108.253906 -133.09375 118.082031 -140.265625 127.90625 -146.640625 C 137.738281 -153.015625 146.90625 -158.191406 155.40625 -162.171875 L 155.40625 -163.375 C 149.820312 -166.5625 142.976562 -170.941406 134.875 -176.515625 C 126.78125 -182.097656 118.148438 -188.410156 108.984375 -195.453125 C 99.816406 -202.492188 90.71875 -210.0625 81.6875 -218.15625 C 72.65625 -226.257812 64.550781 -234.425781 57.375 -242.65625 C 50.207031 -250.894531 44.363281 -259 39.84375 -266.96875 C 35.332031 -274.9375 33.078125 -282.375 33.078125 -289.28125 C 33.078125 -297.789062 34.867188 -304.367188 38.453125 -309.015625 C 42.035156 -313.660156 48.34375 -315.984375 57.375 -315.984375 C 66.675781 -315.984375 75.90625 -314.921875 85.0625 -312.796875 C 94.226562 -310.671875 103.066406 -308.015625 111.578125 -304.828125 C 124.054688 -300.046875 136.269531 -293.867188 148.21875 -286.296875 C 160.175781 -278.722656 170.800781 -269.957031 180.09375 -260 C 189.394531 -250.039062 196.898438 -238.816406 202.609375 -226.328125 C 208.328125 -213.847656 211.1875 -200.429688 211.1875 -186.078125 L 211.1875 -9.96875 L 232.3125 -9.96875 L 232.3125 0 L 135.078125 0 L 135.078125 -9.96875 Z M 155.40625 -215.171875 C 155.40625 -225.796875 154.078125 -235.890625 151.421875 -245.453125 C 150.359375 -249.441406 148.695312 -254.15625 146.4375 -259.59375 C 144.175781 -265.039062 141.316406 -270.285156 137.859375 -275.328125 C 134.410156 -280.378906 130.5625 -284.695312 126.3125 -288.28125 C 122.0625 -291.875 117.546875 -293.671875 112.765625 -293.671875 C 102.671875 -293.671875 95.960938 -290.679688 92.640625 -284.703125 C 89.316406 -278.722656 87.65625 -271.351562 87.65625 -262.59375 C 87.65625 -253.820312 89.976562 -245.1875 94.625 -236.6875 C 99.28125 -228.1875 105.0625 -220.019531 111.96875 -212.1875 C 118.875 -204.351562 126.242188 -197.113281 134.078125 -190.46875 C 141.921875 -183.820312 149.03125 -177.976562 155.40625 -172.9375 Z M 155.40625 -215.171875 "></path></g></g></g></g></g></svg> 