<?xml version="1.0" encoding="UTF-8"?> <svg xmlns="http://www.w3.org/2000/svg" xmlns:xlink="http://www.w3.org/1999/xlink" width="3000" zoomAndPan="magnify" viewBox="0 0 2250 749.999995" height="1000" preserveAspectRatio="xMidYMid meet" version="1.0"><defs><g></g><clipPath id="75471b25ed"><rect x="0" width="1639" y="0" height="674"></rect></clipPath></defs><g transform="matrix(1, 0, 0, 1, 306, 22)"><g clip-path="url(#75471b25ed)"><g fill="#ae0403" fill-opacity="1"><g transform="translate(372.585698, 226.14294)"><g><path d="M 194.203125 -7.125 L 194.203125 -184.234375 L 193.921875 -184.234375 C 191.253906 -177.773438 188.164062 -171.222656 184.65625 -164.578125 C 181.144531 -157.941406 177.253906 -151.488281 172.984375 -145.21875 C 168.710938 -138.957031 164.0625 -133.070312 159.03125 -127.5625 C 154 -122.0625 148.734375 -117.128906 143.234375 -112.765625 L 143.234375 -7.125 L 157.75 -7.125 L 157.75 0 L 88.265625 0 L 88.265625 -7.125 L 103.359375 -7.125 L 103.359375 -148.640625 C 95.960938 -141.421875 89.367188 -134.394531 83.578125 -127.5625 C 77.785156 -120.726562 72.894531 -113.5625 68.90625 -106.0625 C 64.925781 -98.570312 61.84375 -90.550781 59.65625 -82 C 57.46875 -73.457031 56.1875 -63.875 55.8125 -53.25 C 55.425781 -43.5625 55.753906 -34.539062 56.796875 -26.1875 C 57.847656 -17.84375 60.269531 -9.113281 64.0625 0 L 0.5625 0 L 0.5625 -7.125 L 10.828125 -7.125 C 10.441406 -15.46875 11.53125 -24.289062 14.09375 -33.59375 C 16.65625 -42.894531 20.257812 -52.289062 24.90625 -61.78125 C 29.5625 -71.28125 35.019531 -80.679688 41.28125 -89.984375 C 47.550781 -99.285156 54.195312 -108.0625 61.21875 -116.3125 C 68.238281 -124.570312 75.351562 -132.117188 82.5625 -138.953125 C 89.78125 -145.785156 96.710938 -151.484375 103.359375 -156.046875 L 103.359375 -198.46875 L 88.265625 -198.46875 L 88.265625 -205.59375 L 157.75 -205.59375 L 157.75 -198.46875 L 143.234375 -198.46875 L 143.234375 -122.4375 C 154.429688 -133.257812 164.15625 -144.835938 172.40625 -157.171875 C 180.664062 -169.515625 186.882812 -183.28125 191.0625 -198.46875 L 178.53125 -198.46875 L 178.53125 -205.59375 L 248.296875 -205.59375 L 248.296875 -198.46875 L 234.0625 -198.46875 L 234.0625 -7.125 L 248.296875 -7.125 L 248.296875 0 L 178.53125 0 L 178.53125 -7.125 Z M 194.203125 -7.125 "></path></g></g></g><g fill="#ae0403" fill-opacity="1"><g transform="translate(626.567722, 226.14294)"><g><path d="M 149.203125 -163.453125 C 149.203125 -163.066406 148.960938 -162.398438 148.484375 -161.453125 C 148.015625 -160.503906 147.160156 -159.554688 145.921875 -158.609375 C 144.691406 -157.660156 142.984375 -156.804688 140.796875 -156.046875 C 138.617188 -155.285156 135.914062 -154.90625 132.6875 -154.90625 C 130.601562 -154.90625 127.945312 -155.140625 124.71875 -155.609375 C 121.488281 -156.085938 118.164062 -156.894531 114.75 -158.03125 C 111.332031 -159.175781 108.007812 -160.601562 104.78125 -162.3125 C 101.5625 -164.019531 98.90625 -166.109375 96.8125 -168.578125 C 94.15625 -171.609375 92.253906 -174.925781 91.109375 -178.53125 C 89.972656 -182.144531 89.070312 -185.800781 88.40625 -189.5 C 87.75 -193.195312 87.085938 -196.894531 86.421875 -200.59375 C 85.753906 -204.300781 84.472656 -207.863281 82.578125 -211.28125 C 75.359375 -204.445312 69.519531 -197.992188 65.0625 -191.921875 C 60.601562 -185.847656 57.09375 -179.535156 54.53125 -172.984375 C 51.96875 -166.429688 50.210938 -159.21875 49.265625 -151.34375 C 48.316406 -143.46875 47.84375 -134.304688 47.84375 -123.859375 C 47.84375 -122.910156 47.890625 -121.960938 47.984375 -121.015625 C 48.078125 -120.066406 48.21875 -119.117188 48.40625 -118.171875 C 55.050781 -121.210938 61.171875 -123.347656 66.765625 -124.578125 C 72.367188 -125.804688 78.78125 -126.421875 86 -126.421875 C 94.914062 -126.421875 102.648438 -125.378906 109.203125 -123.296875 C 115.753906 -121.210938 121.351562 -118.601562 126 -115.46875 C 130.65625 -112.332031 134.546875 -108.910156 137.671875 -105.203125 C 140.804688 -101.503906 143.515625 -98.046875 145.796875 -94.828125 C 141.992188 -95.578125 138.476562 -96.09375 135.25 -96.375 C 132.03125 -96.664062 128.898438 -96.8125 125.859375 -96.8125 C 122.816406 -96.8125 119.632812 -96.617188 116.3125 -96.234375 C 113 -95.859375 109.347656 -95.390625 105.359375 -94.828125 C 103.835938 -102.984375 101.460938 -108.957031 98.234375 -112.75 C 95.003906 -116.550781 89.785156 -118.453125 82.578125 -118.453125 C 77.640625 -118.453125 72.65625 -117.738281 67.625 -116.3125 C 62.59375 -114.894531 56.945312 -112.859375 50.6875 -110.203125 C 52.769531 -105.078125 55.613281 -99.953125 59.21875 -94.828125 C 62.832031 -89.703125 66.347656 -84.476562 69.765625 -79.15625 C 73.179688 -73.84375 76.171875 -68.476562 78.734375 -63.0625 C 81.296875 -57.65625 82.578125 -52.007812 82.578125 -46.125 C 82.578125 -43.851562 82.671875 -41.148438 82.859375 -38.015625 C 83.046875 -34.878906 83.046875 -31.507812 82.859375 -27.90625 C 82.671875 -24.300781 82.148438 -20.410156 81.296875 -16.234375 C 80.441406 -12.054688 78.875 -7.878906 76.59375 -3.703125 C 79.820312 -5.785156 83.285156 -8.582031 86.984375 -12.09375 C 90.691406 -15.613281 93.679688 -19.460938 95.953125 -23.640625 C 97.097656 -25.535156 98.664062 -27.617188 100.65625 -29.890625 C 102.65625 -32.171875 104.984375 -34.210938 107.640625 -36.015625 C 110.296875 -37.816406 113.046875 -39.332031 115.890625 -40.5625 C 118.742188 -41.800781 121.59375 -42.421875 124.4375 -42.421875 C 126.332031 -42.421875 128.273438 -41.851562 130.265625 -40.71875 C 132.265625 -39.582031 134.070312 -38.109375 135.6875 -36.296875 C 137.300781 -34.492188 138.582031 -32.550781 139.53125 -30.46875 C 140.476562 -28.382812 140.953125 -26.390625 140.953125 -24.484375 C 140.953125 -23.347656 140.757812 -22.585938 140.375 -22.203125 C 140 -21.828125 138.769531 -21.640625 136.6875 -21.640625 C 134.78125 -21.640625 132.546875 -22.019531 129.984375 -22.78125 C 127.421875 -23.539062 125.378906 -23.921875 123.859375 -23.921875 C 119.117188 -23.921875 114.566406 -22.921875 110.203125 -20.921875 C 105.835938 -18.929688 102.421875 -16.796875 99.953125 -14.515625 C 95.390625 -10.148438 90.640625 -6.019531 85.703125 -2.125 C 80.773438 1.757812 75.269531 5.03125 69.1875 7.6875 C 69.1875 5.03125 69 2.28125 68.625 -0.5625 C 68.25 -3.414062 67.726562 -6.171875 67.0625 -8.828125 C 66.394531 -11.484375 65.632812 -13.898438 64.78125 -16.078125 C 63.925781 -18.265625 62.929688 -20.023438 61.796875 -21.359375 C 58.179688 -25.910156 53.382812 -30.414062 47.40625 -34.875 C 41.425781 -39.34375 35.539062 -44.28125 29.75 -49.6875 C 23.96875 -55.09375 18.988281 -61.257812 14.8125 -68.1875 C 10.632812 -75.125 8.546875 -83.335938 8.546875 -92.828125 C 8.546875 -108.203125 11.0625 -122.15625 16.09375 -134.6875 C 21.125 -147.21875 27.382812 -158.65625 34.875 -169 C 42.375 -179.34375 50.441406 -188.925781 59.078125 -197.75 C 67.722656 -206.582031 75.554688 -214.984375 82.578125 -222.953125 C 87.328125 -218.585938 91.457031 -215.597656 94.96875 -213.984375 C 98.476562 -212.367188 101.65625 -210.992188 104.5 -209.859375 C 107.351562 -208.722656 110.007812 -207.441406 112.46875 -206.015625 C 114.9375 -204.585938 117.597656 -202.070312 120.453125 -198.46875 C 122.722656 -195.4375 124.472656 -192.539062 125.703125 -189.78125 C 126.941406 -187.03125 127.988281 -184.46875 128.84375 -182.09375 C 129.695312 -179.71875 130.550781 -177.582031 131.40625 -175.6875 C 132.257812 -173.789062 133.445312 -172.273438 134.96875 -171.140625 C 136.300781 -169.992188 137.820312 -169.132812 139.53125 -168.5625 C 141.238281 -168 142.800781 -167.476562 144.21875 -167 C 145.644531 -166.53125 146.832031 -166.054688 147.78125 -165.578125 C 148.726562 -165.109375 149.203125 -164.398438 149.203125 -163.453125 Z M 149.203125 -163.453125 "></path></g></g></g><g fill="#ae0403" fill-opacity="1"><g transform="translate(784.309906, 226.14294)"><g><path d="M 102.515625 -168 L 102.515625 -173.984375 C 102.515625 -177.773438 102.132812 -180.859375 101.375 -183.234375 C 100.613281 -185.609375 99.378906 -187.929688 97.671875 -190.203125 C 95.960938 -192.484375 93.828125 -195.238281 91.265625 -198.46875 C 88.703125 -201.695312 85.617188 -206.0625 82.015625 -211.5625 C 78.585938 -208.144531 74.738281 -204.160156 70.46875 -199.609375 C 66.195312 -195.054688 62.210938 -189.644531 58.515625 -183.375 C 54.816406 -177.113281 51.6875 -169.945312 49.125 -161.875 C 46.5625 -153.8125 45.28125 -144.5625 45.28125 -134.125 C 45.28125 -127.09375 46.179688 -120.726562 47.984375 -115.03125 C 49.785156 -109.34375 52.0625 -104.03125 54.8125 -99.09375 C 57.5625 -94.15625 60.503906 -89.550781 63.640625 -85.28125 C 66.773438 -81.007812 69.71875 -76.785156 72.46875 -72.609375 C 75.21875 -68.429688 77.492188 -64.207031 79.296875 -59.9375 C 81.109375 -55.664062 82.015625 -51.0625 82.015625 -46.125 C 82.015625 -41.757812 82.0625 -37.820312 82.15625 -34.3125 C 82.25 -30.800781 82.101562 -27.335938 81.71875 -23.921875 C 81.34375 -20.503906 80.628906 -17.035156 79.578125 -13.515625 C 78.535156 -10.003906 76.878906 -6.164062 74.609375 -2 C 83.523438 -6.550781 90.5 -11.007812 95.53125 -15.375 C 100.5625 -19.738281 104.359375 -24.007812 106.921875 -28.1875 C 109.484375 -32.363281 111.097656 -36.300781 111.765625 -40 C 112.429688 -43.707031 112.765625 -47.269531 112.765625 -50.6875 C 112.765625 -52.394531 112.664062 -54.765625 112.46875 -57.796875 C 112.28125 -60.835938 111.90625 -63.972656 111.34375 -67.203125 L 95.953125 -67.203125 L 95.953125 -74.3125 L 165.71875 -74.3125 L 165.71875 -67.203125 L 150.0625 -67.203125 C 148.539062 -63.210938 146.640625 -59.082031 144.359375 -54.8125 C 142.085938 -50.539062 138.957031 -45.65625 134.96875 -40.15625 C 130.976562 -34.644531 126.28125 -29.421875 120.875 -24.484375 C 115.46875 -19.546875 109.820312 -15.035156 103.9375 -10.953125 C 98.050781 -6.878906 92.066406 -3.226562 85.984375 0 C 79.910156 3.226562 74.125 5.789062 68.625 7.6875 C 68.625 5.03125 68.429688 2.28125 68.046875 -0.5625 C 67.671875 -3.414062 67.148438 -6.171875 66.484375 -8.828125 C 65.828125 -11.484375 65.070312 -13.898438 64.21875 -16.078125 C 63.363281 -18.265625 62.363281 -20.023438 61.21875 -21.359375 C 57.613281 -25.910156 52.820312 -30.367188 46.84375 -34.734375 C 40.863281 -39.097656 35.023438 -43.9375 29.328125 -49.25 C 23.628906 -54.570312 18.738281 -60.648438 14.65625 -67.484375 C 10.582031 -74.316406 8.546875 -82.476562 8.546875 -91.96875 C 8.546875 -107.34375 11.0625 -121.34375 16.09375 -133.96875 C 21.125 -146.59375 27.335938 -158.125 34.734375 -168.5625 C 42.140625 -179.007812 50.113281 -188.691406 58.65625 -197.609375 C 67.195312 -206.535156 74.984375 -214.984375 82.015625 -222.953125 C 86.941406 -217.828125 91.875 -213.84375 96.8125 -211 C 101.75 -208.15625 106.445312 -205.59375 110.90625 -203.3125 C 115.375 -201.03125 119.550781 -198.609375 123.4375 -196.046875 C 127.332031 -193.484375 130.703125 -190.019531 133.546875 -185.65625 C 135.640625 -182.8125 137.300781 -179.820312 138.53125 -176.6875 C 139.757812 -173.550781 140.753906 -170.65625 141.515625 -168 L 156.609375 -168 L 156.609375 -160.890625 L 87.140625 -160.890625 L 87.140625 -168 Z M 102.515625 -168 "></path></g></g></g><g fill="#ae0403" fill-opacity="1"><g transform="translate(950.024659, 226.14294)"><g><path d="M 64.359375 -7.125 L 64.359375 -198.46875 L 59.515625 -198.46875 C 55.148438 -198.46875 50.640625 -197.1875 45.984375 -194.625 C 41.335938 -192.0625 37.019531 -188.832031 33.03125 -184.9375 C 29.039062 -181.050781 25.765625 -176.78125 23.203125 -172.125 C 20.640625 -167.476562 19.359375 -162.972656 19.359375 -158.609375 L 19.359375 -157.1875 L 13.390625 -157.1875 C 13.390625 -164.394531 12.628906 -171.796875 11.109375 -179.390625 C 9.585938 -186.984375 5.882812 -193.34375 0 -198.46875 C 0.375 -200.75 0.375 -203.125 0 -205.59375 L 168.578125 -205.59375 C 168.191406 -203.125 168.191406 -200.75 168.578125 -198.46875 C 162.691406 -193.34375 158.988281 -186.984375 157.46875 -179.390625 C 155.945312 -171.796875 155.1875 -164.394531 155.1875 -157.1875 L 149.203125 -157.1875 C 149.203125 -162.5 148.109375 -167.625 145.921875 -172.5625 C 143.742188 -177.5 140.800781 -181.863281 137.09375 -185.65625 C 133.394531 -189.457031 129.125 -192.539062 124.28125 -194.90625 C 119.445312 -197.28125 114.375 -198.46875 109.0625 -198.46875 L 104.21875 -198.46875 L 104.21875 -7.125 L 121.875 -7.125 L 121.875 0 L 46.703125 0 L 46.703125 -7.125 Z M 64.359375 -7.125 "></path></g></g></g><g fill="#ae0403" fill-opacity="1"><g transform="translate(1118.586701, 226.14294)"><g><path d="M 94.25 -167.4375 C 94.25 -170.28125 93.914062 -173.125 93.25 -175.96875 C 92.59375 -178.820312 91.597656 -181.484375 90.265625 -183.953125 C 88.929688 -186.421875 87.125 -188.410156 84.84375 -189.921875 C 82.570312 -191.441406 79.914062 -192.203125 76.875 -192.203125 C 73.457031 -192.203125 70.226562 -191.15625 67.1875 -189.0625 C 64.15625 -186.976562 61.546875 -184.273438 59.359375 -180.953125 C 57.179688 -177.628906 55.472656 -173.832031 54.234375 -169.5625 C 53.003906 -165.289062 52.390625 -161.066406 52.390625 -156.890625 L 52.390625 -40.15625 C 52.390625 -35.21875 53.71875 -30.707031 56.375 -26.625 C 59.03125 -22.539062 62.640625 -20.5 67.203125 -20.5 C 70.804688 -20.5 74.269531 -21.351562 77.59375 -23.0625 C 80.914062 -24.769531 83.8125 -27.046875 86.28125 -29.890625 C 88.75 -32.742188 90.691406 -36.066406 92.109375 -39.859375 C 93.535156 -43.660156 94.25 -47.554688 94.25 -51.546875 Z M 136.6875 -157.75 C 136.6875 -146.738281 135.59375 -135.0625 133.40625 -122.71875 C 131.21875 -110.382812 128.128906 -98.238281 124.140625 -86.28125 C 120.160156 -74.320312 115.414062 -62.882812 109.90625 -51.96875 C 104.40625 -41.050781 98.285156 -31.414062 91.546875 -23.0625 C 84.804688 -14.707031 77.640625 -8.0625 70.046875 -3.125 C 62.453125 1.800781 54.578125 4.265625 46.421875 4.265625 C 39.578125 4.265625 33.828125 2.226562 29.171875 -1.84375 C 24.523438 -5.925781 20.78125 -11.195312 17.9375 -17.65625 C 15.09375 -24.113281 13.050781 -31.28125 11.8125 -39.15625 C 10.582031 -47.03125 9.96875 -54.765625 9.96875 -62.359375 C 9.96875 -73.941406 11.101562 -85.710938 13.375 -97.671875 C 15.65625 -109.628906 18.789062 -121.160156 22.78125 -132.265625 C 26.769531 -143.367188 31.515625 -153.851562 37.015625 -163.71875 C 42.523438 -173.59375 48.503906 -182.1875 54.953125 -189.5 C 61.410156 -196.8125 68.289062 -202.601562 75.59375 -206.875 C 82.90625 -211.144531 90.265625 -213.28125 97.671875 -213.28125 C 103.742188 -213.28125 109.195312 -211.664062 114.03125 -208.4375 C 118.875 -205.207031 122.957031 -200.9375 126.28125 -195.625 C 129.601562 -190.3125 132.164062 -184.378906 133.96875 -177.828125 C 135.78125 -171.273438 136.6875 -164.582031 136.6875 -157.75 Z M 136.6875 -157.75 "></path></g></g></g><g fill="#ae0403" fill-opacity="1"><g transform="translate(3.004192, 621.923639)"><g><path d="M 168.28125 -198.46875 L 152.90625 -198.46875 L 152.90625 -7.125 L 168.28125 -7.125 L 168.28125 0 L 98.8125 0 L 98.8125 -7.125 L 113.046875 -7.125 L 113.046875 -198.46875 L 59.796875 -198.46875 L 59.796875 -7.125 L 74.890625 -7.125 L 74.890625 0 L 5.40625 0 L 5.40625 -7.125 L 19.9375 -7.125 L 19.9375 -198.46875 L 5.40625 -198.46875 L 5.40625 -205.59375 L 168.28125 -205.59375 Z M 168.28125 -198.46875 "></path></g></g></g><g fill="#ae0403" fill-opacity="1"><g transform="translate(175.837265, 621.923639)"><g><path d="M 17.078125 -7.125 L 17.078125 -133.265625 C 17.078125 -143.703125 19.164062 -153.378906 23.34375 -162.296875 C 27.519531 -171.222656 33.023438 -179.335938 39.859375 -186.640625 C 46.691406 -193.953125 54.425781 -200.3125 63.0625 -205.71875 C 71.707031 -211.132812 80.585938 -215.550781 89.703125 -218.96875 C 95.585938 -221.25 101.753906 -223.097656 108.203125 -224.515625 C 114.660156 -225.941406 121.019531 -226.65625 127.28125 -226.65625 C 133.738281 -226.65625 138.25 -224.898438 140.8125 -221.390625 C 143.375 -217.878906 144.65625 -213.179688 144.65625 -207.296875 C 144.65625 -202.171875 143.039062 -196 139.8125 -188.78125 C 136.582031 -181.570312 132.40625 -173.976562 127.28125 -166 C 122.15625 -158.03125 116.363281 -149.914062 109.90625 -141.65625 C 103.457031 -133.40625 97.003906 -125.578125 90.546875 -118.171875 C 84.097656 -110.765625 77.882812 -104.164062 71.90625 -98.375 C 65.925781 -92.59375 60.941406 -88.179688 56.953125 -85.140625 L 56.953125 -7.125 L 73.46875 -7.125 L 73.46875 0 L 3.984375 0 L 3.984375 -7.125 Z M 56.953125 -93.96875 C 62.265625 -99.664062 67.769531 -106.023438 73.46875 -113.046875 C 79.164062 -120.066406 84.382812 -127.515625 89.125 -135.390625 C 93.875 -143.273438 97.765625 -151.34375 100.796875 -159.59375 C 103.835938 -167.851562 105.359375 -176.066406 105.359375 -184.234375 C 105.359375 -187.078125 105.117188 -190.066406 104.640625 -193.203125 C 104.171875 -196.335938 103.269531 -199.1875 101.9375 -201.75 C 100.613281 -204.3125 98.765625 -206.445312 96.390625 -208.15625 C 94.015625 -209.863281 91.023438 -210.71875 87.421875 -210.71875 C 84.378906 -210.71875 81.382812 -208.957031 78.4375 -205.4375 C 75.5 -201.925781 72.75 -197.84375 70.1875 -193.1875 C 67.625 -188.539062 65.441406 -183.894531 63.640625 -179.25 C 61.835938 -174.601562 60.648438 -171.140625 60.078125 -168.859375 C 59.128906 -165.816406 58.367188 -162.726562 57.796875 -159.59375 C 57.234375 -156.46875 56.953125 -153.289062 56.953125 -150.0625 Z M 56.953125 -93.96875 "></path></g></g></g><g fill="#ae0403" fill-opacity="1"><g transform="translate(323.613773, 621.923639)"><g><path d="M 94.25 -167.4375 C 94.25 -170.28125 93.914062 -173.125 93.25 -175.96875 C 92.59375 -178.820312 91.597656 -181.484375 90.265625 -183.953125 C 88.929688 -186.421875 87.125 -188.410156 84.84375 -189.921875 C 82.570312 -191.441406 79.914062 -192.203125 76.875 -192.203125 C 73.457031 -192.203125 70.226562 -191.15625 67.1875 -189.0625 C 64.15625 -186.976562 61.546875 -184.273438 59.359375 -180.953125 C 57.179688 -177.628906 55.472656 -173.832031 54.234375 -169.5625 C 53.003906 -165.289062 52.390625 -161.066406 52.390625 -156.890625 L 52.390625 -40.15625 C 52.390625 -35.21875 53.71875 -30.707031 56.375 -26.625 C 59.03125 -22.539062 62.640625 -20.5 67.203125 -20.5 C 70.804688 -20.5 74.269531 -21.351562 77.59375 -23.0625 C 80.914062 -24.769531 83.8125 -27.046875 86.28125 -29.890625 C 88.75 -32.742188 90.691406 -36.066406 92.109375 -39.859375 C 93.535156 -43.660156 94.25 -47.554688 94.25 -51.546875 Z M 136.6875 -157.75 C 136.6875 -146.738281 135.59375 -135.0625 133.40625 -122.71875 C 131.21875 -110.382812 128.128906 -98.238281 124.140625 -86.28125 C 120.160156 -74.320312 115.414062 -62.882812 109.90625 -51.96875 C 104.40625 -41.050781 98.285156 -31.414062 91.546875 -23.0625 C 84.804688 -14.707031 77.640625 -8.0625 70.046875 -3.125 C 62.453125 1.800781 54.578125 4.265625 46.421875 4.265625 C 39.578125 4.265625 33.828125 2.226562 29.171875 -1.84375 C 24.523438 -5.925781 20.78125 -11.195312 17.9375 -17.65625 C 15.09375 -24.113281 13.050781 -31.28125 11.8125 -39.15625 C 10.582031 -47.03125 9.96875 -54.765625 9.96875 -62.359375 C 9.96875 -73.941406 11.101562 -85.710938 13.375 -97.671875 C 15.65625 -109.628906 18.789062 -121.160156 22.78125 -132.265625 C 26.769531 -143.367188 31.515625 -153.851562 37.015625 -163.71875 C 42.523438 -173.59375 48.503906 -182.1875 54.953125 -189.5 C 61.410156 -196.8125 68.289062 -202.601562 75.59375 -206.875 C 82.90625 -211.144531 90.265625 -213.28125 97.671875 -213.28125 C 103.742188 -213.28125 109.195312 -211.664062 114.03125 -208.4375 C 118.875 -205.207031 122.957031 -200.9375 126.28125 -195.625 C 129.601562 -190.3125 132.164062 -184.378906 133.96875 -177.828125 C 135.78125 -171.273438 136.6875 -164.582031 136.6875 -157.75 Z M 136.6875 -157.75 "></path></g></g></g><g fill="#ae0403" fill-opacity="1"><g transform="translate(470.251356, 621.923639)"><g><path d="M 19.9375 -7.125 L 19.9375 -133.265625 C 19.9375 -143.515625 21.972656 -153.050781 26.046875 -161.875 C 30.128906 -170.707031 35.445312 -178.726562 42 -185.9375 C 48.550781 -193.15625 56.050781 -199.46875 64.5 -204.875 C 72.945312 -210.289062 81.628906 -214.707031 90.546875 -218.125 C 96.617188 -220.582031 103.070312 -222.617188 109.90625 -224.234375 C 116.75 -225.847656 123.488281 -226.65625 130.125 -226.65625 C 136.582031 -226.65625 141.09375 -224.898438 143.65625 -221.390625 C 146.21875 -217.878906 147.5 -213.179688 147.5 -207.296875 C 147.5 -201.796875 145.269531 -195.390625 140.8125 -188.078125 C 136.351562 -180.765625 130.988281 -173.5 124.71875 -166.28125 C 118.457031 -159.070312 112.097656 -152.382812 105.640625 -146.21875 C 99.179688 -140.050781 93.960938 -135.351562 89.984375 -132.125 C 80.296875 -123.957031 70.234375 -116.835938 59.796875 -110.765625 C 87.703125 -102.609375 109.722656 -89.320312 125.859375 -70.90625 C 141.992188 -52.488281 151.960938 -28.851562 155.765625 0 L 5.40625 0 L 5.40625 -7.125 Z M 107.0625 -7.125 C 107.0625 -16.800781 106.394531 -26.429688 105.0625 -36.015625 C 103.738281 -45.609375 101.273438 -54.769531 97.671875 -63.5 C 94.066406 -72.226562 89.222656 -80.148438 83.140625 -87.265625 C 77.066406 -94.390625 69.285156 -100.226562 59.796875 -104.78125 L 59.796875 -7.125 Z M 59.796875 -117.3125 C 64.347656 -121.300781 69.425781 -125.859375 75.03125 -130.984375 C 80.632812 -136.109375 85.898438 -141.613281 90.828125 -147.5 C 95.765625 -153.382812 99.894531 -159.550781 103.21875 -166 C 106.539062 -172.457031 108.203125 -178.914062 108.203125 -185.375 C 108.203125 -188.21875 107.960938 -191.207031 107.484375 -194.34375 C 107.015625 -197.476562 106.113281 -200.328125 104.78125 -202.890625 C 103.457031 -205.453125 101.609375 -207.585938 99.234375 -209.296875 C 96.859375 -211.003906 93.867188 -211.859375 90.265625 -211.859375 C 87.222656 -211.859375 84.226562 -210.671875 81.28125 -208.296875 C 78.34375 -205.921875 75.640625 -203.070312 73.171875 -199.75 C 70.710938 -196.425781 68.578125 -192.960938 66.765625 -189.359375 C 64.960938 -185.753906 63.6875 -182.71875 62.9375 -180.25 C 60.84375 -174.363281 59.796875 -168.570312 59.796875 -162.875 Z M 59.796875 -117.3125 "></path></g></g></g><g fill="#ae0403" fill-opacity="1"><g transform="translate(631.695078, 621.923639)"><g><path d="M 149.203125 -163.453125 C 149.203125 -163.066406 148.960938 -162.398438 148.484375 -161.453125 C 148.015625 -160.503906 147.160156 -159.554688 145.921875 -158.609375 C 144.691406 -157.660156 142.984375 -156.804688 140.796875 -156.046875 C 138.617188 -155.285156 135.914062 -154.90625 132.6875 -154.90625 C 130.601562 -154.90625 127.945312 -155.140625 124.71875 -155.609375 C 121.488281 -156.085938 118.164062 -156.894531 114.75 -158.03125 C 111.332031 -159.175781 108.007812 -160.601562 104.78125 -162.3125 C 101.5625 -164.019531 98.90625 -166.109375 96.8125 -168.578125 C 94.15625 -171.609375 92.253906 -174.925781 91.109375 -178.53125 C 89.972656 -182.144531 89.070312 -185.800781 88.40625 -189.5 C 87.75 -193.195312 87.085938 -196.894531 86.421875 -200.59375 C 85.753906 -204.300781 84.472656 -207.863281 82.578125 -211.28125 C 75.359375 -204.445312 69.519531 -197.992188 65.0625 -191.921875 C 60.601562 -185.847656 57.09375 -179.535156 54.53125 -172.984375 C 51.96875 -166.429688 50.210938 -159.21875 49.265625 -151.34375 C 48.316406 -143.46875 47.84375 -134.304688 47.84375 -123.859375 C 47.84375 -122.910156 47.890625 -121.960938 47.984375 -121.015625 C 48.078125 -120.066406 48.21875 -119.117188 48.40625 -118.171875 C 55.050781 -121.210938 61.171875 -123.347656 66.765625 -124.578125 C 72.367188 -125.804688 78.78125 -126.421875 86 -126.421875 C 94.914062 -126.421875 102.648438 -125.378906 109.203125 -123.296875 C 115.753906 -121.210938 121.351562 -118.601562 126 -115.46875 C 130.65625 -112.332031 134.546875 -108.910156 137.671875 -105.203125 C 140.804688 -101.503906 143.515625 -98.046875 145.796875 -94.828125 C 141.992188 -95.578125 138.476562 -96.09375 135.25 -96.375 C 132.03125 -96.664062 128.898438 -96.8125 125.859375 -96.8125 C 122.816406 -96.8125 119.632812 -96.617188 116.3125 -96.234375 C 113 -95.859375 109.347656 -95.390625 105.359375 -94.828125 C 103.835938 -102.984375 101.460938 -108.957031 98.234375 -112.75 C 95.003906 -116.550781 89.785156 -118.453125 82.578125 -118.453125 C 77.640625 -118.453125 72.65625 -117.738281 67.625 -116.3125 C 62.59375 -114.894531 56.945312 -112.859375 50.6875 -110.203125 C 52.769531 -105.078125 55.613281 -99.953125 59.21875 -94.828125 C 62.832031 -89.703125 66.347656 -84.476562 69.765625 -79.15625 C 73.179688 -73.84375 76.171875 -68.476562 78.734375 -63.0625 C 81.296875 -57.65625 82.578125 -52.007812 82.578125 -46.125 C 82.578125 -43.851562 82.671875 -41.148438 82.859375 -38.015625 C 83.046875 -34.878906 83.046875 -31.507812 82.859375 -27.90625 C 82.671875 -24.300781 82.148438 -20.410156 81.296875 -16.234375 C 80.441406 -12.054688 78.875 -7.878906 76.59375 -3.703125 C 79.820312 -5.785156 83.285156 -8.582031 86.984375 -12.09375 C 90.691406 -15.613281 93.679688 -19.460938 95.953125 -23.640625 C 97.097656 -25.535156 98.664062 -27.617188 100.65625 -29.890625 C 102.65625 -32.171875 104.984375 -34.210938 107.640625 -36.015625 C 110.296875 -37.816406 113.046875 -39.332031 115.890625 -40.5625 C 118.742188 -41.800781 121.59375 -42.421875 124.4375 -42.421875 C 126.332031 -42.421875 128.273438 -41.851562 130.265625 -40.71875 C 132.265625 -39.582031 134.070312 -38.109375 135.6875 -36.296875 C 137.300781 -34.492188 138.582031 -32.550781 139.53125 -30.46875 C 140.476562 -28.382812 140.953125 -26.390625 140.953125 -24.484375 C 140.953125 -23.347656 140.757812 -22.585938 140.375 -22.203125 C 140 -21.828125 138.769531 -21.640625 136.6875 -21.640625 C 134.78125 -21.640625 132.546875 -22.019531 129.984375 -22.78125 C 127.421875 -23.539062 125.378906 -23.921875 123.859375 -23.921875 C 119.117188 -23.921875 114.566406 -22.921875 110.203125 -20.921875 C 105.835938 -18.929688 102.421875 -16.796875 99.953125 -14.515625 C 95.390625 -10.148438 90.640625 -6.019531 85.703125 -2.125 C 80.773438 1.757812 75.269531 5.03125 69.1875 7.6875 C 69.1875 5.03125 69 2.28125 68.625 -0.5625 C 68.25 -3.414062 67.726562 -6.171875 67.0625 -8.828125 C 66.394531 -11.484375 65.632812 -13.898438 64.78125 -16.078125 C 63.925781 -18.265625 62.929688 -20.023438 61.796875 -21.359375 C 58.179688 -25.910156 53.382812 -30.414062 47.40625 -34.875 C 41.425781 -39.34375 35.539062 -44.28125 29.75 -49.6875 C 23.96875 -55.09375 18.988281 -61.257812 14.8125 -68.1875 C 10.632812 -75.125 8.546875 -83.335938 8.546875 -92.828125 C 8.546875 -108.203125 11.0625 -122.15625 16.09375 -134.6875 C 21.125 -147.21875 27.382812 -158.65625 34.875 -169 C 42.375 -179.34375 50.441406 -188.925781 59.078125 -197.75 C 67.722656 -206.582031 75.554688 -214.984375 82.578125 -222.953125 C 87.328125 -218.585938 91.457031 -215.597656 94.96875 -213.984375 C 98.476562 -212.367188 101.65625 -210.992188 104.5 -209.859375 C 107.351562 -208.722656 110.007812 -207.441406 112.46875 -206.015625 C 114.9375 -204.585938 117.597656 -202.070312 120.453125 -198.46875 C 122.722656 -195.4375 124.472656 -192.539062 125.703125 -189.78125 C 126.941406 -187.03125 127.988281 -184.46875 128.84375 -182.09375 C 129.695312 -179.71875 130.550781 -177.582031 131.40625 -175.6875 C 132.257812 -173.789062 133.445312 -172.273438 134.96875 -171.140625 C 136.300781 -169.992188 137.820312 -169.132812 139.53125 -168.5625 C 141.238281 -168 142.800781 -167.476562 144.21875 -167 C 145.644531 -166.53125 146.832031 -166.054688 147.78125 -165.578125 C 148.726562 -165.109375 149.203125 -164.398438 149.203125 -163.453125 Z M 149.203125 -163.453125 "></path></g></g></g><g fill="#ae0403" fill-opacity="1"><g transform="translate(789.437262, 621.923639)"><g><path d="M 158.328125 -205.59375 L 158.328125 -198.46875 L 144.078125 -198.46875 L 144.078125 -7.125 L 170.5625 -7.125 L 170.5625 0 C 167.90625 2.46875 165.863281 5.644531 164.4375 9.53125 C 163.019531 13.425781 161.976562 17.601562 161.3125 22.0625 C 160.644531 26.53125 160.265625 30.945312 160.171875 35.3125 C 160.078125 39.675781 160.03125 43.566406 160.03125 46.984375 L 154.046875 46.984375 C 154.046875 41.097656 153.144531 35.351562 151.34375 29.75 C 149.539062 24.15625 146.929688 19.171875 143.515625 14.796875 C 140.097656 10.429688 135.921875 6.875 130.984375 4.125 C 126.046875 1.375 120.351562 0 113.90625 0 L 58.375 0 C 52.300781 0 46.648438 1.28125 41.421875 3.84375 C 36.203125 6.40625 31.691406 9.820312 27.890625 14.09375 C 24.097656 18.363281 21.0625 23.203125 18.78125 28.609375 C 16.507812 34.023438 15.375 39.675781 15.375 45.5625 L 15.375 46.984375 L 9.390625 46.984375 C 9.390625 43.566406 9.34375 39.675781 9.25 35.3125 C 9.15625 30.945312 8.773438 26.53125 8.109375 22.0625 C 7.453125 17.601562 6.410156 13.425781 4.984375 9.53125 C 3.554688 5.644531 1.515625 2.46875 -1.140625 0 L -1.140625 -7.125 L 25.34375 -7.125 C 25.34375 -23.632812 27.429688 -39.71875 31.609375 -55.375 C 35.785156 -71.039062 41.476562 -86.179688 48.6875 -100.796875 C 55.90625 -115.421875 64.257812 -129.421875 73.75 -142.796875 C 83.238281 -156.179688 93.394531 -168.851562 104.21875 -180.8125 L 104.21875 -198.46875 L 88.84375 -198.46875 L 88.84375 -205.59375 Z M 104.21875 -167.140625 C 94.539062 -154.992188 85.476562 -142.84375 77.03125 -130.6875 C 68.582031 -118.539062 61.269531 -106.015625 55.09375 -93.109375 C 48.925781 -80.203125 44.085938 -66.675781 40.578125 -52.53125 C 37.066406 -38.394531 35.3125 -23.257812 35.3125 -7.125 L 104.21875 -7.125 Z M 104.21875 -167.140625 "></path></g></g></g><g fill="#ae0403" fill-opacity="1"><g transform="translate(958.284054, 621.923639)"><g><path d="M 149.203125 -163.453125 C 149.203125 -163.066406 148.960938 -162.398438 148.484375 -161.453125 C 148.015625 -160.503906 147.160156 -159.554688 145.921875 -158.609375 C 144.691406 -157.660156 142.984375 -156.804688 140.796875 -156.046875 C 138.617188 -155.285156 135.914062 -154.90625 132.6875 -154.90625 C 130.601562 -154.90625 127.945312 -155.140625 124.71875 -155.609375 C 121.488281 -156.085938 118.164062 -156.894531 114.75 -158.03125 C 111.332031 -159.175781 108.007812 -160.601562 104.78125 -162.3125 C 101.5625 -164.019531 98.90625 -166.109375 96.8125 -168.578125 C 94.15625 -171.609375 92.253906 -174.925781 91.109375 -178.53125 C 89.972656 -182.144531 89.070312 -185.800781 88.40625 -189.5 C 87.75 -193.195312 87.085938 -196.894531 86.421875 -200.59375 C 85.753906 -204.300781 84.472656 -207.863281 82.578125 -211.28125 C 75.359375 -204.445312 69.519531 -197.992188 65.0625 -191.921875 C 60.601562 -185.847656 57.09375 -179.535156 54.53125 -172.984375 C 51.96875 -166.429688 50.210938 -159.21875 49.265625 -151.34375 C 48.316406 -143.46875 47.84375 -134.304688 47.84375 -123.859375 C 47.84375 -122.910156 47.890625 -121.960938 47.984375 -121.015625 C 48.078125 -120.066406 48.21875 -119.117188 48.40625 -118.171875 C 55.050781 -121.210938 61.171875 -123.347656 66.765625 -124.578125 C 72.367188 -125.804688 78.78125 -126.421875 86 -126.421875 C 94.914062 -126.421875 102.648438 -125.378906 109.203125 -123.296875 C 115.753906 -121.210938 121.351562 -118.601562 126 -115.46875 C 130.65625 -112.332031 134.546875 -108.910156 137.671875 -105.203125 C 140.804688 -101.503906 143.515625 -98.046875 145.796875 -94.828125 C 141.992188 -95.578125 138.476562 -96.09375 135.25 -96.375 C 132.03125 -96.664062 128.898438 -96.8125 125.859375 -96.8125 C 122.816406 -96.8125 119.632812 -96.617188 116.3125 -96.234375 C 113 -95.859375 109.347656 -95.390625 105.359375 -94.828125 C 103.835938 -102.984375 101.460938 -108.957031 98.234375 -112.75 C 95.003906 -116.550781 89.785156 -118.453125 82.578125 -118.453125 C 77.640625 -118.453125 72.65625 -117.738281 67.625 -116.3125 C 62.59375 -114.894531 56.945312 -112.859375 50.6875 -110.203125 C 52.769531 -105.078125 55.613281 -99.953125 59.21875 -94.828125 C 62.832031 -89.703125 66.347656 -84.476562 69.765625 -79.15625 C 73.179688 -73.84375 76.171875 -68.476562 78.734375 -63.0625 C 81.296875 -57.65625 82.578125 -52.007812 82.578125 -46.125 C 82.578125 -43.851562 82.671875 -41.148438 82.859375 -38.015625 C 83.046875 -34.878906 83.046875 -31.507812 82.859375 -27.90625 C 82.671875 -24.300781 82.148438 -20.410156 81.296875 -16.234375 C 80.441406 -12.054688 78.875 -7.878906 76.59375 -3.703125 C 79.820312 -5.785156 83.285156 -8.582031 86.984375 -12.09375 C 90.691406 -15.613281 93.679688 -19.460938 95.953125 -23.640625 C 97.097656 -25.535156 98.664062 -27.617188 100.65625 -29.890625 C 102.65625 -32.171875 104.984375 -34.210938 107.640625 -36.015625 C 110.296875 -37.816406 113.046875 -39.332031 115.890625 -40.5625 C 118.742188 -41.800781 121.59375 -42.421875 124.4375 -42.421875 C 126.332031 -42.421875 128.273438 -41.851562 130.265625 -40.71875 C 132.265625 -39.582031 134.070312 -38.109375 135.6875 -36.296875 C 137.300781 -34.492188 138.582031 -32.550781 139.53125 -30.46875 C 140.476562 -28.382812 140.953125 -26.390625 140.953125 -24.484375 C 140.953125 -23.347656 140.757812 -22.585938 140.375 -22.203125 C 140 -21.828125 138.769531 -21.640625 136.6875 -21.640625 C 134.78125 -21.640625 132.546875 -22.019531 129.984375 -22.78125 C 127.421875 -23.539062 125.378906 -23.921875 123.859375 -23.921875 C 119.117188 -23.921875 114.566406 -22.921875 110.203125 -20.921875 C 105.835938 -18.929688 102.421875 -16.796875 99.953125 -14.515625 C 95.390625 -10.148438 90.640625 -6.019531 85.703125 -2.125 C 80.773438 1.757812 75.269531 5.03125 69.1875 7.6875 C 69.1875 5.03125 69 2.28125 68.625 -0.5625 C 68.25 -3.414062 67.726562 -6.171875 67.0625 -8.828125 C 66.394531 -11.484375 65.632812 -13.898438 64.78125 -16.078125 C 63.925781 -18.265625 62.929688 -20.023438 61.796875 -21.359375 C 58.179688 -25.910156 53.382812 -30.414062 47.40625 -34.875 C 41.425781 -39.34375 35.539062 -44.28125 29.75 -49.6875 C 23.96875 -55.09375 18.988281 -61.257812 14.8125 -68.1875 C 10.632812 -75.125 8.546875 -83.335938 8.546875 -92.828125 C 8.546875 -108.203125 11.0625 -122.15625 16.09375 -134.6875 C 21.125 -147.21875 27.382812 -158.65625 34.875 -169 C 42.375 -179.34375 50.441406 -188.925781 59.078125 -197.75 C 67.722656 -206.582031 75.554688 -214.984375 82.578125 -222.953125 C 87.328125 -218.585938 91.457031 -215.597656 94.96875 -213.984375 C 98.476562 -212.367188 101.65625 -210.992188 104.5 -209.859375 C 107.351562 -208.722656 110.007812 -207.441406 112.46875 -206.015625 C 114.9375 -204.585938 117.597656 -202.070312 120.453125 -198.46875 C 122.722656 -195.4375 124.472656 -192.539062 125.703125 -189.78125 C 126.941406 -187.03125 127.988281 -184.46875 128.84375 -182.09375 C 129.695312 -179.71875 130.550781 -177.582031 131.40625 -175.6875 C 132.257812 -173.789062 133.445312 -172.273438 134.96875 -171.140625 C 136.300781 -169.992188 137.820312 -169.132812 139.53125 -168.5625 C 141.238281 -168 142.800781 -167.476562 144.21875 -167 C 145.644531 -166.53125 146.832031 -166.054688 147.78125 -165.578125 C 148.726562 -165.109375 149.203125 -164.398438 149.203125 -163.453125 Z M 149.203125 -163.453125 "></path></g></g></g><g fill="#ae0403" fill-opacity="1"><g transform="translate(1116.026238, 621.923639)"><g><path d="M 168.28125 -205.59375 L 168.28125 -198.46875 L 152.90625 -198.46875 L 152.90625 -7.125 L 168.28125 -7.125 L 168.28125 0 L 98.8125 0 L 98.8125 -7.125 L 113.046875 -7.125 L 113.046875 -144.65625 C 109.816406 -146.550781 105.828125 -147.972656 101.078125 -148.921875 C 96.335938 -149.867188 91.453125 -150.296875 86.421875 -150.203125 C 81.390625 -150.109375 76.453125 -149.585938 71.609375 -148.640625 C 66.773438 -147.691406 62.835938 -146.363281 59.796875 -144.65625 L 59.796875 -7.125 L 74.890625 -7.125 L 74.890625 0 L 5.40625 0 L 5.40625 -7.125 L 19.9375 -7.125 L 19.9375 -198.46875 L 5.40625 -198.46875 L 5.40625 -205.59375 L 74.890625 -205.59375 L 74.890625 -198.46875 L 59.796875 -198.46875 L 59.796875 -153.203125 C 62.640625 -155.097656 66.484375 -156.472656 71.328125 -157.328125 C 76.171875 -158.179688 81.203125 -158.609375 86.421875 -158.609375 C 91.640625 -158.609375 96.671875 -158.132812 101.515625 -157.1875 C 106.359375 -156.238281 110.203125 -154.910156 113.046875 -153.203125 L 113.046875 -198.46875 L 98.8125 -198.46875 L 98.8125 -205.59375 Z M 168.28125 -205.59375 "></path></g></g></g><g fill="#ae0403" fill-opacity="1"><g transform="translate(1288.859248, 621.923639)"><g><path d="M 168.28125 -205.59375 L 168.28125 -198.46875 L 153.484375 -198.46875 L 153.484375 -7.125 L 168.28125 -7.125 L 168.28125 0 L 98.8125 0 L 98.8125 -7.125 L 113.609375 -7.125 L 113.609375 -184.234375 L 113.328125 -184.234375 C 110.671875 -177.585938 107.441406 -170.988281 103.640625 -164.4375 C 99.847656 -157.894531 95.625 -151.488281 90.96875 -145.21875 C 86.320312 -138.957031 81.34375 -133.070312 76.03125 -127.5625 C 70.71875 -122.0625 65.304688 -117.128906 59.796875 -112.765625 L 59.796875 -7.125 L 74.890625 -7.125 L 74.890625 0 L 5.40625 0 L 5.40625 -7.125 L 19.9375 -7.125 L 19.9375 -198.46875 L 5.40625 -198.46875 L 5.40625 -205.59375 L 74.890625 -205.59375 L 74.890625 -198.46875 L 59.796875 -198.46875 L 59.796875 -122.4375 C 70.992188 -133.070312 81.195312 -144.703125 90.40625 -157.328125 C 99.613281 -169.953125 106.398438 -183.664062 110.765625 -198.46875 L 98.8125 -198.46875 L 98.8125 -205.59375 Z M 168.28125 -205.59375 "></path></g></g></g><g fill="#ae0403" fill-opacity="1"><g transform="translate(1462.261883, 621.923639)"><g><path d="M 111.046875 -7.125 L 111.046875 -109.625 C 93.585938 -97.851562 81.15625 -84.421875 73.75 -69.328125 C 66.34375 -54.242188 62.640625 -36.164062 62.640625 -15.09375 C 62.640625 -10.34375 63.113281 -5.3125 64.0625 0 L 0.5625 0 L 0.5625 -7.125 L 12.53125 -7.125 C 13.289062 -14.144531 15.425781 -21.304688 18.9375 -28.609375 C 22.445312 -35.921875 26.859375 -43.132812 32.171875 -50.25 C 37.492188 -57.375 43.425781 -64.257812 49.96875 -70.90625 C 56.519531 -77.550781 63.304688 -83.71875 70.328125 -89.40625 C 77.359375 -95.101562 84.382812 -100.226562 91.40625 -104.78125 C 98.425781 -109.34375 104.972656 -113.046875 111.046875 -115.890625 L 111.046875 -116.75 C 107.066406 -119.03125 102.179688 -122.160156 96.390625 -126.140625 C 90.597656 -130.128906 84.425781 -134.640625 77.875 -139.671875 C 71.332031 -144.703125 64.832031 -150.109375 58.375 -155.890625 C 51.914062 -161.679688 46.125 -167.519531 41 -173.40625 C 35.875 -179.289062 31.695312 -185.082031 28.46875 -190.78125 C 25.25 -196.476562 23.640625 -201.796875 23.640625 -206.734375 C 23.640625 -212.804688 24.921875 -217.503906 27.484375 -220.828125 C 30.046875 -224.148438 34.550781 -225.8125 41 -225.8125 C 47.644531 -225.8125 54.242188 -225.050781 60.796875 -223.53125 C 67.347656 -222.007812 73.660156 -220.109375 79.734375 -217.828125 C 88.648438 -214.410156 97.378906 -210 105.921875 -204.59375 C 114.460938 -199.1875 122.054688 -192.921875 128.703125 -185.796875 C 135.347656 -178.679688 140.710938 -170.660156 144.796875 -161.734375 C 148.878906 -152.816406 150.921875 -143.234375 150.921875 -132.984375 L 150.921875 -7.125 L 166.015625 -7.125 L 166.015625 0 L 96.53125 0 L 96.53125 -7.125 Z M 111.046875 -153.765625 C 111.046875 -161.359375 110.097656 -168.570312 108.203125 -175.40625 C 107.441406 -178.25 106.253906 -181.617188 104.640625 -185.515625 C 103.023438 -189.410156 100.984375 -193.160156 98.515625 -196.765625 C 96.054688 -200.367188 93.304688 -203.453125 90.265625 -206.015625 C 87.222656 -208.578125 83.992188 -209.859375 80.578125 -209.859375 C 73.367188 -209.859375 68.578125 -207.722656 66.203125 -203.453125 C 63.828125 -199.179688 62.640625 -193.914062 62.640625 -187.65625 C 62.640625 -181.382812 64.300781 -175.210938 67.625 -169.140625 C 70.945312 -163.066406 75.078125 -157.226562 80.015625 -151.625 C 84.953125 -146.03125 90.21875 -140.859375 95.8125 -136.109375 C 101.414062 -131.359375 106.492188 -127.179688 111.046875 -123.578125 Z M 111.046875 -153.765625 "></path></g></g></g></g></g></svg> 