<?xml version="1.0" encoding="UTF-8"?> <svg xmlns="http://www.w3.org/2000/svg" xmlns:xlink="http://www.w3.org/1999/xlink" width="3000" zoomAndPan="magnify" viewBox="0 0 2250 749.999995" height="1000" preserveAspectRatio="xMidYMid meet" version="1.0"><defs><g></g><clipPath id="ec49fab4af"><rect x="0" width="1997" y="0" height="394"></rect></clipPath></defs><g transform="matrix(1, 0, 0, 1, 130, 194)"><g clip-path="url(#ec49fab4af)"><g fill="#ae0403" fill-opacity="1"><g transform="translate(9.671927, 321.752771)"><g><path d="M 221.546875 -287.6875 L 221.546875 -277.734375 L 201.625 -277.734375 L 201.625 -9.96875 L 238.6875 -9.96875 L 238.6875 0 C 234.96875 3.457031 232.109375 7.90625 230.109375 13.34375 C 228.117188 18.789062 226.660156 24.632812 225.734375 30.875 C 224.804688 37.125 224.273438 43.300781 224.140625 49.40625 C 224.003906 55.519531 223.9375 60.96875 223.9375 65.75 L 215.578125 65.75 C 215.578125 57.507812 214.3125 49.472656 211.78125 41.640625 C 209.257812 33.804688 205.609375 26.832031 200.828125 20.71875 C 196.046875 14.613281 190.203125 9.632812 183.296875 5.78125 C 176.390625 1.925781 168.421875 0 159.390625 0 L 81.6875 0 C 73.1875 0 65.28125 1.789062 57.96875 5.375 C 50.664062 8.96875 44.359375 13.75 39.046875 19.71875 C 33.734375 25.695312 29.484375 32.472656 26.296875 40.046875 C 23.109375 47.617188 21.515625 55.519531 21.515625 63.75 L 21.515625 65.75 L 13.15625 65.75 C 13.15625 60.96875 13.085938 55.519531 12.953125 49.40625 C 12.816406 43.300781 12.285156 37.125 11.359375 30.875 C 10.429688 24.632812 8.96875 18.789062 6.96875 13.34375 C 4.976562 7.90625 2.125 3.457031 -1.59375 0 L -1.59375 -9.96875 L 35.46875 -9.96875 C 35.46875 -33.070312 38.390625 -55.582031 44.234375 -77.5 C 50.078125 -99.414062 58.046875 -120.597656 68.140625 -141.046875 C 78.234375 -161.503906 89.921875 -181.097656 103.203125 -199.828125 C 116.484375 -218.554688 130.695312 -236.289062 145.84375 -253.03125 L 145.84375 -277.734375 L 124.328125 -277.734375 L 124.328125 -287.6875 Z M 145.84375 -233.90625 C 132.289062 -216.90625 119.601562 -199.898438 107.78125 -182.890625 C 95.957031 -165.890625 85.726562 -148.359375 77.09375 -130.296875 C 68.46875 -112.234375 61.695312 -93.304688 56.78125 -73.515625 C 51.863281 -53.722656 49.40625 -32.539062 49.40625 -9.96875 L 145.84375 -9.96875 Z M 145.84375 -233.90625 "></path></g></g></g><g fill="#ae0403" fill-opacity="1"><g transform="translate(245.953326, 321.752771)"><g><path d="M 23.90625 -9.96875 L 23.90625 -186.484375 C 23.90625 -201.097656 26.828125 -214.644531 32.671875 -227.125 C 38.515625 -239.613281 46.21875 -250.96875 55.78125 -261.1875 C 65.34375 -271.414062 76.164062 -280.316406 88.25 -287.890625 C 100.34375 -295.460938 112.765625 -301.640625 125.515625 -306.421875 C 133.753906 -309.609375 142.390625 -312.195312 151.421875 -314.1875 C 160.453125 -316.1875 169.347656 -317.1875 178.109375 -317.1875 C 187.140625 -317.1875 193.445312 -314.726562 197.03125 -309.8125 C 200.625 -304.894531 202.421875 -298.316406 202.421875 -290.078125 C 202.421875 -282.910156 200.160156 -274.28125 195.640625 -264.1875 C 191.128906 -254.09375 185.285156 -243.46875 178.109375 -232.3125 C 170.941406 -221.15625 162.84375 -209.796875 153.8125 -198.234375 C 144.78125 -186.679688 135.75 -175.722656 126.71875 -165.359375 C 117.6875 -155.003906 108.984375 -145.773438 100.609375 -137.671875 C 92.242188 -129.566406 85.269531 -123.390625 79.6875 -119.140625 L 79.6875 -9.96875 L 102.8125 -9.96875 L 102.8125 0 L 5.578125 0 L 5.578125 -9.96875 Z M 79.6875 -131.5 C 87.125 -139.46875 94.828125 -148.363281 102.796875 -158.1875 C 110.773438 -168.019531 118.082031 -178.445312 124.71875 -189.46875 C 131.363281 -200.5 136.8125 -211.789062 141.0625 -223.34375 C 145.3125 -234.894531 147.4375 -246.382812 147.4375 -257.8125 C 147.4375 -261.789062 147.101562 -265.972656 146.4375 -270.359375 C 145.769531 -274.742188 144.503906 -278.726562 142.640625 -282.3125 C 140.785156 -285.894531 138.195312 -288.878906 134.875 -291.265625 C 131.5625 -293.660156 127.378906 -294.859375 122.328125 -294.859375 C 118.078125 -294.859375 113.894531 -292.398438 109.78125 -287.484375 C 105.664062 -282.578125 101.8125 -276.867188 98.21875 -270.359375 C 94.632812 -263.847656 91.578125 -257.335938 89.046875 -250.828125 C 86.523438 -244.328125 84.867188 -239.484375 84.078125 -236.296875 C 82.742188 -232.046875 81.675781 -227.726562 80.875 -223.34375 C 80.082031 -218.957031 79.6875 -214.507812 79.6875 -210 Z M 79.6875 -131.5 "></path></g></g></g><g fill="#ae0403" fill-opacity="1"><g transform="translate(452.74932, 321.752771)"><g><path d="M 208.796875 -228.71875 C 208.796875 -228.1875 208.460938 -227.253906 207.796875 -225.921875 C 207.140625 -224.597656 205.945312 -223.269531 204.21875 -221.9375 C 202.488281 -220.613281 200.09375 -219.421875 197.03125 -218.359375 C 193.976562 -217.296875 190.195312 -216.765625 185.6875 -216.765625 C 182.757812 -216.765625 179.035156 -217.097656 174.515625 -217.765625 C 170.003906 -218.429688 165.359375 -219.5625 160.578125 -221.15625 C 155.796875 -222.75 151.144531 -224.738281 146.625 -227.125 C 142.113281 -229.519531 138.398438 -232.441406 135.484375 -235.890625 C 131.765625 -240.140625 129.109375 -244.785156 127.515625 -249.828125 C 125.921875 -254.878906 124.65625 -259.992188 123.71875 -265.171875 C 122.789062 -270.359375 121.863281 -275.539062 120.9375 -280.71875 C 120.007812 -285.894531 118.21875 -290.875 115.5625 -295.65625 C 105.46875 -286.09375 97.296875 -277.0625 91.046875 -268.5625 C 84.804688 -260.0625 79.890625 -251.226562 76.296875 -242.0625 C 72.710938 -232.90625 70.253906 -222.8125 68.921875 -211.78125 C 67.597656 -200.757812 66.9375 -187.941406 66.9375 -173.328125 C 66.9375 -172.003906 67.003906 -170.675781 67.140625 -169.34375 C 67.273438 -168.019531 67.472656 -166.691406 67.734375 -165.359375 C 77.035156 -169.609375 85.601562 -172.597656 93.4375 -174.328125 C 101.28125 -176.054688 110.25 -176.921875 120.34375 -176.921875 C 132.820312 -176.921875 143.644531 -175.457031 152.8125 -172.53125 C 161.976562 -169.613281 169.8125 -165.960938 176.3125 -161.578125 C 182.820312 -157.191406 188.269531 -152.410156 192.65625 -147.234375 C 197.039062 -142.054688 200.828125 -137.207031 204.015625 -132.6875 C 198.703125 -133.75 193.785156 -134.476562 189.265625 -134.875 C 184.753906 -135.28125 180.375 -135.484375 176.125 -135.484375 C 171.875 -135.484375 167.421875 -135.21875 162.765625 -134.6875 C 158.117188 -134.15625 153.007812 -133.488281 147.4375 -132.6875 C 145.3125 -144.113281 141.988281 -152.484375 137.46875 -157.796875 C 132.957031 -163.109375 125.65625 -165.765625 115.5625 -165.765625 C 108.65625 -165.765625 101.679688 -164.765625 94.640625 -162.765625 C 87.597656 -160.773438 79.691406 -157.921875 70.921875 -154.203125 C 73.847656 -147.035156 77.832031 -139.863281 82.875 -132.6875 C 87.925781 -125.519531 92.84375 -118.210938 97.625 -110.765625 C 102.40625 -103.328125 106.585938 -95.820312 110.171875 -88.25 C 113.765625 -80.6875 115.5625 -72.785156 115.5625 -64.546875 C 115.5625 -61.359375 115.691406 -57.570312 115.953125 -53.1875 C 116.222656 -48.8125 116.222656 -44.097656 115.953125 -39.046875 C 115.691406 -34.003906 114.960938 -28.5625 113.765625 -22.71875 C 112.566406 -16.875 110.375 -11.03125 107.1875 -5.1875 C 111.707031 -8.101562 116.554688 -12.019531 121.734375 -16.9375 C 126.910156 -21.851562 131.09375 -27.234375 134.28125 -33.078125 C 135.875 -35.734375 138.066406 -38.65625 140.859375 -41.84375 C 143.648438 -45.03125 146.90625 -47.882812 150.625 -50.40625 C 154.34375 -52.925781 158.191406 -55.050781 162.171875 -56.78125 C 166.160156 -58.507812 170.144531 -59.375 174.125 -59.375 C 176.78125 -59.375 179.503906 -58.578125 182.296875 -56.984375 C 185.085938 -55.390625 187.609375 -53.328125 189.859375 -50.796875 C 192.117188 -48.273438 193.910156 -45.550781 195.234375 -42.625 C 196.566406 -39.707031 197.234375 -36.921875 197.234375 -34.265625 C 197.234375 -32.671875 196.96875 -31.609375 196.4375 -31.078125 C 195.90625 -30.546875 194.179688 -30.28125 191.265625 -30.28125 C 188.609375 -30.28125 185.484375 -30.8125 181.890625 -31.875 C 178.304688 -32.9375 175.453125 -33.46875 173.328125 -33.46875 C 166.691406 -33.46875 160.316406 -32.070312 154.203125 -29.28125 C 148.097656 -26.5 143.316406 -23.515625 139.859375 -20.328125 C 133.484375 -14.210938 126.84375 -8.429688 119.9375 -2.984375 C 113.03125 2.460938 105.328125 7.046875 96.828125 10.765625 C 96.828125 7.046875 96.5625 3.191406 96.03125 -0.796875 C 95.5 -4.785156 94.765625 -8.640625 93.828125 -12.359375 C 92.898438 -16.078125 91.835938 -19.460938 90.640625 -22.515625 C 89.453125 -25.566406 88.0625 -28.023438 86.46875 -29.890625 C 81.414062 -36.265625 74.707031 -42.570312 66.34375 -48.8125 C 57.976562 -55.050781 49.742188 -61.957031 41.640625 -69.53125 C 33.535156 -77.101562 26.5625 -85.738281 20.71875 -95.4375 C 14.875 -105.132812 11.953125 -116.625 11.953125 -129.90625 C 11.953125 -151.414062 15.472656 -170.9375 22.515625 -188.46875 C 29.554688 -206.007812 38.320312 -222.015625 48.8125 -236.484375 C 59.300781 -250.960938 70.585938 -264.378906 82.671875 -276.734375 C 94.765625 -289.085938 105.726562 -300.84375 115.5625 -312 C 122.195312 -305.894531 127.972656 -301.710938 132.890625 -299.453125 C 137.804688 -297.191406 142.253906 -295.265625 146.234375 -293.671875 C 150.222656 -292.078125 153.941406 -290.28125 157.390625 -288.28125 C 160.847656 -286.289062 164.566406 -282.773438 168.546875 -277.734375 C 171.734375 -273.484375 174.191406 -269.429688 175.921875 -265.578125 C 177.648438 -261.722656 179.109375 -258.132812 180.296875 -254.8125 C 181.492188 -251.5 182.691406 -248.515625 183.890625 -245.859375 C 185.085938 -243.203125 186.75 -241.078125 188.875 -239.484375 C 190.726562 -237.890625 192.847656 -236.691406 195.234375 -235.890625 C 197.628906 -235.097656 199.820312 -234.367188 201.8125 -233.703125 C 203.8125 -233.035156 205.472656 -232.367188 206.796875 -231.703125 C 208.128906 -231.046875 208.796875 -230.050781 208.796875 -228.71875 Z M 208.796875 -228.71875 "></path></g></g></g><g fill="#ae0403" fill-opacity="1"><g transform="translate(673.491117, 321.752771)"><g><path d="M 143.453125 -235.09375 L 143.453125 -243.46875 C 143.453125 -248.78125 142.921875 -253.09375 141.859375 -256.40625 C 140.796875 -259.726562 139.066406 -262.984375 136.671875 -266.171875 C 134.285156 -269.359375 131.296875 -273.207031 127.703125 -277.71875 C 124.117188 -282.238281 119.804688 -288.351562 114.765625 -296.0625 C 109.984375 -291.28125 104.601562 -285.703125 98.625 -279.328125 C 92.644531 -272.953125 87.0625 -265.378906 81.875 -256.609375 C 76.695312 -247.847656 72.316406 -237.820312 68.734375 -226.53125 C 65.148438 -215.238281 63.359375 -202.285156 63.359375 -187.671875 C 63.359375 -177.847656 64.617188 -168.953125 67.140625 -160.984375 C 69.660156 -153.015625 72.847656 -145.578125 76.703125 -138.671875 C 80.554688 -131.765625 84.671875 -125.320312 89.046875 -119.34375 C 93.429688 -113.363281 97.550781 -107.453125 101.40625 -101.609375 C 105.257812 -95.765625 108.445312 -89.851562 110.96875 -83.875 C 113.5 -77.894531 114.765625 -71.453125 114.765625 -64.546875 C 114.765625 -58.441406 114.828125 -52.929688 114.953125 -48.015625 C 115.085938 -43.097656 114.890625 -38.25 114.359375 -33.46875 C 113.828125 -28.6875 112.832031 -23.835938 111.375 -18.921875 C 109.914062 -14.015625 107.59375 -8.640625 104.40625 -2.796875 C 116.882812 -9.171875 126.644531 -15.410156 133.6875 -21.515625 C 140.726562 -27.628906 146.039062 -33.609375 149.625 -39.453125 C 153.207031 -45.296875 155.460938 -50.804688 156.390625 -55.984375 C 157.328125 -61.160156 157.796875 -66.140625 157.796875 -70.921875 C 157.796875 -73.316406 157.660156 -76.640625 157.390625 -80.890625 C 157.128906 -85.140625 156.597656 -89.519531 155.796875 -94.03125 L 134.28125 -94.03125 L 134.28125 -104 L 231.90625 -104 L 231.90625 -94.03125 L 210 -94.03125 C 207.875 -88.457031 205.210938 -82.679688 202.015625 -76.703125 C 198.828125 -70.722656 194.445312 -63.882812 188.875 -56.1875 C 183.289062 -48.476562 176.710938 -41.171875 169.140625 -34.265625 C 161.578125 -27.359375 153.675781 -21.050781 145.4375 -15.34375 C 137.207031 -9.632812 128.84375 -4.519531 120.34375 0 C 111.84375 4.519531 103.738281 8.109375 96.03125 10.765625 C 96.03125 7.046875 95.765625 3.191406 95.234375 -0.796875 C 94.703125 -4.785156 93.96875 -8.640625 93.03125 -12.359375 C 92.101562 -16.078125 91.039062 -19.460938 89.84375 -22.515625 C 88.65625 -25.566406 87.265625 -28.023438 85.671875 -29.890625 C 80.617188 -36.265625 73.910156 -42.503906 65.546875 -48.609375 C 57.179688 -54.722656 49.015625 -61.5 41.046875 -68.9375 C 33.078125 -76.375 26.234375 -84.875 20.515625 -94.4375 C 14.804688 -104 11.953125 -115.421875 11.953125 -128.703125 C 11.953125 -150.222656 15.472656 -169.816406 22.515625 -187.484375 C 29.554688 -205.148438 38.253906 -221.285156 48.609375 -235.890625 C 58.972656 -250.503906 70.128906 -264.050781 82.078125 -276.53125 C 94.035156 -289.019531 104.929688 -300.84375 114.765625 -312 C 121.671875 -304.832031 128.578125 -299.253906 135.484375 -295.265625 C 142.390625 -291.273438 148.960938 -287.6875 155.203125 -284.5 C 161.441406 -281.3125 167.285156 -277.925781 172.734375 -274.34375 C 178.179688 -270.757812 182.894531 -265.910156 186.875 -259.796875 C 189.800781 -255.816406 192.125 -251.632812 193.84375 -247.25 C 195.570312 -242.863281 196.96875 -238.8125 198.03125 -235.09375 L 219.15625 -235.09375 L 219.15625 -225.140625 L 121.9375 -225.140625 L 121.9375 -235.09375 Z M 143.453125 -235.09375 "></path></g></g></g><g fill="#ae0403" fill-opacity="1"><g transform="translate(905.389593, 321.752771)"><g><path d="M 143.453125 -235.09375 L 143.453125 -243.46875 C 143.453125 -248.78125 142.921875 -253.09375 141.859375 -256.40625 C 140.796875 -259.726562 139.066406 -262.984375 136.671875 -266.171875 C 134.285156 -269.359375 131.296875 -273.207031 127.703125 -277.71875 C 124.117188 -282.238281 119.804688 -288.351562 114.765625 -296.0625 C 109.984375 -291.28125 104.601562 -285.703125 98.625 -279.328125 C 92.644531 -272.953125 87.0625 -265.378906 81.875 -256.609375 C 76.695312 -247.847656 72.316406 -237.820312 68.734375 -226.53125 C 65.148438 -215.238281 63.359375 -202.285156 63.359375 -187.671875 C 63.359375 -177.847656 64.617188 -168.953125 67.140625 -160.984375 C 69.660156 -153.015625 72.847656 -145.578125 76.703125 -138.671875 C 80.554688 -131.765625 84.671875 -125.320312 89.046875 -119.34375 C 93.429688 -113.363281 97.550781 -107.453125 101.40625 -101.609375 C 105.257812 -95.765625 108.445312 -89.851562 110.96875 -83.875 C 113.5 -77.894531 114.765625 -71.453125 114.765625 -64.546875 C 114.765625 -58.441406 114.828125 -52.929688 114.953125 -48.015625 C 115.085938 -43.097656 114.890625 -38.25 114.359375 -33.46875 C 113.828125 -28.6875 112.832031 -23.835938 111.375 -18.921875 C 109.914062 -14.015625 107.59375 -8.640625 104.40625 -2.796875 C 116.882812 -9.171875 126.644531 -15.410156 133.6875 -21.515625 C 140.726562 -27.628906 146.039062 -33.609375 149.625 -39.453125 C 153.207031 -45.296875 155.460938 -50.804688 156.390625 -55.984375 C 157.328125 -61.160156 157.796875 -66.140625 157.796875 -70.921875 C 157.796875 -73.316406 157.660156 -76.640625 157.390625 -80.890625 C 157.128906 -85.140625 156.597656 -89.519531 155.796875 -94.03125 L 134.28125 -94.03125 L 134.28125 -104 L 231.90625 -104 L 231.90625 -94.03125 L 210 -94.03125 C 207.875 -88.457031 205.210938 -82.679688 202.015625 -76.703125 C 198.828125 -70.722656 194.445312 -63.882812 188.875 -56.1875 C 183.289062 -48.476562 176.710938 -41.171875 169.140625 -34.265625 C 161.578125 -27.359375 153.675781 -21.050781 145.4375 -15.34375 C 137.207031 -9.632812 128.84375 -4.519531 120.34375 0 C 111.84375 4.519531 103.738281 8.109375 96.03125 10.765625 C 96.03125 7.046875 95.765625 3.191406 95.234375 -0.796875 C 94.703125 -4.785156 93.96875 -8.640625 93.03125 -12.359375 C 92.101562 -16.078125 91.039062 -19.460938 89.84375 -22.515625 C 88.65625 -25.566406 87.265625 -28.023438 85.671875 -29.890625 C 80.617188 -36.265625 73.910156 -42.503906 65.546875 -48.609375 C 57.179688 -54.722656 49.015625 -61.5 41.046875 -68.9375 C 33.078125 -76.375 26.234375 -84.875 20.515625 -94.4375 C 14.804688 -104 11.953125 -115.421875 11.953125 -128.703125 C 11.953125 -150.222656 15.472656 -169.816406 22.515625 -187.484375 C 29.554688 -205.148438 38.253906 -221.285156 48.609375 -235.890625 C 58.972656 -250.503906 70.128906 -264.050781 82.078125 -276.53125 C 94.035156 -289.019531 104.929688 -300.84375 114.765625 -312 C 121.671875 -304.832031 128.578125 -299.253906 135.484375 -295.265625 C 142.390625 -291.273438 148.960938 -287.6875 155.203125 -284.5 C 161.441406 -281.3125 167.285156 -277.925781 172.734375 -274.34375 C 178.179688 -270.757812 182.894531 -265.910156 186.875 -259.796875 C 189.800781 -255.816406 192.125 -251.632812 193.84375 -247.25 C 195.570312 -242.863281 196.96875 -238.8125 198.03125 -235.09375 L 219.15625 -235.09375 L 219.15625 -225.140625 L 121.9375 -225.140625 L 121.9375 -235.09375 Z M 143.453125 -235.09375 "></path></g></g></g><g fill="#ae0403" fill-opacity="1"><g transform="translate(1137.28807, 321.752771)"><g><path d="M 151.015625 -180.109375 C 149.953125 -168.148438 146.097656 -158.453125 139.453125 -151.015625 C 132.816406 -143.578125 124.453125 -136.804688 114.359375 -130.703125 L 26.296875 -130.703125 C 24.171875 -130.429688 21.78125 -130.164062 19.125 -129.90625 C 14.34375 -129.375 9.429688 -128.3125 4.390625 -126.71875 C 7.304688 -133.351562 10.222656 -138.796875 13.140625 -143.046875 C 16.066406 -147.296875 19.320312 -150.878906 22.90625 -153.796875 C 26.5 -156.722656 30.484375 -159.445312 34.859375 -161.96875 C 39.242188 -164.5 44.226562 -167.222656 49.8125 -170.140625 L 130.703125 -170.140625 C 134.679688 -170.140625 138.332031 -171.332031 141.65625 -173.71875 C 144.976562 -176.113281 148.097656 -178.242188 151.015625 -180.109375 Z M 151.015625 -180.109375 "></path></g></g></g><g fill="#ae0403" fill-opacity="1"><g transform="translate(1296.668418, 321.752771)"><g><path d="M 241.875 -9.96875 L 241.875 0 L 157 0 C 160.1875 -9.03125 161.910156 -19.65625 162.171875 -31.875 C 162.441406 -44.09375 161.445312 -56.3125 159.1875 -68.53125 C 156.925781 -80.75 153.40625 -92.304688 148.625 -103.203125 C 143.84375 -114.097656 137.867188 -123 130.703125 -129.90625 L 84.46875 -174.125 L 83.671875 -174.125 L 83.671875 -9.96875 L 104.796875 -9.96875 L 104.796875 0 L 7.578125 0 L 7.578125 -9.96875 L 27.890625 -9.96875 L 27.890625 -277.734375 L 7.578125 -277.734375 L 7.578125 -287.6875 L 104.796875 -287.6875 L 104.796875 -277.734375 L 83.671875 -277.734375 L 83.671875 -204.421875 L 84.46875 -204.421875 L 111.171875 -248.640625 C 113.566406 -252.628906 116.554688 -256.945312 120.140625 -261.59375 C 123.722656 -266.238281 127.707031 -270.550781 132.09375 -274.53125 C 136.476562 -278.519531 141.125 -281.84375 146.03125 -284.5 C 150.945312 -287.15625 156.0625 -288.484375 161.375 -288.484375 C 163.5 -288.484375 166.15625 -288.21875 169.34375 -287.6875 C 172.53125 -287.15625 175.71875 -286.425781 178.90625 -285.5 C 182.09375 -284.570312 185.015625 -283.3125 187.671875 -281.71875 C 190.328125 -280.125 192.1875 -278.265625 193.25 -276.140625 C 190.59375 -267.898438 189.394531 -258.535156 189.65625 -248.046875 C 189.925781 -237.554688 190.195312 -228.0625 190.46875 -219.5625 L 181.703125 -219.5625 C 181.703125 -224.070312 180.570312 -228.582031 178.3125 -233.09375 C 176.050781 -237.613281 173.128906 -241.664062 169.546875 -245.25 C 165.960938 -248.84375 161.910156 -251.703125 157.390625 -253.828125 C 152.878906 -255.953125 148.363281 -257.015625 143.84375 -257.015625 C 141.1875 -257.015625 138.460938 -256.148438 135.671875 -254.421875 C 132.890625 -252.691406 130.234375 -250.5 127.703125 -247.84375 C 125.179688 -245.1875 122.789062 -242.460938 120.53125 -239.671875 C 118.28125 -236.890625 116.488281 -234.566406 115.15625 -232.703125 C 109.84375 -225.003906 104.59375 -217.429688 99.40625 -209.984375 C 94.226562 -202.546875 88.984375 -194.976562 83.671875 -187.28125 L 150.625 -137.875 C 159.65625 -130.96875 168.6875 -123.0625 177.71875 -114.15625 C 186.75 -105.257812 194.847656 -95.5 202.015625 -84.875 C 209.191406 -74.25 215.035156 -63.15625 219.546875 -51.59375 C 224.066406 -40.039062 226.328125 -28.289062 226.328125 -16.34375 C 226.328125 -15.28125 226.328125 -14.21875 226.328125 -13.15625 C 226.328125 -12.09375 226.195312 -11.03125 225.9375 -9.96875 Z M 241.875 -9.96875 "></path></g></g></g><g fill="#ae0403" fill-opacity="1"><g transform="translate(1538.618836, 321.752771)"><g><path d="M 131.890625 -234.296875 C 131.890625 -238.285156 131.425781 -242.269531 130.5 -246.25 C 129.570312 -250.238281 128.175781 -253.957031 126.3125 -257.40625 C 124.457031 -260.863281 121.9375 -263.65625 118.75 -265.78125 C 115.5625 -267.90625 111.84375 -268.96875 107.59375 -268.96875 C 102.8125 -268.96875 98.289062 -267.503906 94.03125 -264.578125 C 89.78125 -261.660156 86.128906 -257.875 83.078125 -253.21875 C 80.023438 -248.570312 77.632812 -243.257812 75.90625 -237.28125 C 74.175781 -231.3125 73.3125 -225.40625 73.3125 -219.5625 L 73.3125 -56.1875 C 73.3125 -49.28125 75.171875 -42.96875 78.890625 -37.25 C 82.609375 -31.539062 87.65625 -28.6875 94.03125 -28.6875 C 99.082031 -28.6875 103.929688 -29.878906 108.578125 -32.265625 C 113.234375 -34.660156 117.285156 -37.847656 120.734375 -41.828125 C 124.191406 -45.816406 126.914062 -50.46875 128.90625 -55.78125 C 130.894531 -61.09375 131.890625 -66.539062 131.890625 -72.125 Z M 191.265625 -220.75 C 191.265625 -205.34375 189.734375 -189.003906 186.671875 -171.734375 C 183.617188 -154.472656 179.300781 -137.472656 173.71875 -120.734375 C 168.144531 -103.992188 161.503906 -87.988281 153.796875 -72.71875 C 146.097656 -57.445312 137.535156 -43.96875 128.109375 -32.28125 C 118.679688 -20.59375 108.648438 -11.289062 98.015625 -4.375 C 87.390625 2.53125 76.367188 5.984375 64.953125 5.984375 C 55.390625 5.984375 47.351562 3.128906 40.84375 -2.578125 C 34.332031 -8.296875 29.082031 -15.671875 25.09375 -24.703125 C 21.113281 -33.734375 18.257812 -43.757812 16.53125 -54.78125 C 14.8125 -65.8125 13.953125 -76.640625 13.953125 -87.265625 C 13.953125 -103.472656 15.546875 -119.941406 18.734375 -136.671875 C 21.921875 -153.410156 26.300781 -169.550781 31.875 -185.09375 C 37.457031 -200.632812 44.097656 -215.3125 51.796875 -229.125 C 59.503906 -242.9375 67.875 -254.953125 76.90625 -265.171875 C 85.9375 -275.398438 95.566406 -283.503906 105.796875 -289.484375 C 116.023438 -295.460938 126.316406 -298.453125 136.671875 -298.453125 C 145.171875 -298.453125 152.804688 -296.191406 159.578125 -291.671875 C 166.359375 -287.160156 172.070312 -281.1875 176.71875 -273.75 C 181.363281 -266.3125 184.945312 -258.007812 187.46875 -248.84375 C 190 -239.675781 191.265625 -230.3125 191.265625 -220.75 Z M 191.265625 -220.75 "></path></g></g></g><g fill="#ae0403" fill-opacity="1"><g transform="translate(1743.821037, 321.752771)"><g><path d="M 221.546875 -287.6875 L 221.546875 -277.734375 L 201.625 -277.734375 L 201.625 -9.96875 L 238.6875 -9.96875 L 238.6875 0 C 234.96875 3.457031 232.109375 7.90625 230.109375 13.34375 C 228.117188 18.789062 226.660156 24.632812 225.734375 30.875 C 224.804688 37.125 224.273438 43.300781 224.140625 49.40625 C 224.003906 55.519531 223.9375 60.96875 223.9375 65.75 L 215.578125 65.75 C 215.578125 57.507812 214.3125 49.472656 211.78125 41.640625 C 209.257812 33.804688 205.609375 26.832031 200.828125 20.71875 C 196.046875 14.613281 190.203125 9.632812 183.296875 5.78125 C 176.390625 1.925781 168.421875 0 159.390625 0 L 81.6875 0 C 73.1875 0 65.28125 1.789062 57.96875 5.375 C 50.664062 8.96875 44.359375 13.75 39.046875 19.71875 C 33.734375 25.695312 29.484375 32.472656 26.296875 40.046875 C 23.109375 47.617188 21.515625 55.519531 21.515625 63.75 L 21.515625 65.75 L 13.15625 65.75 C 13.15625 60.96875 13.085938 55.519531 12.953125 49.40625 C 12.816406 43.300781 12.285156 37.125 11.359375 30.875 C 10.429688 24.632812 8.96875 18.789062 6.96875 13.34375 C 4.976562 7.90625 2.125 3.457031 -1.59375 0 L -1.59375 -9.96875 L 35.46875 -9.96875 C 35.46875 -33.070312 38.390625 -55.582031 44.234375 -77.5 C 50.078125 -99.414062 58.046875 -120.597656 68.140625 -141.046875 C 78.234375 -161.503906 89.921875 -181.097656 103.203125 -199.828125 C 116.484375 -218.554688 130.695312 -236.289062 145.84375 -253.03125 L 145.84375 -277.734375 L 124.328125 -277.734375 L 124.328125 -287.6875 Z M 145.84375 -233.90625 C 132.289062 -216.90625 119.601562 -199.898438 107.78125 -182.890625 C 95.957031 -165.890625 85.726562 -148.359375 77.09375 -130.296875 C 68.46875 -112.234375 61.695312 -93.304688 56.78125 -73.515625 C 51.863281 -53.722656 49.40625 -32.539062 49.40625 -9.96875 L 145.84375 -9.96875 Z M 145.84375 -233.90625 "></path></g></g></g></g></g></svg> 