<?xml version="1.0" encoding="UTF-8"?> <svg xmlns="http://www.w3.org/2000/svg" xmlns:xlink="http://www.w3.org/1999/xlink" width="3000" zoomAndPan="magnify" viewBox="0 0 2250 749.999995" height="1000" preserveAspectRatio="xMidYMid meet" version="1.0"><defs><g></g><clipPath id="03cfaa192c"><rect x="0" width="1389" y="0" height="389"></rect></clipPath></defs><g transform="matrix(1, 0, 0, 1, 434, 199)"><g clip-path="url(#03cfaa192c)"><g fill="#ae0403" fill-opacity="1"><g transform="translate(2.416599, 316.752771)"><g><path d="M 211.1875 -287.6875 L 211.1875 -277.734375 L 190.46875 -277.734375 L 190.46875 -9.96875 L 211.1875 -9.96875 L 211.1875 0 L 113.96875 0 L 113.96875 -9.96875 L 134.6875 -9.96875 L 134.6875 -61.765625 C 128.84375 -54.328125 121.535156 -46.753906 112.765625 -39.046875 C 103.992188 -31.347656 94.492188 -24.3125 84.265625 -17.9375 C 74.046875 -11.5625 63.625 -6.378906 53 -2.390625 C 42.375 1.597656 32.144531 3.59375 22.3125 3.59375 C 18.863281 3.59375 16.207031 2.660156 14.34375 0.796875 C 12.488281 -1.066406 11.09375 -3.390625 10.15625 -6.171875 C 9.226562 -8.960938 8.628906 -11.953125 8.359375 -15.140625 C 8.097656 -18.328125 7.96875 -21.117188 7.96875 -23.515625 C 7.96875 -44.765625 10.425781 -64.15625 15.34375 -81.6875 C 20.257812 -99.21875 27.894531 -117.148438 38.25 -135.484375 C 51.269531 -158.585938 66.015625 -180.234375 82.484375 -200.421875 C 98.953125 -220.617188 116.351562 -240.28125 134.6875 -259.40625 L 134.6875 -277.734375 L 113.96875 -277.734375 L 113.96875 -287.6875 Z M 134.6875 -243.46875 C 125.382812 -232.570312 116.082031 -221.015625 106.78125 -208.796875 C 97.488281 -196.578125 89.054688 -183.828125 81.484375 -170.546875 C 73.910156 -157.265625 67.800781 -143.515625 63.15625 -129.296875 C 58.507812 -115.085938 56.1875 -100.546875 56.1875 -85.671875 C 56.1875 -75.578125 59.238281 -67.671875 65.34375 -61.953125 C 71.457031 -56.242188 79.5625 -53.390625 89.65625 -53.390625 C 99.21875 -53.390625 107.382812 -55.644531 114.15625 -60.15625 C 120.9375 -64.675781 127.78125 -69.859375 134.6875 -75.703125 Z M 134.6875 -243.46875 "></path></g></g></g><g fill="#ae0403" fill-opacity="1"><g transform="translate(220.767745, 316.752771)"><g><path d="M 235.5 -287.6875 L 235.5 -277.734375 L 213.984375 -277.734375 L 213.984375 -9.96875 L 235.5 -9.96875 L 235.5 0 L 138.265625 0 L 138.265625 -9.96875 L 158.1875 -9.96875 L 158.1875 -202.421875 C 153.675781 -205.078125 148.097656 -207.066406 141.453125 -208.390625 C 134.816406 -209.722656 127.976562 -210.320312 120.9375 -210.1875 C 113.894531 -210.0625 106.984375 -209.332031 100.203125 -208 C 93.429688 -206.675781 87.921875 -204.816406 83.671875 -202.421875 L 83.671875 -9.96875 L 104.796875 -9.96875 L 104.796875 0 L 7.578125 0 L 7.578125 -9.96875 L 27.890625 -9.96875 L 27.890625 -277.734375 L 7.578125 -277.734375 L 7.578125 -287.6875 L 104.796875 -287.6875 L 104.796875 -277.734375 L 83.671875 -277.734375 L 83.671875 -214.375 C 87.660156 -217.03125 93.039062 -218.957031 99.8125 -220.15625 C 106.59375 -221.351562 113.632812 -221.953125 120.9375 -221.953125 C 128.238281 -221.953125 135.273438 -221.285156 142.046875 -219.953125 C 148.828125 -218.628906 154.207031 -216.769531 158.1875 -214.375 L 158.1875 -277.734375 L 138.265625 -277.734375 L 138.265625 -287.6875 Z M 235.5 -287.6875 "></path></g></g></g><g fill="#ae0403" fill-opacity="1"><g transform="translate(462.627481, 316.752771)"><g><path d="M 241.875 -9.96875 L 241.875 0 L 157 0 C 160.1875 -9.03125 161.910156 -19.65625 162.171875 -31.875 C 162.441406 -44.09375 161.445312 -56.3125 159.1875 -68.53125 C 156.925781 -80.75 153.40625 -92.304688 148.625 -103.203125 C 143.84375 -114.097656 137.867188 -123 130.703125 -129.90625 L 84.46875 -174.125 L 83.671875 -174.125 L 83.671875 -9.96875 L 104.796875 -9.96875 L 104.796875 0 L 7.578125 0 L 7.578125 -9.96875 L 27.890625 -9.96875 L 27.890625 -277.734375 L 7.578125 -277.734375 L 7.578125 -287.6875 L 104.796875 -287.6875 L 104.796875 -277.734375 L 83.671875 -277.734375 L 83.671875 -204.421875 L 84.46875 -204.421875 L 111.171875 -248.640625 C 113.566406 -252.628906 116.554688 -256.945312 120.140625 -261.59375 C 123.722656 -266.238281 127.707031 -270.550781 132.09375 -274.53125 C 136.476562 -278.519531 141.125 -281.84375 146.03125 -284.5 C 150.945312 -287.15625 156.0625 -288.484375 161.375 -288.484375 C 163.5 -288.484375 166.15625 -288.21875 169.34375 -287.6875 C 172.53125 -287.15625 175.71875 -286.425781 178.90625 -285.5 C 182.09375 -284.570312 185.015625 -283.3125 187.671875 -281.71875 C 190.328125 -280.125 192.1875 -278.265625 193.25 -276.140625 C 190.59375 -267.898438 189.394531 -258.535156 189.65625 -248.046875 C 189.925781 -237.554688 190.195312 -228.0625 190.46875 -219.5625 L 181.703125 -219.5625 C 181.703125 -224.070312 180.570312 -228.582031 178.3125 -233.09375 C 176.050781 -237.613281 173.128906 -241.664062 169.546875 -245.25 C 165.960938 -248.84375 161.910156 -251.703125 157.390625 -253.828125 C 152.878906 -255.953125 148.363281 -257.015625 143.84375 -257.015625 C 141.1875 -257.015625 138.460938 -256.148438 135.671875 -254.421875 C 132.890625 -252.691406 130.234375 -250.5 127.703125 -247.84375 C 125.179688 -245.1875 122.789062 -242.460938 120.53125 -239.671875 C 118.28125 -236.890625 116.488281 -234.566406 115.15625 -232.703125 C 109.84375 -225.003906 104.59375 -217.429688 99.40625 -209.984375 C 94.226562 -202.546875 88.984375 -194.976562 83.671875 -187.28125 L 150.625 -137.875 C 159.65625 -130.96875 168.6875 -123.0625 177.71875 -114.15625 C 186.75 -105.257812 194.847656 -95.5 202.015625 -84.875 C 209.191406 -74.25 215.035156 -63.15625 219.546875 -51.59375 C 224.066406 -40.039062 226.328125 -28.289062 226.328125 -16.34375 C 226.328125 -15.28125 226.328125 -14.21875 226.328125 -13.15625 C 226.328125 -12.09375 226.195312 -11.03125 225.9375 -9.96875 Z M 241.875 -9.96875 "></path></g></g></g><g fill="#ae0403" fill-opacity="1"><g transform="translate(704.487216, 316.752771)"><g><path d="M 208.796875 -228.71875 C 208.796875 -228.1875 208.460938 -227.253906 207.796875 -225.921875 C 207.140625 -224.597656 205.945312 -223.269531 204.21875 -221.9375 C 202.488281 -220.613281 200.09375 -219.421875 197.03125 -218.359375 C 193.976562 -217.296875 190.195312 -216.765625 185.6875 -216.765625 C 182.757812 -216.765625 179.035156 -217.097656 174.515625 -217.765625 C 170.003906 -218.429688 165.359375 -219.5625 160.578125 -221.15625 C 155.796875 -222.75 151.144531 -224.738281 146.625 -227.125 C 142.113281 -229.519531 138.398438 -232.441406 135.484375 -235.890625 C 131.765625 -240.140625 129.109375 -244.785156 127.515625 -249.828125 C 125.921875 -254.878906 124.65625 -259.992188 123.71875 -265.171875 C 122.789062 -270.359375 121.863281 -275.539062 120.9375 -280.71875 C 120.007812 -285.894531 118.21875 -290.875 115.5625 -295.65625 C 105.46875 -286.09375 97.296875 -277.0625 91.046875 -268.5625 C 84.804688 -260.0625 79.890625 -251.226562 76.296875 -242.0625 C 72.710938 -232.90625 70.253906 -222.8125 68.921875 -211.78125 C 67.597656 -200.757812 66.9375 -187.941406 66.9375 -173.328125 C 66.9375 -172.003906 67.003906 -170.675781 67.140625 -169.34375 C 67.273438 -168.019531 67.472656 -166.691406 67.734375 -165.359375 C 77.035156 -169.609375 85.601562 -172.597656 93.4375 -174.328125 C 101.28125 -176.054688 110.25 -176.921875 120.34375 -176.921875 C 132.820312 -176.921875 143.644531 -175.457031 152.8125 -172.53125 C 161.976562 -169.613281 169.8125 -165.960938 176.3125 -161.578125 C 182.820312 -157.191406 188.269531 -152.410156 192.65625 -147.234375 C 197.039062 -142.054688 200.828125 -137.207031 204.015625 -132.6875 C 198.703125 -133.75 193.785156 -134.476562 189.265625 -134.875 C 184.753906 -135.28125 180.375 -135.484375 176.125 -135.484375 C 171.875 -135.484375 167.421875 -135.21875 162.765625 -134.6875 C 158.117188 -134.15625 153.007812 -133.488281 147.4375 -132.6875 C 145.3125 -144.113281 141.988281 -152.484375 137.46875 -157.796875 C 132.957031 -163.109375 125.65625 -165.765625 115.5625 -165.765625 C 108.65625 -165.765625 101.679688 -164.765625 94.640625 -162.765625 C 87.597656 -160.773438 79.691406 -157.921875 70.921875 -154.203125 C 73.847656 -147.035156 77.832031 -139.863281 82.875 -132.6875 C 87.925781 -125.519531 92.84375 -118.210938 97.625 -110.765625 C 102.40625 -103.328125 106.585938 -95.820312 110.171875 -88.25 C 113.765625 -80.6875 115.5625 -72.785156 115.5625 -64.546875 C 115.5625 -61.359375 115.691406 -57.570312 115.953125 -53.1875 C 116.222656 -48.8125 116.222656 -44.097656 115.953125 -39.046875 C 115.691406 -34.003906 114.960938 -28.5625 113.765625 -22.71875 C 112.566406 -16.875 110.375 -11.03125 107.1875 -5.1875 C 111.707031 -8.101562 116.554688 -12.019531 121.734375 -16.9375 C 126.910156 -21.851562 131.09375 -27.234375 134.28125 -33.078125 C 135.875 -35.734375 138.066406 -38.65625 140.859375 -41.84375 C 143.648438 -45.03125 146.90625 -47.882812 150.625 -50.40625 C 154.34375 -52.925781 158.191406 -55.050781 162.171875 -56.78125 C 166.160156 -58.507812 170.144531 -59.375 174.125 -59.375 C 176.78125 -59.375 179.503906 -58.578125 182.296875 -56.984375 C 185.085938 -55.390625 187.609375 -53.328125 189.859375 -50.796875 C 192.117188 -48.273438 193.910156 -45.550781 195.234375 -42.625 C 196.566406 -39.707031 197.234375 -36.921875 197.234375 -34.265625 C 197.234375 -32.671875 196.96875 -31.609375 196.4375 -31.078125 C 195.90625 -30.546875 194.179688 -30.28125 191.265625 -30.28125 C 188.609375 -30.28125 185.484375 -30.8125 181.890625 -31.875 C 178.304688 -32.9375 175.453125 -33.46875 173.328125 -33.46875 C 166.691406 -33.46875 160.316406 -32.070312 154.203125 -29.28125 C 148.097656 -26.5 143.316406 -23.515625 139.859375 -20.328125 C 133.484375 -14.210938 126.84375 -8.429688 119.9375 -2.984375 C 113.03125 2.460938 105.328125 7.046875 96.828125 10.765625 C 96.828125 7.046875 96.5625 3.191406 96.03125 -0.796875 C 95.5 -4.785156 94.765625 -8.640625 93.828125 -12.359375 C 92.898438 -16.078125 91.835938 -19.460938 90.640625 -22.515625 C 89.453125 -25.566406 88.0625 -28.023438 86.46875 -29.890625 C 81.414062 -36.265625 74.707031 -42.570312 66.34375 -48.8125 C 57.976562 -55.050781 49.742188 -61.957031 41.640625 -69.53125 C 33.535156 -77.101562 26.5625 -85.738281 20.71875 -95.4375 C 14.875 -105.132812 11.953125 -116.625 11.953125 -129.90625 C 11.953125 -151.414062 15.472656 -170.9375 22.515625 -188.46875 C 29.554688 -206.007812 38.320312 -222.015625 48.8125 -236.484375 C 59.300781 -250.960938 70.585938 -264.378906 82.671875 -276.734375 C 94.765625 -289.085938 105.726562 -300.84375 115.5625 -312 C 122.195312 -305.894531 127.972656 -301.710938 132.890625 -299.453125 C 137.804688 -297.191406 142.253906 -295.265625 146.234375 -293.671875 C 150.222656 -292.078125 153.941406 -290.28125 157.390625 -288.28125 C 160.847656 -286.289062 164.566406 -282.773438 168.546875 -277.734375 C 171.734375 -273.484375 174.191406 -269.429688 175.921875 -265.578125 C 177.648438 -261.722656 179.109375 -258.132812 180.296875 -254.8125 C 181.492188 -251.5 182.691406 -248.515625 183.890625 -245.859375 C 185.085938 -243.203125 186.75 -241.078125 188.875 -239.484375 C 190.726562 -237.890625 192.847656 -236.691406 195.234375 -235.890625 C 197.628906 -235.097656 199.820312 -234.367188 201.8125 -233.703125 C 203.8125 -233.035156 205.472656 -232.367188 206.796875 -231.703125 C 208.128906 -231.046875 208.796875 -230.050781 208.796875 -228.71875 Z M 208.796875 -228.71875 "></path></g></g></g><g fill="#ae0403" fill-opacity="1"><g transform="translate(925.229013, 316.752771)"><g><path d="M 90.046875 -9.96875 L 90.046875 -277.734375 L 83.28125 -277.734375 C 77.164062 -277.734375 70.851562 -275.9375 64.34375 -272.34375 C 57.84375 -268.757812 51.800781 -264.242188 46.21875 -258.796875 C 40.644531 -253.359375 36.0625 -247.382812 32.46875 -240.875 C 28.882812 -234.363281 27.09375 -228.054688 27.09375 -221.953125 L 27.09375 -219.953125 L 18.734375 -219.953125 C 18.734375 -230.046875 17.671875 -240.40625 15.546875 -251.03125 C 13.421875 -261.65625 8.238281 -270.554688 0 -277.734375 C 0.53125 -280.921875 0.53125 -284.238281 0 -287.6875 L 235.890625 -287.6875 C 235.359375 -284.238281 235.359375 -280.921875 235.890625 -277.734375 C 227.660156 -270.554688 222.484375 -261.65625 220.359375 -251.03125 C 218.234375 -240.40625 217.171875 -230.046875 217.171875 -219.953125 L 208.796875 -219.953125 C 208.796875 -227.390625 207.269531 -234.5625 204.21875 -241.46875 C 201.164062 -248.375 197.046875 -254.484375 191.859375 -259.796875 C 186.679688 -265.109375 180.703125 -269.425781 173.921875 -272.75 C 167.148438 -276.070312 160.046875 -277.734375 152.609375 -277.734375 L 145.84375 -277.734375 L 145.84375 -9.96875 L 170.546875 -9.96875 L 170.546875 0 L 65.34375 0 L 65.34375 -9.96875 Z M 90.046875 -9.96875 "></path></g></g></g><g fill="#ae0403" fill-opacity="1"><g transform="translate(1161.111939, 316.752771)"><g><path d="M 211.1875 -287.6875 L 211.1875 -277.734375 L 190.46875 -277.734375 L 190.46875 -9.96875 L 211.1875 -9.96875 L 211.1875 0 L 113.96875 0 L 113.96875 -9.96875 L 134.6875 -9.96875 L 134.6875 -61.765625 C 128.84375 -54.328125 121.535156 -46.753906 112.765625 -39.046875 C 103.992188 -31.347656 94.492188 -24.3125 84.265625 -17.9375 C 74.046875 -11.5625 63.625 -6.378906 53 -2.390625 C 42.375 1.597656 32.144531 3.59375 22.3125 3.59375 C 18.863281 3.59375 16.207031 2.660156 14.34375 0.796875 C 12.488281 -1.066406 11.09375 -3.390625 10.15625 -6.171875 C 9.226562 -8.960938 8.628906 -11.953125 8.359375 -15.140625 C 8.097656 -18.328125 7.96875 -21.117188 7.96875 -23.515625 C 7.96875 -44.765625 10.425781 -64.15625 15.34375 -81.6875 C 20.257812 -99.21875 27.894531 -117.148438 38.25 -135.484375 C 51.269531 -158.585938 66.015625 -180.234375 82.484375 -200.421875 C 98.953125 -220.617188 116.351562 -240.28125 134.6875 -259.40625 L 134.6875 -277.734375 L 113.96875 -277.734375 L 113.96875 -287.6875 Z M 134.6875 -243.46875 C 125.382812 -232.570312 116.082031 -221.015625 106.78125 -208.796875 C 97.488281 -196.578125 89.054688 -183.828125 81.484375 -170.546875 C 73.910156 -157.265625 67.800781 -143.515625 63.15625 -129.296875 C 58.507812 -115.085938 56.1875 -100.546875 56.1875 -85.671875 C 56.1875 -75.578125 59.238281 -67.671875 65.34375 -61.953125 C 71.457031 -56.242188 79.5625 -53.390625 89.65625 -53.390625 C 99.21875 -53.390625 107.382812 -55.644531 114.15625 -60.15625 C 120.9375 -64.675781 127.78125 -69.859375 134.6875 -75.703125 Z M 134.6875 -243.46875 "></path></g></g></g></g></g></svg> 