<?xml version="1.0" encoding="UTF-8"?> <svg xmlns="http://www.w3.org/2000/svg" xmlns:xlink="http://www.w3.org/1999/xlink" width="2000" zoomAndPan="magnify" viewBox="0 0 1500 1499.999933" height="2000" preserveAspectRatio="xMidYMid meet" version="1.0"><defs><g></g><clipPath id="e7c48e8d0c"><rect x="0" width="981" y="0" height="384"></rect></clipPath><clipPath id="805cac0b42"><rect x="0" width="1107" y="0" height="506"></rect></clipPath></defs><g transform="matrix(1, 0, 0, 1, 243, 308)"><g clip-path="url(#e7c48e8d0c)"><g fill="#ae0403" fill-opacity="1"><g transform="translate(4.71201, 308.17315)"><g><path d="M 84.890625 -10.5 L 84.890625 -226.921875 C 84.890625 -230.847656 83.628906 -234.070312 81.109375 -236.59375 C 78.585938 -239.113281 75.570312 -241.003906 72.0625 -242.265625 C 68.5625 -243.523438 64.847656 -244.296875 60.921875 -244.578125 C 57.003906 -244.859375 53.644531 -244.859375 50.84375 -244.578125 L 50.84375 -253.828125 C 57.851562 -255.222656 65.066406 -257.53125 72.484375 -260.75 C 79.910156 -263.976562 87.054688 -267.898438 93.921875 -272.515625 C 100.785156 -277.140625 107.296875 -282.113281 113.453125 -287.4375 C 119.617188 -292.757812 124.804688 -298.222656 129.015625 -303.828125 L 137.421875 -303.828125 L 137.421875 -10.5 L 160.953125 -10.5 L 160.953125 0 L 58.40625 0 L 58.40625 -10.5 Z M 84.890625 -10.5 "></path></g></g></g><g fill="#ae0403" fill-opacity="1"><g transform="translate(219.016361, 308.17315)"><g><path d="M 143.71875 -147.078125 C 143.71875 -156.609375 142.738281 -167.882812 140.78125 -180.90625 C 138.820312 -193.9375 136.160156 -207.316406 132.796875 -221.046875 C 129.429688 -234.773438 125.578125 -248.007812 121.234375 -260.75 C 116.890625 -273.5 112.195312 -284.21875 107.15625 -292.90625 C 100.4375 -283.65625 94.765625 -272.585938 90.140625 -259.703125 C 85.515625 -246.816406 81.726562 -233.648438 78.78125 -220.203125 C 75.84375 -206.753906 73.742188 -193.585938 72.484375 -180.703125 C 71.222656 -167.816406 70.59375 -156.609375 70.59375 -147.078125 C 70.59375 -137.554688 71.289062 -126.28125 72.6875 -113.25 C 74.09375 -100.226562 76.335938 -87.203125 79.421875 -74.171875 C 82.503906 -61.140625 86.285156 -48.953125 90.765625 -37.609375 C 95.253906 -26.265625 100.71875 -17.648438 107.15625 -11.765625 C 113.601562 -18.210938 119.132812 -27.109375 123.75 -38.453125 C 128.375 -49.796875 132.15625 -61.910156 135.09375 -74.796875 C 138.039062 -87.679688 140.210938 -100.566406 141.609375 -113.453125 C 143.015625 -126.347656 143.71875 -137.554688 143.71875 -147.078125 Z M 201.71875 -147.078125 C 201.71875 -130.546875 198.492188 -114.992188 192.046875 -100.421875 C 185.597656 -85.859375 177.613281 -72.273438 168.09375 -59.671875 C 158.570312 -47.066406 148.347656 -35.441406 137.421875 -24.796875 C 126.492188 -14.148438 116.40625 -4.484375 107.15625 4.203125 C 97.351562 -5.046875 86.914062 -15.0625 75.84375 -25.84375 C 64.78125 -36.632812 54.554688 -48.257812 45.171875 -60.71875 C 35.785156 -73.1875 28.007812 -86.5625 21.84375 -100.84375 C 15.6875 -115.132812 12.609375 -130.546875 12.609375 -147.078125 C 12.609375 -163.046875 15.269531 -178.242188 20.59375 -192.671875 C 25.914062 -207.097656 32.914062 -220.828125 41.59375 -233.859375 C 50.28125 -246.890625 60.296875 -259.21875 71.640625 -270.84375 C 82.992188 -282.46875 94.832031 -293.320312 107.15625 -303.40625 C 117.519531 -293.601562 128.304688 -282.957031 139.515625 -271.46875 C 150.722656 -259.976562 160.945312 -247.648438 170.1875 -234.484375 C 179.4375 -221.316406 187.003906 -207.445312 192.890625 -192.875 C 198.773438 -178.3125 201.71875 -163.046875 201.71875 -147.078125 Z M 201.71875 -147.078125 "></path></g></g></g><g fill="#ae0403" fill-opacity="1"><g transform="translate(433.320712, 308.17315)"><g><path d="M 34.03125 0 L 46.640625 -50.421875 L 95.390625 -50.421875 L 82.78125 0 Z M 34.03125 -176.5 L 46.640625 -226.921875 L 95.390625 -226.921875 L 82.78125 -176.5 Z M 34.03125 -176.5 "></path></g></g></g><g fill="#ae0403" fill-opacity="1"><g transform="translate(550.137634, 308.17315)"><g><path d="M 143.71875 -147.078125 C 143.71875 -156.609375 142.738281 -167.882812 140.78125 -180.90625 C 138.820312 -193.9375 136.160156 -207.316406 132.796875 -221.046875 C 129.429688 -234.773438 125.578125 -248.007812 121.234375 -260.75 C 116.890625 -273.5 112.195312 -284.21875 107.15625 -292.90625 C 100.4375 -283.65625 94.765625 -272.585938 90.140625 -259.703125 C 85.515625 -246.816406 81.726562 -233.648438 78.78125 -220.203125 C 75.84375 -206.753906 73.742188 -193.585938 72.484375 -180.703125 C 71.222656 -167.816406 70.59375 -156.609375 70.59375 -147.078125 C 70.59375 -137.554688 71.289062 -126.28125 72.6875 -113.25 C 74.09375 -100.226562 76.335938 -87.203125 79.421875 -74.171875 C 82.503906 -61.140625 86.285156 -48.953125 90.765625 -37.609375 C 95.253906 -26.265625 100.71875 -17.648438 107.15625 -11.765625 C 113.601562 -18.210938 119.132812 -27.109375 123.75 -38.453125 C 128.375 -49.796875 132.15625 -61.910156 135.09375 -74.796875 C 138.039062 -87.679688 140.210938 -100.566406 141.609375 -113.453125 C 143.015625 -126.347656 143.71875 -137.554688 143.71875 -147.078125 Z M 201.71875 -147.078125 C 201.71875 -130.546875 198.492188 -114.992188 192.046875 -100.421875 C 185.597656 -85.859375 177.613281 -72.273438 168.09375 -59.671875 C 158.570312 -47.066406 148.347656 -35.441406 137.421875 -24.796875 C 126.492188 -14.148438 116.40625 -4.484375 107.15625 4.203125 C 97.351562 -5.046875 86.914062 -15.0625 75.84375 -25.84375 C 64.78125 -36.632812 54.554688 -48.257812 45.171875 -60.71875 C 35.785156 -73.1875 28.007812 -86.5625 21.84375 -100.84375 C 15.6875 -115.132812 12.609375 -130.546875 12.609375 -147.078125 C 12.609375 -163.046875 15.269531 -178.242188 20.59375 -192.671875 C 25.914062 -207.097656 32.914062 -220.828125 41.59375 -233.859375 C 50.28125 -246.890625 60.296875 -259.21875 71.640625 -270.84375 C 82.992188 -282.46875 94.832031 -293.320312 107.15625 -303.40625 C 117.519531 -293.601562 128.304688 -282.957031 139.515625 -271.46875 C 150.722656 -259.976562 160.945312 -247.648438 170.1875 -234.484375 C 179.4375 -221.316406 187.003906 -207.445312 192.890625 -192.875 C 198.773438 -178.3125 201.71875 -163.046875 201.71875 -147.078125 Z M 201.71875 -147.078125 "></path></g></g></g><g fill="#ae0403" fill-opacity="1"><g transform="translate(764.441985, 308.17315)"><g><path d="M 143.71875 -147.078125 C 143.71875 -156.609375 142.738281 -167.882812 140.78125 -180.90625 C 138.820312 -193.9375 136.160156 -207.316406 132.796875 -221.046875 C 129.429688 -234.773438 125.578125 -248.007812 121.234375 -260.75 C 116.890625 -273.5 112.195312 -284.21875 107.15625 -292.90625 C 100.4375 -283.65625 94.765625 -272.585938 90.140625 -259.703125 C 85.515625 -246.816406 81.726562 -233.648438 78.78125 -220.203125 C 75.84375 -206.753906 73.742188 -193.585938 72.484375 -180.703125 C 71.222656 -167.816406 70.59375 -156.609375 70.59375 -147.078125 C 70.59375 -137.554688 71.289062 -126.28125 72.6875 -113.25 C 74.09375 -100.226562 76.335938 -87.203125 79.421875 -74.171875 C 82.503906 -61.140625 86.285156 -48.953125 90.765625 -37.609375 C 95.253906 -26.265625 100.71875 -17.648438 107.15625 -11.765625 C 113.601562 -18.210938 119.132812 -27.109375 123.75 -38.453125 C 128.375 -49.796875 132.15625 -61.910156 135.09375 -74.796875 C 138.039062 -87.679688 140.210938 -100.566406 141.609375 -113.453125 C 143.015625 -126.347656 143.71875 -137.554688 143.71875 -147.078125 Z M 201.71875 -147.078125 C 201.71875 -130.546875 198.492188 -114.992188 192.046875 -100.421875 C 185.597656 -85.859375 177.613281 -72.273438 168.09375 -59.671875 C 158.570312 -47.066406 148.347656 -35.441406 137.421875 -24.796875 C 126.492188 -14.148438 116.40625 -4.484375 107.15625 4.203125 C 97.351562 -5.046875 86.914062 -15.0625 75.84375 -25.84375 C 64.78125 -36.632812 54.554688 -48.257812 45.171875 -60.71875 C 35.785156 -73.1875 28.007812 -86.5625 21.84375 -100.84375 C 15.6875 -115.132812 12.609375 -130.546875 12.609375 -147.078125 C 12.609375 -163.046875 15.269531 -178.242188 20.59375 -192.671875 C 25.914062 -207.097656 32.914062 -220.828125 41.59375 -233.859375 C 50.28125 -246.890625 60.296875 -259.21875 71.640625 -270.84375 C 82.992188 -282.46875 94.832031 -293.320312 107.15625 -303.40625 C 117.519531 -293.601562 128.304688 -282.957031 139.515625 -271.46875 C 150.722656 -259.976562 160.945312 -247.648438 170.1875 -234.484375 C 179.4375 -221.316406 187.003906 -207.445312 192.890625 -192.875 C 198.773438 -178.3125 201.71875 -163.046875 201.71875 -147.078125 Z M 201.71875 -147.078125 "></path></g></g></g></g></g><g transform="matrix(1, 0, 0, 1, 207, 726)"><g clip-path="url(#805cac0b42)"><g fill="#a70b14" fill-opacity="1"><g transform="translate(69.395109, 119.105005)"><g><path d="M 31.671875 -7.390625 C 31.671875 -5.128906 32.800781 -4 35.0625 -4 L 48.578125 -4 C 51.492188 -4 54.285156 -4.5625 56.953125 -5.6875 C 59.628906 -6.820312 61.820312 -8.847656 63.53125 -11.765625 C 65.25 -14.691406 66.109375 -18.867188 66.109375 -24.296875 C 66.109375 -29.710938 65.25 -33.878906 63.53125 -36.796875 C 61.820312 -39.722656 59.628906 -41.75 56.953125 -42.875 C 54.285156 -44.007812 51.492188 -44.578125 48.578125 -44.578125 L 31.671875 -44.578125 Z M 7.765625 0 L 7.765625 -4 L 16.78125 -4 C 19.03125 -4 20.15625 -5.128906 20.15625 -7.390625 L 20.15625 -81.75 C 20.15625 -84.007812 19.03125 -85.140625 16.78125 -85.140625 L 7.765625 -85.140625 L 7.765625 -89.140625 L 48.578125 -89.140625 C 53.585938 -89.140625 58.21875 -88.242188 62.46875 -86.453125 C 66.726562 -84.660156 70.148438 -82.15625 72.734375 -78.9375 C 75.328125 -75.726562 76.625 -72.035156 76.625 -67.859375 C 76.625 -63.847656 75.660156 -60.359375 73.734375 -57.390625 C 71.816406 -54.429688 69.394531 -52.078125 66.46875 -50.328125 C 63.550781 -48.578125 60.550781 -47.367188 57.46875 -46.703125 L 57.46875 -46.203125 C 60.800781 -45.953125 64.140625 -44.90625 67.484375 -43.0625 C 70.828125 -41.226562 73.644531 -38.722656 75.9375 -35.546875 C 78.226562 -32.378906 79.375 -28.628906 79.375 -24.296875 C 79.375 -19.035156 78.015625 -14.585938 75.296875 -10.953125 C 72.585938 -7.328125 69 -4.59375 64.53125 -2.75 C 60.070312 -0.914062 55.210938 0 49.953125 0 Z M 31.671875 -48.578125 L 48.078125 -48.578125 C 53.003906 -48.578125 56.71875 -49.472656 59.21875 -51.265625 C 61.726562 -53.066406 63.421875 -55.445312 64.296875 -58.40625 C 65.171875 -61.375 65.609375 -64.523438 65.609375 -67.859375 C 65.609375 -71.285156 64.851562 -74.289062 63.34375 -76.875 C 61.84375 -79.457031 59.863281 -81.476562 57.40625 -82.9375 C 54.945312 -84.40625 52.171875 -85.140625 49.078125 -85.140625 L 35.0625 -85.140625 C 32.800781 -85.140625 31.671875 -84.007812 31.671875 -81.75 Z M 31.671875 -48.578125 "></path></g></g></g><g fill="#a70b14" fill-opacity="1"><g transform="translate(155.762591, 119.105005)"><g><path d="M 4.75 0 L 4.75 -3 L 10.015625 -3 C 11.847656 -3 12.765625 -3.921875 12.765625 -5.765625 L 12.765625 -51.328125 C 12.765625 -53.171875 11.847656 -54.09375 10.015625 -54.09375 L 4.75 -54.09375 L 4.75 -57.09375 L 29.796875 -57.09375 L 29.796875 -54.09375 L 24.546875 -54.09375 C 22.703125 -54.09375 21.78125 -53.171875 21.78125 -51.328125 L 21.78125 -31.046875 L 36.3125 -31.046875 C 39.894531 -31.046875 43.039062 -30.335938 45.75 -28.921875 C 48.46875 -27.503906 50.617188 -25.625 52.203125 -23.28125 C 53.796875 -20.945312 54.59375 -18.363281 54.59375 -15.53125 C 54.59375 -12.6875 53.734375 -10.09375 52.015625 -7.75 C 50.304688 -5.414062 48.070312 -3.539062 45.3125 -2.125 C 42.5625 -0.707031 39.5625 0 36.3125 0 Z M 21.78125 -5.765625 C 21.78125 -3.921875 22.703125 -3 24.546875 -3 L 32.796875 -3 C 36.472656 -3 39.1875 -4.207031 40.9375 -6.625 C 42.695312 -9.050781 43.578125 -12.019531 43.578125 -15.53125 C 43.578125 -19.03125 42.675781 -21.988281 40.875 -24.40625 C 39.082031 -26.832031 36.390625 -28.046875 32.796875 -28.046875 L 21.78125 -28.046875 Z M 52.828125 0 L 52.828125 -3 L 58.09375 -3 C 59.925781 -3 60.84375 -3.921875 60.84375 -5.765625 L 60.84375 -51.328125 C 60.84375 -53.171875 59.925781 -54.09375 58.09375 -54.09375 L 52.828125 -54.09375 L 52.828125 -57.09375 L 77.875 -57.09375 L 77.875 -54.09375 L 72.625 -54.09375 C 70.78125 -54.09375 69.859375 -53.171875 69.859375 -51.328125 L 69.859375 -5.765625 C 69.859375 -3.921875 70.78125 -3 72.625 -3 L 77.875 -3 L 77.875 0 Z M 52.828125 0 "></path></g></g></g><g fill="#a70b14" fill-opacity="1"><g transform="translate(238.374987, 119.105005)"><g><path d="M 4.75 0 L 4.75 -3 L 10.015625 -3 C 11.847656 -3 12.765625 -3.921875 12.765625 -5.765625 L 12.765625 -51.203125 C 12.765625 -53.046875 11.847656 -53.96875 10.015625 -53.96875 L 4.75 -53.96875 L 4.75 -56.96875 L 29.796875 -56.96875 L 29.796875 -53.96875 L 24.546875 -53.96875 C 22.703125 -53.96875 21.78125 -53.046875 21.78125 -51.203125 L 21.78125 -31.546875 L 29.921875 -31.546875 C 32.003906 -31.546875 33.585938 -32.441406 34.671875 -34.234375 C 35.765625 -36.035156 36.539062 -38.207031 37 -40.75 C 37.457031 -43.300781 37.769531 -45.703125 37.9375 -47.953125 C 38.269531 -51.878906 39.332031 -54.632812 41.125 -56.21875 C 42.925781 -57.800781 44.867188 -58.59375 46.953125 -58.59375 C 49.953125 -58.59375 52.078125 -57.585938 53.328125 -55.578125 C 54.585938 -53.578125 55.21875 -51.617188 55.21875 -49.703125 C 55.21875 -47.367188 54.523438 -45.507812 53.140625 -44.125 C 51.765625 -42.75 50.203125 -42.0625 48.453125 -42.0625 C 46.703125 -42.0625 45.382812 -42.5625 44.5 -43.5625 C 43.625 -44.570312 43.1875 -45.742188 43.1875 -47.078125 C 43.1875 -47.992188 43.414062 -48.742188 43.875 -49.328125 C 44.34375 -49.910156 44.785156 -50.328125 45.203125 -50.578125 C 46.117188 -51.242188 46.578125 -51.953125 46.578125 -52.703125 C 46.578125 -53.710938 45.910156 -54.21875 44.578125 -54.21875 C 42.316406 -54.21875 41.0625 -52.171875 40.8125 -48.078125 C 40.726562 -46.078125 40.457031 -43.738281 40 -41.0625 C 39.539062 -38.394531 38.8125 -36.015625 37.8125 -33.921875 C 36.8125 -31.835938 35.304688 -30.503906 33.296875 -29.921875 L 33.296875 -29.546875 C 35.804688 -29.546875 37.976562 -29.023438 39.8125 -27.984375 C 41.644531 -26.941406 43.109375 -25.710938 44.203125 -24.296875 C 45.617188 -22.703125 46.578125 -20.695312 47.078125 -18.28125 C 47.578125 -15.863281 47.867188 -13.691406 47.953125 -11.765625 C 48.117188 -9.429688 48.429688 -7.382812 48.890625 -5.625 C 49.347656 -3.875 50.492188 -3 52.328125 -3 C 53.921875 -3 55.070312 -3.726562 55.78125 -5.1875 C 56.488281 -6.65625 56.96875 -8.285156 57.21875 -10.078125 C 57.46875 -11.867188 57.59375 -13.265625 57.59375 -14.265625 L 59.84375 -14.265625 C 59.84375 -13.015625 59.738281 -11.515625 59.53125 -9.765625 C 59.320312 -8.015625 58.863281 -6.257812 58.15625 -4.5 C 57.445312 -2.75 56.378906 -1.3125 54.953125 -0.1875 C 53.535156 0.9375 51.617188 1.5 49.203125 1.5 C 48.035156 1.5 46.929688 1.375 45.890625 1.125 C 44.847656 0.875 43.820312 0.414062 42.8125 -0.25 C 41.476562 -1.164062 40.375 -2.5 39.5 -4.25 C 38.625 -6.007812 38.1875 -8.304688 38.1875 -11.140625 L 38.1875 -17.40625 C 38.1875 -20.40625 37.707031 -22.65625 36.75 -24.15625 C 35.789062 -25.664062 34.660156 -26.691406 33.359375 -27.234375 C 32.066406 -27.773438 30.878906 -28.046875 29.796875 -28.046875 L 21.78125 -28.046875 L 21.78125 -5.765625 C 21.78125 -3.921875 22.703125 -3 24.546875 -3 L 29.796875 -3 L 29.796875 0 Z M 4.75 0 "></path></g></g></g><g fill="#a70b14" fill-opacity="1"><g transform="translate(301.210465, 119.105005)"><g><path d="M 2.25 -54.09375 L 2.25 -57.09375 L 30.546875 -57.09375 L 30.546875 -54.09375 L 26.546875 -54.09375 C 25.710938 -54.09375 24.832031 -53.835938 23.90625 -53.328125 C 22.988281 -52.828125 22.53125 -52.078125 22.53125 -51.078125 C 22.53125 -50.742188 22.570312 -50.222656 22.65625 -49.515625 C 22.738281 -48.804688 22.945312 -47.953125 23.28125 -46.953125 L 36.3125 -8.515625 L 46.703125 -42.8125 C 47.117188 -43.90625 47.453125 -45.117188 47.703125 -46.453125 C 47.953125 -47.785156 48.078125 -48.703125 48.078125 -49.203125 C 48.078125 -50.617188 47.679688 -51.785156 46.890625 -52.703125 C 46.097656 -53.628906 44.992188 -54.09375 43.578125 -54.09375 L 40.5625 -54.09375 L 40.5625 -57.09375 L 63.359375 -57.09375 L 63.359375 -54.09375 L 60.46875 -54.09375 C 58.800781 -54.09375 57.175781 -53.523438 55.59375 -52.390625 C 54.007812 -51.265625 52.753906 -49.367188 51.828125 -46.703125 L 31.671875 17.40625 C 31.171875 19.070312 30.296875 20.863281 29.046875 22.78125 C 27.796875 24.707031 26.144531 26.359375 24.09375 27.734375 C 22.050781 29.109375 19.613281 29.796875 16.78125 29.796875 C 13.519531 29.796875 10.847656 28.753906 8.765625 26.671875 C 7.765625 25.753906 6.929688 24.601562 6.265625 23.21875 C 5.597656 21.84375 5.265625 20.363281 5.265625 18.78125 C 5.265625 16.445312 5.929688 14.691406 7.265625 13.515625 C 8.015625 12.765625 8.765625 12.265625 9.515625 12.015625 C 10.265625 11.765625 10.929688 11.640625 11.515625 11.640625 C 13.609375 11.640625 15.09375 12.285156 15.96875 13.578125 C 16.84375 14.878906 17.28125 16.363281 17.28125 18.03125 C 17.28125 18.53125 17.175781 19.113281 16.96875 19.78125 C 16.757812 20.445312 16.53125 21.03125 16.28125 21.53125 C 15.78125 22.363281 15.53125 23.15625 15.53125 23.90625 C 15.53125 24.25 15.675781 24.648438 15.96875 25.109375 C 16.257812 25.566406 16.945312 25.796875 18.03125 25.796875 C 20.78125 25.796875 22.988281 24.726562 24.65625 22.59375 C 26.332031 20.46875 27.503906 18.238281 28.171875 15.90625 L 31.546875 5.015625 L 13.765625 -46.703125 C 12.929688 -48.953125 12.054688 -50.742188 11.140625 -52.078125 C 10.222656 -53.421875 8.640625 -54.09375 6.390625 -54.09375 Z M 2.25 -54.09375 "></path></g></g></g><g fill="#a70b14" fill-opacity="1"><g transform="translate(367.550701, 119.105005)"><g><path d="M 4.75 0 L 4.75 -3 L 10.015625 -3 C 11.847656 -3 12.765625 -3.921875 12.765625 -5.765625 L 12.765625 -51.328125 C 12.765625 -53.171875 11.847656 -54.09375 10.015625 -54.09375 L 4.75 -54.09375 L 4.75 -57.09375 L 63.859375 -57.09375 L 63.859375 -54.09375 L 58.59375 -54.09375 C 56.757812 -54.09375 55.84375 -53.171875 55.84375 -51.328125 L 55.84375 -5.765625 C 55.84375 -3.921875 56.757812 -3 58.59375 -3 L 63.859375 -3 L 63.859375 0 L 38.8125 0 L 38.8125 -3 L 44.078125 -3 C 45.910156 -3 46.828125 -3.921875 46.828125 -5.765625 L 46.828125 -51.328125 C 46.828125 -53.171875 45.910156 -54.09375 44.078125 -54.09375 L 24.546875 -54.09375 C 22.703125 -54.09375 21.78125 -53.171875 21.78125 -51.328125 L 21.78125 -5.765625 C 21.78125 -3.921875 22.703125 -3 24.546875 -3 L 29.796875 -3 L 29.796875 0 Z M 4.75 0 "></path></g></g></g><g fill="#a70b14" fill-opacity="1"><g transform="translate(436.144026, 119.105005)"><g></g></g></g><g fill="#a70b14" fill-opacity="1"><g transform="translate(471.191725, 119.105005)"><g><path d="M 4.75 0 L 4.75 -3 L 10.015625 -3 C 11.847656 -3 12.765625 -3.921875 12.765625 -5.765625 L 12.765625 -51.328125 C 12.765625 -53.171875 11.847656 -54.09375 10.015625 -54.09375 L 4.75 -54.09375 L 4.75 -57.09375 L 63.859375 -57.09375 L 63.859375 -54.09375 L 58.59375 -54.09375 C 56.757812 -54.09375 55.84375 -53.171875 55.84375 -51.328125 L 55.84375 -5.765625 C 55.84375 -3.921875 56.757812 -3 58.59375 -3 L 63.859375 -3 L 63.859375 0 L 38.8125 0 L 38.8125 -3 L 44.078125 -3 C 45.910156 -3 46.828125 -3.921875 46.828125 -5.765625 L 46.828125 -51.328125 C 46.828125 -53.171875 45.910156 -54.09375 44.078125 -54.09375 L 24.546875 -54.09375 C 22.703125 -54.09375 21.78125 -53.171875 21.78125 -51.328125 L 21.78125 -5.765625 C 21.78125 -3.921875 22.703125 -3 24.546875 -3 L 29.796875 -3 L 29.796875 0 Z M 4.75 0 "></path></g></g></g><g fill="#a70b14" fill-opacity="1"><g transform="translate(539.78505, 119.105005)"><g><path d="M 17.03125 -28.546875 C 17.03125 -23.203125 17.46875 -18.503906 18.34375 -14.453125 C 19.21875 -10.410156 20.675781 -7.238281 22.71875 -4.9375 C 24.769531 -2.644531 27.546875 -1.5 31.046875 -1.5 C 34.554688 -1.5 37.332031 -2.644531 39.375 -4.9375 C 41.414062 -7.238281 42.875 -10.410156 43.75 -14.453125 C 44.632812 -18.503906 45.078125 -23.203125 45.078125 -28.546875 C 45.078125 -33.890625 44.632812 -38.582031 43.75 -42.625 C 42.875 -46.675781 41.414062 -49.847656 39.375 -52.140625 C 37.332031 -54.441406 34.554688 -55.59375 31.046875 -55.59375 C 27.546875 -55.59375 24.769531 -54.441406 22.71875 -52.140625 C 20.675781 -49.847656 19.21875 -46.675781 18.34375 -42.625 C 17.46875 -38.582031 17.03125 -33.890625 17.03125 -28.546875 Z M 6.015625 -28.546875 C 6.015625 -34.054688 7.117188 -39.082031 9.328125 -43.625 C 11.535156 -48.175781 14.535156 -51.804688 18.328125 -54.515625 C 22.128906 -57.234375 26.367188 -58.59375 31.046875 -58.59375 C 35.722656 -58.59375 39.957031 -57.234375 43.75 -54.515625 C 47.550781 -51.804688 50.554688 -48.175781 52.765625 -43.625 C 54.984375 -39.082031 56.09375 -34.054688 56.09375 -28.546875 C 56.09375 -23.035156 54.984375 -18.003906 52.765625 -13.453125 C 50.554688 -8.910156 47.550781 -5.28125 43.75 -2.5625 C 39.957031 0.144531 35.722656 1.5 31.046875 1.5 C 26.367188 1.5 22.128906 0.144531 18.328125 -2.5625 C 14.535156 -5.28125 11.535156 -8.910156 9.328125 -13.453125 C 7.117188 -18.003906 6.015625 -23.035156 6.015625 -28.546875 Z M 6.015625 -28.546875 "></path></g></g></g><g fill="#a70b14" fill-opacity="1"><g transform="translate(601.869511, 119.105005)"><g></g></g></g><g fill="#a70b14" fill-opacity="1"><g transform="translate(636.91721, 119.105005)"><g><path d="M 16.28125 -12.890625 C 16.28125 -9.972656 16.71875 -7.800781 17.59375 -6.375 C 18.46875 -4.957031 19.53125 -4.039062 20.78125 -3.625 C 22.03125 -3.207031 23.113281 -3 24.03125 -3 C 26.875 -3 29.234375 -3.894531 31.109375 -5.6875 C 32.992188 -7.488281 34.519531 -9.597656 35.6875 -12.015625 C 36.851562 -14.441406 37.8125 -16.695312 38.5625 -18.78125 L 38.5625 -30.671875 L 27.671875 -28.296875 C 23.578125 -27.460938 20.65625 -25.789062 18.90625 -23.28125 C 17.15625 -20.78125 16.28125 -17.316406 16.28125 -12.890625 Z M 5.765625 -13.265625 C 5.765625 -16.691406 6.453125 -19.488281 7.828125 -21.65625 C 9.203125 -23.832031 10.992188 -25.546875 13.203125 -26.796875 C 15.421875 -28.046875 17.757812 -28.984375 20.21875 -29.609375 C 22.675781 -30.234375 24.953125 -30.753906 27.046875 -31.171875 L 38.5625 -33.296875 L 38.5625 -43.953125 C 38.5625 -48.367188 37.453125 -51.410156 35.234375 -53.078125 C 33.023438 -54.753906 30.253906 -55.59375 26.921875 -55.59375 C 24.078125 -55.59375 21.488281 -54.878906 19.15625 -53.453125 C 16.820312 -52.035156 15.65625 -50.367188 15.65625 -48.453125 C 15.65625 -48.117188 15.675781 -47.804688 15.71875 -47.515625 C 15.757812 -47.222656 15.863281 -46.910156 16.03125 -46.578125 C 16.363281 -45.910156 16.988281 -45.492188 17.90625 -45.328125 C 19.320312 -44.992188 20.445312 -44.445312 21.28125 -43.6875 C 22.113281 -42.9375 22.53125 -41.851562 22.53125 -40.4375 C 22.53125 -38.601562 21.96875 -37.332031 20.84375 -36.625 C 19.71875 -35.914062 18.445312 -35.5625 17.03125 -35.5625 C 15.445312 -35.5625 13.835938 -36.226562 12.203125 -37.5625 C 10.578125 -38.894531 9.765625 -40.984375 9.765625 -43.828125 C 9.765625 -47.078125 10.660156 -49.785156 12.453125 -51.953125 C 14.253906 -54.128906 16.488281 -55.78125 19.15625 -56.90625 C 21.820312 -58.03125 24.535156 -58.59375 27.296875 -58.59375 C 30.460938 -58.59375 33.609375 -58.03125 36.734375 -56.90625 C 39.867188 -55.78125 42.457031 -53.921875 44.5 -51.328125 C 46.550781 -48.742188 47.578125 -45.238281 47.578125 -40.8125 L 47.578125 -10.015625 C 47.578125 -5.835938 48.867188 -3.75 51.453125 -3.75 C 52.960938 -3.75 54.15625 -4.375 55.03125 -5.625 C 55.90625 -6.882812 56.507812 -8.472656 56.84375 -10.390625 C 57.175781 -12.304688 57.34375 -14.269531 57.34375 -16.28125 L 59.59375 -16.28125 C 59.59375 -13.601562 59.34375 -10.882812 58.84375 -8.125 C 58.34375 -5.375 57.382812 -3.082031 55.96875 -1.25 C 54.550781 0.582031 52.421875 1.5 49.578125 1.5 C 45.910156 1.5 43.195312 0.394531 41.4375 -1.8125 C 39.6875 -4.03125 38.726562 -6.929688 38.5625 -10.515625 L 37.9375 -10.765625 C 37.351562 -9.265625 36.328125 -7.550781 34.859375 -5.625 C 33.398438 -3.707031 31.609375 -2.039062 29.484375 -0.625 C 27.359375 0.789062 24.875 1.5 22.03125 1.5 C 19.695312 1.5 17.273438 1.125 14.765625 0.375 C 12.265625 -0.375 10.140625 -1.8125 8.390625 -3.9375 C 6.640625 -6.070312 5.765625 -9.179688 5.765625 -13.265625 Z M 5.765625 -13.265625 "></path></g></g></g><g fill="#a70b14" fill-opacity="1"><g transform="translate(699.502324, 119.105005)"><g><path d="M 1.5 19.53125 L 2.25 -2.5 L 6.515625 -2.5 C 8.597656 -2.5 10.054688 -2.894531 10.890625 -3.6875 C 11.722656 -4.488281 12.390625 -5.597656 12.890625 -7.015625 C 15.316406 -13.941406 17.03125 -20.722656 18.03125 -27.359375 C 19.03125 -33.992188 19.53125 -41.234375 19.53125 -49.078125 C 19.53125 -50.242188 19.363281 -51.367188 19.03125 -52.453125 C 18.695312 -53.546875 17.945312 -54.09375 16.78125 -54.09375 L 11.515625 -54.09375 L 11.515625 -57.09375 L 56.59375 -57.09375 L 56.59375 -54.09375 L 51.328125 -54.09375 C 49.492188 -54.09375 48.578125 -53.171875 48.578125 -51.328125 L 48.578125 -7.015625 C 48.660156 -5.503906 48.992188 -4.375 49.578125 -3.625 C 50.160156 -2.875 51.160156 -2.5 52.578125 -2.5 L 59.34375 -2.5 L 60.09375 19.53125 L 57.59375 19.53125 C 57.59375 19.53125 57.488281 18.882812 57.28125 17.59375 C 57.070312 16.300781 56.695312 14.671875 56.15625 12.703125 C 55.613281 10.742188 54.84375 8.765625 53.84375 6.765625 C 52.914062 4.921875 51.597656 3.332031 49.890625 2 C 48.179688 0.664062 45.863281 0 42.9375 0 L 18.90625 0 C 15.5625 0 13.097656 0.664062 11.515625 2 C 9.929688 3.332031 8.679688 4.921875 7.765625 6.765625 C 6.765625 8.765625 5.988281 10.742188 5.4375 12.703125 C 4.894531 14.671875 4.519531 16.300781 4.3125 17.59375 C 4.101562 18.882812 4 19.53125 4 19.53125 Z M 17.03125 -5.265625 C 17.03125 -4.421875 17.34375 -3.832031 17.96875 -3.5 C 18.59375 -3.164062 19.195312 -3 19.78125 -3 L 36.8125 -3 C 38.644531 -3 39.5625 -3.921875 39.5625 -5.765625 L 39.5625 -51.328125 C 39.5625 -53.171875 38.644531 -54.09375 36.8125 -54.09375 L 30.671875 -54.09375 C 27.585938 -54.09375 25.539062 -52.898438 24.53125 -50.515625 C 23.53125 -48.140625 23.03125 -45.488281 23.03125 -42.5625 C 23.03125 -39.726562 22.820312 -36.515625 22.40625 -32.921875 C 21.988281 -29.335938 21.488281 -25.976562 20.90625 -22.84375 C 20.320312 -19.71875 19.78125 -17.320312 19.28125 -15.65625 C 19.113281 -14.90625 18.84375 -13.816406 18.46875 -12.390625 C 18.09375 -10.972656 17.757812 -9.578125 17.46875 -8.203125 C 17.175781 -6.828125 17.03125 -5.847656 17.03125 -5.265625 Z M 17.03125 -5.265625 "></path></g></g></g><g fill="#a70b14" fill-opacity="1"><g transform="translate(760.835769, 119.105005)"><g><path d="M 21.78125 -21.15625 C 21.78125 -18.070312 22.382812 -15.003906 23.59375 -11.953125 C 24.8125 -8.910156 26.566406 -6.40625 28.859375 -4.4375 C 31.148438 -2.476562 33.882812 -1.5 37.0625 -1.5 C 39.976562 -1.5 42.207031 -2.664062 43.75 -5 C 45.300781 -7.34375 46.367188 -10.554688 46.953125 -14.640625 C 47.535156 -18.734375 47.828125 -23.367188 47.828125 -28.546875 C 47.828125 -33.722656 47.535156 -38.351562 46.953125 -42.4375 C 46.367188 -46.53125 45.300781 -49.742188 43.75 -52.078125 C 42.207031 -54.421875 39.976562 -55.59375 37.0625 -55.59375 C 34.46875 -55.59375 32.003906 -54.484375 29.671875 -52.265625 C 27.335938 -50.054688 25.4375 -47.21875 23.96875 -43.75 C 22.507812 -40.289062 21.78125 -36.640625 21.78125 -32.796875 Z M 3.5 25.796875 L 10.015625 25.796875 C 11.847656 25.796875 12.765625 24.875 12.765625 23.03125 L 12.765625 -51.328125 C 12.765625 -53.171875 11.847656 -54.09375 10.015625 -54.09375 L 3.5 -54.09375 L 3.5 -57.09375 L 21.78125 -57.09375 L 21.78125 -49.078125 L 22.53125 -48.828125 C 24.125 -51.492188 26.273438 -53.785156 28.984375 -55.703125 C 31.691406 -57.628906 34.46875 -58.59375 37.3125 -58.59375 C 41.820312 -58.59375 45.679688 -57.234375 48.890625 -54.515625 C 52.109375 -51.804688 54.570312 -48.175781 56.28125 -43.625 C 57.988281 -39.082031 58.84375 -34.054688 58.84375 -28.546875 C 58.84375 -23.035156 57.945312 -18.003906 56.15625 -13.453125 C 54.363281 -8.910156 51.816406 -5.28125 48.515625 -2.5625 C 45.222656 0.144531 41.320312 1.5 36.8125 1.5 C 33.800781 1.5 31.003906 0.726562 28.421875 -0.8125 C 25.835938 -2.351562 23.832031 -3.960938 22.40625 -5.640625 L 21.78125 -5.265625 L 21.78125 23.03125 C 21.78125 24.875 22.703125 25.796875 24.546875 25.796875 L 31.046875 25.796875 L 31.046875 28.796875 L 3.5 28.796875 Z M 3.5 25.796875 "></path></g></g></g><g fill="#a70b14" fill-opacity="1"><g transform="translate(825.674008, 119.105005)"><g><path d="M 17.03125 -31.546875 L 40.8125 -31.546875 C 40.8125 -35.222656 40.457031 -38.914062 39.75 -42.625 C 39.039062 -46.34375 37.828125 -49.429688 36.109375 -51.890625 C 34.398438 -54.359375 32.046875 -55.59375 29.046875 -55.59375 C 26.046875 -55.59375 23.664062 -54.359375 21.90625 -51.890625 C 20.15625 -49.429688 18.90625 -46.34375 18.15625 -42.625 C 17.40625 -38.914062 17.03125 -35.222656 17.03125 -31.546875 Z M 6.015625 -28.546875 C 6.015625 -33.640625 6.992188 -38.476562 8.953125 -43.0625 C 10.910156 -47.65625 13.640625 -51.390625 17.140625 -54.265625 C 20.648438 -57.148438 24.785156 -58.59375 29.546875 -58.59375 C 33.472656 -58.59375 36.8125 -57.648438 39.5625 -55.765625 C 42.320312 -53.890625 44.597656 -51.429688 46.390625 -48.390625 C 48.179688 -45.347656 49.492188 -42.050781 50.328125 -38.5 C 51.160156 -34.945312 51.578125 -31.460938 51.578125 -28.046875 L 17.03125 -28.046875 C 17.03125 -22.953125 17.425781 -18.398438 18.21875 -14.390625 C 19.007812 -10.390625 20.425781 -7.238281 22.46875 -4.9375 C 24.519531 -2.644531 27.460938 -1.5 31.296875 -1.5 C 33.304688 -1.5 35.4375 -1.976562 37.6875 -2.9375 C 39.9375 -3.894531 41.957031 -5.664062 43.75 -8.25 C 45.550781 -10.84375 46.742188 -14.601562 47.328125 -19.53125 L 50.328125 -19.53125 C 50.078125 -15.6875 49.179688 -12.15625 47.640625 -8.9375 C 46.097656 -5.726562 43.96875 -3.1875 41.25 -1.3125 C 38.539062 0.5625 35.140625 1.5 31.046875 1.5 C 25.953125 1.5 21.523438 0.207031 17.765625 -2.375 C 14.015625 -4.96875 11.117188 -8.515625 9.078125 -13.015625 C 7.035156 -17.523438 6.015625 -22.703125 6.015625 -28.546875 Z M 6.015625 -28.546875 "></path></g></g></g><g fill="#a70b14" fill-opacity="1"><g transform="translate(883.252331, 119.105005)"><g><path d="M 6.015625 -28.546875 C 6.015625 -34.054688 7.035156 -39.082031 9.078125 -43.625 C 11.117188 -48.175781 13.992188 -51.804688 17.703125 -54.515625 C 21.421875 -57.234375 25.703125 -58.59375 30.546875 -58.59375 C 34.640625 -58.59375 38.0625 -57.738281 40.8125 -56.03125 C 43.570312 -54.320312 45.679688 -52.210938 47.140625 -49.703125 C 48.597656 -47.203125 49.328125 -44.695312 49.328125 -42.1875 C 49.328125 -39.4375 48.640625 -37.375 47.265625 -36 C 45.890625 -34.625 44.28125 -33.9375 42.4375 -33.9375 C 40.769531 -33.9375 39.375 -34.476562 38.25 -35.5625 C 37.125 -36.644531 36.5625 -37.9375 36.5625 -39.4375 C 36.5625 -41.101562 37.019531 -42.394531 37.9375 -43.3125 C 38.851562 -44.238281 39.8125 -44.867188 40.8125 -45.203125 C 42.144531 -45.617188 42.8125 -46.367188 42.8125 -47.453125 C 42.8125 -48.285156 42.414062 -49.347656 41.625 -50.640625 C 40.832031 -51.929688 39.539062 -53.078125 37.75 -54.078125 C 35.957031 -55.085938 33.554688 -55.59375 30.546875 -55.59375 C 26.796875 -55.59375 23.9375 -54.441406 21.96875 -52.140625 C 20.007812 -49.847656 18.695312 -46.675781 18.03125 -42.625 C 17.363281 -38.582031 17.03125 -33.890625 17.03125 -28.546875 C 17.03125 -23.203125 17.363281 -18.503906 18.03125 -14.453125 C 18.695312 -10.410156 19.988281 -7.238281 21.90625 -4.9375 C 23.832031 -2.644531 26.710938 -1.5 30.546875 -1.5 C 34.304688 -1.5 37.351562 -2.4375 39.6875 -4.3125 C 42.019531 -6.195312 43.789062 -8.535156 45 -11.328125 C 46.21875 -14.128906 46.992188 -16.863281 47.328125 -19.53125 L 50.328125 -19.53125 C 50.160156 -16.445312 49.347656 -13.273438 47.890625 -10.015625 C 46.429688 -6.765625 44.28125 -4.03125 41.4375 -1.8125 C 38.601562 0.394531 34.972656 1.5 30.546875 1.5 C 25.617188 1.5 21.316406 0.144531 17.640625 -2.5625 C 13.972656 -5.28125 11.117188 -8.910156 9.078125 -13.453125 C 7.035156 -18.003906 6.015625 -23.035156 6.015625 -28.546875 Z M 6.015625 -28.546875 "></path></g></g></g><g fill="#a70b14" fill-opacity="1"><g transform="translate(937.826585, 119.105005)"><g><path d="M 2.25 -54.09375 L 2.25 -57.09375 L 30.546875 -57.09375 L 30.546875 -54.09375 L 26.546875 -54.09375 C 25.710938 -54.09375 24.832031 -53.835938 23.90625 -53.328125 C 22.988281 -52.828125 22.53125 -52.078125 22.53125 -51.078125 C 22.53125 -50.742188 22.570312 -50.222656 22.65625 -49.515625 C 22.738281 -48.804688 22.945312 -47.953125 23.28125 -46.953125 L 36.3125 -8.515625 L 46.703125 -42.8125 C 47.117188 -43.90625 47.453125 -45.117188 47.703125 -46.453125 C 47.953125 -47.785156 48.078125 -48.703125 48.078125 -49.203125 C 48.078125 -50.617188 47.679688 -51.785156 46.890625 -52.703125 C 46.097656 -53.628906 44.992188 -54.09375 43.578125 -54.09375 L 40.5625 -54.09375 L 40.5625 -57.09375 L 63.359375 -57.09375 L 63.359375 -54.09375 L 60.46875 -54.09375 C 58.800781 -54.09375 57.175781 -53.523438 55.59375 -52.390625 C 54.007812 -51.265625 52.753906 -49.367188 51.828125 -46.703125 L 31.671875 17.40625 C 31.171875 19.070312 30.296875 20.863281 29.046875 22.78125 C 27.796875 24.707031 26.144531 26.359375 24.09375 27.734375 C 22.050781 29.109375 19.613281 29.796875 16.78125 29.796875 C 13.519531 29.796875 10.847656 28.753906 8.765625 26.671875 C 7.765625 25.753906 6.929688 24.601562 6.265625 23.21875 C 5.597656 21.84375 5.265625 20.363281 5.265625 18.78125 C 5.265625 16.445312 5.929688 14.691406 7.265625 13.515625 C 8.015625 12.765625 8.765625 12.265625 9.515625 12.015625 C 10.265625 11.765625 10.929688 11.640625 11.515625 11.640625 C 13.609375 11.640625 15.09375 12.285156 15.96875 13.578125 C 16.84375 14.878906 17.28125 16.363281 17.28125 18.03125 C 17.28125 18.53125 17.175781 19.113281 16.96875 19.78125 C 16.757812 20.445312 16.53125 21.03125 16.28125 21.53125 C 15.78125 22.363281 15.53125 23.15625 15.53125 23.90625 C 15.53125 24.25 15.675781 24.648438 15.96875 25.109375 C 16.257812 25.566406 16.945312 25.796875 18.03125 25.796875 C 20.78125 25.796875 22.988281 24.726562 24.65625 22.59375 C 26.332031 20.46875 27.503906 18.238281 28.171875 15.90625 L 31.546875 5.015625 L 13.765625 -46.703125 C 12.929688 -48.953125 12.054688 -50.742188 11.140625 -52.078125 C 10.222656 -53.421875 8.640625 -54.09375 6.390625 -54.09375 Z M 2.25 -54.09375 "></path></g></g></g><g fill="#a70b14" fill-opacity="1"><g transform="translate(1004.177906, 119.105005)"><g></g></g></g><g fill="#a70b14" fill-opacity="1"><g transform="translate(2.660585, 293.682826)"><g><path d="M 4.75 0 L 4.75 -3 L 10.015625 -3 C 11.847656 -3 12.765625 -3.921875 12.765625 -5.765625 L 12.765625 -51.328125 C 12.765625 -53.171875 11.847656 -54.09375 10.015625 -54.09375 L 4.75 -54.09375 L 4.75 -57.09375 L 48.828125 -57.09375 L 49.578125 -35.0625 L 47.078125 -35.0625 C 47.078125 -35.0625 46.972656 -35.707031 46.765625 -37 C 46.554688 -38.289062 46.179688 -39.914062 45.640625 -41.875 C 45.097656 -43.84375 44.320312 -45.828125 43.3125 -47.828125 C 42.394531 -49.660156 41.019531 -51.160156 39.1875 -52.328125 C 37.351562 -53.503906 35.054688 -54.09375 32.296875 -54.09375 L 24.546875 -54.09375 C 22.703125 -54.09375 21.78125 -53.171875 21.78125 -51.328125 L 21.78125 -5.765625 C 21.78125 -3.921875 22.703125 -3 24.546875 -3 L 29.796875 -3 L 29.796875 0 Z M 4.75 0 "></path></g></g></g><g fill="#a70b14" fill-opacity="1"><g transform="translate(54.229944, 293.682826)"><g><path d="M 17.03125 -28.546875 C 17.03125 -23.203125 17.46875 -18.503906 18.34375 -14.453125 C 19.21875 -10.410156 20.675781 -7.238281 22.71875 -4.9375 C 24.769531 -2.644531 27.546875 -1.5 31.046875 -1.5 C 34.554688 -1.5 37.332031 -2.644531 39.375 -4.9375 C 41.414062 -7.238281 42.875 -10.410156 43.75 -14.453125 C 44.632812 -18.503906 45.078125 -23.203125 45.078125 -28.546875 C 45.078125 -33.890625 44.632812 -38.582031 43.75 -42.625 C 42.875 -46.675781 41.414062 -49.847656 39.375 -52.140625 C 37.332031 -54.441406 34.554688 -55.59375 31.046875 -55.59375 C 27.546875 -55.59375 24.769531 -54.441406 22.71875 -52.140625 C 20.675781 -49.847656 19.21875 -46.675781 18.34375 -42.625 C 17.46875 -38.582031 17.03125 -33.890625 17.03125 -28.546875 Z M 6.015625 -28.546875 C 6.015625 -34.054688 7.117188 -39.082031 9.328125 -43.625 C 11.535156 -48.175781 14.535156 -51.804688 18.328125 -54.515625 C 22.128906 -57.234375 26.367188 -58.59375 31.046875 -58.59375 C 35.722656 -58.59375 39.957031 -57.234375 43.75 -54.515625 C 47.550781 -51.804688 50.554688 -48.175781 52.765625 -43.625 C 54.984375 -39.082031 56.09375 -34.054688 56.09375 -28.546875 C 56.09375 -23.035156 54.984375 -18.003906 52.765625 -13.453125 C 50.554688 -8.910156 47.550781 -5.28125 43.75 -2.5625 C 39.957031 0.144531 35.722656 1.5 31.046875 1.5 C 26.367188 1.5 22.128906 0.144531 18.328125 -2.5625 C 14.535156 -5.28125 11.535156 -8.910156 9.328125 -13.453125 C 7.117188 -18.003906 6.015625 -23.035156 6.015625 -28.546875 Z M 6.015625 -28.546875 "></path></g></g></g><g fill="#a70b14" fill-opacity="1"><g transform="translate(116.314406, 293.682826)"><g><path d="M 21.78125 -21.15625 C 21.78125 -18.070312 22.382812 -15.003906 23.59375 -11.953125 C 24.8125 -8.910156 26.566406 -6.40625 28.859375 -4.4375 C 31.148438 -2.476562 33.882812 -1.5 37.0625 -1.5 C 39.976562 -1.5 42.207031 -2.664062 43.75 -5 C 45.300781 -7.34375 46.367188 -10.554688 46.953125 -14.640625 C 47.535156 -18.734375 47.828125 -23.367188 47.828125 -28.546875 C 47.828125 -33.722656 47.535156 -38.351562 46.953125 -42.4375 C 46.367188 -46.53125 45.300781 -49.742188 43.75 -52.078125 C 42.207031 -54.421875 39.976562 -55.59375 37.0625 -55.59375 C 34.46875 -55.59375 32.003906 -54.484375 29.671875 -52.265625 C 27.335938 -50.054688 25.4375 -47.21875 23.96875 -43.75 C 22.507812 -40.289062 21.78125 -36.640625 21.78125 -32.796875 Z M 3.5 25.796875 L 10.015625 25.796875 C 11.847656 25.796875 12.765625 24.875 12.765625 23.03125 L 12.765625 -51.328125 C 12.765625 -53.171875 11.847656 -54.09375 10.015625 -54.09375 L 3.5 -54.09375 L 3.5 -57.09375 L 21.78125 -57.09375 L 21.78125 -49.078125 L 22.53125 -48.828125 C 24.125 -51.492188 26.273438 -53.785156 28.984375 -55.703125 C 31.691406 -57.628906 34.46875 -58.59375 37.3125 -58.59375 C 41.820312 -58.59375 45.679688 -57.234375 48.890625 -54.515625 C 52.109375 -51.804688 54.570312 -48.175781 56.28125 -43.625 C 57.988281 -39.082031 58.84375 -34.054688 58.84375 -28.546875 C 58.84375 -23.035156 57.945312 -18.003906 56.15625 -13.453125 C 54.363281 -8.910156 51.816406 -5.28125 48.515625 -2.5625 C 45.222656 0.144531 41.320312 1.5 36.8125 1.5 C 33.800781 1.5 31.003906 0.726562 28.421875 -0.8125 C 25.835938 -2.351562 23.832031 -3.960938 22.40625 -5.640625 L 21.78125 -5.265625 L 21.78125 23.03125 C 21.78125 24.875 22.703125 25.796875 24.546875 25.796875 L 31.046875 25.796875 L 31.046875 28.796875 L 3.5 28.796875 Z M 3.5 25.796875 "></path></g></g></g><g fill="#a70b14" fill-opacity="1"><g transform="translate(181.152609, 293.682826)"><g><path d="M 17.03125 -28.546875 C 17.03125 -23.203125 17.46875 -18.503906 18.34375 -14.453125 C 19.21875 -10.410156 20.675781 -7.238281 22.71875 -4.9375 C 24.769531 -2.644531 27.546875 -1.5 31.046875 -1.5 C 34.554688 -1.5 37.332031 -2.644531 39.375 -4.9375 C 41.414062 -7.238281 42.875 -10.410156 43.75 -14.453125 C 44.632812 -18.503906 45.078125 -23.203125 45.078125 -28.546875 C 45.078125 -33.890625 44.632812 -38.582031 43.75 -42.625 C 42.875 -46.675781 41.414062 -49.847656 39.375 -52.140625 C 37.332031 -54.441406 34.554688 -55.59375 31.046875 -55.59375 C 27.546875 -55.59375 24.769531 -54.441406 22.71875 -52.140625 C 20.675781 -49.847656 19.21875 -46.675781 18.34375 -42.625 C 17.46875 -38.582031 17.03125 -33.890625 17.03125 -28.546875 Z M 6.015625 -28.546875 C 6.015625 -34.054688 7.117188 -39.082031 9.328125 -43.625 C 11.535156 -48.175781 14.535156 -51.804688 18.328125 -54.515625 C 22.128906 -57.234375 26.367188 -58.59375 31.046875 -58.59375 C 35.722656 -58.59375 39.957031 -57.234375 43.75 -54.515625 C 47.550781 -51.804688 50.554688 -48.175781 52.765625 -43.625 C 54.984375 -39.082031 56.09375 -34.054688 56.09375 -28.546875 C 56.09375 -23.035156 54.984375 -18.003906 52.765625 -13.453125 C 50.554688 -8.910156 47.550781 -5.28125 43.75 -2.5625 C 39.957031 0.144531 35.722656 1.5 31.046875 1.5 C 26.367188 1.5 22.128906 0.144531 18.328125 -2.5625 C 14.535156 -5.28125 11.535156 -8.910156 9.328125 -13.453125 C 7.117188 -18.003906 6.015625 -23.035156 6.015625 -28.546875 Z M 6.015625 -28.546875 "></path></g></g></g><g fill="#a70b14" fill-opacity="1"><g transform="translate(239.731336, 293.682826)"><g><path d="M 1.5 19.53125 L 2.25 -2.5 L 6.515625 -2.5 C 8.597656 -2.5 10.054688 -2.894531 10.890625 -3.6875 C 11.722656 -4.488281 12.390625 -5.597656 12.890625 -7.015625 C 15.316406 -13.941406 17.03125 -20.722656 18.03125 -27.359375 C 19.03125 -33.992188 19.53125 -41.234375 19.53125 -49.078125 C 19.53125 -50.242188 19.363281 -51.367188 19.03125 -52.453125 C 18.695312 -53.546875 17.945312 -54.09375 16.78125 -54.09375 L 11.515625 -54.09375 L 11.515625 -57.09375 L 56.59375 -57.09375 L 56.59375 -54.09375 L 51.328125 -54.09375 C 49.492188 -54.09375 48.578125 -53.171875 48.578125 -51.328125 L 48.578125 -7.015625 C 48.660156 -5.503906 48.992188 -4.375 49.578125 -3.625 C 50.160156 -2.875 51.160156 -2.5 52.578125 -2.5 L 59.34375 -2.5 L 60.09375 19.53125 L 57.59375 19.53125 C 57.59375 19.53125 57.488281 18.882812 57.28125 17.59375 C 57.070312 16.300781 56.695312 14.671875 56.15625 12.703125 C 55.613281 10.742188 54.84375 8.765625 53.84375 6.765625 C 52.914062 4.921875 51.597656 3.332031 49.890625 2 C 48.179688 0.664062 45.863281 0 42.9375 0 L 18.90625 0 C 15.5625 0 13.097656 0.664062 11.515625 2 C 9.929688 3.332031 8.679688 4.921875 7.765625 6.765625 C 6.765625 8.765625 5.988281 10.742188 5.4375 12.703125 C 4.894531 14.671875 4.519531 16.300781 4.3125 17.59375 C 4.101562 18.882812 4 19.53125 4 19.53125 Z M 17.03125 -5.265625 C 17.03125 -4.421875 17.34375 -3.832031 17.96875 -3.5 C 18.59375 -3.164062 19.195312 -3 19.78125 -3 L 36.8125 -3 C 38.644531 -3 39.5625 -3.921875 39.5625 -5.765625 L 39.5625 -51.328125 C 39.5625 -53.171875 38.644531 -54.09375 36.8125 -54.09375 L 30.671875 -54.09375 C 27.585938 -54.09375 25.539062 -52.898438 24.53125 -50.515625 C 23.53125 -48.140625 23.03125 -45.488281 23.03125 -42.5625 C 23.03125 -39.726562 22.820312 -36.515625 22.40625 -32.921875 C 21.988281 -29.335938 21.488281 -25.976562 20.90625 -22.84375 C 20.320312 -19.71875 19.78125 -17.320312 19.28125 -15.65625 C 19.113281 -14.90625 18.84375 -13.816406 18.46875 -12.390625 C 18.09375 -10.972656 17.757812 -9.578125 17.46875 -8.203125 C 17.175781 -6.828125 17.03125 -5.847656 17.03125 -5.265625 Z M 17.03125 -5.265625 "></path></g></g></g><g fill="#a70b14" fill-opacity="1"><g transform="translate(301.064781, 293.682826)"><g></g></g></g><g fill="#a70b14" fill-opacity="1"><g transform="translate(336.11248, 293.682826)"><g><path d="M 7.765625 0 L 7.765625 -4 L 16.78125 -4 C 19.03125 -4 20.15625 -5.128906 20.15625 -7.390625 L 20.15625 -81.75 C 20.15625 -84.007812 19.03125 -85.140625 16.78125 -85.140625 L 7.765625 -85.140625 L 7.765625 -89.140625 L 44.078125 -89.140625 L 44.078125 -85.140625 L 35.0625 -85.140625 C 32.800781 -85.140625 31.671875 -84.007812 31.671875 -81.75 L 31.671875 -7.390625 C 31.671875 -5.128906 32.800781 -4 35.0625 -4 L 61.09375 -4 C 63.351562 -4 64.484375 -5.128906 64.484375 -7.390625 L 64.484375 -81.75 C 64.484375 -84.007812 63.351562 -85.140625 61.09375 -85.140625 L 52.078125 -85.140625 L 52.078125 -89.140625 L 88.390625 -89.140625 L 88.390625 -85.140625 L 79.375 -85.140625 C 77.125 -85.140625 76 -84.007812 76 -81.75 L 76 -7.390625 C 76 -5.128906 77.125 -4 79.375 -4 L 105.421875 -4 C 107.671875 -4 108.796875 -5.128906 108.796875 -7.390625 L 108.796875 -81.75 C 108.796875 -84.007812 107.671875 -85.140625 105.421875 -85.140625 L 96.40625 -85.140625 L 96.40625 -89.140625 L 132.71875 -89.140625 L 132.71875 -85.140625 L 123.703125 -85.140625 C 121.441406 -85.140625 120.3125 -84.007812 120.3125 -81.75 L 120.3125 -9.015625 C 120.3125 -4.503906 122.566406 -2.25 127.078125 -2.25 L 135.46875 -2.25 L 135.46875 25.046875 L 132.34375 25.046875 C 132.34375 25.046875 132.300781 24.3125 132.21875 22.84375 C 132.132812 21.382812 131.90625 19.566406 131.53125 17.390625 C 131.15625 15.222656 130.523438 12.992188 129.640625 10.703125 C 128.765625 8.410156 127.578125 6.382812 126.078125 4.625 C 124.910156 3.375 123.300781 2.289062 121.25 1.375 C 119.207031 0.457031 116.976562 0 114.5625 0 Z M 7.765625 0 "></path></g></g></g><g fill="#a70b14" fill-opacity="1"><g transform="translate(475.552182, 293.682826)"><g><path d="M 17.03125 -31.546875 L 40.8125 -31.546875 C 40.8125 -35.222656 40.457031 -38.914062 39.75 -42.625 C 39.039062 -46.34375 37.828125 -49.429688 36.109375 -51.890625 C 34.398438 -54.359375 32.046875 -55.59375 29.046875 -55.59375 C 26.046875 -55.59375 23.664062 -54.359375 21.90625 -51.890625 C 20.15625 -49.429688 18.90625 -46.34375 18.15625 -42.625 C 17.40625 -38.914062 17.03125 -35.222656 17.03125 -31.546875 Z M 6.015625 -28.546875 C 6.015625 -33.640625 6.992188 -38.476562 8.953125 -43.0625 C 10.910156 -47.65625 13.640625 -51.390625 17.140625 -54.265625 C 20.648438 -57.148438 24.785156 -58.59375 29.546875 -58.59375 C 33.472656 -58.59375 36.8125 -57.648438 39.5625 -55.765625 C 42.320312 -53.890625 44.597656 -51.429688 46.390625 -48.390625 C 48.179688 -45.347656 49.492188 -42.050781 50.328125 -38.5 C 51.160156 -34.945312 51.578125 -31.460938 51.578125 -28.046875 L 17.03125 -28.046875 C 17.03125 -22.953125 17.425781 -18.398438 18.21875 -14.390625 C 19.007812 -10.390625 20.425781 -7.238281 22.46875 -4.9375 C 24.519531 -2.644531 27.460938 -1.5 31.296875 -1.5 C 33.304688 -1.5 35.4375 -1.976562 37.6875 -2.9375 C 39.9375 -3.894531 41.957031 -5.664062 43.75 -8.25 C 45.550781 -10.84375 46.742188 -14.601562 47.328125 -19.53125 L 50.328125 -19.53125 C 50.078125 -15.6875 49.179688 -12.15625 47.640625 -8.9375 C 46.097656 -5.726562 43.96875 -3.1875 41.25 -1.3125 C 38.539062 0.5625 35.140625 1.5 31.046875 1.5 C 25.953125 1.5 21.523438 0.207031 17.765625 -2.375 C 14.015625 -4.96875 11.117188 -8.515625 9.078125 -13.015625 C 7.035156 -17.523438 6.015625 -22.703125 6.015625 -28.546875 Z M 35.3125 -74.625 C 35.3125 -76.539062 35.9375 -78.101562 37.1875 -79.3125 C 38.4375 -80.519531 39.976562 -81.125 41.8125 -81.125 C 43.738281 -81.125 45.304688 -80.519531 46.515625 -79.3125 C 47.722656 -78.101562 48.328125 -76.539062 48.328125 -74.625 C 48.328125 -72.78125 47.722656 -71.234375 46.515625 -69.984375 C 45.304688 -68.734375 43.738281 -68.109375 41.8125 -68.109375 C 39.976562 -68.109375 38.4375 -68.734375 37.1875 -69.984375 C 35.9375 -71.234375 35.3125 -72.78125 35.3125 -74.625 Z M 11.765625 -74.625 C 11.765625 -76.539062 12.390625 -78.101562 13.640625 -79.3125 C 14.898438 -80.519531 16.445312 -81.125 18.28125 -81.125 C 20.195312 -81.125 21.757812 -80.519531 22.96875 -79.3125 C 24.1875 -78.101562 24.796875 -76.539062 24.796875 -74.625 C 24.796875 -72.78125 24.1875 -71.234375 22.96875 -69.984375 C 21.757812 -68.734375 20.195312 -68.109375 18.28125 -68.109375 C 16.445312 -68.109375 14.898438 -68.734375 13.640625 -69.984375 C 12.390625 -71.234375 11.765625 -72.78125 11.765625 -74.625 Z M 11.765625 -74.625 "></path></g></g></g><g fill="#a70b14" fill-opacity="1"><g transform="translate(533.130505, 293.682826)"><g><path d="M 1.5 -8.390625 C 1.5 -10.804688 2.082031 -12.765625 3.25 -14.265625 C 4.425781 -15.773438 6.179688 -16.53125 8.515625 -16.53125 C 10.347656 -16.53125 11.722656 -15.921875 12.640625 -14.703125 C 13.554688 -13.492188 14.015625 -12.179688 14.015625 -10.765625 C 14.015625 -9.679688 13.742188 -8.703125 13.203125 -7.828125 C 12.660156 -6.953125 12.054688 -6.347656 11.390625 -6.015625 C 10.390625 -5.597656 9.890625 -4.71875 9.890625 -3.375 C 9.890625 -2.789062 10.140625 -2.332031 10.640625 -2 C 11.140625 -1.664062 11.597656 -1.5 12.015625 -1.5 C 15.359375 -1.5 17.90625 -3.226562 19.65625 -6.6875 C 21.40625 -10.15625 22.65625 -15.8125 23.40625 -23.65625 L 24.546875 -37.0625 C 25.046875 -43.238281 25.296875 -47.742188 25.296875 -50.578125 C 25.296875 -51.660156 25.128906 -52.515625 24.796875 -53.140625 C 24.460938 -53.773438 23.457031 -54.09375 21.78125 -54.09375 L 17.03125 -54.09375 L 17.03125 -57.09375 L 58.34375 -57.09375 L 58.34375 -54.09375 L 53.09375 -54.09375 C 51.25 -54.09375 50.328125 -53.171875 50.328125 -51.328125 L 50.328125 -5.765625 C 50.328125 -3.921875 51.25 -3 53.09375 -3 L 58.21875 -3 L 58.21875 0 L 33.171875 0 L 33.171875 -3 L 38.5625 -3 C 40.394531 -3 41.3125 -3.921875 41.3125 -5.765625 L 41.3125 -51.328125 C 41.3125 -53.171875 40.394531 -54.09375 38.5625 -54.09375 L 34.4375 -54.09375 C 32.34375 -54.09375 30.878906 -53.316406 30.046875 -51.765625 C 29.210938 -50.222656 28.671875 -47.992188 28.421875 -45.078125 L 26.546875 -22.65625 C 26.210938 -17.988281 25.519531 -13.816406 24.46875 -10.140625 C 23.425781 -6.460938 21.925781 -3.601562 19.96875 -1.5625 C 18.007812 0.476562 15.398438 1.5 12.140625 1.5 C 9.304688 1.5 7.113281 0.894531 5.5625 -0.3125 C 4.019531 -1.519531 2.957031 -2.894531 2.375 -4.4375 C 1.789062 -5.988281 1.5 -7.304688 1.5 -8.390625 Z M 1.5 -8.390625 "></path></g></g></g><g fill="#a70b14" fill-opacity="1"><g transform="translate(596.216347, 293.682826)"><g><path d="M 4.75 0 L 4.75 -3 L 10.015625 -3 C 11.847656 -3 12.765625 -3.921875 12.765625 -5.765625 L 12.765625 -51.203125 C 12.765625 -53.046875 11.847656 -53.96875 10.015625 -53.96875 L 4.75 -53.96875 L 4.75 -56.96875 L 29.796875 -56.96875 L 29.796875 -53.96875 L 24.546875 -53.96875 C 22.703125 -53.96875 21.78125 -53.046875 21.78125 -51.203125 L 21.78125 -31.546875 L 29.921875 -31.546875 C 32.003906 -31.546875 33.585938 -32.441406 34.671875 -34.234375 C 35.765625 -36.035156 36.539062 -38.207031 37 -40.75 C 37.457031 -43.300781 37.769531 -45.703125 37.9375 -47.953125 C 38.269531 -51.878906 39.332031 -54.632812 41.125 -56.21875 C 42.925781 -57.800781 44.867188 -58.59375 46.953125 -58.59375 C 49.953125 -58.59375 52.078125 -57.585938 53.328125 -55.578125 C 54.585938 -53.578125 55.21875 -51.617188 55.21875 -49.703125 C 55.21875 -47.367188 54.523438 -45.507812 53.140625 -44.125 C 51.765625 -42.75 50.203125 -42.0625 48.453125 -42.0625 C 46.703125 -42.0625 45.382812 -42.5625 44.5 -43.5625 C 43.625 -44.570312 43.1875 -45.742188 43.1875 -47.078125 C 43.1875 -47.992188 43.414062 -48.742188 43.875 -49.328125 C 44.34375 -49.910156 44.785156 -50.328125 45.203125 -50.578125 C 46.117188 -51.242188 46.578125 -51.953125 46.578125 -52.703125 C 46.578125 -53.710938 45.910156 -54.21875 44.578125 -54.21875 C 42.316406 -54.21875 41.0625 -52.171875 40.8125 -48.078125 C 40.726562 -46.078125 40.457031 -43.738281 40 -41.0625 C 39.539062 -38.394531 38.8125 -36.015625 37.8125 -33.921875 C 36.8125 -31.835938 35.304688 -30.503906 33.296875 -29.921875 L 33.296875 -29.546875 C 35.804688 -29.546875 37.976562 -29.023438 39.8125 -27.984375 C 41.644531 -26.941406 43.109375 -25.710938 44.203125 -24.296875 C 45.617188 -22.703125 46.578125 -20.695312 47.078125 -18.28125 C 47.578125 -15.863281 47.867188 -13.691406 47.953125 -11.765625 C 48.117188 -9.429688 48.429688 -7.382812 48.890625 -5.625 C 49.347656 -3.875 50.492188 -3 52.328125 -3 C 53.921875 -3 55.070312 -3.726562 55.78125 -5.1875 C 56.488281 -6.65625 56.96875 -8.285156 57.21875 -10.078125 C 57.46875 -11.867188 57.59375 -13.265625 57.59375 -14.265625 L 59.84375 -14.265625 C 59.84375 -13.015625 59.738281 -11.515625 59.53125 -9.765625 C 59.320312 -8.015625 58.863281 -6.257812 58.15625 -4.5 C 57.445312 -2.75 56.378906 -1.3125 54.953125 -0.1875 C 53.535156 0.9375 51.617188 1.5 49.203125 1.5 C 48.035156 1.5 46.929688 1.375 45.890625 1.125 C 44.847656 0.875 43.820312 0.414062 42.8125 -0.25 C 41.476562 -1.164062 40.375 -2.5 39.5 -4.25 C 38.625 -6.007812 38.1875 -8.304688 38.1875 -11.140625 L 38.1875 -17.40625 C 38.1875 -20.40625 37.707031 -22.65625 36.75 -24.15625 C 35.789062 -25.664062 34.660156 -26.691406 33.359375 -27.234375 C 32.066406 -27.773438 30.878906 -28.046875 29.796875 -28.046875 L 21.78125 -28.046875 L 21.78125 -5.765625 C 21.78125 -3.921875 22.703125 -3 24.546875 -3 L 29.796875 -3 L 29.796875 0 Z M 4.75 0 "></path></g></g></g><g fill="#a70b14" fill-opacity="1"><g transform="translate(659.051788, 293.682826)"><g><path d="M 17.03125 -28.546875 C 17.03125 -23.203125 17.46875 -18.503906 18.34375 -14.453125 C 19.21875 -10.410156 20.675781 -7.238281 22.71875 -4.9375 C 24.769531 -2.644531 27.546875 -1.5 31.046875 -1.5 C 34.554688 -1.5 37.332031 -2.644531 39.375 -4.9375 C 41.414062 -7.238281 42.875 -10.410156 43.75 -14.453125 C 44.632812 -18.503906 45.078125 -23.203125 45.078125 -28.546875 C 45.078125 -33.890625 44.632812 -38.582031 43.75 -42.625 C 42.875 -46.675781 41.414062 -49.847656 39.375 -52.140625 C 37.332031 -54.441406 34.554688 -55.59375 31.046875 -55.59375 C 27.546875 -55.59375 24.769531 -54.441406 22.71875 -52.140625 C 20.675781 -49.847656 19.21875 -46.675781 18.34375 -42.625 C 17.46875 -38.582031 17.03125 -33.890625 17.03125 -28.546875 Z M 6.015625 -28.546875 C 6.015625 -34.054688 7.117188 -39.082031 9.328125 -43.625 C 11.535156 -48.175781 14.535156 -51.804688 18.328125 -54.515625 C 22.128906 -57.234375 26.367188 -58.59375 31.046875 -58.59375 C 35.722656 -58.59375 39.957031 -57.234375 43.75 -54.515625 C 47.550781 -51.804688 50.554688 -48.175781 52.765625 -43.625 C 54.984375 -39.082031 56.09375 -34.054688 56.09375 -28.546875 C 56.09375 -23.035156 54.984375 -18.003906 52.765625 -13.453125 C 50.554688 -8.910156 47.550781 -5.28125 43.75 -2.5625 C 39.957031 0.144531 35.722656 1.5 31.046875 1.5 C 26.367188 1.5 22.128906 0.144531 18.328125 -2.5625 C 14.535156 -5.28125 11.535156 -8.910156 9.328125 -13.453125 C 7.117188 -18.003906 6.015625 -23.035156 6.015625 -28.546875 Z M 6.015625 -28.546875 "></path></g></g></g><g fill="#a70b14" fill-opacity="1"><g transform="translate(721.136287, 293.682826)"><g><path d="M 21.78125 -31.546875 L 32.546875 -31.546875 C 36.222656 -31.546875 38.769531 -32.691406 40.1875 -34.984375 C 41.601562 -37.285156 42.3125 -39.8125 42.3125 -42.5625 C 42.3125 -45.820312 41.414062 -48.554688 39.625 -50.765625 C 37.832031 -52.984375 35.472656 -54.09375 32.546875 -54.09375 L 24.546875 -54.09375 C 23.535156 -54.09375 22.84375 -53.878906 22.46875 -53.453125 C 22.09375 -53.035156 21.863281 -52.328125 21.78125 -51.328125 Z M 4.75 0 L 4.75 -3 L 10.015625 -3 C 11.847656 -3 12.765625 -3.921875 12.765625 -5.765625 L 12.765625 -51.328125 C 12.765625 -53.171875 11.847656 -54.09375 10.015625 -54.09375 L 4.75 -54.09375 L 4.75 -57.09375 L 34.0625 -57.09375 C 39.226562 -57.09375 43.476562 -55.859375 46.8125 -53.390625 C 50.15625 -50.929688 51.828125 -47.570312 51.828125 -43.3125 C 51.828125 -40.5625 51.160156 -38.265625 49.828125 -36.421875 C 48.492188 -34.585938 46.882812 -33.191406 45 -32.234375 C 43.125 -31.273438 41.394531 -30.628906 39.8125 -30.296875 L 39.8125 -30.046875 C 40.8125 -29.960938 42.125 -29.648438 43.75 -29.109375 C 45.382812 -28.566406 47.035156 -27.734375 48.703125 -26.609375 C 50.367188 -25.484375 51.765625 -24.039062 52.890625 -22.28125 C 54.023438 -20.53125 54.59375 -18.363281 54.59375 -15.78125 C 54.59375 -12.4375 53.648438 -9.59375 51.765625 -7.25 C 49.890625 -4.914062 47.46875 -3.125 44.5 -1.875 C 41.539062 -0.625 38.394531 0 35.0625 0 Z M 21.78125 -5.765625 C 21.78125 -3.921875 22.703125 -3 24.546875 -3 L 33.546875 -3 C 35.972656 -3 37.914062 -3.726562 39.375 -5.1875 C 40.832031 -6.65625 41.894531 -8.390625 42.5625 -10.390625 C 43.238281 -12.390625 43.578125 -14.269531 43.578125 -16.03125 C 43.578125 -19.195312 42.84375 -21.988281 41.375 -24.40625 C 39.914062 -26.832031 37.304688 -28.046875 33.546875 -28.046875 L 21.78125 -28.046875 Z M 21.78125 -5.765625 "></path></g></g></g><g fill="#a70b14" fill-opacity="1"><g transform="translate(781.218023, 293.682826)"><g><path d="M 17.03125 -28.546875 C 17.03125 -23.203125 17.46875 -18.503906 18.34375 -14.453125 C 19.21875 -10.410156 20.675781 -7.238281 22.71875 -4.9375 C 24.769531 -2.644531 27.546875 -1.5 31.046875 -1.5 C 34.554688 -1.5 37.332031 -2.644531 39.375 -4.9375 C 41.414062 -7.238281 42.875 -10.410156 43.75 -14.453125 C 44.632812 -18.503906 45.078125 -23.203125 45.078125 -28.546875 C 45.078125 -33.890625 44.632812 -38.582031 43.75 -42.625 C 42.875 -46.675781 41.414062 -49.847656 39.375 -52.140625 C 37.332031 -54.441406 34.554688 -55.59375 31.046875 -55.59375 C 27.546875 -55.59375 24.769531 -54.441406 22.71875 -52.140625 C 20.675781 -49.847656 19.21875 -46.675781 18.34375 -42.625 C 17.46875 -38.582031 17.03125 -33.890625 17.03125 -28.546875 Z M 6.015625 -28.546875 C 6.015625 -34.054688 7.117188 -39.082031 9.328125 -43.625 C 11.535156 -48.175781 14.535156 -51.804688 18.328125 -54.515625 C 22.128906 -57.234375 26.367188 -58.59375 31.046875 -58.59375 C 35.722656 -58.59375 39.957031 -57.234375 43.75 -54.515625 C 47.550781 -51.804688 50.554688 -48.175781 52.765625 -43.625 C 54.984375 -39.082031 56.09375 -34.054688 56.09375 -28.546875 C 56.09375 -23.035156 54.984375 -18.003906 52.765625 -13.453125 C 50.554688 -8.910156 47.550781 -5.28125 43.75 -2.5625 C 39.957031 0.144531 35.722656 1.5 31.046875 1.5 C 26.367188 1.5 22.128906 0.144531 18.328125 -2.5625 C 14.535156 -5.28125 11.535156 -8.910156 9.328125 -13.453125 C 7.117188 -18.003906 6.015625 -23.035156 6.015625 -28.546875 Z M 6.015625 -28.546875 "></path></g></g></g><g fill="#a70b14" fill-opacity="1"><g transform="translate(843.302448, 293.682826)"><g><path d="M 9.015625 -10.265625 C 9.015625 -12.679688 9.828125 -14.492188 11.453125 -15.703125 C 13.078125 -16.921875 14.6875 -17.53125 16.28125 -17.53125 C 19.53125 -17.53125 22.070312 -16.191406 23.90625 -13.515625 C 25.5 -11.347656 26.296875 -8.382812 26.296875 -4.625 C 26.296875 -1.039062 25.664062 2.394531 24.40625 5.6875 C 23.15625 8.988281 21.53125 11.953125 19.53125 14.578125 C 17.53125 17.210938 15.359375 19.363281 13.015625 21.03125 L 11.265625 19.03125 C 14.273438 16.78125 16.78125 13.960938 18.78125 10.578125 C 20.78125 7.203125 21.78125 3.84375 21.78125 0.5 C 21.78125 -1.164062 21.03125 -2.414062 19.53125 -3.25 C 19.113281 -3.5 18.53125 -3.644531 17.78125 -3.6875 C 17.03125 -3.726562 16.195312 -3.75 15.28125 -3.75 C 13.4375 -3.75 11.929688 -4.414062 10.765625 -5.75 C 9.597656 -7.09375 9.015625 -8.597656 9.015625 -10.265625 Z M 9.015625 -10.265625 "></path></g></g></g><g fill="#a70b14" fill-opacity="1"><g transform="translate(878.350184, 293.682826)"><g></g></g></g><g fill="#a70b14" fill-opacity="1"><g transform="translate(913.39792, 293.682826)"><g><path d="M 2.25 -54.09375 L 2.25 -57.09375 L 30.546875 -57.09375 L 30.546875 -54.09375 L 26.546875 -54.09375 C 25.710938 -54.09375 24.832031 -53.835938 23.90625 -53.328125 C 22.988281 -52.828125 22.53125 -52.078125 22.53125 -51.078125 C 22.53125 -50.742188 22.570312 -50.222656 22.65625 -49.515625 C 22.738281 -48.804688 22.945312 -47.953125 23.28125 -46.953125 L 36.3125 -8.515625 L 46.703125 -42.8125 C 47.117188 -43.90625 47.453125 -45.117188 47.703125 -46.453125 C 47.953125 -47.785156 48.078125 -48.703125 48.078125 -49.203125 C 48.078125 -50.617188 47.679688 -51.785156 46.890625 -52.703125 C 46.097656 -53.628906 44.992188 -54.09375 43.578125 -54.09375 L 40.5625 -54.09375 L 40.5625 -57.09375 L 63.359375 -57.09375 L 63.359375 -54.09375 L 60.46875 -54.09375 C 58.800781 -54.09375 57.175781 -53.523438 55.59375 -52.390625 C 54.007812 -51.265625 52.753906 -49.367188 51.828125 -46.703125 L 31.671875 17.40625 C 31.171875 19.070312 30.296875 20.863281 29.046875 22.78125 C 27.796875 24.707031 26.144531 26.359375 24.09375 27.734375 C 22.050781 29.109375 19.613281 29.796875 16.78125 29.796875 C 13.519531 29.796875 10.847656 28.753906 8.765625 26.671875 C 7.765625 25.753906 6.929688 24.601562 6.265625 23.21875 C 5.597656 21.84375 5.265625 20.363281 5.265625 18.78125 C 5.265625 16.445312 5.929688 14.691406 7.265625 13.515625 C 8.015625 12.765625 8.765625 12.265625 9.515625 12.015625 C 10.265625 11.765625 10.929688 11.640625 11.515625 11.640625 C 13.609375 11.640625 15.09375 12.285156 15.96875 13.578125 C 16.84375 14.878906 17.28125 16.363281 17.28125 18.03125 C 17.28125 18.53125 17.175781 19.113281 16.96875 19.78125 C 16.757812 20.445312 16.53125 21.03125 16.28125 21.53125 C 15.78125 22.363281 15.53125 23.15625 15.53125 23.90625 C 15.53125 24.25 15.675781 24.648438 15.96875 25.109375 C 16.257812 25.566406 16.945312 25.796875 18.03125 25.796875 C 20.78125 25.796875 22.988281 24.726562 24.65625 22.59375 C 26.332031 20.46875 27.503906 18.238281 28.171875 15.90625 L 31.546875 5.015625 L 13.765625 -46.703125 C 12.929688 -48.953125 12.054688 -50.742188 11.140625 -52.078125 C 10.222656 -53.421875 8.640625 -54.09375 6.390625 -54.09375 Z M 2.25 -54.09375 "></path></g></g></g><g fill="#a70b14" fill-opacity="1"><g transform="translate(972.726651, 293.682826)"><g><path d="M 1.5 -8.390625 C 1.5 -10.804688 2.082031 -12.765625 3.25 -14.265625 C 4.425781 -15.773438 6.179688 -16.53125 8.515625 -16.53125 C 10.347656 -16.53125 11.722656 -15.921875 12.640625 -14.703125 C 13.554688 -13.492188 14.015625 -12.179688 14.015625 -10.765625 C 14.015625 -9.679688 13.742188 -8.703125 13.203125 -7.828125 C 12.660156 -6.953125 12.054688 -6.347656 11.390625 -6.015625 C 10.390625 -5.597656 9.890625 -4.71875 9.890625 -3.375 C 9.890625 -2.789062 10.140625 -2.332031 10.640625 -2 C 11.140625 -1.664062 11.597656 -1.5 12.015625 -1.5 C 15.359375 -1.5 17.90625 -3.226562 19.65625 -6.6875 C 21.40625 -10.15625 22.65625 -15.8125 23.40625 -23.65625 L 24.546875 -37.0625 C 25.046875 -43.238281 25.296875 -47.742188 25.296875 -50.578125 C 25.296875 -51.660156 25.128906 -52.515625 24.796875 -53.140625 C 24.460938 -53.773438 23.457031 -54.09375 21.78125 -54.09375 L 17.03125 -54.09375 L 17.03125 -57.09375 L 58.34375 -57.09375 L 58.34375 -54.09375 L 53.09375 -54.09375 C 51.25 -54.09375 50.328125 -53.171875 50.328125 -51.328125 L 50.328125 -5.765625 C 50.328125 -3.921875 51.25 -3 53.09375 -3 L 58.21875 -3 L 58.21875 0 L 33.171875 0 L 33.171875 -3 L 38.5625 -3 C 40.394531 -3 41.3125 -3.921875 41.3125 -5.765625 L 41.3125 -51.328125 C 41.3125 -53.171875 40.394531 -54.09375 38.5625 -54.09375 L 34.4375 -54.09375 C 32.34375 -54.09375 30.878906 -53.316406 30.046875 -51.765625 C 29.210938 -50.222656 28.671875 -47.992188 28.421875 -45.078125 L 26.546875 -22.65625 C 26.210938 -17.988281 25.519531 -13.816406 24.46875 -10.140625 C 23.425781 -6.460938 21.925781 -3.601562 19.96875 -1.5625 C 18.007812 0.476562 15.398438 1.5 12.140625 1.5 C 9.304688 1.5 7.113281 0.894531 5.5625 -0.3125 C 4.019531 -1.519531 2.957031 -2.894531 2.375 -4.4375 C 1.789062 -5.988281 1.5 -7.304688 1.5 -8.390625 Z M 1.5 -8.390625 "></path></g></g></g><g fill="#a70b14" fill-opacity="1"><g transform="translate(1035.812531, 293.682826)"><g><path d="M 9.015625 -10.265625 C 9.015625 -12.679688 9.828125 -14.492188 11.453125 -15.703125 C 13.078125 -16.921875 14.6875 -17.53125 16.28125 -17.53125 C 19.53125 -17.53125 22.070312 -16.191406 23.90625 -13.515625 C 25.5 -11.347656 26.296875 -8.382812 26.296875 -4.625 C 26.296875 -1.039062 25.664062 2.394531 24.40625 5.6875 C 23.15625 8.988281 21.53125 11.953125 19.53125 14.578125 C 17.53125 17.210938 15.359375 19.363281 13.015625 21.03125 L 11.265625 19.03125 C 14.273438 16.78125 16.78125 13.960938 18.78125 10.578125 C 20.78125 7.203125 21.78125 3.84375 21.78125 0.5 C 21.78125 -1.164062 21.03125 -2.414062 19.53125 -3.25 C 19.113281 -3.5 18.53125 -3.644531 17.78125 -3.6875 C 17.03125 -3.726562 16.195312 -3.75 15.28125 -3.75 C 13.4375 -3.75 11.929688 -4.414062 10.765625 -5.75 C 9.597656 -7.09375 9.015625 -8.597656 9.015625 -10.265625 Z M 9.015625 -10.265625 "></path></g></g></g><g fill="#a70b14" fill-opacity="1"><g transform="translate(1070.87401, 293.682826)"><g></g></g></g><g fill="#a70b14" fill-opacity="1"><g transform="translate(203.325189, 468.260648)"><g><path d="M 7.765625 0 L 7.765625 -4 L 16.78125 -4 C 19.03125 -4 20.15625 -5.128906 20.15625 -7.390625 L 20.15625 -81.75 C 20.15625 -84.007812 19.03125 -85.140625 16.78125 -85.140625 L 7.765625 -85.140625 L 7.765625 -89.140625 L 93.40625 -89.140625 L 93.40625 -85.140625 L 84.390625 -85.140625 C 82.128906 -85.140625 81 -84.007812 81 -81.75 L 81 -7.390625 C 81 -5.128906 82.128906 -4 84.390625 -4 L 93.40625 -4 L 93.40625 0 L 57.09375 0 L 57.09375 -4 L 66.109375 -4 C 68.359375 -4 69.484375 -5.128906 69.484375 -7.390625 L 69.484375 -81.75 C 69.484375 -84.007812 68.359375 -85.140625 66.109375 -85.140625 L 35.0625 -85.140625 C 32.800781 -85.140625 31.671875 -84.007812 31.671875 -81.75 L 31.671875 -7.390625 C 31.671875 -5.128906 32.800781 -4 35.0625 -4 L 44.078125 -4 L 44.078125 0 Z M 7.765625 0 "></path></g></g></g><g fill="#a70b14" fill-opacity="1"><g transform="translate(301.959384, 468.260648)"><g><path d="M 2.25 -54.09375 L 2.25 -57.09375 L 30.546875 -57.09375 L 30.546875 -54.09375 L 26.546875 -54.09375 C 25.710938 -54.09375 24.832031 -53.835938 23.90625 -53.328125 C 22.988281 -52.828125 22.53125 -52.078125 22.53125 -51.078125 C 22.53125 -50.742188 22.570312 -50.222656 22.65625 -49.515625 C 22.738281 -48.804688 22.945312 -47.953125 23.28125 -46.953125 L 36.3125 -8.515625 L 46.703125 -42.8125 C 47.117188 -43.90625 47.453125 -45.117188 47.703125 -46.453125 C 47.953125 -47.785156 48.078125 -48.703125 48.078125 -49.203125 C 48.078125 -50.617188 47.679688 -51.785156 46.890625 -52.703125 C 46.097656 -53.628906 44.992188 -54.09375 43.578125 -54.09375 L 40.5625 -54.09375 L 40.5625 -57.09375 L 63.359375 -57.09375 L 63.359375 -54.09375 L 60.46875 -54.09375 C 58.800781 -54.09375 57.175781 -53.523438 55.59375 -52.390625 C 54.007812 -51.265625 52.753906 -49.367188 51.828125 -46.703125 L 31.671875 17.40625 C 31.171875 19.070312 30.296875 20.863281 29.046875 22.78125 C 27.796875 24.707031 26.144531 26.359375 24.09375 27.734375 C 22.050781 29.109375 19.613281 29.796875 16.78125 29.796875 C 13.519531 29.796875 10.847656 28.753906 8.765625 26.671875 C 7.765625 25.753906 6.929688 24.601562 6.265625 23.21875 C 5.597656 21.84375 5.265625 20.363281 5.265625 18.78125 C 5.265625 16.445312 5.929688 14.691406 7.265625 13.515625 C 8.015625 12.765625 8.765625 12.265625 9.515625 12.015625 C 10.265625 11.765625 10.929688 11.640625 11.515625 11.640625 C 13.609375 11.640625 15.09375 12.285156 15.96875 13.578125 C 16.84375 14.878906 17.28125 16.363281 17.28125 18.03125 C 17.28125 18.53125 17.175781 19.113281 16.96875 19.78125 C 16.757812 20.445312 16.53125 21.03125 16.28125 21.53125 C 15.78125 22.363281 15.53125 23.15625 15.53125 23.90625 C 15.53125 24.25 15.675781 24.648438 15.96875 25.109375 C 16.257812 25.566406 16.945312 25.796875 18.03125 25.796875 C 20.78125 25.796875 22.988281 24.726562 24.65625 22.59375 C 26.332031 20.46875 27.503906 18.238281 28.171875 15.90625 L 31.546875 5.015625 L 13.765625 -46.703125 C 12.929688 -48.953125 12.054688 -50.742188 11.140625 -52.078125 C 10.222656 -53.421875 8.640625 -54.09375 6.390625 -54.09375 Z M 2.25 -54.09375 "></path></g></g></g><g fill="#a70b14" fill-opacity="1"><g transform="translate(368.29962, 468.260648)"><g><path d="M 4.75 0 L 4.75 -3 L 10.015625 -3 C 11.847656 -3 12.765625 -3.921875 12.765625 -5.765625 L 12.765625 -51.328125 C 12.765625 -53.171875 11.847656 -54.09375 10.015625 -54.09375 L 4.75 -54.09375 L 4.75 -57.09375 L 29.796875 -57.09375 L 29.796875 -54.09375 L 24.546875 -54.09375 C 22.703125 -54.09375 21.78125 -53.171875 21.78125 -51.328125 L 21.78125 -5.765625 C 21.78125 -3.921875 22.703125 -3 24.546875 -3 L 40.3125 -3 C 42.144531 -3 43.0625 -3.921875 43.0625 -5.765625 L 43.0625 -51.328125 C 43.0625 -53.171875 42.144531 -54.09375 40.3125 -54.09375 L 35.0625 -54.09375 L 35.0625 -57.09375 L 60.09375 -57.09375 L 60.09375 -54.09375 L 54.84375 -54.09375 C 53 -54.09375 52.078125 -53.171875 52.078125 -51.328125 L 52.078125 -5.765625 C 52.078125 -3.921875 53 -3 54.84375 -3 L 70.609375 -3 C 72.453125 -3 73.375 -3.921875 73.375 -5.765625 L 73.375 -51.328125 C 73.375 -53.171875 72.453125 -54.09375 70.609375 -54.09375 L 65.359375 -54.09375 L 65.359375 -57.09375 L 90.390625 -57.09375 L 90.390625 -54.09375 L 85.140625 -54.09375 C 83.304688 -54.09375 82.390625 -53.171875 82.390625 -51.328125 L 82.390625 -5.765625 C 82.390625 -3.921875 83.304688 -3 85.140625 -3 L 90.390625 -3 L 90.390625 0 Z M 4.75 0 "></path></g></g></g><g fill="#a70b14" fill-opacity="1"><g transform="translate(463.679382, 468.260648)"><g><path d="M 4.75 0 L 4.75 -3 L 10.015625 -3 C 11.847656 -3 12.765625 -3.921875 12.765625 -5.765625 L 12.765625 -51.203125 C 12.765625 -53.046875 11.847656 -53.96875 10.015625 -53.96875 L 4.75 -53.96875 L 4.75 -56.96875 L 29.796875 -56.96875 L 29.796875 -53.96875 L 24.546875 -53.96875 C 22.703125 -53.96875 21.78125 -53.046875 21.78125 -51.203125 L 21.78125 -31.546875 L 29.921875 -31.546875 C 32.003906 -31.546875 33.585938 -32.441406 34.671875 -34.234375 C 35.765625 -36.035156 36.539062 -38.207031 37 -40.75 C 37.457031 -43.300781 37.769531 -45.703125 37.9375 -47.953125 C 38.269531 -51.878906 39.332031 -54.632812 41.125 -56.21875 C 42.925781 -57.800781 44.867188 -58.59375 46.953125 -58.59375 C 49.953125 -58.59375 52.078125 -57.585938 53.328125 -55.578125 C 54.585938 -53.578125 55.21875 -51.617188 55.21875 -49.703125 C 55.21875 -47.367188 54.523438 -45.507812 53.140625 -44.125 C 51.765625 -42.75 50.203125 -42.0625 48.453125 -42.0625 C 46.703125 -42.0625 45.382812 -42.5625 44.5 -43.5625 C 43.625 -44.570312 43.1875 -45.742188 43.1875 -47.078125 C 43.1875 -47.992188 43.414062 -48.742188 43.875 -49.328125 C 44.34375 -49.910156 44.785156 -50.328125 45.203125 -50.578125 C 46.117188 -51.242188 46.578125 -51.953125 46.578125 -52.703125 C 46.578125 -53.710938 45.910156 -54.21875 44.578125 -54.21875 C 42.316406 -54.21875 41.0625 -52.171875 40.8125 -48.078125 C 40.726562 -46.078125 40.457031 -43.738281 40 -41.0625 C 39.539062 -38.394531 38.8125 -36.015625 37.8125 -33.921875 C 36.8125 -31.835938 35.304688 -30.503906 33.296875 -29.921875 L 33.296875 -29.546875 C 35.804688 -29.546875 37.976562 -29.023438 39.8125 -27.984375 C 41.644531 -26.941406 43.109375 -25.710938 44.203125 -24.296875 C 45.617188 -22.703125 46.578125 -20.695312 47.078125 -18.28125 C 47.578125 -15.863281 47.867188 -13.691406 47.953125 -11.765625 C 48.117188 -9.429688 48.429688 -7.382812 48.890625 -5.625 C 49.347656 -3.875 50.492188 -3 52.328125 -3 C 53.921875 -3 55.070312 -3.726562 55.78125 -5.1875 C 56.488281 -6.65625 56.96875 -8.285156 57.21875 -10.078125 C 57.46875 -11.867188 57.59375 -13.265625 57.59375 -14.265625 L 59.84375 -14.265625 C 59.84375 -13.015625 59.738281 -11.515625 59.53125 -9.765625 C 59.320312 -8.015625 58.863281 -6.257812 58.15625 -4.5 C 57.445312 -2.75 56.378906 -1.3125 54.953125 -0.1875 C 53.535156 0.9375 51.617188 1.5 49.203125 1.5 C 48.035156 1.5 46.929688 1.375 45.890625 1.125 C 44.847656 0.875 43.820312 0.414062 42.8125 -0.25 C 41.476562 -1.164062 40.375 -2.5 39.5 -4.25 C 38.625 -6.007812 38.1875 -8.304688 38.1875 -11.140625 L 38.1875 -17.40625 C 38.1875 -20.40625 37.707031 -22.65625 36.75 -24.15625 C 35.789062 -25.664062 34.660156 -26.691406 33.359375 -27.234375 C 32.066406 -27.773438 30.878906 -28.046875 29.796875 -28.046875 L 21.78125 -28.046875 L 21.78125 -5.765625 C 21.78125 -3.921875 22.703125 -3 24.546875 -3 L 29.796875 -3 L 29.796875 0 Z M 4.75 0 "></path></g></g></g><g fill="#a70b14" fill-opacity="1"><g transform="translate(526.51486, 468.260648)"><g><path d="M 4.75 0 L 4.75 -3 L 10.015625 -3 C 11.847656 -3 12.765625 -3.921875 12.765625 -5.765625 L 12.765625 -51.328125 C 12.765625 -53.171875 11.847656 -54.09375 10.015625 -54.09375 L 4.75 -54.09375 L 4.75 -57.09375 L 29.796875 -57.09375 L 29.796875 -54.09375 L 24.546875 -54.09375 C 22.703125 -54.09375 21.78125 -53.171875 21.78125 -51.328125 L 21.78125 -14.53125 L 45.578125 -48.078125 L 45.578125 -51.328125 C 45.578125 -53.171875 44.65625 -54.09375 42.8125 -54.09375 L 37.5625 -54.09375 L 37.5625 -57.09375 L 62.609375 -57.09375 L 62.609375 -54.09375 L 57.34375 -54.09375 C 55.507812 -54.09375 54.59375 -53.171875 54.59375 -51.328125 L 54.59375 -5.765625 C 54.59375 -3.921875 55.507812 -3 57.34375 -3 L 62.609375 -3 L 62.609375 0 L 37.5625 0 L 37.5625 -3 L 42.8125 -3 C 44.65625 -3 45.578125 -3.921875 45.578125 -5.765625 L 45.578125 -42.5625 L 21.78125 -9.015625 L 21.78125 -5.765625 C 21.78125 -3.921875 22.703125 -3 24.546875 -3 L 29.796875 -3 L 29.796875 0 Z M 4.75 0 "></path></g></g></g><g fill="#a70b14" fill-opacity="1"><g transform="translate(593.856477, 468.260648)"><g><path d="M 4.75 0 L 4.75 -3 L 10.015625 -3 C 11.847656 -3 12.765625 -3.921875 12.765625 -5.765625 L 12.765625 -51.328125 C 12.765625 -53.171875 11.847656 -54.09375 10.015625 -54.09375 L 4.75 -54.09375 L 4.75 -57.09375 L 29.796875 -57.09375 L 29.796875 -54.09375 L 24.546875 -54.09375 C 22.703125 -54.09375 21.78125 -53.171875 21.78125 -51.328125 L 21.78125 -31.546875 L 46.828125 -31.546875 L 46.828125 -51.328125 C 46.828125 -53.171875 45.910156 -54.09375 44.078125 -54.09375 L 38.8125 -54.09375 L 38.8125 -57.09375 L 63.859375 -57.09375 L 63.859375 -54.09375 L 58.59375 -54.09375 C 56.757812 -54.09375 55.84375 -53.171875 55.84375 -51.328125 L 55.84375 -5.765625 C 55.84375 -3.921875 56.757812 -3 58.59375 -3 L 63.859375 -3 L 63.859375 0 L 38.8125 0 L 38.8125 -3 L 44.078125 -3 C 45.910156 -3 46.828125 -3.921875 46.828125 -5.765625 L 46.828125 -28.046875 L 21.78125 -28.046875 L 21.78125 -5.765625 C 21.78125 -3.921875 22.703125 -3 24.546875 -3 L 29.796875 -3 L 29.796875 0 Z M 4.75 0 "></path></g></g></g><g fill="#a70b14" fill-opacity="1"><g transform="translate(662.449802, 468.260648)"><g><path d="M 16.28125 -12.890625 C 16.28125 -9.972656 16.71875 -7.800781 17.59375 -6.375 C 18.46875 -4.957031 19.53125 -4.039062 20.78125 -3.625 C 22.03125 -3.207031 23.113281 -3 24.03125 -3 C 26.875 -3 29.234375 -3.894531 31.109375 -5.6875 C 32.992188 -7.488281 34.519531 -9.597656 35.6875 -12.015625 C 36.851562 -14.441406 37.8125 -16.695312 38.5625 -18.78125 L 38.5625 -30.671875 L 27.671875 -28.296875 C 23.578125 -27.460938 20.65625 -25.789062 18.90625 -23.28125 C 17.15625 -20.78125 16.28125 -17.316406 16.28125 -12.890625 Z M 5.765625 -13.265625 C 5.765625 -16.691406 6.453125 -19.488281 7.828125 -21.65625 C 9.203125 -23.832031 10.992188 -25.546875 13.203125 -26.796875 C 15.421875 -28.046875 17.757812 -28.984375 20.21875 -29.609375 C 22.675781 -30.234375 24.953125 -30.753906 27.046875 -31.171875 L 38.5625 -33.296875 L 38.5625 -43.953125 C 38.5625 -48.367188 37.453125 -51.410156 35.234375 -53.078125 C 33.023438 -54.753906 30.253906 -55.59375 26.921875 -55.59375 C 24.078125 -55.59375 21.488281 -54.878906 19.15625 -53.453125 C 16.820312 -52.035156 15.65625 -50.367188 15.65625 -48.453125 C 15.65625 -48.117188 15.675781 -47.804688 15.71875 -47.515625 C 15.757812 -47.222656 15.863281 -46.910156 16.03125 -46.578125 C 16.363281 -45.910156 16.988281 -45.492188 17.90625 -45.328125 C 19.320312 -44.992188 20.445312 -44.445312 21.28125 -43.6875 C 22.113281 -42.9375 22.53125 -41.851562 22.53125 -40.4375 C 22.53125 -38.601562 21.96875 -37.332031 20.84375 -36.625 C 19.71875 -35.914062 18.445312 -35.5625 17.03125 -35.5625 C 15.445312 -35.5625 13.835938 -36.226562 12.203125 -37.5625 C 10.578125 -38.894531 9.765625 -40.984375 9.765625 -43.828125 C 9.765625 -47.078125 10.660156 -49.785156 12.453125 -51.953125 C 14.253906 -54.128906 16.488281 -55.78125 19.15625 -56.90625 C 21.820312 -58.03125 24.535156 -58.59375 27.296875 -58.59375 C 30.460938 -58.59375 33.609375 -58.03125 36.734375 -56.90625 C 39.867188 -55.78125 42.457031 -53.921875 44.5 -51.328125 C 46.550781 -48.742188 47.578125 -45.238281 47.578125 -40.8125 L 47.578125 -10.015625 C 47.578125 -5.835938 48.867188 -3.75 51.453125 -3.75 C 52.960938 -3.75 54.15625 -4.375 55.03125 -5.625 C 55.90625 -6.882812 56.507812 -8.472656 56.84375 -10.390625 C 57.175781 -12.304688 57.34375 -14.269531 57.34375 -16.28125 L 59.59375 -16.28125 C 59.59375 -13.601562 59.34375 -10.882812 58.84375 -8.125 C 58.34375 -5.375 57.382812 -3.082031 55.96875 -1.25 C 54.550781 0.582031 52.421875 1.5 49.578125 1.5 C 45.910156 1.5 43.195312 0.394531 41.4375 -1.8125 C 39.6875 -4.03125 38.726562 -6.929688 38.5625 -10.515625 L 37.9375 -10.765625 C 37.351562 -9.265625 36.328125 -7.550781 34.859375 -5.625 C 33.398438 -3.707031 31.609375 -2.039062 29.484375 -0.625 C 27.359375 0.789062 24.875 1.5 22.03125 1.5 C 19.695312 1.5 17.273438 1.125 14.765625 0.375 C 12.265625 -0.375 10.140625 -1.8125 8.390625 -3.9375 C 6.640625 -6.070312 5.765625 -9.179688 5.765625 -13.265625 Z M 5.765625 -13.265625 "></path></g></g></g><g fill="#a70b14" fill-opacity="1"><g transform="translate(725.034953, 468.260648)"><g></g></g></g><g fill="#a70b14" fill-opacity="1"><g transform="translate(760.082651, 468.260648)"><g><path d="M 9.015625 -14.90625 C 9.015625 -17.820312 9.890625 -20.363281 11.640625 -22.53125 C 13.390625 -24.707031 15.6875 -25.796875 18.53125 -25.796875 C 20.945312 -25.796875 22.84375 -25.164062 24.21875 -23.90625 C 25.601562 -22.65625 26.296875 -20.863281 26.296875 -18.53125 C 26.296875 -16.863281 25.789062 -15.359375 24.78125 -14.015625 C 23.78125 -12.679688 22.40625 -12.015625 20.65625 -12.015625 C 19.738281 -12.015625 18.78125 -11.890625 17.78125 -11.640625 C 16.78125 -11.390625 16.28125 -10.804688 16.28125 -9.890625 C 16.28125 -7.054688 17.757812 -5.03125 20.71875 -3.8125 C 23.6875 -2.601562 27.460938 -2 32.046875 -2 C 36.472656 -2 39.9375 -3.082031 42.4375 -5.25 C 44.945312 -7.425781 46.722656 -10.160156 47.765625 -13.453125 C 48.804688 -16.753906 49.328125 -20.03125 49.328125 -23.28125 C 49.328125 -28.039062 48.617188 -31.898438 47.203125 -34.859375 C 45.785156 -37.828125 43.945312 -39.976562 41.6875 -41.3125 C 39.4375 -42.644531 37.019531 -43.3125 34.4375 -43.3125 C 33.175781 -43.3125 32.148438 -43.226562 31.359375 -43.0625 C 30.566406 -42.894531 29.585938 -42.601562 28.421875 -42.1875 C 27.503906 -41.851562 26.476562 -41.539062 25.34375 -41.25 C 24.21875 -40.957031 23.113281 -40.8125 22.03125 -40.8125 C 20.945312 -40.8125 19.882812 -41.082031 18.84375 -41.625 C 17.800781 -42.164062 17.28125 -43.066406 17.28125 -44.328125 C 17.28125 -45.578125 17.78125 -46.472656 18.78125 -47.015625 C 19.78125 -47.554688 20.863281 -47.828125 22.03125 -47.828125 C 22.945312 -47.828125 23.882812 -47.765625 24.84375 -47.640625 C 25.8125 -47.515625 26.835938 -47.367188 27.921875 -47.203125 C 29.171875 -47.035156 30.421875 -46.929688 31.671875 -46.890625 C 32.921875 -46.847656 33.96875 -46.828125 34.8125 -46.828125 C 37.726562 -46.828125 40.082031 -47.742188 41.875 -49.578125 C 43.675781 -51.410156 45.015625 -53.703125 45.890625 -56.453125 C 46.765625 -59.210938 47.203125 -61.972656 47.203125 -64.734375 C 47.203125 -68.148438 46.679688 -71.273438 45.640625 -74.109375 C 44.597656 -76.953125 42.988281 -79.25 40.8125 -81 C 38.644531 -82.757812 35.890625 -83.640625 32.546875 -83.640625 C 28.878906 -83.640625 26.0625 -83.195312 24.09375 -82.3125 C 22.132812 -81.4375 20.800781 -80.394531 20.09375 -79.1875 C 19.382812 -77.976562 19.03125 -76.875 19.03125 -75.875 C 19.03125 -75.289062 19.300781 -74.5625 19.84375 -73.6875 C 20.382812 -72.8125 21.195312 -72.117188 22.28125 -71.609375 C 25.289062 -70.359375 26.796875 -68.316406 26.796875 -65.484375 C 26.796875 -63.898438 26.226562 -62.5 25.09375 -61.28125 C 23.96875 -60.070312 22.28125 -59.46875 20.03125 -59.46875 C 17.53125 -59.46875 15.398438 -60.507812 13.640625 -62.59375 C 11.890625 -64.6875 11.015625 -66.941406 11.015625 -69.359375 C 11.015625 -73.535156 12.117188 -76.957031 14.328125 -79.625 C 16.546875 -82.300781 19.40625 -84.304688 22.90625 -85.640625 C 26.414062 -86.972656 30.09375 -87.640625 33.9375 -87.640625 C 41.53125 -87.640625 47.640625 -85.632812 52.265625 -81.625 C 56.898438 -77.625 59.21875 -72.285156 59.21875 -65.609375 C 59.21875 -61.929688 58.363281 -58.734375 56.65625 -56.015625 C 54.945312 -53.304688 52.859375 -51.140625 50.390625 -49.515625 C 47.929688 -47.890625 45.53125 -46.785156 43.1875 -46.203125 L 43.1875 -45.203125 C 45.03125 -44.867188 47.054688 -44.15625 49.265625 -43.0625 C 51.472656 -41.976562 53.597656 -40.5 55.640625 -38.625 C 57.691406 -36.75 59.363281 -34.515625 60.65625 -31.921875 C 61.957031 -29.335938 62.609375 -26.414062 62.609375 -23.15625 C 62.609375 -17.988281 61.207031 -13.503906 58.40625 -9.703125 C 55.613281 -5.898438 51.898438 -3 47.265625 -1 C 42.628906 1 37.554688 2 32.046875 2 C 27.878906 2 24.039062 1.394531 20.53125 0.1875 C 17.03125 -1.019531 14.234375 -2.875 12.140625 -5.375 C 10.054688 -7.882812 9.015625 -11.0625 9.015625 -14.90625 Z M 9.015625 -14.90625 "></path></g></g></g><g fill="#a70b14" fill-opacity="1"><g transform="translate(832.681426, 468.260648)"><g><path d="M 19.28125 -42.8125 C 19.28125 -39.5625 19.363281 -36.078125 19.53125 -32.359375 C 19.695312 -28.648438 20.09375 -25 20.71875 -21.40625 C 21.34375 -17.820312 22.257812 -14.566406 23.46875 -11.640625 C 24.6875 -8.722656 26.335938 -6.382812 28.421875 -4.625 C 30.503906 -2.875 33.132812 -2 36.3125 -2 C 39.476562 -2 42.082031 -2.875 44.125 -4.625 C 46.175781 -6.382812 47.828125 -8.722656 49.078125 -11.640625 C 50.328125 -14.566406 51.242188 -17.820312 51.828125 -21.40625 C 52.410156 -25 52.804688 -28.648438 53.015625 -32.359375 C 53.234375 -36.078125 53.34375 -39.5625 53.34375 -42.8125 C 53.34375 -46.15625 53.234375 -49.679688 53.015625 -53.390625 C 52.804688 -57.109375 52.410156 -60.738281 51.828125 -64.28125 C 51.242188 -67.832031 50.328125 -71.066406 49.078125 -73.984375 C 47.828125 -76.910156 46.175781 -79.25 44.125 -81 C 42.082031 -82.757812 39.476562 -83.640625 36.3125 -83.640625 C 33.132812 -83.640625 30.503906 -82.757812 28.421875 -81 C 26.335938 -79.25 24.6875 -76.910156 23.46875 -73.984375 C 22.257812 -71.066406 21.34375 -67.832031 20.71875 -64.28125 C 20.09375 -60.738281 19.695312 -57.109375 19.53125 -53.390625 C 19.363281 -49.679688 19.28125 -46.15625 19.28125 -42.8125 Z M 6.015625 -42.8125 C 6.015625 -48.488281 6.722656 -53.976562 8.140625 -59.28125 C 9.554688 -64.582031 11.597656 -69.378906 14.265625 -73.671875 C 16.941406 -77.972656 20.132812 -81.375 23.84375 -83.875 C 27.5625 -86.382812 31.71875 -87.640625 36.3125 -87.640625 C 40.894531 -87.640625 45.046875 -86.382812 48.765625 -83.875 C 52.484375 -81.375 55.675781 -77.972656 58.34375 -73.671875 C 61.007812 -69.378906 63.050781 -64.582031 64.46875 -59.28125 C 65.894531 -53.976562 66.609375 -48.488281 66.609375 -42.8125 C 66.609375 -37.226562 65.894531 -31.765625 64.46875 -26.421875 C 63.050781 -21.078125 61.007812 -16.273438 58.34375 -12.015625 C 55.675781 -7.765625 52.484375 -4.363281 48.765625 -1.8125 C 45.046875 0.726562 40.894531 2 36.3125 2 C 31.71875 2 27.5625 0.726562 23.84375 -1.8125 C 20.132812 -4.363281 16.941406 -7.765625 14.265625 -12.015625 C 11.597656 -16.273438 9.554688 -21.078125 8.140625 -26.421875 C 6.722656 -31.765625 6.015625 -37.226562 6.015625 -42.8125 Z M 6.015625 -42.8125 "></path></g></g></g></g></g></svg> 