<?xml version="1.0" encoding="UTF-8"?> <svg xmlns="http://www.w3.org/2000/svg" xmlns:xlink="http://www.w3.org/1999/xlink" width="2000" zoomAndPan="magnify" viewBox="0 0 1500 1499.999933" height="2000" preserveAspectRatio="xMidYMid meet" version="1.0"><defs><clipPath id="a020d6b7f6"><path d="M 718.816406 368.457031 L 781.183594 368.457031 L 781.183594 430.824219 L 718.816406 430.824219 Z M 718.816406 368.457031 " clip-rule="nonzero"></path></clipPath><clipPath id="e97e78ce95"><path d="M 750 368.457031 C 732.777344 368.457031 718.816406 382.417969 718.816406 399.640625 C 718.816406 416.863281 732.777344 430.824219 750 430.824219 C 767.222656 430.824219 781.183594 416.863281 781.183594 399.640625 C 781.183594 382.417969 767.222656 368.457031 750 368.457031 Z M 750 368.457031 " clip-rule="nonzero"></path></clipPath><clipPath id="74fb013ac8"><path d="M 0.816406 0.457031 L 63.183594 0.457031 L 63.183594 62.824219 L 0.816406 62.824219 Z M 0.816406 0.457031 " clip-rule="nonzero"></path></clipPath><clipPath id="039654c53f"><path d="M 32 0.457031 C 14.777344 0.457031 0.816406 14.417969 0.816406 31.640625 C 0.816406 48.863281 14.777344 62.824219 32 62.824219 C 49.222656 62.824219 63.183594 48.863281 63.183594 31.640625 C 63.183594 14.417969 49.222656 0.457031 32 0.457031 Z M 32 0.457031 " clip-rule="nonzero"></path></clipPath><clipPath id="f948c41bf4"><rect x="0" width="64" y="0" height="63"></rect></clipPath><clipPath id="105d06ed2f"><path d="M 718.816406 1106.023438 L 781.183594 1106.023438 L 781.183594 1168.390625 L 718.816406 1168.390625 Z M 718.816406 1106.023438 " clip-rule="nonzero"></path></clipPath><clipPath id="92053507bc"><path d="M 750 1106.023438 C 732.777344 1106.023438 718.816406 1119.988281 718.816406 1137.207031 C 718.816406 1154.429688 732.777344 1168.390625 750 1168.390625 C 767.222656 1168.390625 781.183594 1154.429688 781.183594 1137.207031 C 781.183594 1119.988281 767.222656 1106.023438 750 1106.023438 Z M 750 1106.023438 " clip-rule="nonzero"></path></clipPath><clipPath id="4dfa709009"><path d="M 0.816406 0.0234375 L 63.183594 0.0234375 L 63.183594 62.390625 L 0.816406 62.390625 Z M 0.816406 0.0234375 " clip-rule="nonzero"></path></clipPath><clipPath id="0b96865f5f"><path d="M 32 0.0234375 C 14.777344 0.0234375 0.816406 13.988281 0.816406 31.207031 C 0.816406 48.429688 14.777344 62.390625 32 62.390625 C 49.222656 62.390625 63.183594 48.429688 63.183594 31.207031 C 63.183594 13.988281 49.222656 0.0234375 32 0.0234375 Z M 32 0.0234375 " clip-rule="nonzero"></path></clipPath><clipPath id="5352ca35a9"><rect x="0" width="64" y="0" height="63"></rect></clipPath></defs><path stroke-linecap="butt" transform="matrix(0, -0.75, 0.75, 0, 746.248457, 1396.236196)" fill="none" stroke-linejoin="miter" d="M 0.00242765 5.002058 L 1723.299451 5.002058 " stroke="#000000" stroke-width="10" stroke-opacity="1" stroke-miterlimit="4"></path><g clip-path="url(#a020d6b7f6)"><g clip-path="url(#e97e78ce95)"><g transform="matrix(1, 0, 0, 1, 718, 368)"><g clip-path="url(#f948c41bf4)"><g clip-path="url(#74fb013ac8)"><g clip-path="url(#039654c53f)"><path fill="#a30000" d="M 0.816406 0.457031 L 63.183594 0.457031 L 63.183594 62.824219 L 0.816406 62.824219 Z M 0.816406 0.457031 " fill-opacity="1" fill-rule="nonzero"></path></g></g></g></g></g></g><g clip-path="url(#105d06ed2f)"><g clip-path="url(#92053507bc)"><g transform="matrix(1, 0, 0, 1, 718, 1106)"><g clip-path="url(#5352ca35a9)"><g clip-path="url(#4dfa709009)"><g clip-path="url(#0b96865f5f)"><path fill="#a30000" d="M 0.816406 0.0234375 L 63.183594 0.0234375 L 63.183594 62.390625 L 0.816406 62.390625 Z M 0.816406 0.0234375 " fill-opacity="1" fill-rule="nonzero"></path></g></g></g></g></g></g></svg> 