<?xml version="1.0" encoding="UTF-8"?> <svg xmlns="http://www.w3.org/2000/svg" xmlns:xlink="http://www.w3.org/1999/xlink" width="3000" zoomAndPan="magnify" viewBox="0 0 2250 749.999995" height="1000" preserveAspectRatio="xMidYMid meet" version="1.0"><defs><g></g><clipPath id="e5fca40512"><rect x="0" width="2179" y="0" height="272"></rect></clipPath></defs><g transform="matrix(1, 0, 0, 1, 36, 287)"><g clip-path="url(#e5fca40512)"><g fill="#ae0403" fill-opacity="1"><g transform="translate(2.129284, 222.573185)"><g><path d="M 162.453125 -191.59375 L 147.609375 -191.59375 L 147.609375 -6.875 L 162.453125 -6.875 L 162.453125 0 L 95.375 0 L 95.375 -6.875 L 109.125 -6.875 L 109.125 -191.59375 L 57.71875 -191.59375 L 57.71875 -6.875 L 72.296875 -6.875 L 72.296875 0 L 5.21875 0 L 5.21875 -6.875 L 19.234375 -6.875 L 19.234375 -191.59375 L 5.21875 -191.59375 L 5.21875 -198.453125 L 162.453125 -198.453125 Z M 162.453125 -191.59375 "></path></g></g></g><g fill="#ae0403" fill-opacity="1"><g transform="translate(168.972011, 222.573185)"><g><path d="M 16.5 -6.875 L 16.5 -128.640625 C 16.5 -138.722656 18.515625 -148.066406 22.546875 -156.671875 C 26.578125 -165.285156 31.890625 -173.117188 38.484375 -180.171875 C 45.078125 -187.234375 52.539062 -193.375 60.875 -198.59375 C 69.21875 -203.820312 77.785156 -208.082031 86.578125 -211.375 C 92.265625 -213.570312 98.222656 -215.359375 104.453125 -216.734375 C 110.679688 -218.109375 116.820312 -218.796875 122.875 -218.796875 C 129.101562 -218.796875 133.453125 -217.097656 135.921875 -213.703125 C 138.398438 -210.316406 139.640625 -205.785156 139.640625 -200.109375 C 139.640625 -195.160156 138.082031 -189.203125 134.96875 -182.234375 C 131.851562 -175.273438 127.820312 -167.945312 122.875 -160.25 C 117.925781 -152.550781 112.332031 -144.71875 106.09375 -136.75 C 99.863281 -128.78125 93.632812 -121.222656 87.40625 -114.078125 C 81.175781 -106.929688 75.175781 -100.5625 69.40625 -94.96875 C 63.632812 -89.375 58.820312 -85.113281 54.96875 -82.1875 L 54.96875 -6.875 L 70.921875 -6.875 L 70.921875 0 L 3.84375 0 L 3.84375 -6.875 Z M 54.96875 -90.703125 C 60.101562 -96.203125 65.414062 -102.34375 70.90625 -109.125 C 76.40625 -115.90625 81.445312 -123.097656 86.03125 -130.703125 C 90.613281 -138.304688 94.367188 -146.09375 97.296875 -154.0625 C 100.234375 -162.039062 101.703125 -169.96875 101.703125 -177.84375 C 101.703125 -180.59375 101.472656 -183.476562 101.015625 -186.5 C 100.554688 -189.519531 99.6875 -192.265625 98.40625 -194.734375 C 97.125 -197.210938 95.335938 -199.273438 93.046875 -200.921875 C 90.753906 -202.578125 87.867188 -203.40625 84.390625 -203.40625 C 81.453125 -203.40625 78.5625 -201.707031 75.71875 -198.3125 C 72.882812 -194.925781 70.226562 -190.988281 67.75 -186.5 C 65.28125 -182.007812 63.175781 -177.519531 61.4375 -173.03125 C 59.695312 -168.539062 58.550781 -165.195312 58 -163 C 57.082031 -160.070312 56.347656 -157.09375 55.796875 -154.0625 C 55.242188 -151.039062 54.96875 -147.972656 54.96875 -144.859375 Z M 54.96875 -90.703125 "></path></g></g></g><g fill="#ae0403" fill-opacity="1"><g transform="translate(311.626627, 222.573185)"><g><path d="M 90.984375 -161.625 C 90.984375 -164.375 90.660156 -167.125 90.015625 -169.875 C 89.378906 -172.625 88.421875 -175.1875 87.140625 -177.5625 C 85.859375 -179.945312 84.113281 -181.875 81.90625 -183.34375 C 79.707031 -184.8125 77.144531 -185.546875 74.21875 -185.546875 C 70.914062 -185.546875 67.796875 -184.535156 64.859375 -182.515625 C 61.929688 -180.503906 59.414062 -177.894531 57.3125 -174.6875 C 55.207031 -171.476562 53.554688 -167.8125 52.359375 -163.6875 C 51.171875 -159.5625 50.578125 -155.484375 50.578125 -151.453125 L 50.578125 -38.75 C 50.578125 -33.988281 51.859375 -29.640625 54.421875 -25.703125 C 56.992188 -21.765625 60.476562 -19.796875 64.875 -19.796875 C 68.351562 -19.796875 71.695312 -20.617188 74.90625 -22.265625 C 78.113281 -23.910156 80.90625 -26.109375 83.28125 -28.859375 C 85.664062 -31.609375 87.546875 -34.816406 88.921875 -38.484375 C 90.296875 -42.148438 90.984375 -45.90625 90.984375 -49.75 Z M 131.9375 -152.28125 C 131.9375 -141.65625 130.882812 -130.382812 128.78125 -118.46875 C 126.675781 -106.5625 123.695312 -94.832031 119.84375 -83.28125 C 116 -71.738281 111.414062 -60.695312 106.09375 -50.15625 C 100.78125 -39.625 94.867188 -30.328125 88.359375 -22.265625 C 81.859375 -14.203125 74.941406 -7.785156 67.609375 -3.015625 C 60.285156 1.742188 52.679688 4.125 44.796875 4.125 C 38.203125 4.125 32.660156 2.15625 28.171875 -1.78125 C 23.679688 -5.726562 20.0625 -10.816406 17.3125 -17.046875 C 14.5625 -23.273438 12.59375 -30.191406 11.40625 -37.796875 C 10.21875 -45.398438 9.625 -52.867188 9.625 -60.203125 C 9.625 -71.378906 10.722656 -82.738281 12.921875 -94.28125 C 15.117188 -105.820312 18.140625 -116.953125 21.984375 -127.671875 C 25.835938 -138.398438 30.421875 -148.523438 35.734375 -158.046875 C 41.046875 -167.578125 46.816406 -175.867188 53.046875 -182.921875 C 59.273438 -189.984375 65.914062 -195.570312 72.96875 -199.6875 C 80.03125 -203.8125 87.132812 -205.875 94.28125 -205.875 C 100.144531 -205.875 105.410156 -204.316406 110.078125 -201.203125 C 114.753906 -198.085938 118.695312 -193.960938 121.90625 -188.828125 C 125.113281 -183.703125 127.585938 -177.976562 129.328125 -171.65625 C 131.066406 -165.332031 131.9375 -158.875 131.9375 -152.28125 Z M 131.9375 -152.28125 "></path></g></g></g><g fill="#ae0403" fill-opacity="1"><g transform="translate(453.181792, 222.573185)"><g><path d="M 138.265625 -198.453125 L 138.265625 -191.59375 C 132.953125 -187.007812 129.46875 -181.28125 127.8125 -174.40625 C 126.164062 -167.53125 125.34375 -160.429688 125.34375 -153.109375 L 125.34375 -151.734375 L 119.578125 -151.734375 L 119.578125 -153.109375 C 119.578125 -157.503906 118.382812 -161.945312 116 -166.4375 C 113.613281 -170.925781 110.585938 -175.046875 106.921875 -178.796875 C 103.253906 -182.554688 99.128906 -185.628906 94.546875 -188.015625 C 89.972656 -190.398438 85.394531 -191.59375 80.8125 -191.59375 L 57.71875 -191.59375 L 57.71875 -6.875 L 72.296875 -6.875 L 72.296875 0 L 5.21875 0 L 5.21875 -6.875 L 19.234375 -6.875 L 19.234375 -191.59375 L 5.21875 -191.59375 L 5.21875 -198.453125 Z M 138.265625 -198.453125 "></path></g></g></g><g fill="#ae0403" fill-opacity="1"><g transform="translate(592.263169, 222.573185)"><g><path d="M 16.5 -6.875 L 16.5 -128.640625 C 16.5 -138.722656 18.515625 -148.066406 22.546875 -156.671875 C 26.578125 -165.285156 31.890625 -173.117188 38.484375 -180.171875 C 45.078125 -187.234375 52.539062 -193.375 60.875 -198.59375 C 69.21875 -203.820312 77.785156 -208.082031 86.578125 -211.375 C 92.265625 -213.570312 98.222656 -215.359375 104.453125 -216.734375 C 110.679688 -218.109375 116.820312 -218.796875 122.875 -218.796875 C 129.101562 -218.796875 133.453125 -217.097656 135.921875 -213.703125 C 138.398438 -210.316406 139.640625 -205.785156 139.640625 -200.109375 C 139.640625 -195.160156 138.082031 -189.203125 134.96875 -182.234375 C 131.851562 -175.273438 127.820312 -167.945312 122.875 -160.25 C 117.925781 -152.550781 112.332031 -144.71875 106.09375 -136.75 C 99.863281 -128.78125 93.632812 -121.222656 87.40625 -114.078125 C 81.175781 -106.929688 75.175781 -100.5625 69.40625 -94.96875 C 63.632812 -89.375 58.820312 -85.113281 54.96875 -82.1875 L 54.96875 -6.875 L 70.921875 -6.875 L 70.921875 0 L 3.84375 0 L 3.84375 -6.875 Z M 54.96875 -90.703125 C 60.101562 -96.203125 65.414062 -102.34375 70.90625 -109.125 C 76.40625 -115.90625 81.445312 -123.097656 86.03125 -130.703125 C 90.613281 -138.304688 94.367188 -146.09375 97.296875 -154.0625 C 100.234375 -162.039062 101.703125 -169.96875 101.703125 -177.84375 C 101.703125 -180.59375 101.472656 -183.476562 101.015625 -186.5 C 100.554688 -189.519531 99.6875 -192.265625 98.40625 -194.734375 C 97.125 -197.210938 95.335938 -199.273438 93.046875 -200.921875 C 90.753906 -202.578125 87.867188 -203.40625 84.390625 -203.40625 C 81.453125 -203.40625 78.5625 -201.707031 75.71875 -198.3125 C 72.882812 -194.925781 70.226562 -190.988281 67.75 -186.5 C 65.28125 -182.007812 63.175781 -177.519531 61.4375 -173.03125 C 59.695312 -168.539062 58.550781 -165.195312 58 -163 C 57.082031 -160.070312 56.347656 -157.09375 55.796875 -154.0625 C 55.242188 -151.039062 54.96875 -147.972656 54.96875 -144.859375 Z M 54.96875 -90.703125 "></path></g></g></g><g fill="#ae0403" fill-opacity="1"><g transform="translate(734.917784, 222.573185)"><g><path d="M 145.6875 -198.453125 L 145.6875 -191.59375 L 131.390625 -191.59375 L 131.390625 -6.875 L 145.6875 -6.875 L 145.6875 0 L 78.609375 0 L 78.609375 -6.875 L 92.90625 -6.875 L 92.90625 -42.609375 C 88.875 -37.472656 83.832031 -32.25 77.78125 -26.9375 C 71.738281 -21.625 65.1875 -16.765625 58.125 -12.359375 C 51.070312 -7.960938 43.878906 -4.390625 36.546875 -1.640625 C 29.222656 1.097656 22.171875 2.46875 15.390625 2.46875 C 13.003906 2.46875 11.171875 1.828125 9.890625 0.546875 C 8.609375 -0.730469 7.644531 -2.332031 7 -4.25 C 6.363281 -6.175781 5.953125 -8.238281 5.765625 -10.4375 C 5.585938 -12.644531 5.5 -14.570312 5.5 -16.21875 C 5.5 -30.875 7.191406 -44.25 10.578125 -56.34375 C 13.972656 -68.4375 19.242188 -80.804688 26.390625 -93.453125 C 35.367188 -109.398438 45.535156 -124.335938 56.890625 -138.265625 C 68.253906 -152.191406 80.257812 -165.75 92.90625 -178.9375 L 92.90625 -191.59375 L 78.609375 -191.59375 L 78.609375 -198.453125 Z M 92.90625 -167.953125 C 86.488281 -160.429688 80.070312 -152.457031 73.65625 -144.03125 C 67.25 -135.601562 61.429688 -126.804688 56.203125 -117.640625 C 50.984375 -108.484375 46.769531 -99 43.5625 -89.1875 C 40.351562 -79.382812 38.75 -69.351562 38.75 -59.09375 C 38.75 -52.132812 40.859375 -46.679688 45.078125 -42.734375 C 49.296875 -38.796875 54.882812 -36.828125 61.84375 -36.828125 C 68.445312 -36.828125 74.082031 -38.382812 78.75 -41.5 C 83.425781 -44.613281 88.144531 -48.1875 92.90625 -52.21875 Z M 92.90625 -167.953125 "></path></g></g></g><g fill="#ae0403" fill-opacity="1"><g transform="translate(885.543521, 222.573185)"><g><path d="M 187.46875 -6.875 L 187.46875 -177.84375 L 187.1875 -177.84375 C 184.625 -171.613281 181.644531 -165.289062 178.25 -158.875 C 174.863281 -152.457031 171.109375 -146.222656 166.984375 -140.171875 C 162.859375 -134.128906 158.367188 -128.453125 153.515625 -123.140625 C 148.660156 -117.828125 143.578125 -113.0625 138.265625 -108.84375 L 138.265625 -6.875 L 152.28125 -6.875 L 152.28125 0 L 85.21875 0 L 85.21875 -6.875 L 99.78125 -6.875 L 99.78125 -143.484375 C 92.632812 -136.523438 86.265625 -129.742188 80.671875 -123.140625 C 75.085938 -116.546875 70.367188 -109.628906 66.515625 -102.390625 C 62.671875 -95.148438 59.691406 -87.40625 57.578125 -79.15625 C 55.472656 -70.914062 54.238281 -61.664062 53.875 -51.40625 C 53.507812 -42.0625 53.828125 -33.351562 54.828125 -25.28125 C 55.835938 -17.21875 58.175781 -8.789062 61.84375 0 L 0.546875 0 L 0.546875 -6.875 L 10.4375 -6.875 C 10.070312 -14.9375 11.125 -23.457031 13.59375 -32.4375 C 16.070312 -41.414062 19.554688 -50.484375 24.046875 -59.640625 C 28.535156 -68.804688 33.800781 -77.878906 39.84375 -86.859375 C 45.894531 -95.835938 52.3125 -104.3125 59.09375 -112.28125 C 65.875 -120.257812 72.742188 -127.546875 79.703125 -134.140625 C 86.671875 -140.734375 93.363281 -146.226562 99.78125 -150.625 L 99.78125 -191.59375 L 85.21875 -191.59375 L 85.21875 -198.453125 L 152.28125 -198.453125 L 152.28125 -191.59375 L 138.265625 -191.59375 L 138.265625 -118.203125 C 149.078125 -128.640625 158.46875 -139.8125 166.4375 -151.71875 C 174.40625 -163.632812 180.40625 -176.925781 184.4375 -191.59375 L 172.34375 -191.59375 L 172.34375 -198.453125 L 239.6875 -198.453125 L 239.6875 -191.59375 L 225.953125 -191.59375 L 225.953125 -6.875 L 239.6875 -6.875 L 239.6875 0 L 172.34375 0 L 172.34375 -6.875 Z M 187.46875 -6.875 "></path></g></g></g><g fill="#ae0403" fill-opacity="1"><g transform="translate(1130.72266, 222.573185)"><g><path d="M 187.46875 -6.875 L 187.46875 -177.84375 L 187.1875 -177.84375 C 184.625 -171.613281 181.644531 -165.289062 178.25 -158.875 C 174.863281 -152.457031 171.109375 -146.222656 166.984375 -140.171875 C 162.859375 -134.128906 158.367188 -128.453125 153.515625 -123.140625 C 148.660156 -117.828125 143.578125 -113.0625 138.265625 -108.84375 L 138.265625 -6.875 L 152.28125 -6.875 L 152.28125 0 L 85.21875 0 L 85.21875 -6.875 L 99.78125 -6.875 L 99.78125 -143.484375 C 92.632812 -136.523438 86.265625 -129.742188 80.671875 -123.140625 C 75.085938 -116.546875 70.367188 -109.628906 66.515625 -102.390625 C 62.671875 -95.148438 59.691406 -87.40625 57.578125 -79.15625 C 55.472656 -70.914062 54.238281 -61.664062 53.875 -51.40625 C 53.507812 -42.0625 53.828125 -33.351562 54.828125 -25.28125 C 55.835938 -17.21875 58.175781 -8.789062 61.84375 0 L 0.546875 0 L 0.546875 -6.875 L 10.4375 -6.875 C 10.070312 -14.9375 11.125 -23.457031 13.59375 -32.4375 C 16.070312 -41.414062 19.554688 -50.484375 24.046875 -59.640625 C 28.535156 -68.804688 33.800781 -77.878906 39.84375 -86.859375 C 45.894531 -95.835938 52.3125 -104.3125 59.09375 -112.28125 C 65.875 -120.257812 72.742188 -127.546875 79.703125 -134.140625 C 86.671875 -140.734375 93.363281 -146.226562 99.78125 -150.625 L 99.78125 -191.59375 L 85.21875 -191.59375 L 85.21875 -198.453125 L 152.28125 -198.453125 L 152.28125 -191.59375 L 138.265625 -191.59375 L 138.265625 -118.203125 C 149.078125 -128.640625 158.46875 -139.8125 166.4375 -151.71875 C 174.40625 -163.632812 180.40625 -176.925781 184.4375 -191.59375 L 172.34375 -191.59375 L 172.34375 -198.453125 L 239.6875 -198.453125 L 239.6875 -191.59375 L 225.953125 -191.59375 L 225.953125 -6.875 L 239.6875 -6.875 L 239.6875 0 L 172.34375 0 L 172.34375 -6.875 Z M 187.46875 -6.875 "></path></g></g></g><g fill="#ae0403" fill-opacity="1"><g transform="translate(1375.901673, 222.573185)"><g><path d="M 145.6875 -198.453125 L 145.6875 -191.59375 L 131.390625 -191.59375 L 131.390625 -6.875 L 145.6875 -6.875 L 145.6875 0 L 78.609375 0 L 78.609375 -6.875 L 92.90625 -6.875 L 92.90625 -42.609375 C 88.875 -37.472656 83.832031 -32.25 77.78125 -26.9375 C 71.738281 -21.625 65.1875 -16.765625 58.125 -12.359375 C 51.070312 -7.960938 43.878906 -4.390625 36.546875 -1.640625 C 29.222656 1.097656 22.171875 2.46875 15.390625 2.46875 C 13.003906 2.46875 11.171875 1.828125 9.890625 0.546875 C 8.609375 -0.730469 7.644531 -2.332031 7 -4.25 C 6.363281 -6.175781 5.953125 -8.238281 5.765625 -10.4375 C 5.585938 -12.644531 5.5 -14.570312 5.5 -16.21875 C 5.5 -30.875 7.191406 -44.25 10.578125 -56.34375 C 13.972656 -68.4375 19.242188 -80.804688 26.390625 -93.453125 C 35.367188 -109.398438 45.535156 -124.335938 56.890625 -138.265625 C 68.253906 -152.191406 80.257812 -165.75 92.90625 -178.9375 L 92.90625 -191.59375 L 78.609375 -191.59375 L 78.609375 -198.453125 Z M 92.90625 -167.953125 C 86.488281 -160.429688 80.070312 -152.457031 73.65625 -144.03125 C 67.25 -135.601562 61.429688 -126.804688 56.203125 -117.640625 C 50.984375 -108.484375 46.769531 -99 43.5625 -89.1875 C 40.351562 -79.382812 38.75 -69.351562 38.75 -59.09375 C 38.75 -52.132812 40.859375 -46.679688 45.078125 -42.734375 C 49.296875 -38.796875 54.882812 -36.828125 61.84375 -36.828125 C 68.445312 -36.828125 74.082031 -38.382812 78.75 -41.5 C 83.425781 -44.613281 88.144531 -48.1875 92.90625 -52.21875 Z M 92.90625 -167.953125 "></path></g></g></g><g fill="#ae0403" fill-opacity="1"><g transform="translate(1526.530042, 222.573185)"><g></g></g></g><g fill="#ae0403" fill-opacity="1"><g transform="translate(1602.942365, 222.573185)"><g></g></g></g><g fill="#ae0403" fill-opacity="1"><g transform="translate(1679.368121, 222.573185)"><g><path d="M 152.828125 -198.453125 L 152.828125 -191.59375 L 139.09375 -191.59375 L 139.09375 -6.875 L 164.65625 -6.875 L 164.65625 0 C 162.082031 2.382812 160.109375 5.453125 158.734375 9.203125 C 157.359375 12.960938 156.347656 16.992188 155.703125 21.296875 C 155.066406 25.609375 154.703125 29.867188 154.609375 34.078125 C 154.523438 38.296875 154.484375 42.054688 154.484375 45.359375 L 148.703125 45.359375 C 148.703125 39.671875 147.832031 34.125 146.09375 28.71875 C 144.351562 23.3125 141.832031 18.5 138.53125 14.28125 C 135.238281 10.070312 131.207031 6.640625 126.4375 3.984375 C 121.675781 1.328125 116.179688 0 109.953125 0 L 56.34375 0 C 50.476562 0 45.023438 1.234375 39.984375 3.703125 C 34.953125 6.179688 30.601562 9.484375 26.9375 13.609375 C 23.269531 17.734375 20.335938 22.40625 18.140625 27.625 C 15.941406 32.84375 14.84375 38.296875 14.84375 43.984375 L 14.84375 45.359375 L 9.078125 45.359375 C 9.078125 42.054688 9.03125 38.296875 8.9375 34.078125 C 8.84375 29.867188 8.472656 25.609375 7.828125 21.296875 C 7.191406 16.992188 6.1875 12.960938 4.8125 9.203125 C 3.4375 5.453125 1.464844 2.382812 -1.09375 0 L -1.09375 -6.875 L 24.46875 -6.875 C 24.46875 -22.8125 26.484375 -38.335938 30.515625 -53.453125 C 34.546875 -68.578125 40.039062 -83.191406 47 -97.296875 C 53.96875 -111.410156 62.03125 -124.925781 71.1875 -137.84375 C 80.351562 -150.769531 90.160156 -163.003906 100.609375 -174.546875 L 100.609375 -191.59375 L 85.765625 -191.59375 L 85.765625 -198.453125 Z M 100.609375 -161.359375 C 91.253906 -149.628906 82.5 -137.898438 74.34375 -126.171875 C 66.195312 -114.441406 59.144531 -102.34375 53.1875 -89.875 C 47.226562 -77.414062 42.550781 -64.359375 39.15625 -50.703125 C 35.769531 -37.054688 34.078125 -22.445312 34.078125 -6.875 L 100.609375 -6.875 Z M 100.609375 -161.359375 "></path></g></g></g><g fill="#ae0403" fill-opacity="1"><g transform="translate(1842.36273, 222.573185)"><g><path d="M 162.453125 -198.453125 L 162.453125 -191.59375 L 147.609375 -191.59375 L 147.609375 -6.875 L 162.453125 -6.875 L 162.453125 0 L 95.375 0 L 95.375 -6.875 L 109.125 -6.875 L 109.125 -139.640625 C 106.007812 -141.472656 102.160156 -142.847656 97.578125 -143.765625 C 92.992188 -144.679688 88.273438 -145.09375 83.421875 -145 C 78.566406 -144.90625 73.800781 -144.398438 69.125 -143.484375 C 64.457031 -142.566406 60.65625 -141.285156 57.71875 -139.640625 L 57.71875 -6.875 L 72.296875 -6.875 L 72.296875 0 L 5.21875 0 L 5.21875 -6.875 L 19.234375 -6.875 L 19.234375 -191.59375 L 5.21875 -191.59375 L 5.21875 -198.453125 L 72.296875 -198.453125 L 72.296875 -191.59375 L 57.71875 -191.59375 L 57.71875 -147.875 C 60.46875 -149.707031 64.175781 -151.035156 68.84375 -151.859375 C 73.519531 -152.691406 78.378906 -153.109375 83.421875 -153.109375 C 88.460938 -153.109375 93.316406 -152.648438 97.984375 -151.734375 C 102.660156 -150.816406 106.375 -149.53125 109.125 -147.875 L 109.125 -191.59375 L 95.375 -191.59375 L 95.375 -198.453125 Z M 162.453125 -198.453125 "></path></g></g></g><g fill="#ae0403" fill-opacity="1"><g transform="translate(2009.205457, 222.573185)"><g><path d="M 107.203125 -6.875 L 107.203125 -105.828125 C 90.335938 -94.460938 78.332031 -81.492188 71.1875 -66.921875 C 64.039062 -52.359375 60.46875 -34.90625 60.46875 -14.5625 C 60.46875 -9.988281 60.925781 -5.132812 61.84375 0 L 0.546875 0 L 0.546875 -6.875 L 12.09375 -6.875 C 12.820312 -13.65625 14.878906 -20.570312 18.265625 -27.625 C 21.660156 -34.675781 25.921875 -41.640625 31.046875 -48.515625 C 36.179688 -55.390625 41.910156 -62.03125 48.234375 -68.4375 C 54.554688 -74.851562 61.109375 -80.8125 67.890625 -86.3125 C 74.671875 -91.8125 81.453125 -96.757812 88.234375 -101.15625 C 95.015625 -105.550781 101.335938 -109.125 107.203125 -111.875 L 107.203125 -112.703125 C 103.347656 -114.898438 98.625 -117.921875 93.03125 -121.765625 C 87.445312 -125.617188 81.492188 -129.972656 75.171875 -134.828125 C 68.847656 -139.679688 62.570312 -144.898438 56.34375 -150.484375 C 50.113281 -156.078125 44.523438 -161.710938 39.578125 -167.390625 C 34.628906 -173.078125 30.597656 -178.664062 27.484375 -184.15625 C 24.367188 -189.65625 22.8125 -194.789062 22.8125 -199.5625 C 22.8125 -205.425781 24.046875 -209.957031 26.515625 -213.15625 C 28.992188 -216.363281 33.347656 -217.96875 39.578125 -217.96875 C 45.992188 -217.96875 52.363281 -217.234375 58.6875 -215.765625 C 65.007812 -214.304688 71.101562 -212.476562 76.96875 -210.28125 C 85.582031 -206.976562 94.007812 -202.710938 102.25 -197.484375 C 110.5 -192.265625 117.828125 -186.21875 124.234375 -179.34375 C 130.648438 -172.476562 135.828125 -164.738281 139.765625 -156.125 C 143.710938 -147.507812 145.6875 -138.253906 145.6875 -128.359375 L 145.6875 -6.875 L 160.25 -6.875 L 160.25 0 L 93.1875 0 L 93.1875 -6.875 Z M 107.203125 -148.4375 C 107.203125 -155.757812 106.285156 -162.722656 104.453125 -169.328125 C 103.722656 -172.078125 102.578125 -175.328125 101.015625 -179.078125 C 99.460938 -182.835938 97.492188 -186.457031 95.109375 -189.9375 C 92.722656 -193.414062 90.0625 -196.390625 87.125 -198.859375 C 84.195312 -201.335938 81.085938 -202.578125 77.796875 -202.578125 C 70.828125 -202.578125 66.195312 -200.515625 63.90625 -196.390625 C 61.613281 -192.273438 60.46875 -187.191406 60.46875 -181.140625 C 60.46875 -175.097656 62.070312 -169.144531 65.28125 -163.28125 C 68.488281 -157.414062 72.472656 -151.78125 77.234375 -146.375 C 82.003906 -140.96875 87.09375 -135.972656 92.5 -131.390625 C 97.90625 -126.804688 102.804688 -122.773438 107.203125 -119.296875 Z M 107.203125 -148.4375 "></path></g></g></g></g></g></svg> 