<?xml version="1.0" encoding="UTF-8"?> <svg xmlns="http://www.w3.org/2000/svg" xmlns:xlink="http://www.w3.org/1999/xlink" width="2000" zoomAndPan="magnify" viewBox="0 0 1500 1499.999933" height="2000" preserveAspectRatio="xMidYMid meet" version="1.0"><defs><clipPath id="4a645e344f"><path d="M 313.847656 62.242188 L 1186.097656 62.242188 L 1186.097656 1437.742188 L 313.847656 1437.742188 Z M 313.847656 62.242188 " clip-rule="nonzero"></path></clipPath></defs><g clip-path="url(#4a645e344f)"><path fill="#a30000" d="M 749.996094 1437.457031 C 637.746094 1437.457031 534.585938 1385.410156 479.558594 1301.378906 L 375.304688 1301.378906 L 375.304688 1267.515625 L 313.847656 1267.515625 L 313.847656 232.484375 L 375.304688 232.484375 L 375.304688 198.621094 L 479.558594 198.621094 C 534.585938 114.433594 637.746094 62.539062 749.996094 62.539062 C 862.246094 62.539062 965.40625 114.589844 1020.433594 198.621094 L 1124.6875 198.621094 L 1124.6875 232.484375 L 1186.144531 232.484375 L 1186.144531 1267.671875 L 1124.6875 1267.671875 L 1124.6875 1301.535156 L 1020.433594 1301.535156 C 965.40625 1385.566406 862.246094 1437.457031 749.996094 1437.457031 Z M 393.648438 1283.191406 L 489.59375 1283.191406 L 492.257812 1287.425781 C 543.210938 1368.792969 641.976562 1419.273438 749.996094 1419.273438 C 858.015625 1419.273438 956.625 1368.789062 1007.734375 1287.425781 L 1010.398438 1283.191406 L 1106.347656 1283.191406 L 1106.347656 1249.328125 L 1167.800781 1249.328125 L 1167.800781 250.671875 L 1106.347656 250.671875 L 1106.347656 216.808594 L 1010.398438 216.808594 L 1007.734375 212.574219 C 956.78125 131.207031 858.015625 80.726562 749.996094 80.726562 C 641.976562 80.726562 543.367188 131.207031 492.257812 212.574219 L 489.59375 216.808594 L 393.648438 216.808594 L 393.648438 250.671875 L 332.191406 250.671875 L 332.191406 1249.328125 L 393.648438 1249.328125 Z M 393.648438 1283.191406 " fill-opacity="1" fill-rule="nonzero"></path></g><path fill="#a30000" d="M 749.996094 1404.847656 C 643.703125 1404.847656 548.226562 1354.679688 500.878906 1273.941406 L 497.902344 1268.769531 L 407.914062 1268.769531 L 407.914062 1234.90625 L 346.457031 1234.90625 L 346.457031 265.09375 L 407.914062 265.09375 L 407.914062 231.074219 L 497.902344 231.074219 L 500.878906 225.902344 C 548.226562 145.160156 643.703125 94.992188 749.996094 94.992188 C 856.289062 94.992188 951.765625 145.160156 999.113281 225.902344 L 1002.089844 231.074219 L 1092.078125 231.074219 L 1092.078125 264.9375 L 1153.535156 264.9375 L 1153.535156 1234.90625 L 1092.078125 1234.90625 L 1092.078125 1268.925781 L 1002.089844 1268.925781 L 999.113281 1274.097656 C 951.765625 1354.839844 856.289062 1404.847656 749.996094 1404.847656 Z M 413.242188 1263.59375 L 500.878906 1263.59375 L 505.425781 1271.277344 C 551.832031 1350.449219 645.585938 1399.675781 749.996094 1399.675781 C 854.410156 1399.675781 948.160156 1350.449219 994.566406 1271.277344 L 999.113281 1263.59375 L 1086.75 1263.59375 L 1086.75 1229.730469 L 1148.207031 1229.730469 L 1148.207031 270.269531 L 1086.75 270.269531 L 1086.75 236.40625 L 999.113281 236.40625 L 994.566406 228.722656 C 948.160156 149.550781 854.410156 100.324219 749.996094 100.324219 C 645.585938 100.324219 551.832031 149.550781 505.425781 228.722656 L 500.878906 236.40625 L 413.242188 236.40625 L 413.242188 270.269531 L 351.789062 270.269531 L 351.789062 1229.730469 L 413.242188 1229.730469 Z M 413.242188 1263.59375 " fill-opacity="1" fill-rule="nonzero"></path></svg> 