<?xml version="1.0" encoding="UTF-8"?> <svg xmlns="http://www.w3.org/2000/svg" xmlns:xlink="http://www.w3.org/1999/xlink" width="2000" zoomAndPan="magnify" viewBox="0 0 1500 1499.999933" height="2000" preserveAspectRatio="xMidYMid meet" version="1.0"><defs><g></g><clipPath id="b8ae7b90cc"><rect x="0" width="981" y="0" height="384"></rect></clipPath><clipPath id="2c6310fd81"><rect x="0" width="899" y="0" height="330"></rect></clipPath></defs><g transform="matrix(1, 0, 0, 1, 232, 406)"><g clip-path="url(#b8ae7b90cc)"><g fill="#ae0403" fill-opacity="1"><g transform="translate(4.383891, 308.250099)"><g><path d="M 84.890625 -10.5 L 84.890625 -226.921875 C 84.890625 -230.847656 83.628906 -234.070312 81.109375 -236.59375 C 78.585938 -239.113281 75.570312 -241.003906 72.0625 -242.265625 C 68.5625 -243.523438 64.847656 -244.296875 60.921875 -244.578125 C 57.003906 -244.859375 53.644531 -244.859375 50.84375 -244.578125 L 50.84375 -253.828125 C 57.851562 -255.222656 65.066406 -257.53125 72.484375 -260.75 C 79.910156 -263.976562 87.054688 -267.898438 93.921875 -272.515625 C 100.785156 -277.140625 107.296875 -282.113281 113.453125 -287.4375 C 119.617188 -292.757812 124.804688 -298.222656 129.015625 -303.828125 L 137.421875 -303.828125 L 137.421875 -10.5 L 160.953125 -10.5 L 160.953125 0 L 58.40625 0 L 58.40625 -10.5 Z M 84.890625 -10.5 "></path></g></g></g><g fill="#ae0403" fill-opacity="1"><g transform="translate(218.688242, 308.250099)"><g><path d="M 130.265625 -303.40625 C 130.265625 -283.519531 127.394531 -264.398438 121.65625 -246.046875 C 115.914062 -227.691406 108.492188 -209.828125 99.390625 -192.453125 C 90.285156 -175.085938 80.128906 -158.210938 68.921875 -141.828125 C 57.710938 -125.441406 46.785156 -109.539062 36.140625 -94.125 L 122.28125 -94.125 L 122.28125 -191.625 C 126.207031 -192.1875 130.550781 -193.023438 135.3125 -194.140625 C 140.070312 -195.265625 144.90625 -196.523438 149.8125 -197.921875 C 154.71875 -199.328125 159.269531 -201.078125 163.46875 -203.171875 C 167.675781 -205.273438 171.316406 -207.59375 174.390625 -210.125 L 174.390625 -94.125 L 208.4375 -94.125 L 208.4375 -83.625 L 174.8125 -83.625 L 174.8125 -10.5 L 198.765625 -10.5 L 198.765625 0 L 91.609375 0 L 91.609375 -10.5 L 122.28125 -10.5 L 122.28125 -83.625 L 19.328125 -83.625 L 19.328125 -98.75 C 27.171875 -112.195312 34.242188 -126.972656 40.546875 -143.078125 C 46.859375 -159.191406 52.113281 -175.722656 56.3125 -192.671875 C 60.507812 -209.628906 63.800781 -226.722656 66.1875 -243.953125 C 68.570312 -261.179688 70.039062 -277.5 70.59375 -292.90625 L 51.265625 -292.90625 L 51.265625 -303.40625 Z M 130.265625 -303.40625 "></path></g></g></g><g fill="#ae0403" fill-opacity="1"><g transform="translate(432.992593, 308.250099)"><g><path d="M 34.03125 0 L 46.640625 -50.421875 L 95.390625 -50.421875 L 82.78125 0 Z M 34.03125 -176.5 L 46.640625 -226.921875 L 95.390625 -226.921875 L 82.78125 -176.5 Z M 34.03125 -176.5 "></path></g></g></g><g fill="#ae0403" fill-opacity="1"><g transform="translate(549.809515, 308.250099)"><g><path d="M 143.71875 -147.078125 C 143.71875 -156.609375 142.738281 -167.882812 140.78125 -180.90625 C 138.820312 -193.9375 136.160156 -207.316406 132.796875 -221.046875 C 129.429688 -234.773438 125.578125 -248.007812 121.234375 -260.75 C 116.890625 -273.5 112.195312 -284.21875 107.15625 -292.90625 C 100.4375 -283.65625 94.765625 -272.585938 90.140625 -259.703125 C 85.515625 -246.816406 81.726562 -233.648438 78.78125 -220.203125 C 75.84375 -206.753906 73.742188 -193.585938 72.484375 -180.703125 C 71.222656 -167.816406 70.59375 -156.609375 70.59375 -147.078125 C 70.59375 -137.554688 71.289062 -126.28125 72.6875 -113.25 C 74.09375 -100.226562 76.335938 -87.203125 79.421875 -74.171875 C 82.503906 -61.140625 86.285156 -48.953125 90.765625 -37.609375 C 95.253906 -26.265625 100.71875 -17.648438 107.15625 -11.765625 C 113.601562 -18.210938 119.132812 -27.109375 123.75 -38.453125 C 128.375 -49.796875 132.15625 -61.910156 135.09375 -74.796875 C 138.039062 -87.679688 140.210938 -100.566406 141.609375 -113.453125 C 143.015625 -126.347656 143.71875 -137.554688 143.71875 -147.078125 Z M 201.71875 -147.078125 C 201.71875 -130.546875 198.492188 -114.992188 192.046875 -100.421875 C 185.597656 -85.859375 177.613281 -72.273438 168.09375 -59.671875 C 158.570312 -47.066406 148.347656 -35.441406 137.421875 -24.796875 C 126.492188 -14.148438 116.40625 -4.480469 107.15625 4.203125 C 97.351562 -5.042969 86.914062 -15.0625 75.84375 -25.84375 C 64.78125 -36.632812 54.554688 -48.257812 45.171875 -60.71875 C 35.785156 -73.1875 28.007812 -86.5625 21.84375 -100.84375 C 15.6875 -115.132812 12.609375 -130.546875 12.609375 -147.078125 C 12.609375 -163.046875 15.269531 -178.242188 20.59375 -192.671875 C 25.914062 -207.097656 32.914062 -220.828125 41.59375 -233.859375 C 50.28125 -246.890625 60.296875 -259.21875 71.640625 -270.84375 C 82.992188 -282.46875 94.832031 -293.320312 107.15625 -303.40625 C 117.519531 -293.601562 128.304688 -282.957031 139.515625 -271.46875 C 150.722656 -259.976562 160.945312 -247.648438 170.1875 -234.484375 C 179.4375 -221.316406 187.003906 -207.445312 192.890625 -192.875 C 198.773438 -178.3125 201.71875 -163.046875 201.71875 -147.078125 Z M 201.71875 -147.078125 "></path></g></g></g><g fill="#ae0403" fill-opacity="1"><g transform="translate(764.113866, 308.250099)"><g><path d="M 143.71875 -147.078125 C 143.71875 -156.609375 142.738281 -167.882812 140.78125 -180.90625 C 138.820312 -193.9375 136.160156 -207.316406 132.796875 -221.046875 C 129.429688 -234.773438 125.578125 -248.007812 121.234375 -260.75 C 116.890625 -273.5 112.195312 -284.21875 107.15625 -292.90625 C 100.4375 -283.65625 94.765625 -272.585938 90.140625 -259.703125 C 85.515625 -246.816406 81.726562 -233.648438 78.78125 -220.203125 C 75.84375 -206.753906 73.742188 -193.585938 72.484375 -180.703125 C 71.222656 -167.816406 70.59375 -156.609375 70.59375 -147.078125 C 70.59375 -137.554688 71.289062 -126.28125 72.6875 -113.25 C 74.09375 -100.226562 76.335938 -87.203125 79.421875 -74.171875 C 82.503906 -61.140625 86.285156 -48.953125 90.765625 -37.609375 C 95.253906 -26.265625 100.71875 -17.648438 107.15625 -11.765625 C 113.601562 -18.210938 119.132812 -27.109375 123.75 -38.453125 C 128.375 -49.796875 132.15625 -61.910156 135.09375 -74.796875 C 138.039062 -87.679688 140.210938 -100.566406 141.609375 -113.453125 C 143.015625 -126.347656 143.71875 -137.554688 143.71875 -147.078125 Z M 201.71875 -147.078125 C 201.71875 -130.546875 198.492188 -114.992188 192.046875 -100.421875 C 185.597656 -85.859375 177.613281 -72.273438 168.09375 -59.671875 C 158.570312 -47.066406 148.347656 -35.441406 137.421875 -24.796875 C 126.492188 -14.148438 116.40625 -4.480469 107.15625 4.203125 C 97.351562 -5.042969 86.914062 -15.0625 75.84375 -25.84375 C 64.78125 -36.632812 54.554688 -48.257812 45.171875 -60.71875 C 35.785156 -73.1875 28.007812 -86.5625 21.84375 -100.84375 C 15.6875 -115.132812 12.609375 -130.546875 12.609375 -147.078125 C 12.609375 -163.046875 15.269531 -178.242188 20.59375 -192.671875 C 25.914062 -207.097656 32.914062 -220.828125 41.59375 -233.859375 C 50.28125 -246.890625 60.296875 -259.21875 71.640625 -270.84375 C 82.992188 -282.46875 94.832031 -293.320312 107.15625 -303.40625 C 117.519531 -293.601562 128.304688 -282.957031 139.515625 -271.46875 C 150.722656 -259.976562 160.945312 -247.648438 170.1875 -234.484375 C 179.4375 -221.316406 187.003906 -207.445312 192.890625 -192.875 C 198.773438 -178.3125 201.71875 -163.046875 201.71875 -147.078125 Z M 201.71875 -147.078125 "></path></g></g></g></g></g><g transform="matrix(1, 0, 0, 1, 301, 825)"><g clip-path="url(#2c6310fd81)"><g fill="#a70b14" fill-opacity="1"><g transform="translate(231.773474, 118.181793)"><g><path d="M 7.765625 0 L 7.765625 -4 L 16.78125 -4 C 19.03125 -4 20.15625 -5.128906 20.15625 -7.390625 L 20.15625 -81.75 C 20.15625 -84.007812 19.03125 -85.140625 16.78125 -85.140625 L 7.765625 -85.140625 L 7.765625 -89.140625 L 75.375 -89.140625 L 76.875 -55.59375 L 73.75 -55.59375 C 73.75 -55.59375 73.664062 -56.40625 73.5 -58.03125 C 73.332031 -59.65625 72.992188 -61.71875 72.484375 -64.21875 C 71.984375 -66.726562 71.273438 -69.273438 70.359375 -71.859375 C 69.441406 -74.453125 68.273438 -76.707031 66.859375 -78.625 C 65.023438 -81.132812 62.8125 -82.847656 60.21875 -83.765625 C 57.632812 -84.679688 55.257812 -85.140625 53.09375 -85.140625 L 35.0625 -85.140625 C 32.800781 -85.140625 31.671875 -84.007812 31.671875 -81.75 L 31.671875 -48.578125 L 54.09375 -48.578125 C 59.425781 -48.578125 64.222656 -47.550781 68.484375 -45.5 C 72.742188 -43.457031 76.125 -40.617188 78.625 -36.984375 C 81.132812 -33.359375 82.390625 -29.128906 82.390625 -24.296875 C 82.390625 -19.453125 81.132812 -15.210938 78.625 -11.578125 C 76.125 -7.953125 72.742188 -5.113281 68.484375 -3.0625 C 64.222656 -1.019531 59.425781 0 54.09375 0 Z M 31.671875 -7.390625 C 31.671875 -5.128906 32.800781 -4 35.0625 -4 L 51.953125 -4 C 57.710938 -4 62.007812 -5.816406 64.84375 -9.453125 C 67.6875 -13.085938 69.109375 -18.035156 69.109375 -24.296875 C 69.109375 -30.546875 67.6875 -35.488281 64.84375 -39.125 C 62.007812 -42.757812 57.710938 -44.578125 51.953125 -44.578125 L 31.671875 -44.578125 Z M 31.671875 -7.390625 "></path></g></g></g><g fill="#a70b14" fill-opacity="1"><g transform="translate(320.394045, 118.181793)"><g><path d="M 16.28125 -12.890625 C 16.28125 -9.972656 16.71875 -7.800781 17.59375 -6.375 C 18.46875 -4.957031 19.53125 -4.039062 20.78125 -3.625 C 22.03125 -3.207031 23.113281 -3 24.03125 -3 C 26.875 -3 29.234375 -3.894531 31.109375 -5.6875 C 32.992188 -7.488281 34.519531 -9.597656 35.6875 -12.015625 C 36.851562 -14.441406 37.8125 -16.695312 38.5625 -18.78125 L 38.5625 -30.671875 L 27.671875 -28.296875 C 23.578125 -27.460938 20.65625 -25.789062 18.90625 -23.28125 C 17.15625 -20.78125 16.28125 -17.316406 16.28125 -12.890625 Z M 5.765625 -13.265625 C 5.765625 -16.691406 6.453125 -19.488281 7.828125 -21.65625 C 9.203125 -23.832031 10.992188 -25.546875 13.203125 -26.796875 C 15.421875 -28.046875 17.757812 -28.984375 20.21875 -29.609375 C 22.675781 -30.234375 24.953125 -30.753906 27.046875 -31.171875 L 38.5625 -33.296875 L 38.5625 -43.953125 C 38.5625 -48.367188 37.453125 -51.410156 35.234375 -53.078125 C 33.023438 -54.753906 30.253906 -55.59375 26.921875 -55.59375 C 24.078125 -55.59375 21.488281 -54.878906 19.15625 -53.453125 C 16.820312 -52.035156 15.65625 -50.367188 15.65625 -48.453125 C 15.65625 -48.117188 15.675781 -47.804688 15.71875 -47.515625 C 15.757812 -47.222656 15.863281 -46.910156 16.03125 -46.578125 C 16.363281 -45.910156 16.988281 -45.492188 17.90625 -45.328125 C 19.320312 -44.992188 20.445312 -44.445312 21.28125 -43.6875 C 22.113281 -42.9375 22.53125 -41.851562 22.53125 -40.4375 C 22.53125 -38.601562 21.96875 -37.332031 20.84375 -36.625 C 19.71875 -35.914062 18.445312 -35.5625 17.03125 -35.5625 C 15.445312 -35.5625 13.835938 -36.226562 12.203125 -37.5625 C 10.578125 -38.894531 9.765625 -40.984375 9.765625 -43.828125 C 9.765625 -47.078125 10.660156 -49.785156 12.453125 -51.953125 C 14.253906 -54.128906 16.488281 -55.78125 19.15625 -56.90625 C 21.820312 -58.03125 24.535156 -58.59375 27.296875 -58.59375 C 30.460938 -58.59375 33.609375 -58.03125 36.734375 -56.90625 C 39.867188 -55.78125 42.457031 -53.921875 44.5 -51.328125 C 46.550781 -48.742188 47.578125 -45.238281 47.578125 -40.8125 L 47.578125 -10.015625 C 47.578125 -5.835938 48.867188 -3.75 51.453125 -3.75 C 52.960938 -3.75 54.15625 -4.375 55.03125 -5.625 C 55.90625 -6.882812 56.507812 -8.472656 56.84375 -10.390625 C 57.175781 -12.304688 57.34375 -14.269531 57.34375 -16.28125 L 59.59375 -16.28125 C 59.59375 -13.601562 59.34375 -10.882812 58.84375 -8.125 C 58.34375 -5.375 57.382812 -3.082031 55.96875 -1.25 C 54.550781 0.582031 52.421875 1.5 49.578125 1.5 C 45.910156 1.5 43.195312 0.394531 41.4375 -1.8125 C 39.6875 -4.03125 38.726562 -6.929688 38.5625 -10.515625 L 37.9375 -10.765625 C 37.351562 -9.265625 36.328125 -7.550781 34.859375 -5.625 C 33.398438 -3.707031 31.609375 -2.039062 29.484375 -0.625 C 27.359375 0.789062 24.875 1.5 22.03125 1.5 C 19.695312 1.5 17.273438 1.125 14.765625 0.375 C 12.265625 -0.371094 10.140625 -1.8125 8.390625 -3.9375 C 6.640625 -6.070312 5.765625 -9.179688 5.765625 -13.265625 Z M 5.765625 -13.265625 "></path></g></g></g><g fill="#a70b14" fill-opacity="1"><g transform="translate(382.979196, 118.181793)"><g><path d="M 4.75 0 L 4.75 -3 L 10.015625 -3 C 11.847656 -3 12.765625 -3.921875 12.765625 -5.765625 L 12.765625 -51.328125 C 12.765625 -53.171875 11.847656 -54.09375 10.015625 -54.09375 L 4.75 -54.09375 L 4.75 -57.09375 L 29.796875 -57.09375 L 29.796875 -54.09375 L 24.546875 -54.09375 C 22.703125 -54.09375 21.78125 -53.171875 21.78125 -51.328125 L 21.78125 -31.546875 L 46.828125 -31.546875 L 46.828125 -51.328125 C 46.828125 -53.171875 45.910156 -54.09375 44.078125 -54.09375 L 38.8125 -54.09375 L 38.8125 -57.09375 L 63.859375 -57.09375 L 63.859375 -54.09375 L 58.59375 -54.09375 C 56.757812 -54.09375 55.84375 -53.171875 55.84375 -51.328125 L 55.84375 -5.765625 C 55.84375 -3.921875 56.757812 -3 58.59375 -3 L 63.859375 -3 L 63.859375 0 L 38.8125 0 L 38.8125 -3 L 44.078125 -3 C 45.910156 -3 46.828125 -3.921875 46.828125 -5.765625 L 46.828125 -28.046875 L 21.78125 -28.046875 L 21.78125 -5.765625 C 21.78125 -3.921875 22.703125 -3 24.546875 -3 L 29.796875 -3 L 29.796875 0 Z M 4.75 0 "></path></g></g></g><g fill="#a70b14" fill-opacity="1"><g transform="translate(451.572521, 118.181793)"><g><path d="M 4.75 0 L 4.75 -3 L 10.015625 -3 C 11.847656 -3 12.765625 -3.921875 12.765625 -5.765625 L 12.765625 -51.203125 C 12.765625 -53.046875 11.847656 -53.96875 10.015625 -53.96875 L 4.75 -53.96875 L 4.75 -56.96875 L 29.796875 -56.96875 L 29.796875 -53.96875 L 24.546875 -53.96875 C 22.703125 -53.96875 21.78125 -53.046875 21.78125 -51.203125 L 21.78125 -31.546875 L 29.921875 -31.546875 C 32.003906 -31.546875 33.585938 -32.441406 34.671875 -34.234375 C 35.765625 -36.035156 36.539062 -38.207031 37 -40.75 C 37.457031 -43.300781 37.769531 -45.703125 37.9375 -47.953125 C 38.269531 -51.878906 39.332031 -54.632812 41.125 -56.21875 C 42.925781 -57.800781 44.867188 -58.59375 46.953125 -58.59375 C 49.953125 -58.59375 52.078125 -57.585938 53.328125 -55.578125 C 54.585938 -53.578125 55.21875 -51.617188 55.21875 -49.703125 C 55.21875 -47.367188 54.523438 -45.507812 53.140625 -44.125 C 51.765625 -42.75 50.203125 -42.0625 48.453125 -42.0625 C 46.703125 -42.0625 45.382812 -42.5625 44.5 -43.5625 C 43.625 -44.570312 43.1875 -45.742188 43.1875 -47.078125 C 43.1875 -47.992188 43.414062 -48.742188 43.875 -49.328125 C 44.34375 -49.910156 44.785156 -50.328125 45.203125 -50.578125 C 46.117188 -51.242188 46.578125 -51.953125 46.578125 -52.703125 C 46.578125 -53.710938 45.910156 -54.21875 44.578125 -54.21875 C 42.316406 -54.21875 41.0625 -52.171875 40.8125 -48.078125 C 40.726562 -46.078125 40.457031 -43.738281 40 -41.0625 C 39.539062 -38.394531 38.8125 -36.015625 37.8125 -33.921875 C 36.8125 -31.835938 35.304688 -30.503906 33.296875 -29.921875 L 33.296875 -29.546875 C 35.804688 -29.546875 37.976562 -29.023438 39.8125 -27.984375 C 41.644531 -26.941406 43.109375 -25.710938 44.203125 -24.296875 C 45.617188 -22.703125 46.578125 -20.695312 47.078125 -18.28125 C 47.578125 -15.863281 47.867188 -13.691406 47.953125 -11.765625 C 48.117188 -9.429688 48.429688 -7.382812 48.890625 -5.625 C 49.347656 -3.875 50.492188 -3 52.328125 -3 C 53.921875 -3 55.070312 -3.726562 55.78125 -5.1875 C 56.488281 -6.65625 56.96875 -8.285156 57.21875 -10.078125 C 57.46875 -11.867188 57.59375 -13.265625 57.59375 -14.265625 L 59.84375 -14.265625 C 59.84375 -13.015625 59.738281 -11.515625 59.53125 -9.765625 C 59.320312 -8.015625 58.863281 -6.257812 58.15625 -4.5 C 57.445312 -2.75 56.378906 -1.3125 54.953125 -0.1875 C 53.535156 0.933594 51.617188 1.5 49.203125 1.5 C 48.035156 1.5 46.929688 1.375 45.890625 1.125 C 44.847656 0.875 43.820312 0.414062 42.8125 -0.25 C 41.476562 -1.164062 40.375 -2.5 39.5 -4.25 C 38.625 -6.007812 38.1875 -8.304688 38.1875 -11.140625 L 38.1875 -17.40625 C 38.1875 -20.40625 37.707031 -22.65625 36.75 -24.15625 C 35.789062 -25.664062 34.660156 -26.691406 33.359375 -27.234375 C 32.066406 -27.773438 30.878906 -28.046875 29.796875 -28.046875 L 21.78125 -28.046875 L 21.78125 -5.765625 C 21.78125 -3.921875 22.703125 -3 24.546875 -3 L 29.796875 -3 L 29.796875 0 Z M 4.75 0 "></path></g></g></g><g fill="#a70b14" fill-opacity="1"><g transform="translate(514.407999, 118.181793)"><g><path d="M 17.03125 -31.546875 L 40.8125 -31.546875 C 40.8125 -35.222656 40.457031 -38.914062 39.75 -42.625 C 39.039062 -46.34375 37.828125 -49.429688 36.109375 -51.890625 C 34.398438 -54.359375 32.046875 -55.59375 29.046875 -55.59375 C 26.046875 -55.59375 23.664062 -54.359375 21.90625 -51.890625 C 20.15625 -49.429688 18.90625 -46.34375 18.15625 -42.625 C 17.40625 -38.914062 17.03125 -35.222656 17.03125 -31.546875 Z M 6.015625 -28.546875 C 6.015625 -33.640625 6.992188 -38.476562 8.953125 -43.0625 C 10.910156 -47.65625 13.640625 -51.390625 17.140625 -54.265625 C 20.648438 -57.148438 24.785156 -58.59375 29.546875 -58.59375 C 33.472656 -58.59375 36.8125 -57.648438 39.5625 -55.765625 C 42.320312 -53.890625 44.597656 -51.429688 46.390625 -48.390625 C 48.179688 -45.347656 49.492188 -42.050781 50.328125 -38.5 C 51.160156 -34.945312 51.578125 -31.460938 51.578125 -28.046875 L 17.03125 -28.046875 C 17.03125 -22.953125 17.425781 -18.398438 18.21875 -14.390625 C 19.007812 -10.390625 20.425781 -7.238281 22.46875 -4.9375 C 24.519531 -2.644531 27.460938 -1.5 31.296875 -1.5 C 33.304688 -1.5 35.4375 -1.976562 37.6875 -2.9375 C 39.9375 -3.894531 41.957031 -5.664062 43.75 -8.25 C 45.550781 -10.84375 46.742188 -14.601562 47.328125 -19.53125 L 50.328125 -19.53125 C 50.078125 -15.6875 49.179688 -12.15625 47.640625 -8.9375 C 46.097656 -5.726562 43.96875 -3.1875 41.25 -1.3125 C 38.539062 0.558594 35.140625 1.5 31.046875 1.5 C 25.953125 1.5 21.523438 0.207031 17.765625 -2.375 C 14.015625 -4.96875 11.117188 -8.515625 9.078125 -13.015625 C 7.035156 -17.523438 6.015625 -22.703125 6.015625 -28.546875 Z M 6.015625 -28.546875 "></path></g></g></g><g fill="#a70b14" fill-opacity="1"><g transform="translate(571.986322, 118.181793)"><g><path d="M 5.015625 -35.0625 L 5.890625 -57.09375 L 53.34375 -57.09375 L 54.09375 -35.0625 L 51.578125 -35.0625 C 51.578125 -35.0625 51.472656 -35.707031 51.265625 -37 C 51.054688 -38.289062 50.679688 -39.914062 50.140625 -41.875 C 49.597656 -43.84375 48.828125 -45.828125 47.828125 -47.828125 C 46.910156 -49.660156 45.53125 -51.160156 43.6875 -52.328125 C 41.851562 -53.503906 39.5625 -54.09375 36.8125 -54.09375 C 34.976562 -54.09375 34.0625 -53.171875 34.0625 -51.328125 L 34.0625 -5.765625 C 34.0625 -3.921875 34.976562 -3 36.8125 -3 L 42.0625 -3 L 42.0625 0 L 17.03125 0 L 17.03125 -3 L 22.28125 -3 C 24.125 -3 25.046875 -3.921875 25.046875 -5.765625 L 25.046875 -51.328125 C 25.046875 -53.171875 24.125 -54.09375 22.28125 -54.09375 C 19.53125 -54.09375 17.234375 -53.503906 15.390625 -52.328125 C 13.554688 -51.160156 12.179688 -49.660156 11.265625 -47.828125 C 10.265625 -45.828125 9.492188 -43.84375 8.953125 -41.875 C 8.410156 -39.914062 8.035156 -38.289062 7.828125 -37 C 7.617188 -35.707031 7.515625 -35.0625 7.515625 -35.0625 Z M 5.015625 -35.0625 "></path></g></g></g><g fill="#a70b14" fill-opacity="1"><g transform="translate(631.104873, 118.181793)"><g></g></g></g><g fill="#a70b14" fill-opacity="1"><g transform="translate(0.87279, 292.759615)"><g><path d="M 21.78125 -31.546875 L 32.546875 -31.546875 C 36.222656 -31.546875 38.769531 -32.691406 40.1875 -34.984375 C 41.601562 -37.285156 42.3125 -39.8125 42.3125 -42.5625 C 42.3125 -45.820312 41.414062 -48.554688 39.625 -50.765625 C 37.832031 -52.984375 35.472656 -54.09375 32.546875 -54.09375 L 24.546875 -54.09375 C 23.535156 -54.09375 22.84375 -53.878906 22.46875 -53.453125 C 22.09375 -53.035156 21.863281 -52.328125 21.78125 -51.328125 Z M 4.75 0 L 4.75 -3 L 10.015625 -3 C 11.847656 -3 12.765625 -3.921875 12.765625 -5.765625 L 12.765625 -51.328125 C 12.765625 -53.171875 11.847656 -54.09375 10.015625 -54.09375 L 4.75 -54.09375 L 4.75 -57.09375 L 34.0625 -57.09375 C 39.226562 -57.09375 43.476562 -55.859375 46.8125 -53.390625 C 50.15625 -50.929688 51.828125 -47.570312 51.828125 -43.3125 C 51.828125 -40.5625 51.160156 -38.265625 49.828125 -36.421875 C 48.492188 -34.585938 46.882812 -33.191406 45 -32.234375 C 43.125 -31.273438 41.394531 -30.628906 39.8125 -30.296875 L 39.8125 -30.046875 C 40.8125 -29.960938 42.125 -29.648438 43.75 -29.109375 C 45.382812 -28.566406 47.035156 -27.734375 48.703125 -26.609375 C 50.367188 -25.484375 51.765625 -24.039062 52.890625 -22.28125 C 54.023438 -20.53125 54.59375 -18.363281 54.59375 -15.78125 C 54.59375 -12.4375 53.648438 -9.59375 51.765625 -7.25 C 49.890625 -4.914062 47.46875 -3.125 44.5 -1.875 C 41.539062 -0.625 38.394531 0 35.0625 0 Z M 21.78125 -5.765625 C 21.78125 -3.921875 22.703125 -3 24.546875 -3 L 33.546875 -3 C 35.972656 -3 37.914062 -3.726562 39.375 -5.1875 C 40.832031 -6.65625 41.894531 -8.390625 42.5625 -10.390625 C 43.238281 -12.390625 43.578125 -14.269531 43.578125 -16.03125 C 43.578125 -19.195312 42.84375 -21.988281 41.375 -24.40625 C 39.914062 -26.832031 37.304688 -28.046875 33.546875 -28.046875 L 21.78125 -28.046875 Z M 21.78125 -5.765625 "></path></g></g></g><g fill="#a70b14" fill-opacity="1"><g transform="translate(60.954527, 292.759615)"><g></g></g></g><g fill="#a70b14" fill-opacity="1"><g transform="translate(96.002226, 292.759615)"><g><path d="M 7.765625 0 L 7.765625 -4 L 16.78125 -4 C 19.03125 -4 20.15625 -5.128906 20.15625 -7.390625 L 20.15625 -81.75 C 20.15625 -84.007812 19.03125 -85.140625 16.78125 -85.140625 L 7.765625 -85.140625 L 7.765625 -89.140625 L 49.578125 -89.140625 C 55.503906 -89.140625 60.71875 -88.160156 65.21875 -86.203125 C 69.726562 -84.242188 73.253906 -81.507812 75.796875 -78 C 78.347656 -74.5 79.625 -70.453125 79.625 -65.859375 C 79.625 -61.265625 78.347656 -57.171875 75.796875 -53.578125 C 73.253906 -49.992188 69.726562 -47.175781 65.21875 -45.125 C 60.71875 -43.082031 55.503906 -42.0625 49.578125 -42.0625 L 31.671875 -42.0625 L 31.671875 -7.390625 C 31.671875 -6.304688 31.898438 -5.46875 32.359375 -4.875 C 32.816406 -4.289062 33.71875 -4 35.0625 -4 L 46.078125 -4 L 46.078125 0 Z M 31.671875 -46.078125 L 51.203125 -46.078125 C 54.378906 -46.078125 57.09375 -46.992188 59.34375 -48.828125 C 61.601562 -50.660156 63.335938 -53.097656 64.546875 -56.140625 C 65.753906 -59.191406 66.359375 -62.429688 66.359375 -65.859375 C 66.359375 -69.359375 65.753906 -72.566406 64.546875 -75.484375 C 63.335938 -78.410156 61.601562 -80.75 59.34375 -82.5 C 57.09375 -84.257812 54.378906 -85.140625 51.203125 -85.140625 L 35.0625 -85.140625 C 32.800781 -85.140625 31.671875 -84.007812 31.671875 -81.75 Z M 31.671875 -46.078125 "></path></g></g></g><g fill="#a70b14" fill-opacity="1"><g transform="translate(181.118038, 292.759615)"><g><path d="M 10.015625 -79.125 C 10.015625 -81.050781 10.640625 -82.617188 11.890625 -83.828125 C 13.140625 -85.035156 14.6875 -85.640625 16.53125 -85.640625 C 18.445312 -85.640625 20.007812 -85.035156 21.21875 -83.828125 C 22.425781 -82.617188 23.03125 -81.050781 23.03125 -79.125 C 23.03125 -77.289062 22.425781 -75.75 21.21875 -74.5 C 20.007812 -73.25 18.445312 -72.625 16.53125 -72.625 C 14.6875 -72.625 13.140625 -73.25 11.890625 -74.5 C 10.640625 -75.75 10.015625 -77.289062 10.015625 -79.125 Z M 4.75 0 L 4.75 -3 L 10.015625 -3 C 11.847656 -3 12.765625 -3.921875 12.765625 -5.765625 L 12.765625 -51.328125 C 12.765625 -53.171875 11.847656 -54.09375 10.015625 -54.09375 L 4.75 -54.09375 L 4.75 -57.09375 L 21.78125 -57.09375 L 21.78125 -5.765625 C 21.78125 -3.921875 22.703125 -3 24.546875 -3 L 29.796875 -3 L 29.796875 0 Z M 4.75 0 "></path></g></g></g><g fill="#a70b14" fill-opacity="1"><g transform="translate(214.914029, 292.759615)"><g><path d="M 4.75 0 L 4.75 -3 L 10.015625 -3 C 11.847656 -3 12.765625 -3.921875 12.765625 -5.765625 L 12.765625 -51.328125 C 12.765625 -53.171875 11.847656 -54.09375 10.015625 -54.09375 L 4.75 -54.09375 L 4.75 -57.09375 L 21.78125 -57.09375 L 21.78125 -41.0625 L 22.28125 -40.9375 C 23.195312 -43.195312 24.050781 -45.140625 24.84375 -46.765625 C 25.644531 -48.390625 26.671875 -50.117188 27.921875 -51.953125 C 29.253906 -53.878906 30.960938 -55.46875 33.046875 -56.71875 C 35.140625 -57.96875 37.226562 -58.59375 39.3125 -58.59375 C 42.738281 -58.59375 45.179688 -57.484375 46.640625 -55.265625 C 48.097656 -53.054688 48.828125 -50.742188 48.828125 -48.328125 C 48.828125 -47.242188 48.617188 -46.03125 48.203125 -44.6875 C 47.785156 -43.351562 47.054688 -42.207031 46.015625 -41.25 C 44.972656 -40.289062 43.570312 -39.8125 41.8125 -39.8125 C 40.3125 -39.8125 39 -40.207031 37.875 -41 C 36.75 -41.789062 36.1875 -42.984375 36.1875 -44.578125 C 36.1875 -46.992188 37.3125 -48.828125 39.5625 -50.078125 C 40.144531 -50.410156 40.75 -50.910156 41.375 -51.578125 C 42 -52.242188 42.3125 -52.875 42.3125 -53.46875 C 42.3125 -54.132812 42.082031 -54.65625 41.625 -55.03125 C 41.164062 -55.40625 40.226562 -55.59375 38.8125 -55.59375 C 37.894531 -55.59375 36.679688 -55.320312 35.171875 -54.78125 C 33.671875 -54.238281 32.046875 -52.878906 30.296875 -50.703125 C 28.546875 -48.535156 26.796875 -44.988281 25.046875 -40.0625 C 24.117188 -37.394531 23.34375 -34.367188 22.71875 -30.984375 C 22.09375 -27.609375 21.78125 -24.707031 21.78125 -22.28125 L 21.78125 -5.765625 C 21.78125 -3.921875 22.703125 -3 24.546875 -3 L 29.796875 -3 L 29.796875 0 Z M 4.75 0 "></path></g></g></g><g fill="#a70b14" fill-opacity="1"><g transform="translate(266.23385, 292.759615)"><g><path d="M 17.03125 -28.546875 C 17.03125 -23.203125 17.46875 -18.503906 18.34375 -14.453125 C 19.21875 -10.410156 20.675781 -7.238281 22.71875 -4.9375 C 24.769531 -2.644531 27.546875 -1.5 31.046875 -1.5 C 34.554688 -1.5 37.332031 -2.644531 39.375 -4.9375 C 41.414062 -7.238281 42.875 -10.410156 43.75 -14.453125 C 44.632812 -18.503906 45.078125 -23.203125 45.078125 -28.546875 C 45.078125 -33.890625 44.632812 -38.582031 43.75 -42.625 C 42.875 -46.675781 41.414062 -49.847656 39.375 -52.140625 C 37.332031 -54.441406 34.554688 -55.59375 31.046875 -55.59375 C 27.546875 -55.59375 24.769531 -54.441406 22.71875 -52.140625 C 20.675781 -49.847656 19.21875 -46.675781 18.34375 -42.625 C 17.46875 -38.582031 17.03125 -33.890625 17.03125 -28.546875 Z M 6.015625 -28.546875 C 6.015625 -34.054688 7.117188 -39.082031 9.328125 -43.625 C 11.535156 -48.175781 14.535156 -51.804688 18.328125 -54.515625 C 22.128906 -57.234375 26.367188 -58.59375 31.046875 -58.59375 C 35.722656 -58.59375 39.957031 -57.234375 43.75 -54.515625 C 47.550781 -51.804688 50.554688 -48.175781 52.765625 -43.625 C 54.984375 -39.082031 56.09375 -34.054688 56.09375 -28.546875 C 56.09375 -23.035156 54.984375 -18.003906 52.765625 -13.453125 C 50.554688 -8.910156 47.550781 -5.28125 43.75 -2.5625 C 39.957031 0.144531 35.722656 1.5 31.046875 1.5 C 26.367188 1.5 22.128906 0.144531 18.328125 -2.5625 C 14.535156 -5.28125 11.535156 -8.910156 9.328125 -13.453125 C 7.117188 -18.003906 6.015625 -23.035156 6.015625 -28.546875 Z M 6.015625 -28.546875 "></path></g></g></g><g fill="#a70b14" fill-opacity="1"><g transform="translate(328.318312, 292.759615)"><g><path d="M 6.515625 15.28125 C 6.515625 12.101562 7.742188 9.363281 10.203125 7.0625 C 12.660156 4.769531 15.519531 3.375 18.78125 2.875 L 18.78125 2.5 C 15.945312 1.832031 13.398438 0.789062 11.140625 -0.625 C 8.890625 -2.039062 7.765625 -4.085938 7.765625 -6.765625 C 7.765625 -9.265625 8.429688 -11.328125 9.765625 -12.953125 C 11.097656 -14.585938 12.804688 -15.882812 14.890625 -16.84375 C 16.984375 -17.800781 19.15625 -18.445312 21.40625 -18.78125 L 21.40625 -19.15625 C 19.570312 -19.988281 17.671875 -21.175781 15.703125 -22.71875 C 13.742188 -24.269531 12.097656 -26.296875 10.765625 -28.796875 C 9.429688 -31.296875 8.765625 -34.382812 8.765625 -38.0625 C 8.765625 -42.488281 9.828125 -46.222656 11.953125 -49.265625 C 14.085938 -52.316406 16.863281 -54.632812 20.28125 -56.21875 C 23.707031 -57.800781 27.296875 -58.59375 31.046875 -58.59375 C 33.722656 -58.59375 36.25 -58.175781 38.625 -57.34375 C 41 -56.507812 43 -55.566406 44.625 -54.515625 C 46.257812 -53.472656 47.285156 -52.660156 47.703125 -52.078125 C 48.535156 -54.421875 49.804688 -56.09375 51.515625 -57.09375 C 53.234375 -58.09375 54.84375 -58.59375 56.34375 -58.59375 C 59.175781 -58.59375 61.507812 -57.757812 63.34375 -56.09375 C 65.1875 -54.425781 66.109375 -52.253906 66.109375 -49.578125 C 66.109375 -47.660156 65.648438 -46.050781 64.734375 -44.75 C 63.816406 -43.457031 62.519531 -42.8125 60.84375 -42.8125 C 59.757812 -42.8125 58.65625 -43.144531 57.53125 -43.8125 C 56.40625 -44.488281 55.84375 -45.660156 55.84375 -47.328125 C 55.84375 -49.160156 56.550781 -50.492188 57.96875 -51.328125 C 58.46875 -51.660156 58.820312 -51.972656 59.03125 -52.265625 C 59.238281 -52.554688 59.34375 -53 59.34375 -53.59375 C 59.34375 -54.257812 58.988281 -54.757812 58.28125 -55.09375 C 57.570312 -55.425781 56.800781 -55.59375 55.96875 -55.59375 C 54.382812 -55.59375 53.003906 -54.960938 51.828125 -53.703125 C 50.660156 -52.453125 49.992188 -51.078125 49.828125 -49.578125 C 50.492188 -48.742188 51.242188 -47.363281 52.078125 -45.4375 C 52.921875 -43.519531 53.34375 -41.0625 53.34375 -38.0625 C 53.34375 -33.71875 52.316406 -30.019531 50.265625 -26.96875 C 48.222656 -23.925781 45.507812 -21.59375 42.125 -19.96875 C 38.75 -18.34375 35.054688 -17.53125 31.046875 -17.53125 C 28.546875 -17.53125 25.875 -17.300781 23.03125 -16.84375 C 20.195312 -16.382812 17.773438 -15.546875 15.765625 -14.328125 C 13.765625 -13.117188 12.765625 -11.390625 12.765625 -9.140625 C 12.765625 -7.390625 13.578125 -6.265625 15.203125 -5.765625 C 16.835938 -5.265625 18.695312 -5.015625 20.78125 -5.015625 C 21.445312 -5.015625 22.113281 -5.015625 22.78125 -5.015625 C 23.445312 -5.015625 24.203125 -5.054688 25.046875 -5.140625 C 25.796875 -5.222656 26.484375 -5.265625 27.109375 -5.265625 C 27.734375 -5.265625 28.335938 -5.265625 28.921875 -5.265625 L 41.8125 -5.265625 C 45.15625 -5.265625 48.242188 -4.65625 51.078125 -3.4375 C 53.921875 -2.226562 56.21875 -0.371094 57.96875 2.125 C 59.71875 4.632812 60.59375 7.847656 60.59375 11.765625 C 60.59375 15.773438 59.425781 19.113281 57.09375 21.78125 C 54.757812 24.457031 51.546875 26.460938 47.453125 27.796875 C 43.359375 29.128906 38.722656 29.796875 33.546875 29.796875 C 30.378906 29.796875 27.207031 29.546875 24.03125 29.046875 C 20.863281 28.546875 17.941406 27.753906 15.265625 26.671875 C 12.597656 25.585938 10.472656 24.101562 8.890625 22.21875 C 7.304688 20.34375 6.515625 18.03125 6.515625 15.28125 Z M 18.78125 -38.0625 C 18.78125 -32.550781 19.863281 -28.25 22.03125 -25.15625 C 24.207031 -22.070312 27.210938 -20.53125 31.046875 -20.53125 C 34.972656 -20.53125 38 -22.070312 40.125 -25.15625 C 42.25 -28.25 43.3125 -32.550781 43.3125 -38.0625 C 43.3125 -43.570312 42.25 -47.867188 40.125 -50.953125 C 38 -54.046875 34.972656 -55.59375 31.046875 -55.59375 C 27.210938 -55.59375 24.207031 -54.046875 22.03125 -50.953125 C 19.863281 -47.867188 18.78125 -43.570312 18.78125 -38.0625 Z M 12.015625 15.03125 C 12.015625 17.863281 13.140625 20.132812 15.390625 21.84375 C 17.648438 23.5625 20.445312 24.816406 23.78125 25.609375 C 27.125 26.398438 30.378906 26.796875 33.546875 26.796875 C 35.972656 26.796875 38.5 26.585938 41.125 26.171875 C 43.757812 25.753906 46.203125 25.019531 48.453125 23.96875 C 50.703125 22.925781 52.535156 21.507812 53.953125 19.71875 C 55.378906 17.925781 56.09375 15.609375 56.09375 12.765625 C 56.09375 11.347656 55.820312 9.910156 55.28125 8.453125 C 54.738281 6.992188 53.710938 5.757812 52.203125 4.75 C 50.703125 3.75 48.535156 3.25 45.703125 3.25 L 31.796875 3.25 C 28.878906 3.25 25.894531 3.582031 22.84375 4.25 C 19.800781 4.925781 17.234375 6.097656 15.140625 7.765625 C 13.054688 9.429688 12.015625 11.851562 12.015625 15.03125 Z M 12.015625 15.03125 "></path></g></g></g><g fill="#a70b14" fill-opacity="1"><g transform="translate(395.910256, 292.759615)"><g><path d="M 17.03125 -28.546875 C 17.03125 -23.203125 17.46875 -18.503906 18.34375 -14.453125 C 19.21875 -10.410156 20.675781 -7.238281 22.71875 -4.9375 C 24.769531 -2.644531 27.546875 -1.5 31.046875 -1.5 C 34.554688 -1.5 37.332031 -2.644531 39.375 -4.9375 C 41.414062 -7.238281 42.875 -10.410156 43.75 -14.453125 C 44.632812 -18.503906 45.078125 -23.203125 45.078125 -28.546875 C 45.078125 -33.890625 44.632812 -38.582031 43.75 -42.625 C 42.875 -46.675781 41.414062 -49.847656 39.375 -52.140625 C 37.332031 -54.441406 34.554688 -55.59375 31.046875 -55.59375 C 27.546875 -55.59375 24.769531 -54.441406 22.71875 -52.140625 C 20.675781 -49.847656 19.21875 -46.675781 18.34375 -42.625 C 17.46875 -38.582031 17.03125 -33.890625 17.03125 -28.546875 Z M 6.015625 -28.546875 C 6.015625 -34.054688 7.117188 -39.082031 9.328125 -43.625 C 11.535156 -48.175781 14.535156 -51.804688 18.328125 -54.515625 C 22.128906 -57.234375 26.367188 -58.59375 31.046875 -58.59375 C 35.722656 -58.59375 39.957031 -57.234375 43.75 -54.515625 C 47.550781 -51.804688 50.554688 -48.175781 52.765625 -43.625 C 54.984375 -39.082031 56.09375 -34.054688 56.09375 -28.546875 C 56.09375 -23.035156 54.984375 -18.003906 52.765625 -13.453125 C 50.554688 -8.910156 47.550781 -5.28125 43.75 -2.5625 C 39.957031 0.144531 35.722656 1.5 31.046875 1.5 C 26.367188 1.5 22.128906 0.144531 18.328125 -2.5625 C 14.535156 -5.28125 11.535156 -8.910156 9.328125 -13.453125 C 7.117188 -18.003906 6.015625 -23.035156 6.015625 -28.546875 Z M 6.015625 -28.546875 "></path></g></g></g><g fill="#a70b14" fill-opacity="1"><g transform="translate(452.736136, 292.759615)"><g><path d="M 2.25 -54.09375 L 2.25 -57.09375 L 29.296875 -57.09375 L 29.296875 -54.09375 L 25.796875 -54.09375 C 24.960938 -54.09375 24.082031 -53.835938 23.15625 -53.328125 C 22.238281 -52.828125 21.78125 -52.078125 21.78125 -51.078125 C 21.78125 -50.742188 21.820312 -50.222656 21.90625 -49.515625 C 21.988281 -48.804688 22.195312 -47.953125 22.53125 -46.953125 L 36.5625 -13.140625 L 46.703125 -42.8125 C 47.117188 -43.90625 47.453125 -45.117188 47.703125 -46.453125 C 47.953125 -47.785156 48.078125 -48.703125 48.078125 -49.203125 C 48.078125 -50.617188 47.679688 -51.785156 46.890625 -52.703125 C 46.097656 -53.628906 44.992188 -54.09375 43.578125 -54.09375 L 40.5625 -54.09375 L 40.5625 -57.09375 L 63.359375 -57.09375 L 63.359375 -54.09375 L 60.46875 -54.09375 C 58.800781 -54.09375 57.175781 -53.523438 55.59375 -52.390625 C 54.007812 -51.265625 52.753906 -49.367188 51.828125 -46.703125 L 35.3125 1.5 L 33.046875 1.5 L 12.390625 -47.828125 C 11.722656 -49.492188 10.953125 -50.953125 10.078125 -52.203125 C 9.203125 -53.460938 7.804688 -54.09375 5.890625 -54.09375 Z M 2.25 -54.09375 "></path></g></g></g><g fill="#a70b14" fill-opacity="1"><g transform="translate(513.066587, 292.759615)"><g><path d="M 17.03125 -28.546875 C 17.03125 -23.203125 17.46875 -18.503906 18.34375 -14.453125 C 19.21875 -10.410156 20.675781 -7.238281 22.71875 -4.9375 C 24.769531 -2.644531 27.546875 -1.5 31.046875 -1.5 C 34.554688 -1.5 37.332031 -2.644531 39.375 -4.9375 C 41.414062 -7.238281 42.875 -10.410156 43.75 -14.453125 C 44.632812 -18.503906 45.078125 -23.203125 45.078125 -28.546875 C 45.078125 -33.890625 44.632812 -38.582031 43.75 -42.625 C 42.875 -46.675781 41.414062 -49.847656 39.375 -52.140625 C 37.332031 -54.441406 34.554688 -55.59375 31.046875 -55.59375 C 27.546875 -55.59375 24.769531 -54.441406 22.71875 -52.140625 C 20.675781 -49.847656 19.21875 -46.675781 18.34375 -42.625 C 17.46875 -38.582031 17.03125 -33.890625 17.03125 -28.546875 Z M 6.015625 -28.546875 C 6.015625 -34.054688 7.117188 -39.082031 9.328125 -43.625 C 11.535156 -48.175781 14.535156 -51.804688 18.328125 -54.515625 C 22.128906 -57.234375 26.367188 -58.59375 31.046875 -58.59375 C 35.722656 -58.59375 39.957031 -57.234375 43.75 -54.515625 C 47.550781 -51.804688 50.554688 -48.175781 52.765625 -43.625 C 54.984375 -39.082031 56.09375 -34.054688 56.09375 -28.546875 C 56.09375 -23.035156 54.984375 -18.003906 52.765625 -13.453125 C 50.554688 -8.910156 47.550781 -5.28125 43.75 -2.5625 C 39.957031 0.144531 35.722656 1.5 31.046875 1.5 C 26.367188 1.5 22.128906 0.144531 18.328125 -2.5625 C 14.535156 -5.28125 11.535156 -8.910156 9.328125 -13.453125 C 7.117188 -18.003906 6.015625 -23.035156 6.015625 -28.546875 Z M 6.015625 -28.546875 "></path></g></g></g><g fill="#a70b14" fill-opacity="1"><g transform="translate(575.151049, 292.759615)"><g></g></g></g><g fill="#a70b14" fill-opacity="1"><g transform="translate(610.198747, 292.759615)"><g><path d="M 17.03125 -31.546875 L 40.8125 -31.546875 C 40.8125 -35.222656 40.457031 -38.914062 39.75 -42.625 C 39.039062 -46.34375 37.828125 -49.429688 36.109375 -51.890625 C 34.398438 -54.359375 32.046875 -55.59375 29.046875 -55.59375 C 26.046875 -55.59375 23.664062 -54.359375 21.90625 -51.890625 C 20.15625 -49.429688 18.90625 -46.34375 18.15625 -42.625 C 17.40625 -38.914062 17.03125 -35.222656 17.03125 -31.546875 Z M 6.015625 -28.546875 C 6.015625 -33.640625 6.992188 -38.476562 8.953125 -43.0625 C 10.910156 -47.65625 13.640625 -51.390625 17.140625 -54.265625 C 20.648438 -57.148438 24.785156 -58.59375 29.546875 -58.59375 C 33.472656 -58.59375 36.8125 -57.648438 39.5625 -55.765625 C 42.320312 -53.890625 44.597656 -51.429688 46.390625 -48.390625 C 48.179688 -45.347656 49.492188 -42.050781 50.328125 -38.5 C 51.160156 -34.945312 51.578125 -31.460938 51.578125 -28.046875 L 17.03125 -28.046875 C 17.03125 -22.953125 17.425781 -18.398438 18.21875 -14.390625 C 19.007812 -10.390625 20.425781 -7.238281 22.46875 -4.9375 C 24.519531 -2.644531 27.460938 -1.5 31.296875 -1.5 C 33.304688 -1.5 35.4375 -1.976562 37.6875 -2.9375 C 39.9375 -3.894531 41.957031 -5.664062 43.75 -8.25 C 45.550781 -10.84375 46.742188 -14.601562 47.328125 -19.53125 L 50.328125 -19.53125 C 50.078125 -15.6875 49.179688 -12.15625 47.640625 -8.9375 C 46.097656 -5.726562 43.96875 -3.1875 41.25 -1.3125 C 38.539062 0.558594 35.140625 1.5 31.046875 1.5 C 25.953125 1.5 21.523438 0.207031 17.765625 -2.375 C 14.015625 -4.96875 11.117188 -8.515625 9.078125 -13.015625 C 7.035156 -17.523438 6.015625 -22.703125 6.015625 -28.546875 Z M 6.015625 -28.546875 "></path></g></g></g><g fill="#a70b14" fill-opacity="1"><g transform="translate(667.777107, 292.759615)"><g><path d="M 2.25 -54.09375 L 2.25 -57.09375 L 29.296875 -57.09375 L 29.296875 -54.09375 L 25.796875 -54.09375 C 24.960938 -54.09375 24.082031 -53.835938 23.15625 -53.328125 C 22.238281 -52.828125 21.78125 -52.078125 21.78125 -51.078125 C 21.78125 -50.742188 21.820312 -50.222656 21.90625 -49.515625 C 21.988281 -48.804688 22.195312 -47.953125 22.53125 -46.953125 L 36.5625 -13.140625 L 46.703125 -42.8125 C 47.117188 -43.90625 47.453125 -45.117188 47.703125 -46.453125 C 47.953125 -47.785156 48.078125 -48.703125 48.078125 -49.203125 C 48.078125 -50.617188 47.679688 -51.785156 46.890625 -52.703125 C 46.097656 -53.628906 44.992188 -54.09375 43.578125 -54.09375 L 40.5625 -54.09375 L 40.5625 -57.09375 L 63.359375 -57.09375 L 63.359375 -54.09375 L 60.46875 -54.09375 C 58.800781 -54.09375 57.175781 -53.523438 55.59375 -52.390625 C 54.007812 -51.265625 52.753906 -49.367188 51.828125 -46.703125 L 35.3125 1.5 L 33.046875 1.5 L 12.390625 -47.828125 C 11.722656 -49.492188 10.953125 -50.953125 10.078125 -52.203125 C 9.203125 -53.460938 7.804688 -54.09375 5.890625 -54.09375 Z M 2.25 -54.09375 "></path></g></g></g><g fill="#a70b14" fill-opacity="1"><g transform="translate(728.107519, 292.759615)"><g><path d="M 17.03125 -31.546875 L 40.8125 -31.546875 C 40.8125 -35.222656 40.457031 -38.914062 39.75 -42.625 C 39.039062 -46.34375 37.828125 -49.429688 36.109375 -51.890625 C 34.398438 -54.359375 32.046875 -55.59375 29.046875 -55.59375 C 26.046875 -55.59375 23.664062 -54.359375 21.90625 -51.890625 C 20.15625 -49.429688 18.90625 -46.34375 18.15625 -42.625 C 17.40625 -38.914062 17.03125 -35.222656 17.03125 -31.546875 Z M 6.015625 -28.546875 C 6.015625 -33.640625 6.992188 -38.476562 8.953125 -43.0625 C 10.910156 -47.65625 13.640625 -51.390625 17.140625 -54.265625 C 20.648438 -57.148438 24.785156 -58.59375 29.546875 -58.59375 C 33.472656 -58.59375 36.8125 -57.648438 39.5625 -55.765625 C 42.320312 -53.890625 44.597656 -51.429688 46.390625 -48.390625 C 48.179688 -45.347656 49.492188 -42.050781 50.328125 -38.5 C 51.160156 -34.945312 51.578125 -31.460938 51.578125 -28.046875 L 17.03125 -28.046875 C 17.03125 -22.953125 17.425781 -18.398438 18.21875 -14.390625 C 19.007812 -10.390625 20.425781 -7.238281 22.46875 -4.9375 C 24.519531 -2.644531 27.460938 -1.5 31.296875 -1.5 C 33.304688 -1.5 35.4375 -1.976562 37.6875 -2.9375 C 39.9375 -3.894531 41.957031 -5.664062 43.75 -8.25 C 45.550781 -10.84375 46.742188 -14.601562 47.328125 -19.53125 L 50.328125 -19.53125 C 50.078125 -15.6875 49.179688 -12.15625 47.640625 -8.9375 C 46.097656 -5.726562 43.96875 -3.1875 41.25 -1.3125 C 38.539062 0.558594 35.140625 1.5 31.046875 1.5 C 25.953125 1.5 21.523438 0.207031 17.765625 -2.375 C 14.015625 -4.96875 11.117188 -8.515625 9.078125 -13.015625 C 7.035156 -17.523438 6.015625 -22.703125 6.015625 -28.546875 Z M 6.015625 -28.546875 "></path></g></g></g><g fill="#a70b14" fill-opacity="1"><g transform="translate(785.685842, 292.759615)"><g><path d="M 4.75 0 L 4.75 -3 L 10.015625 -3 C 11.847656 -3 12.765625 -3.921875 12.765625 -5.765625 L 12.765625 -51.328125 C 12.765625 -53.171875 11.847656 -54.09375 10.015625 -54.09375 L 4.75 -54.09375 L 4.75 -57.09375 L 21.78125 -57.09375 L 21.78125 -45.578125 L 22.28125 -45.453125 C 24.457031 -49.617188 27.066406 -52.847656 30.109375 -55.140625 C 33.160156 -57.441406 36.351562 -58.59375 39.6875 -58.59375 C 42.195312 -58.59375 44.222656 -58.300781 45.765625 -57.71875 C 47.304688 -57.132812 48.660156 -56.34375 49.828125 -55.34375 C 51.328125 -54.175781 52.492188 -52.648438 53.328125 -50.765625 C 54.171875 -48.890625 54.757812 -46.988281 55.09375 -45.0625 C 55.425781 -43.144531 55.59375 -41.4375 55.59375 -39.9375 L 55.59375 -5.765625 C 55.59375 -3.921875 56.507812 -3 58.34375 -3 L 63.609375 -3 L 63.609375 0 L 38.5625 0 L 38.5625 -3 L 43.828125 -3 C 45.660156 -3 46.578125 -3.921875 46.578125 -5.765625 L 46.578125 -42.4375 C 46.578125 -44.445312 46.367188 -46.472656 45.953125 -48.515625 C 45.535156 -50.554688 44.738281 -52.242188 43.5625 -53.578125 C 42.394531 -54.921875 40.726562 -55.59375 38.5625 -55.59375 C 36.226562 -55.59375 33.765625 -54.523438 31.171875 -52.390625 C 28.585938 -50.265625 26.375 -47.40625 24.53125 -43.8125 C 22.695312 -40.226562 21.78125 -36.222656 21.78125 -31.796875 L 21.78125 -5.765625 C 21.78125 -3.921875 22.703125 -3 24.546875 -3 L 29.796875 -3 L 29.796875 0 Z M 4.75 0 "></path></g></g></g><g fill="#a70b14" fill-opacity="1"><g transform="translate(853.277749, 292.759615)"><g><path d="M 3.5 -53.59375 L 3.5 -57.09375 L 6.265625 -57.09375 C 8.929688 -57.09375 11.160156 -58.09375 12.953125 -60.09375 C 14.753906 -62.101562 16.09375 -64.628906 16.96875 -67.671875 C 17.84375 -70.722656 18.28125 -73.707031 18.28125 -76.625 L 18.28125 -81.125 L 21.78125 -81.125 L 21.78125 -57.09375 L 37.3125 -57.09375 L 37.3125 -53.59375 L 21.78125 -53.59375 L 21.78125 -12.765625 C 21.78125 -10.679688 22.21875 -8.695312 23.09375 -6.8125 C 23.976562 -4.9375 25.753906 -4 28.421875 -4 C 30.921875 -4 32.796875 -4.75 34.046875 -6.25 C 35.304688 -7.757812 36.164062 -9.660156 36.625 -11.953125 C 37.082031 -14.253906 37.3125 -16.613281 37.3125 -19.03125 L 39.5625 -19.03125 C 39.5625 -17.363281 39.476562 -15.378906 39.3125 -13.078125 C 39.144531 -10.785156 38.644531 -8.507812 37.8125 -6.25 C 36.976562 -4 35.617188 -2.144531 33.734375 -0.6875 C 31.859375 0.769531 29.210938 1.5 25.796875 1.5 C 22.203125 1.5 19.128906 0.183594 16.578125 -2.4375 C 14.035156 -5.070312 12.765625 -8.722656 12.765625 -13.390625 L 12.765625 -53.59375 Z M 3.5 -53.59375 "></path></g></g></g></g></g></svg> 