<?xml version="1.0" encoding="UTF-8"?> <svg xmlns="http://www.w3.org/2000/svg" xmlns:xlink="http://www.w3.org/1999/xlink" width="3000" zoomAndPan="magnify" viewBox="0 0 2250 749.999995" height="1000" preserveAspectRatio="xMidYMid meet" version="1.0"><defs><g></g><clipPath id="cbf689e867"><rect x="0" width="1762" y="0" height="446"></rect></clipPath></defs><g transform="matrix(1, 0, 0, 1, 269, 163)"><g clip-path="url(#cbf689e867)"><g fill="#545454" fill-opacity="1"><g transform="translate(0.848208, 335.158632)"><g><path d="M 24.734375 0 L 21.75 -16.625 L 71.21875 -25.59375 L 71.21875 -240.953125 L 22.609375 -240.953125 L 19.1875 -258 L 93.390625 -274.640625 L 114.296875 -274.640625 L 114.296875 -25.59375 L 162.046875 -16.625 L 158.640625 0 Z M 24.734375 0 "></path></g></g></g><g fill="#545454" fill-opacity="1"><g transform="translate(175.26648, 335.158632)"><g><path d="M 110.875 -258 C 104.625 -258 98.085938 -257.144531 91.265625 -255.4375 C 84.441406 -253.738281 78.328125 -251.609375 72.921875 -249.046875 L 60.5625 -211.09375 L 43.921875 -214.5 L 43.921875 -263.125 C 55.578125 -268.8125 67.09375 -272.929688 78.46875 -275.484375 C 89.84375 -278.046875 101.070312 -279.328125 112.15625 -279.328125 C 130.632812 -279.328125 145.984375 -275.984375 158.203125 -269.296875 C 170.429688 -262.617188 179.53125 -253.804688 185.5 -242.859375 C 191.476562 -231.921875 194.46875 -220.050781 194.46875 -207.25 C 194.46875 -192.1875 191.476562 -178.613281 185.5 -166.53125 C 179.53125 -154.445312 171.710938 -143.425781 162.046875 -133.46875 C 152.378906 -123.519531 142.003906 -114.28125 130.921875 -105.75 C 119.835938 -97.226562 109.101562 -89.054688 98.71875 -81.234375 C 88.34375 -73.421875 79.53125 -65.53125 72.28125 -57.5625 C 65.03125 -49.601562 60.410156 -41.21875 58.421875 -32.40625 L 162.90625 -32.40625 L 172.71875 -63.109375 L 189.34375 -59.703125 L 189.34375 0 L 30.703125 0 L 30.703125 -16.203125 C 30.703125 -30.421875 33.546875 -43.144531 39.234375 -54.375 C 44.921875 -65.601562 52.3125 -76.050781 61.40625 -85.71875 C 70.507812 -95.382812 80.175781 -104.691406 90.40625 -113.640625 C 100.644531 -122.597656 110.3125 -131.769531 119.40625 -141.15625 C 128.5 -150.539062 135.890625 -160.5625 141.578125 -171.21875 C 147.265625 -181.882812 150.109375 -193.753906 150.109375 -206.828125 C 150.109375 -222.179688 146.269531 -234.546875 138.59375 -243.921875 C 130.914062 -253.304688 121.675781 -258 110.875 -258 Z M 110.875 -258 "></path></g></g></g><g fill="#545454" fill-opacity="1"><g transform="translate(400.858822, 335.158632)"><g><path d="M 210.671875 -327.515625 L 18.765625 55.4375 L 0 55.4375 L -5.125 50.75 L 186.78125 -331.359375 L 206.828125 -331.359375 Z M 210.671875 -327.515625 "></path></g></g></g><g fill="#545454" fill-opacity="1"><g transform="translate(607.687341, 335.158632)"><g><path d="M 134.765625 -279.328125 C 154.097656 -279.328125 170.375 -275.203125 183.59375 -266.953125 C 196.8125 -258.710938 207.46875 -247.695312 215.5625 -233.90625 C 223.664062 -220.113281 229.566406 -204.898438 233.265625 -188.265625 C 236.960938 -171.640625 238.8125 -154.800781 238.8125 -137.75 C 238.8125 -120.6875 237.25 -103.765625 234.125 -86.984375 C 231 -70.210938 225.523438 -54.929688 217.703125 -41.140625 C 209.890625 -27.359375 199.226562 -16.273438 185.71875 -7.890625 C 172.21875 0.492188 155.234375 4.6875 134.765625 4.6875 C 114.285156 4.6875 97.148438 0.640625 83.359375 -7.453125 C 69.578125 -15.554688 58.632812 -26.429688 50.53125 -40.078125 C 42.425781 -53.734375 36.664062 -69.015625 33.25 -85.921875 C 29.84375 -102.835938 28.140625 -120.113281 28.140625 -137.75 C 28.140625 -155.375 30.054688 -172.644531 33.890625 -189.5625 C 37.734375 -206.476562 43.847656 -221.6875 52.234375 -235.1875 C 60.628906 -248.695312 71.648438 -259.429688 85.296875 -267.390625 C 98.941406 -275.347656 115.429688 -279.328125 134.765625 -279.328125 Z M 134.765625 -262.265625 C 123.953125 -262.265625 114.78125 -258.851562 107.25 -252.03125 C 99.71875 -245.207031 93.675781 -235.96875 89.125 -224.3125 C 84.582031 -212.65625 81.242188 -199.503906 79.109375 -184.859375 C 76.972656 -170.222656 75.90625 -155.085938 75.90625 -139.453125 C 75.90625 -123.816406 77.039062 -108.460938 79.3125 -93.390625 C 81.59375 -78.328125 85.078125 -64.679688 89.765625 -52.453125 C 94.460938 -40.222656 100.578125 -30.484375 108.109375 -23.234375 C 115.640625 -15.984375 124.523438 -12.359375 134.765625 -12.359375 C 144.992188 -12.359375 153.734375 -15.984375 160.984375 -23.234375 C 168.234375 -30.484375 174.128906 -40.148438 178.671875 -52.234375 C 183.222656 -64.316406 186.492188 -77.960938 188.484375 -93.171875 C 190.484375 -108.390625 191.484375 -123.816406 191.484375 -139.453125 C 191.484375 -155.367188 190.554688 -170.644531 188.703125 -185.28125 C 186.859375 -199.925781 183.734375 -213.003906 179.328125 -224.515625 C 174.921875 -236.035156 169.09375 -245.207031 161.84375 -252.03125 C 154.59375 -258.851562 145.566406 -262.265625 134.765625 -262.265625 Z M 134.765625 -262.265625 "></path></g></g></g><g fill="#545454" fill-opacity="1"><g transform="translate(875.071881, 335.158632)"><g><path d="M 138.59375 -114.71875 C 132.625 -111.019531 125.445312 -107.75 117.0625 -104.90625 C 108.675781 -102.0625 101.351562 -100.640625 95.09375 -100.640625 C 82.300781 -100.640625 70.144531 -104.191406 58.625 -111.296875 C 47.113281 -118.410156 37.734375 -128.363281 30.484375 -141.15625 C 23.234375 -153.945312 19.609375 -168.726562 19.609375 -185.5 C 19.609375 -201.707031 23.375 -216.988281 30.90625 -231.34375 C 38.445312 -245.707031 49.109375 -257.296875 62.890625 -266.109375 C 76.679688 -274.921875 92.816406 -279.328125 111.296875 -279.328125 C 129.785156 -279.328125 145.992188 -275.554688 159.921875 -268.015625 C 173.847656 -260.484375 184.71875 -249.539062 192.53125 -235.1875 C 200.351562 -220.832031 204.265625 -203.5625 204.265625 -183.375 C 204.265625 -164.039062 200.351562 -144.632812 192.53125 -125.15625 C 184.71875 -105.6875 174.269531 -87.28125 161.1875 -69.9375 C 148.113281 -52.59375 133.613281 -37.453125 117.6875 -24.515625 C 101.769531 -11.585938 85.566406 -1.851562 69.078125 4.6875 L 60.125 -11.09375 C 73.207031 -17.625 85.789062 -26.578125 97.875 -37.953125 C 109.957031 -49.328125 120.832031 -62.617188 130.5 -77.828125 C 140.164062 -93.035156 147.769531 -109.59375 153.3125 -127.5 C 158.851562 -145.414062 161.625 -163.898438 161.625 -182.953125 C 161.625 -205.972656 157.644531 -224.234375 149.6875 -237.734375 C 141.726562 -251.242188 128.929688 -258 111.296875 -258 C 99.640625 -258 90.257812 -254.375 83.15625 -247.125 C 76.050781 -239.875 70.863281 -230.5625 67.59375 -219.1875 C 64.320312 -207.820312 62.6875 -196.171875 62.6875 -184.234375 C 62.6875 -164.046875 66.59375 -148.691406 74.40625 -138.171875 C 82.226562 -127.648438 91.539062 -122.25 102.34375 -121.96875 C 107.175781 -121.96875 112.082031 -122.460938 117.0625 -123.453125 C 122.039062 -124.453125 127.367188 -126.226562 133.046875 -128.78125 Z M 138.59375 -114.71875 "></path></g></g></g><g fill="#545454" fill-opacity="1"><g transform="translate(1098.105557, 335.158632)"><g><path d="M 210.671875 -327.515625 L 18.765625 55.4375 L 0 55.4375 L -5.125 50.75 L 186.78125 -331.359375 L 206.828125 -331.359375 Z M 210.671875 -327.515625 "></path></g></g></g><g fill="#545454" fill-opacity="1"><g transform="translate(1304.934076, 335.158632)"><g><path d="M 110.875 -258 C 104.625 -258 98.085938 -257.144531 91.265625 -255.4375 C 84.441406 -253.738281 78.328125 -251.609375 72.921875 -249.046875 L 60.5625 -211.09375 L 43.921875 -214.5 L 43.921875 -263.125 C 55.578125 -268.8125 67.09375 -272.929688 78.46875 -275.484375 C 89.84375 -278.046875 101.070312 -279.328125 112.15625 -279.328125 C 130.632812 -279.328125 145.984375 -275.984375 158.203125 -269.296875 C 170.429688 -262.617188 179.53125 -253.804688 185.5 -242.859375 C 191.476562 -231.921875 194.46875 -220.050781 194.46875 -207.25 C 194.46875 -192.1875 191.476562 -178.613281 185.5 -166.53125 C 179.53125 -154.445312 171.710938 -143.425781 162.046875 -133.46875 C 152.378906 -123.519531 142.003906 -114.28125 130.921875 -105.75 C 119.835938 -97.226562 109.101562 -89.054688 98.71875 -81.234375 C 88.34375 -73.421875 79.53125 -65.53125 72.28125 -57.5625 C 65.03125 -49.601562 60.410156 -41.21875 58.421875 -32.40625 L 162.90625 -32.40625 L 172.71875 -63.109375 L 189.34375 -59.703125 L 189.34375 0 L 30.703125 0 L 30.703125 -16.203125 C 30.703125 -30.421875 33.546875 -43.144531 39.234375 -54.375 C 44.921875 -65.601562 52.3125 -76.050781 61.40625 -85.71875 C 70.507812 -95.382812 80.175781 -104.691406 90.40625 -113.640625 C 100.644531 -122.597656 110.3125 -131.769531 119.40625 -141.15625 C 128.5 -150.539062 135.890625 -160.5625 141.578125 -171.21875 C 147.265625 -181.882812 150.109375 -193.753906 150.109375 -206.828125 C 150.109375 -222.179688 146.269531 -234.546875 138.59375 -243.921875 C 130.914062 -253.304688 121.675781 -258 110.875 -258 Z M 110.875 -258 "></path></g></g></g><g fill="#545454" fill-opacity="1"><g transform="translate(1530.526418, 335.158632)"><g><path d="M 89.125 -162.046875 C 95.09375 -166.023438 102.269531 -169.363281 110.65625 -172.0625 C 119.050781 -174.769531 126.375 -176.125 132.625 -176.125 C 145.414062 -176.125 157.351562 -172.566406 168.4375 -165.453125 C 179.53125 -158.347656 188.488281 -148.46875 195.3125 -135.8125 C 202.132812 -123.164062 205.546875 -108.457031 205.546875 -91.6875 C 205.546875 -75.476562 201.78125 -60.050781 194.25 -45.40625 C 186.71875 -30.769531 176.128906 -18.757812 162.484375 -9.375 C 148.835938 0 132.628906 4.6875 113.859375 4.6875 C 95.660156 4.6875 79.523438 0.0664062 65.453125 -9.171875 C 51.378906 -18.410156 40.363281 -30.988281 32.40625 -46.90625 C 24.445312 -62.832031 20.46875 -80.882812 20.46875 -101.0625 C 20.46875 -125.800781 24.585938 -148.050781 32.828125 -167.8125 C 41.078125 -187.570312 52.164062 -204.769531 66.09375 -219.40625 C 80.03125 -234.050781 95.671875 -246.347656 113.015625 -256.296875 C 130.359375 -266.242188 147.984375 -273.921875 165.890625 -279.328125 L 174.84375 -262.6875 C 162.050781 -256.4375 149.113281 -249.1875 136.03125 -240.9375 C 122.957031 -232.695312 110.945312 -222.601562 100 -210.65625 C 89.050781 -198.71875 80.238281 -183.863281 73.5625 -166.09375 C 66.882812 -148.332031 63.546875 -126.800781 63.546875 -101.5 C 63.546875 -86.144531 65.320312 -72 68.875 -59.0625 C 72.425781 -46.125 77.894531 -35.816406 85.28125 -28.140625 C 92.675781 -20.460938 102.203125 -16.625 113.859375 -16.625 C 125.515625 -16.625 134.894531 -20.460938 142 -28.140625 C 149.113281 -35.816406 154.304688 -45.554688 157.578125 -57.359375 C 160.847656 -69.160156 162.484375 -80.890625 162.484375 -92.546875 C 162.484375 -113.015625 159 -128.503906 152.03125 -139.015625 C 145.0625 -149.535156 136.175781 -154.796875 125.375 -154.796875 C 120.539062 -154.796875 115.632812 -154.296875 110.65625 -153.296875 C 105.6875 -152.304688 100.359375 -150.535156 94.671875 -147.984375 Z M 89.125 -162.046875 "></path></g></g></g></g></g></svg> 